<svg width="24" height="24" viewBox="0 0 24 24" fill="none" xmlns="http://www.w3.org/2000/svg">
<path d="M17.5 1H6.5C3.46243 1 1 3.46243 1 6.5V17.5C1 20.5376 3.46243 23 6.5 23H17.5C20.5376 23 23 20.5376 23 17.5V6.5C23 3.46243 20.5376 1 17.5 1Z" stroke="white" stroke-width="2" stroke-linecap="round" stroke-linejoin="round"/>
<path d="M16.3999 11.3093C16.5356 12.2248 16.3793 13.1597 15.953 13.9812C15.5268 14.8027 14.8523 15.4688 14.0257 15.8849C13.199 16.301 12.2622 16.4458 11.3484 16.2988C10.4347 16.1518 9.59061 15.7204 8.9362 15.066C8.28178 14.4115 7.85038 13.5674 7.70335 12.6537C7.55632 11.74 7.70114 10.8032 8.11723 9.9765C8.53332 9.14982 9.19948 8.4754 10.021 8.04915C10.8424 7.6229 11.7774 7.46653 12.6929 7.60228C13.6267 7.74076 14.4912 8.17589 15.1587 8.84342C15.8263 9.51095 16.2614 10.3755 16.3999 11.3093Z" stroke="white" stroke-width="2" stroke-linecap="round" stroke-linejoin="round"/>
<path d="M18.0499 5.94922H18.0616" stroke="white" stroke-width="2" stroke-linecap="round" stroke-linejoin="round"/>
</svg>
