<svg width="24" height="24" viewBox="0 0 24 24" fill="none" xmlns="http://www.w3.org/2000/svg">
<path d="M23.0478 17.4465V20.7723C23.049 21.081 22.9858 21.3866 22.8621 21.6695C22.7384 21.9524 22.557 22.2063 22.3295 22.4151C22.102 22.6238 21.8334 22.7827 21.5409 22.8816C21.2484 22.9805 20.9385 23.0173 20.631 22.9895C17.2197 22.6188 13.9429 21.4531 11.0639 19.5861C8.38536 17.884 6.11443 15.6131 4.41237 12.9346C2.53883 10.0425 1.37288 6.74973 1.009 3.32308C0.981295 3.01652 1.01773 2.70755 1.11598 2.41584C1.21423 2.12413 1.37214 1.85607 1.57966 1.62874C1.78719 1.4014 2.03977 1.21977 2.32134 1.0954C2.6029 0.971027 2.90728 0.906647 3.21509 0.906357H6.54086C7.07887 0.901062 7.60044 1.09158 8.00837 1.4424C8.4163 1.79321 8.68274 2.2804 8.75804 2.81313C8.89841 3.87745 9.15874 4.92248 9.53405 5.92827C9.68321 6.32506 9.71549 6.75629 9.62707 7.17086C9.53866 7.58544 9.33325 7.96598 9.03519 8.26739L7.62728 9.6753C9.20542 12.4507 11.5034 14.7487 14.2788 16.3268L15.6867 14.9189C15.9881 14.6209 16.3687 14.4155 16.7833 14.327C17.1978 14.2386 17.6291 14.2709 18.0259 14.4201C19.0316 14.7954 20.0767 15.0557 21.141 15.1961C21.6795 15.2721 22.1713 15.5433 22.5229 15.9582C22.8745 16.3732 23.0613 16.9028 23.0478 17.4465Z" stroke="white" stroke-width="1.66288" stroke-linecap="round" stroke-linejoin="round"/>
</svg>
