<?xml version="1.0" standalone="no"?>
<!DOCTYPE svg PUBLIC "-//W3C//DTD SVG 1.1//EN" "http://www.w3.org/Graphics/SVG/1.1/DTD/svg11.dtd" >
<svg xmlns="http://www.w3.org/2000/svg" xmlns:xlink="http://www.w3.org/1999/xlink" version="1.1">
<metadata>
Created by FontForge 20170731 at Sun Nov  6 16:45:34 2022
 By Aleksey,,,
Copyright (c) 2019 by Dmitry Rastvortsev. Ordered by Projector, Dmytro Bulanov Creative Bu:ro and Banda Agency for Kyiv city identification. Long live Free Ukraine!
</metadata>
<defs>
<font id="KyivTypeSans-Regular2" horiz-adv-x="1433" >
  <font-face 
    font-family="KyivType Sans2"
    font-weight="400"
    font-stretch="normal"
    units-per-em="2048"
    panose-1="0 0 5 0 0 0 0 0 0 0"
    ascent="1638"
    descent="-410"
    x-height="1024"
    cap-height="1434"
    bbox="-999 -502 2382 2103"
    underline-thickness="102"
    underline-position="-307"
    unicode-range="U+000D-2605"
  />
<missing-glyph horiz-adv-x="2179" 
d="M995 -82l45 512l-397 -354l-350 104l98 352h608l-753 232v354l327 84l451 -538l-258 722l324 273l323 -273l-258 -722l451 538l327 -84v-354l-753 -232h608l98 -352l-350 -104l-397 354l45 -512h-189z" />
    <glyph glyph-name=".notdef" horiz-adv-x="2179" 
d="M995 -82l45 512l-397 -354l-350 104l98 352h608l-753 232v354l327 84l451 -538l-258 722l324 273l323 -273l-258 -722l451 538l327 -84v-354l-753 -232h608l98 -352l-350 -104l-397 354l45 -512h-189z" />
    <glyph glyph-name=".null" horiz-adv-x="1013" 
 />
    <glyph glyph-name="nonmarkingreturn" horiz-adv-x="682" 
 />
    <glyph glyph-name="CR" unicode="&#xd;" horiz-adv-x="512" 
 />
    <glyph glyph-name="space" unicode=" " horiz-adv-x="512" 
 />
    <glyph glyph-name="exclam" unicode="!" horiz-adv-x="618" 
d="M264 440l-57 994h199l-56 -994h-86zM309 -16q-52 0 -87.5 36t-35.5 89q0 52 35 87t88 35t88 -35t35 -87q0 -53 -35.5 -89t-87.5 -36z" />
    <glyph glyph-name="quotedbl" unicode="&#x22;" horiz-adv-x="688" 
d="M176 1034l-88 414h199l-90 -414h-21zM492 1034l-89 414h197l-88 -414h-20z" />
    <glyph glyph-name="numbersign" unicode="#" 
d="M451 -31v369h-287v160h287v440h-287v158h287v368h94v-368h344v368h94v-368h289v-158h-289v-440h289v-160h-289v-369h-94v369h-344v-369h-94zM545 498h344v440h-344v-440z" />
    <glyph glyph-name="dollar" unicode="$" 
d="M705 -266v237q-236 12 -388.5 145.5t-177.5 352.5h111q28 -186 161 -293.5t337 -107.5q182 0 286.5 71t104.5 201q0 38 -8.5 70t-27 57.5t-39.5 45.5t-55 37t-63 29.5t-74.5 24.5t-78.5 20t-86 19q-53 12 -83 19t-81.5 21.5t-82 26.5t-73.5 31.5t-69.5 40t-56 49
t-45.5 60.5t-27 73.5t-11 88.5q0 185 140 295t366 116v236h84v-238q220 -12 360.5 -140t161.5 -345h-112q-25 182 -146 284.5t-311 102.5q-165 0 -272 -73t-107 -201q0 -133 136 -202q75 -38 264 -81h1l1 -1h1h1h1h1l1 -1h1h1h1l1 -1h1h1h2l1 -1h1h1h1l1 -1h1h1h1h1l1 -1h1
q73 -16 115 -26.5t107 -31t104 -40.5t85 -52t70.5 -69.5t42 -90t17.5 -114.5q0 -188 -142 -294.5t-379 -111.5v-237h-83z" />
    <glyph glyph-name="percent" unicode="%" horiz-adv-x="1562" 
d="M412 772q-141 0 -238.5 97.5t-97.5 238.5q0 142 97.5 239t238.5 97q143 0 240.5 -97t97.5 -239q0 -141 -98 -238.5t-240 -97.5zM311 0l844 1434h96l-843 -1434h-97zM412 856q95 0 158 71.5t63 180.5q0 110 -62.5 181t-158.5 71t-159 -71t-63 -181q0 -109 63.5 -180.5
t158.5 -71.5zM1151 -10q-141 0 -238.5 98t-97.5 240q0 141 97.5 238.5t238.5 97.5q142 0 240 -97.5t98 -238.5q0 -142 -97.5 -240t-240.5 -98zM1151 74q95 0 158 72t63 182q0 109 -63 180.5t-158 71.5t-158 -71.5t-63 -180.5q0 -110 63 -182t158 -72z" />
    <glyph glyph-name="ampersand" unicode="&#x26;" horiz-adv-x="1468" 
d="M588 -31q-236 0 -378 121t-142 320q0 181 125.5 293.5t338.5 123.5h11l-391 502v105h1013v-103h-805l748 -948q94 163 115 389h108q-24 -287 -149 -477l227 -295h-213l-133 168q-190 -199 -475 -199zM610 70q237 0 387 174l-389 506h-39q-153 -6 -245.5 -96t-92.5 -230
q0 -158 101.5 -256t277.5 -98z" />
    <glyph glyph-name="quotesingle" unicode="'" horiz-adv-x="372" 
d="M176 1034l-88 414h199l-90 -414h-21z" />
    <glyph glyph-name="parenleft" unicode="(" horiz-adv-x="1024" 
d="M778 -236q-165 0 -292.5 119.5t-197 336t-69.5 497.5q0 282 69.5 498.5t197 335t292.5 118.5v-92q-184 0 -293.5 -233.5t-109.5 -626.5t109.5 -626.5t293.5 -233.5v-93z" />
    <glyph glyph-name="parenright" unicode=")" horiz-adv-x="1024" 
d="M246 1669q165 0 292.5 -118.5t197 -335t69.5 -498.5q0 -281 -69.5 -497.5t-197 -336t-292.5 -119.5v93q184 0 293.5 233.5t109.5 626.5t-109.5 626.5t-293.5 233.5v92z" />
    <glyph glyph-name="asterisk" unicode="*" horiz-adv-x="798" 
d="M360 930l19 205l-158 -142l-141 41l39 142h243l-301 92v141l132 35l180 -215l-103 289l129 108l129 -108l-102 -289l180 215l131 -35v-141l-303 -92h244l39 -142l-139 -41l-160 142l18 -205h-76z" />
    <glyph glyph-name="plus" unicode="+" horiz-adv-x="1146" 
d="M991 764v-94h-370v-369h-95v369h-368v94h368v371h95v-371h370z" />
    <glyph glyph-name="comma" unicode="," horiz-adv-x="536" 
d="M254 -225h-88v4q110 106 127 227q-16 -16 -39 -16q-49 7 -79 40.5t-30 78.5q0 51 34.5 86.5t88.5 35.5t89.5 -36t35.5 -97q0 -81 -42.5 -179t-96.5 -144z" />
    <glyph glyph-name="hyphen" unicode="-" horiz-adv-x="827" 
d="M158 561v109h512v-109h-512z" />
    <glyph glyph-name="period" unicode="." horiz-adv-x="536" 
d="M268 -16q-52 0 -87.5 36t-35.5 89q0 52 35 87t88 35t88 -35t35 -87q0 -53 -35.5 -89t-87.5 -36z" />
    <glyph glyph-name="slash" unicode="/" horiz-adv-x="962" 
d="M86 0l692 1434h99l-693 -1434h-98z" />
    <glyph glyph-name="zero" unicode="0" horiz-adv-x="1462" 
d="M731 -31q-177 0 -317.5 96t-219.5 267t-79 385t79 385t219.5 266.5t317.5 95.5q133 0 248 -56t196.5 -154.5t128 -237t46.5 -299.5q0 -214 -79 -385t-220.5 -267t-319.5 -96zM731 70q128 0 228 82t156 229.5t56 335.5q0 287 -123 467t-317 180t-317 -180t-123 -467
q0 -188 56 -335.5t156 -229.5t228 -82z" />
    <glyph glyph-name="one" unicode="1" horiz-adv-x="811" 
d="M377 0v1270l-330 -215v121l387 258h117v-1434h-174z" />
    <glyph glyph-name="two" unicode="2" horiz-adv-x="1271" 
d="M96 0v94l592 406q136 95 207 196q-112 -101 -293 -98q-233 6 -378.5 126.5t-145.5 301.5q0 189 156 313.5t405 124.5q246 0 404.5 -123.5t158.5 -316.5q0 -289 -416 -565l-442 -301h891v-158h-1139zM639 674q175 0 283 94.5t108 241.5q0 163 -109 261.5t-282 98.5
q-171 0 -280 -97.5t-109 -252.5q0 -152 109.5 -249t279.5 -97z" />
    <glyph glyph-name="three" unicode="3" horiz-adv-x="1177" 
d="M575 -29q-231 0 -380.5 128t-155.5 327h108q6 -154 120.5 -251t287.5 -97q175 0 284 102t109 258q0 147 -86.5 239.5t-228.5 92.5q-61 0 -120 -17.5t-99 -47.5l-23 -17l-59 72l565 516h-821v158h1026v-103l-567 -522q82 39 172 39q185 -8 300 -121t115 -293
q0 -202 -151.5 -332.5t-395.5 -130.5z" />
    <glyph glyph-name="four" unicode="4" horiz-adv-x="1306" 
d="M829 0v371h-802v94l790 969h182v-920h299v-143h-299v-371h-170zM178 514h651v784z" />
    <glyph glyph-name="five" unicode="5" horiz-adv-x="1265" 
d="M625 -29q-232 0 -382 117.5t-165 308.5h110q14 -141 126.5 -229t281.5 -88q184 0 297 109.5t113 283.5q0 163 -108.5 267t-283.5 104q-134 0 -235.5 -55.5t-142.5 -151.5l-105 2l115 795h874v-154h-792l-78 -508q64 76 169 118t236 42q232 0 379.5 -126.5t147.5 -336.5
q0 -220 -155.5 -359t-401.5 -139z" />
    <glyph glyph-name="six" unicode="6" horiz-adv-x="1386" 
d="M727 -31q-182 0 -321.5 96.5t-214 266t-74.5 385.5q0 218 76 387.5t217.5 264.5t328.5 95q204 0 345 -108.5t167 -280.5h-116q-23 125 -128 203t-255 78q-208 0 -336.5 -162.5t-128.5 -458.5q0 -63 6 -125q41 149 171 236.5t310 87.5q225 0 372.5 -135.5t147.5 -345.5
q0 -97 -41.5 -185t-114.5 -154.5t-180 -105.5t-231 -39zM725 66q165 0 279 112.5t114 274.5q0 168 -109 277.5t-280 109.5q-169 0 -282.5 -101.5t-116.5 -249.5q0 -100 48 -196.5t140.5 -161.5t206.5 -65z" />
    <glyph glyph-name="seven" unicode="7" horiz-adv-x="1187" 
d="M393 0q37 342 212.5 687.5t410.5 586.5h-983v160h1134v-103q-234 -245 -399 -604.5t-195 -726.5h-180z" />
    <glyph glyph-name="eight" unicode="8" horiz-adv-x="1394" 
d="M698 -31q-257 0 -422 113.5t-165 288.5q0 131 96.5 226.5t269.5 135.5q-150 35 -241 128.5t-91 211.5q0 169 155 277t398 108q159 0 285.5 -49t197 -137t70.5 -199q0 -118 -91.5 -211.5t-241.5 -128.5q173 -40 269.5 -135.5t96.5 -226.5q0 -175 -165 -288.5t-421 -113.5z
M698 772q169 0 278 84.5t109 214.5t-109 213.5t-278 83.5q-172 0 -280.5 -83t-108.5 -214t109 -215t280 -84zM698 61q180 0 295 88t115 226q0 137 -115 225t-295 88t-295.5 -88t-115.5 -225q0 -138 115.5 -226t295.5 -88z" />
    <glyph glyph-name="nine" unicode="9" horiz-adv-x="1386" 
d="M659 1464q182 0 322.5 -96t215.5 -265.5t75 -385.5q0 -218 -76.5 -387.5t-219 -265t-329.5 -95.5q-203 0 -344 109t-168 280h117q23 -125 128 -202.5t255 -77.5q208 0 337.5 162t129.5 458q0 43 -8 125q-41 -148 -171.5 -235.5t-310.5 -87.5q-225 0 -372.5 135.5
t-147.5 345.5q0 97 41.5 185t114.5 154t180 105t231 39zM662 1368q-165 0 -279.5 -112.5t-114.5 -274.5q0 -168 109 -277.5t280 -109.5q169 0 283 101t117 249q0 101 -48 197t-140.5 161.5t-206.5 65.5z" />
    <glyph glyph-name="colon" unicode=":" horiz-adv-x="536" 
d="M268 717q-52 0 -87.5 36t-35.5 89q0 52 35.5 87.5t87.5 35.5t87.5 -35.5t35.5 -87.5q0 -53 -35.5 -89t-87.5 -36zM268 -16q-52 0 -87.5 36t-35.5 89q0 52 35 87t88 35t88 -35t35 -87q0 -53 -35.5 -89t-87.5 -36z" />
    <glyph glyph-name="semicolon" unicode=";" horiz-adv-x="536" 
d="M268 717q-52 0 -87.5 36t-35.5 89q0 52 35.5 87.5t87.5 35.5t87.5 -35.5t35.5 -87.5q0 -53 -35.5 -89t-87.5 -36zM254 -225h-88v4q110 106 127 227q-16 -16 -39 -16q-49 7 -79 40.5t-30 78.5q0 51 34.5 86.5t88.5 35.5t89.5 -36t35.5 -97q0 -81 -42.5 -179t-96.5 -144z
" />
    <glyph glyph-name="less" unicode="&#x3c;" horiz-adv-x="1146" 
d="M991 1147v-103l-692 -325l692 -324v-106l-833 391v74z" />
    <glyph glyph-name="equal" unicode="=" horiz-adv-x="1146" 
d="M158 868v95h833v-95h-833zM158 471v94h833v-94h-833z" />
    <glyph glyph-name="greater" unicode="&#x3e;" horiz-adv-x="1146" 
d="M158 289v102l690 324l-690 325v107l833 -393v-74z" />
    <glyph glyph-name="question" unicode="?" horiz-adv-x="1140" 
d="M489 438q-6 21 -6 39q0 63 15.5 114.5t46.5 91.5t63.5 68.5t79.5 61.5q54 45 84.5 76.5t55 85t24.5 117.5q0 127 -85.5 197.5t-219.5 70.5q-163 0 -253.5 -103.5t-90.5 -271.5h-109q0 218 129 348.5t350 130.5q124 0 226.5 -40t167.5 -125t65 -201q0 -62 -18 -113.5
t-51.5 -90t-67 -65.5t-78.5 -53q-62 -43 -97.5 -72t-70.5 -70t-50 -88.5t-15 -107.5h-95zM555 -16q-53 0 -88 36t-35 89t34.5 87.5t88.5 34.5q51 0 87 -35t36 -87t-36 -88.5t-87 -36.5z" />
    <glyph glyph-name="at" unicode="@" horiz-adv-x="1679" 
d="M840 -342q-208 0 -379.5 98.5t-270 270t-98.5 379.5t98.5 379.5t270 269.5t379.5 98q156 0 294.5 -58t237.5 -157t157 -237.5t58 -294.5q0 -230 -114 -406h-392v201q-44 -102 -142.5 -160.5t-223.5 -58.5q-127 0 -201 59t-74 156q0 119 103 181t331 75q113 9 158 32.5
t45 73.5q0 90 -66 148.5t-171 58.5q-108 0 -181 -60t-92 -167h-86q20 144 120 226.5t251 82.5q161 0 259.5 -91t98.5 -245v-430h232q82 149 82 324q0 143 -53 270t-143.5 217.5t-217.5 143.5t-270 53q-142 0 -268.5 -53t-217 -143.5t-143.5 -217.5t-53 -270
q0 -142 53 -268.5t143.5 -217t217 -143.5t268.5 -53q282 0 479 184l43 -45q-101 -99 -234.5 -152t-287.5 -53zM758 61q132 0 226.5 92.5t94.5 221.5v74q-64 -43 -198 -54q-155 -12 -228 -56.5t-73 -127.5q0 -71 47 -110.5t131 -39.5z" />
    <glyph glyph-name="A" unicode="A" horiz-adv-x="1423" 
d="M31 0l585 1434h191l584 -1434h-197l-174 430h-696l-177 -430h-116zM354 524h633l-313 764h-6z" />
    <glyph glyph-name="B" unicode="B" horiz-adv-x="1462" 
d="M246 0v1434h538q239 0 374.5 -99t135.5 -272q0 -123 -72 -209t-204 -123v-8q160 -31 246 -121t86 -225q0 -173 -138 -275t-381 -102h-585zM426 764h356q161 0 249.5 76t88.5 211q0 136 -89.5 211t-252.5 75h-352v-573zM426 96h391q166 0 258 76t92 213q0 135 -93.5 211
t-258.5 76h-389v-576z" />
    <glyph glyph-name="C" unicode="C" horiz-adv-x="1642" 
d="M858 -31q-159 0 -295 55.5t-232 153.5t-150 237t-54 302q0 217 92.5 387.5t259 265t379.5 94.5q270 0 457 -161t219 -422h-115q-32 208 -178.5 335t-357.5 127q-253 0 -411.5 -173.5t-158.5 -452.5q0 -278 159.5 -452.5t410.5 -174.5q211 0 357.5 127.5t178.5 337.5h115
q-32 -261 -219 -423.5t-457 -162.5z" />
    <glyph glyph-name="D" unicode="D" horiz-adv-x="1585" 
d="M246 0v1434h436q349 0 563.5 -198.5t214.5 -518.5t-214.5 -518.5t-563.5 -198.5h-436zM430 104h256q268 0 426 165t158 448q0 285 -158 449.5t-426 164.5h-256v-1227z" />
    <glyph glyph-name="E" unicode="E" horiz-adv-x="1241" 
d="M246 0v1434h846v-101h-664v-567h479v-96h-479v-568h752v-102h-934z" />
    <glyph glyph-name="F" unicode="F" horiz-adv-x="1140" 
d="M246 0v1434h876v-107h-692v-569h510v-103h-510v-655h-184z" />
    <glyph glyph-name="G" unicode="G" horiz-adv-x="1703" 
d="M831 -31q-153 0 -283.5 55.5t-223 153t-145 236.5t-52.5 301q0 218 93 389t258.5 265.5t375.5 94.5q263 0 443 -145.5t225 -386.5h-117q-42 191 -181 303.5t-341 112.5q-252 0 -411 -176t-159 -457q0 -280 158.5 -457.5t402.5 -177.5q212 0 351 138.5t147 354.5v78h-481
v94h663v-745h-165v328q-64 -167 -210.5 -263t-347.5 -96z" />
    <glyph glyph-name="H" unicode="H" horiz-adv-x="1679" 
d="M246 0v1434h184v-662h819v662h185v-1434h-185v662h-819v-662h-184z" />
    <glyph glyph-name="I" unicode="I" horiz-adv-x="675" 
d="M246 0v1434h184v-1434h-184z" />
    <glyph glyph-name="J" unicode="J" horiz-adv-x="1277" 
d="M571 -31q-224 0 -361.5 142.5t-137.5 382.5v88h110v-82q0 -183 99 -294.5t258 -111.5q155 0 246.5 107t91.5 286v947h184v-934q0 -244 -133.5 -387.5t-356.5 -143.5z" />
    <glyph glyph-name="K" unicode="K" horiz-adv-x="1447" 
d="M246 0v1434h184v-662h225l553 662h129l-536 -652l592 -782h-222l-514 662h-227v-662h-184z" />
    <glyph glyph-name="L" unicode="L" horiz-adv-x="1226" 
d="M246 0v1434h184v-1323h733v-111h-917z" />
    <glyph glyph-name="M" unicode="M" horiz-adv-x="2021" 
d="M246 0v1434h248l522 -1209l520 1209h242v-1434h-185v1300l-553 -1300h-129l-553 1296v-1296h-112z" />
    <glyph glyph-name="N" unicode="N" horiz-adv-x="1677" 
d="M244 0v1434h190l893 -1174v1174h107v-1448h-121l-961 1255v-1241h-108z" />
    <glyph glyph-name="O" unicode="O" horiz-adv-x="1736" 
d="M868 -31q-210 0 -379.5 96.5t-265.5 268t-96 383.5t96 383t265.5 267.5t379.5 96.5q158 0 296.5 -56.5t236.5 -155t154.5 -237.5t56.5 -298t-56.5 -298t-154.5 -237.5t-236.5 -155.5t-296.5 -57zM868 80q244 0 399.5 176.5t155.5 460.5q0 285 -155 461t-400 176
t-400 -176t-155 -461q0 -284 155.5 -460.5t399.5 -176.5z" />
    <glyph glyph-name="P" unicode="P" horiz-adv-x="1345" 
d="M246 0v1434h444q262 0 408.5 -112.5t146.5 -311.5q0 -197 -147 -310.5t-408 -113.5h-260v-586h-184zM430 682h260q175 0 273 86t98 240q0 152 -98 238.5t-273 86.5h-260v-651z" />
    <glyph glyph-name="Q" unicode="Q" horiz-adv-x="1736" 
d="M776 -410v390q-187 19 -334.5 118t-231 261t-83.5 358q0 212 96 383t265.5 267.5t379.5 96.5q158 0 296.5 -56.5t236.5 -155t154.5 -237.5t56.5 -298q0 -197 -83.5 -358.5t-231.5 -260.5t-336 -118v-390h-185zM868 80q244 0 399.5 176.5t155.5 460.5q0 285 -155 461
t-400 176t-400 -176t-155 -461q0 -284 155.5 -460.5t399.5 -176.5z" />
    <glyph glyph-name="R" unicode="R" horiz-adv-x="1427" 
d="M246 0v1434h454q258 0 406.5 -111.5t148.5 -306.5q0 -149 -93.5 -249t-258.5 -136l490 -631h-213l-471 600q-12 -2 -43 -2h-236v-598h-184zM430 694h270q178 0 277.5 85t99.5 233q0 151 -99.5 235t-277.5 84h-270v-637z" />
    <glyph glyph-name="S" unicode="S" horiz-adv-x="1341" 
d="M694 -31q-258 0 -425.5 134t-192.5 366h110q28 -186 162 -293.5t338 -107.5q183 0 288 71t105 201q0 43 -13 79t-32 62t-54 49t-66.5 37.5t-83 30t-89 24t-98.5 21.5q-81 18 -126.5 30t-118 36t-114.5 52t-86.5 68.5t-64.5 97t-20 126.5q0 131 74 225.5t194 140t270 45.5
q241 0 400 -129t182 -358h-117q-25 182 -147 284.5t-312 102.5q-165 0 -270.5 -73t-105.5 -201q0 -40 12.5 -74t30.5 -58t53 -46t63.5 -35.5t79.5 -28.5t84.5 -23t93.5 -22q6 -1 9 -2q56 -12 90 -20t86 -22.5t84.5 -27t75.5 -33t70 -41.5t56 -50.5t45 -62.5t26.5 -75.5
t10.5 -91.5q0 -195 -151.5 -301.5t-405.5 -106.5z" />
    <glyph glyph-name="T" unicode="T" horiz-adv-x="1339" 
d="M578 0v1323h-539v111h1264v-111h-541v-1323h-184z" />
    <glyph glyph-name="U" unicode="U" horiz-adv-x="1632" 
d="M823 -31q-278 0 -443 171.5t-165 459.5v834h184v-830q0 -244 121.5 -379t335.5 -135q210 0 334.5 140.5t124.5 377.5v826h112v-830q0 -290 -163.5 -462.5t-440.5 -172.5z" />
    <glyph glyph-name="V" unicode="V" horiz-adv-x="1449" 
d="M629 0l-582 1434h197l520 -1280h6l518 1280h119l-584 -1434h-194z" />
    <glyph glyph-name="W" unicode="W" horiz-adv-x="2099" 
d="M498 0l-428 1434h192l377 -1252l367 1252h161l375 -1252l379 1252h113l-426 -1434h-193l-366 1229l-359 -1229h-192z" />
    <glyph glyph-name="X" unicode="X" horiz-adv-x="1404" 
d="M45 0l549 717l-535 717h217l451 -592l461 592h133l-518 -668l565 -766h-217l-479 637l-494 -637h-133z" />
    <glyph glyph-name="Y" unicode="Y" horiz-adv-x="1366" 
d="M592 0v555l-582 879h207l506 -772l508 772h127l-582 -881v-553h-184z" />
    <glyph glyph-name="Z" unicode="Z" horiz-adv-x="1304" 
d="M88 0v96l903 1233h-860v105h1086v-95l-904 -1233h906v-106h-1131z" />
    <glyph glyph-name="bracketleft" unicode="[" horiz-adv-x="1024" 
d="M299 -205v1843h528v-94h-378v-1655h378v-94h-528z" />
    <glyph glyph-name="backslash" unicode="\" horiz-adv-x="962" 
d="M778 0l-692 1434h98l693 -1434h-99z" />
    <glyph glyph-name="bracketright" unicode="]" horiz-adv-x="1024" 
d="M725 1638v-1843h-528v94h381v1655h-381v94h528z" />
    <glyph glyph-name="asciicircum" unicode="^" horiz-adv-x="1146" 
d="M180 819l355 615h79l353 -615h-105l-289 500l-288 -500h-105z" />
    <glyph glyph-name="underscore" unicode="_" horiz-adv-x="929" 
d="M61 -86v94h807v-94h-807z" />
    <glyph glyph-name="a" unicode="a" horiz-adv-x="1232" 
d="M424 -23q-161 0 -247.5 73.5t-86.5 195.5q0 67 29 119t75.5 85t115 56t135.5 34t149 17q90 6 147 18t93 37.5t36 65.5q0 123 -82.5 198.5t-212.5 75.5q-133 0 -222.5 -77.5t-112.5 -212.5h-97q26 178 148 280t307 102q194 0 311 -111.5t117 -301.5v-537h141v-94h-288v248
q-55 -126 -177.5 -198.5t-277.5 -72.5zM473 72q167 0 282 112.5t115 276.5l2 98q-52 -46 -239 -63q-198 -19 -287.5 -75.5t-89.5 -160.5q0 -92 58 -140t159 -48z" />
    <glyph glyph-name="b" unicode="b" horiz-adv-x="1357" 
d="M764 -20q-143 0 -250.5 71.5t-159.5 196.5v-248h-157v1454h163v-672q52 122 158 192t246 70q212 0 354 -151t142 -381q0 -229 -142 -380.5t-354 -151.5zM729 82q157 0 261 119.5t104 310.5q0 192 -103.5 311t-261.5 119q-160 0 -267.5 -123.5t-107.5 -306.5
q0 -182 108 -306t267 -124z" />
    <glyph glyph-name="c" unicode="c" horiz-adv-x="1220" 
d="M635 -20q-233 0 -385 151.5t-152 380.5q0 230 152 381t385 151q203 0 337 -108.5t165 -294.5h-103q-29 139 -129.5 221t-245.5 82q-175 0 -285 -120.5t-110 -311.5q0 -190 110.5 -311t284.5 -121q145 0 245.5 82t129.5 221h103q-31 -185 -165.5 -294t-336.5 -109z" />
    <glyph glyph-name="d" unicode="d" horiz-adv-x="1357" 
d="M596 -20q-213 0 -355.5 151.5t-142.5 380.5q0 231 142.5 381.5t355.5 150.5q140 0 245.5 -70t155.5 -192v672h164v-1454h-155v248q-53 -125 -160 -196.5t-250 -71.5zM629 82q159 0 267 124t108 306q0 183 -107.5 306.5t-267.5 123.5q-156 0 -259.5 -119t-103.5 -311
q0 -191 103.5 -310.5t259.5 -119.5z" />
    <glyph glyph-name="e" unicode="e" horiz-adv-x="1253" 
d="M637 -20q-152 0 -275.5 68.5t-193.5 190t-70 271.5q0 231 154.5 382.5t388.5 151.5q230 0 380.5 -150.5t152.5 -379.5q0 -20 -3 -35h-909q9 -182 119 -293.5t278 -111.5q130 0 228.5 62t136.5 167h104q-41 -144 -173 -233.5t-318 -89.5zM1012 549q-9 185 -113 297
t-262 112q-157 0 -262.5 -113t-112.5 -290v-6h750z" />
    <glyph glyph-name="f" unicode="f" horiz-adv-x="901" 
d="M293 0v930h-207v94h207v117q0 174 104.5 274.5t284.5 100.5q157 0 256.5 -85t99.5 -221h-96v4q-1 95 -73 154t-183 59q-120 0 -193 -63.5t-73 -185.5q0 -24 3 -47.5t8.5 -56t8.5 -50.5h449v-94h-440q6 -18 6 -56v-874h-162z" />
    <glyph glyph-name="g" unicode="g" horiz-adv-x="1370" 
d="M731 -430q-275 0 -432.5 86t-157.5 235q0 108 89.5 184t248.5 105q-101 11 -175 28t-140.5 46.5t-101.5 77.5t-35 114q0 57 40.5 99.5t104.5 46.5q42 0 76 -12q-37 55 -37 131q0 139 119 226.5t327 102.5v250h158v-250q217 -9 344 -98t127 -231q0 -153 -145.5 -242.5
t-390.5 -89.5q-103 0 -181 15.5t-122.5 37.5t-79.5 44.5t-72.5 38t-79.5 15.5q-40 0 -65 -24t-25 -57q0 -39 19.5 -70t51 -52t81.5 -37.5t101 -26t120.5 -17t128 -11.5t134.5 -8h3q128 -6 225.5 -25.5t175 -57t118 -99.5t40.5 -147q0 -152 -159 -240t-433 -88zM750 453
q170 0 271 70t101 188q0 120 -100 190t-272 70q-173 0 -274 -70t-101 -190q0 -119 99.5 -188.5t275.5 -69.5zM731 -348q195 0 309.5 68t114.5 182q0 125 -108.5 190.5t-315.5 65.5q-194 0 -308 -69t-114 -187q0 -114 114.5 -182t307.5 -68z" />
    <glyph glyph-name="h" unicode="h" horiz-adv-x="1351" 
d="M197 0v1454h163v-659q50 116 148 182.5t225 66.5q207 0 325 -129.5t118 -359.5v-555h-164v543q0 188 -85.5 292.5t-236.5 104.5q-141 0 -235.5 -114.5t-94.5 -286.5v-539h-163z" />
    <glyph glyph-name="i" unicode="i" horiz-adv-x="557" 
d="M268 1169l-92 357h205l-92 -357h-21zM197 0v1024h163v-1024h-163z" />
    <glyph glyph-name="j" unicode="j" horiz-adv-x="616" 
d="M336 1169l-92 357h205l-93 -357h-20zM63 -430q-143 0 -239 75t-96 187h96v-2q0 -74 69 -124t166 -50q105 0 172.5 59.5t67.5 175.5q0 48 -17.5 161t-17.5 192v780h162v-1077q0 -179 -96.5 -278t-266.5 -99z" />
    <glyph glyph-name="k" unicode="k" horiz-adv-x="1142" 
d="M197 0v1454h163v-893h170l414 463h115l-406 -457l447 -567h-193l-381 465h-166v-465h-163z" />
    <glyph glyph-name="l" unicode="l" horiz-adv-x="557" 
d="M197 0v1454h163v-1454h-163z" />
    <glyph glyph-name="m" unicode="m" horiz-adv-x="2045" 
d="M197 0v1024h157v-229q48 116 142 182.5t215 66.5q143 0 239 -73.5t133 -208.5q44 131 144.5 206.5t232.5 75.5q193 0 302.5 -122.5t109.5 -339.5v-582h-166v569q0 177 -74.5 274t-208.5 97q-131 0 -219 -111.5t-88 -279.5v-549h-166v569q0 176 -74 273.5t-206 97.5
t-221 -114.5t-89 -286.5v-539h-163z" />
    <glyph glyph-name="n" unicode="n" horiz-adv-x="1351" 
d="M197 0v1024h157v-233q50 118 150 185.5t229 67.5q207 0 325 -129.5t118 -359.5v-555h-164v543q0 188 -85.5 292.5t-236.5 104.5q-141 0 -235.5 -114.5t-94.5 -286.5v-539h-163z" />
    <glyph glyph-name="o" unicode="o" horiz-adv-x="1298" 
d="M649 -20q-236 0 -393.5 152.5t-157.5 379.5q0 150 71.5 272t198 191t281.5 69t281.5 -69t198 -191t71.5 -272q0 -227 -157.5 -379.5t-393.5 -152.5zM649 76q167 0 276 122t109 314q0 193 -109 315.5t-276 122.5q-168 0 -275.5 -122t-107.5 -316q0 -193 107.5 -314.5
t275.5 -121.5z" />
    <glyph glyph-name="p" unicode="p" horiz-adv-x="1357" 
d="M197 -410v1434h157v-246q52 123 159.5 194.5t250.5 71.5q212 0 354 -151t142 -381q0 -229 -142 -380.5t-354 -151.5q-141 0 -246.5 70.5t-157.5 193.5v-654h-163zM729 82q157 0 261 119.5t104 310.5q0 192 -103.5 311t-261.5 119q-160 0 -267.5 -123.5t-107.5 -306.5
q0 -182 108 -306t267 -124z" />
    <glyph glyph-name="q" unicode="q" horiz-adv-x="1357" 
d="M1161 -410h-164v654q-50 -123 -155 -193.5t-246 -70.5q-213 0 -355.5 151.5t-142.5 380.5q0 231 142.5 381.5t355.5 150.5q142 0 249.5 -71t160.5 -195v246h155v-1434zM629 82q159 0 267 124t108 306q0 183 -107.5 306.5t-267.5 123.5q-156 0 -259.5 -119t-103.5 -311
q0 -191 103.5 -310.5t259.5 -119.5z" />
    <glyph glyph-name="r" unicode="r" horiz-adv-x="1067" 
d="M197 0v1024h157v-242q46 121 140.5 191.5t214.5 70.5q159 0 248.5 -98t89.5 -280v-48h-162v44q0 133 -59 201.5t-169 68.5q-126 0 -211.5 -113t-85.5 -278v-541h-163z" />
    <glyph glyph-name="s" unicode="s" horiz-adv-x="1089" 
d="M565 -23q-196 0 -334.5 91.5t-162.5 267.5h102q21 -134 130 -203.5t257 -69.5q49 0 97.5 9.5t95 29.5t75.5 58t29 88q0 21 -5 39t-17 32.5t-24 25.5t-35 21t-40.5 17t-49.5 15t-53 13t-60.5 13.5t-63.5 13.5q-50 10 -85 18t-81 22t-77 29.5t-64.5 39t-53 50.5t-32.5 65
t-13 83q0 79 37.5 139.5t100.5 95t136 51t152 16.5q119 0 215.5 -36.5t162.5 -116.5t79 -194h-102q-21 129 -119 195t-240 66q-49 0 -95.5 -10t-90 -31t-70 -60.5t-26.5 -91.5q0 -27 10.5 -49.5t29.5 -38.5t47 -29.5t60.5 -23t72 -19t80.5 -18.5q25 -5 38 -8
q56 -11 89 -18.5t83.5 -22t81 -29t66.5 -38t56 -50.5t33.5 -65t13.5 -83q0 -63 -27 -115t-70.5 -85.5t-101 -56t-117 -32.5t-120.5 -10z" />
    <glyph glyph-name="t" unicode="t" horiz-adv-x="956" 
d="M643 -20q-356 0 -356 335v615h-242v94h203q47 0 47 47v199h158l-2 -246h436v-94h-436v-608q0 -125 58 -183.5t181 -58.5q74 0 197 35v-95q-49 -17 -119.5 -28.5t-124.5 -11.5z" />
    <glyph glyph-name="u" unicode="u" horiz-adv-x="1351" 
d="M618 -20q-206 0 -324 130.5t-118 360.5v553h164l2 -541q0 -189 84.5 -294t235.5 -105q141 0 236 115t95 288v537h162v-1024h-156v236q-50 -120 -150 -188t-231 -68z" />
    <glyph glyph-name="v" unicode="v" horiz-adv-x="1103" 
d="M465 0l-445 1024h177l389 -897h4l389 897h106l-444 -1024h-176z" />
    <glyph glyph-name="w" unicode="w" horiz-adv-x="1630" 
d="M373 0l-328 1024h164l283 -864l280 864h152l278 -860l283 860h102l-327 -1024h-160l-285 868l-283 -868h-159z" />
    <glyph glyph-name="x" unicode="x" horiz-adv-x="1153" 
d="M59 0l424 508l-415 516h194l334 -403l342 403h121l-395 -473l438 -551h-197l-356 440l-369 -440h-121z" />
    <glyph glyph-name="y" unicode="y" horiz-adv-x="1124" 
d="M377 -430q-143 0 -234.5 89.5t-91.5 242.5v55h99v-59q0 -107 62 -172.5t159 -65.5q92 0 148 56.5t56 150.5v24q0 90 -63 211l-487 922h180l397 -754q39 -86 43 -123q4 19 23 72l331 805h109l-369 -883q-37 -84 -37 -182v-51q0 -155 -90.5 -246.5t-234.5 -91.5z" />
    <glyph glyph-name="z" unicode="z" horiz-adv-x="1052" 
d="M74 0v82l688 848h-653v94h856v-82l-689 -846h689v-96h-891z" />
    <glyph glyph-name="braceleft" unicode="{" horiz-adv-x="1024" 
d="M625 -236q-130 0 -209.5 66t-79.5 203q0 62 32.5 241t32.5 238q0 77 -36 117.5t-101 40.5h-84v94h84q65 0 101 40.5t36 117.5q0 59 -32.5 239t-32.5 242q0 135 79.5 200.5t209.5 65.5q105 0 190 -31v-96q-70 33 -156 33q-77 0 -126.5 -44t-49.5 -132q0 -47 30 -217.5
t30 -233.5q0 -185 -156 -231q156 -43 156 -230q0 -63 -30 -233t-30 -217q0 -90 49.5 -134t126.5 -44q88 0 156 32v-96q-85 -31 -190 -31z" />
    <glyph glyph-name="bar" unicode="|" horiz-adv-x="692" 
d="M299 -205v1843h96v-1843h-96z" />
    <glyph glyph-name="braceright" unicode="}" horiz-adv-x="1024" 
d="M399 1669q130 0 210.5 -65.5t80.5 -200.5q0 -62 -32.5 -242t-32.5 -239q0 -77 36 -117.5t101 -40.5h84v-94h-84q-65 0 -101 -40.5t-36 -117.5q0 -59 32.5 -238t32.5 -241q0 -137 -80 -203t-211 -66q-102 0 -190 31v96q71 -32 156 -32q78 0 127 44t49 134q0 47 -29 217
t-29 233q0 187 154 230q-154 46 -154 231q0 63 29 233.5t29 217.5q0 89 -49 132.5t-127 43.5q-83 0 -156 -33v96q88 31 190 31z" />
    <glyph glyph-name="asciitilde" unicode="~" horiz-adv-x="1146" 
d="M156 616q0 90 58 147.5t144 57.5q83 0 222 -61q41 -18 64.5 -27t59 -17.5t66.5 -8.5q52 0 89.5 33.5t37.5 78.5h96q0 -91 -58 -149t-144 -58q-38 0 -82.5 11t-68 20.5t-73.5 30.5q-120 53 -188 53q-52 0 -90.5 -33.5t-38.5 -77.5h-94z" />
    <glyph glyph-name="uni00A0" unicode="&#xa0;" horiz-adv-x="512" 
 />
    <glyph glyph-name="exclamdown" unicode="&#xa1;" horiz-adv-x="618" 
d="M309 1040q52 0 87.5 -35.5t35.5 -86.5q0 -52 -35 -87.5t-88 -35.5t-88 35.5t-35 87.5q0 51 35.5 86.5t87.5 35.5zM356 584l58 -994h-199l55 994h86z" />
    <glyph glyph-name="cent" unicode="&#xa2;" 
d="M731 289q146 0 246 81.5t133 221.5h100q-31 -176 -152.5 -283t-309.5 -119v-251h-84v251q-215 15 -353.5 164t-138.5 367q0 219 138 367t354 163v244h84v-244q188 -12 309.5 -118.5t152.5 -282.5h-100q-33 140 -133 221.5t-246 81.5q-173 0 -284 -121t-111 -311
q0 -189 111 -310.5t284 -121.5z" />
    <glyph glyph-name="sterling" unicode="&#xa3;" 
d="M285 -31q-106 0 -175 60t-69 155q0 91 64 151t169 60q95 0 240 -69q2 6 2 20q-5 51 -26 102.5t-64 127.5t-57 104h-273v74h232q-68 143 -68 272q0 198 130 319t345 121q217 0 353 -124.5t147 -329.5h-109q-10 163 -112 257.5t-256 94.5q-152 0 -243 -92.5t-91 -249.5
q0 -99 57 -268h586v-74h-559q8 -21 33.5 -80.5t36 -88t21.5 -75t11 -86.5q0 -21 -4 -67q8 -4 54 -29.5t60 -32.5l54 -27t61.5 -27.5t55.5 -18.5t63 -15t58 -4q113 0 173 64.5t60 185.5q0 40 -10 102h96q12 -70 12 -131q0 -178 -92 -279.5t-243 -101.5q-58 0 -116.5 14
t-122.5 45.5t-102.5 53.5t-107.5 65q-39 -82 -111.5 -130t-162.5 -48zM281 43q74 0 131 40.5t84 109.5q-59 33 -88.5 48t-74.5 30.5t-81 15.5q-58 0 -94.5 -32.5t-36.5 -82.5q0 -57 44.5 -93t115.5 -36z" />
    <glyph glyph-name="currency" unicode="&#xa4;" 
d="M256 184l-72 72l191 190q-99 121 -99 271q0 148 99 272l-191 189l72 71l190 -188q117 96 271 96q152 0 272 -96l189 188l71 -71l-188 -189q96 -120 96 -272q0 -154 -96 -271l188 -190l-71 -72l-189 191q-124 -99 -272 -99q-150 0 -271 99zM717 379q139 0 238.5 99.5
t99.5 238.5t-99.5 238.5t-238.5 99.5t-238.5 -99.5t-99.5 -238.5t99.5 -238.5t238.5 -99.5z" />
    <glyph glyph-name="yen" unicode="&#xa5;" 
d="M625 0v356h-457v76h453v131l-33 51h-420v74h377l-486 746h205l492 -758l489 758h131l-485 -746h403v-74h-446l-35 -51v-131h481v-76h-485v-356h-184z" />
    <glyph glyph-name="brokenbar" unicode="&#xa6;" horiz-adv-x="692" 
d="M299 860v778h96v-778h-96zM299 -205v778h96v-778h-96z" />
    <glyph glyph-name="section" unicode="&#xa7;" 
d="M743 -205q-93 0 -176 23t-151.5 68t-114 119t-57.5 169h106q21 -139 130.5 -212t254.5 -73q49 0 98 10t95.5 31t76 60.5t29.5 91.5q0 22 -5 41t-11.5 34t-22 28.5t-26.5 23t-35.5 19.5t-38.5 15.5t-46 13.5l-48 12t-54 12t-55 12q-62 13 -99 21.5t-92.5 24.5t-89.5 31.5
t-73.5 40.5t-61.5 54t-37.5 69t-15.5 87q0 110 74 177.5t195 96.5q-101 37 -159 96t-59 158q0 83 38.5 146.5t102.5 99.5t137.5 53.5t152.5 17.5q184 0 312.5 -93t149.5 -273h-104q-22 133 -122 201.5t-239 68.5q-50 0 -96.5 -10t-90 -32t-69.5 -62.5t-26 -94.5
q0 -38 17.5 -67t42.5 -47.5t71.5 -34.5t85 -25t102.5 -23q3 -1 5 -1t5 -1t5 -1h1h1l1 -1h1h1h1q203 -41 287 -77q170 -71 186 -213q2 -16 2 -33q0 -57 -22 -104.5t-61.5 -81t-85.5 -56t-101 -38.5q104 -36 161.5 -96t57.5 -162q0 -81 -40.5 -144t-107 -98.5t-141 -53.5
t-152.5 -18zM813 412q64 5 124.5 23.5t110.5 63.5t50 107q0 43 -19 75.5t-48.5 54t-82 39.5t-104 30.5t-128.5 29.5q-52 11 -79 17q-50 -4 -96 -16.5t-88 -34.5t-67.5 -58.5t-25.5 -83.5q0 -37 17 -68t50.5 -54.5t72 -42t95 -34t104.5 -26t114 -22.5z" />
    <glyph glyph-name="copyright" unicode="&#xa9;" horiz-adv-x="1679" 
d="M840 -31q-208 0 -379.5 98.5t-270 270t-98.5 379.5t98.5 379.5t270 269.5t379.5 98q156 0 294.5 -58t237.5 -157t157 -237.5t58 -294.5q0 -208 -98 -379.5t-269.5 -270t-379.5 -98.5zM840 35q143 0 270 53t217.5 143.5t143.5 217t53 268.5q0 143 -53 270t-143.5 217.5
t-217.5 143.5t-270 53q-142 0 -268.5 -53t-217 -143.5t-143.5 -217.5t-53 -270q0 -142 53 -268.5t143.5 -217t217 -143.5t268.5 -53zM850 291q-186 0 -308 121.5t-122 304.5t122 304.5t308 121.5q162 0 269 -86.5t132 -235.5h-88q-24 109 -101.5 172.5t-193.5 63.5
q-137 0 -224 -95t-87 -245q0 -149 87 -243.5t224 -94.5q116 0 193.5 63t101.5 172h88q-25 -149 -132 -236t-269 -87z" />
    <glyph glyph-name="guillemotleft" unicode="&#xab;" horiz-adv-x="1110" 
d="M569 1024l-223 -410l223 -409h-110l-217 397v25l217 397h110zM948 1024l-223 -410l223 -409h-110l-217 397v25l217 397h110z" />
    <glyph glyph-name="logicalnot" unicode="&#xac;" horiz-adv-x="1146" 
d="M991 764v-463h-94v369h-739v94h833z" />
    <glyph glyph-name="registered" unicode="&#xae;" horiz-adv-x="901" 
d="M465 727q-157 0 -263 106t-106 263t106 262.5t263 105.5t263 -105.5t106 -262.5t-106 -263t-263 -106zM465 766q141 0 235.5 95t94.5 235q0 141 -94.5 235t-235.5 94t-236.5 -94t-95.5 -235q0 -140 95.5 -235t236.5 -95zM309 897v418h144q78 0 121.5 -33t43.5 -92
q0 -85 -88 -117l138 -176h-88l-127 164h-74v-164h-70zM379 1108h74q46 0 71 22t25 60q0 35 -25 54.5t-71 19.5h-74v-156z" />
    <glyph glyph-name="degree" unicode="&#xb0;" horiz-adv-x="659" 
d="M330 944q-107 0 -183.5 76.5t-76.5 183.5t76.5 183.5t183.5 76.5q108 0 184 -76t76 -184t-76 -184t-184 -76zM330 1018q77 0 132.5 55t55.5 131q0 78 -55.5 133.5t-132.5 55.5t-132 -55.5t-55 -133.5q0 -76 55 -131t132 -55z" />
    <glyph glyph-name="plusminus" unicode="&#xb1;" horiz-adv-x="1146" 
d="M621 885h370v-94h-370v-369h-95v369h-368v94h368v370h95v-370zM158 186v95h833v-95h-833z" />
    <glyph glyph-name="paragraph" unicode="&#xb6;" horiz-adv-x="1071" 
d="M594 -410v1024h-19q-192 0 -322 118.5t-130 291.5t130 291.5t322 118.5h197v-1844h-178z" />
    <glyph glyph-name="periodcentered" unicode="&#xb7;" horiz-adv-x="536" 
d="M268 494q-53 0 -88 35t-35 87t35.5 87.5t87.5 35.5t87.5 -35.5t35.5 -87.5t-35 -87t-88 -35z" />
    <glyph glyph-name="guillemotright" unicode="&#xbb;" horiz-adv-x="1030" 
d="M164 205l223 409l-223 410h108l217 -397v-25l-217 -397h-108zM541 205l223 409l-223 410h110l217 -397v-25l-217 -397h-110z" />
    <glyph glyph-name="questiondown" unicode="&#xbf;" horiz-adv-x="1140" 
d="M596 1042q52 0 87.5 -35.5t35.5 -86.5q0 -54 -35 -88.5t-88 -34.5t-88 34.5t-35 88.5q0 51 35.5 86.5t87.5 35.5zM662 586q4 -20 4 -37q0 -82 -29.5 -147.5t-69.5 -105t-104 -83.5q-84 -67 -125 -127.5t-41 -153.5q0 -125 85.5 -195.5t219.5 -70.5q163 0 253.5 103.5
t90.5 271.5h111q0 -218 -129 -349.5t-350 -131.5q-125 0 -227.5 40t-167 125.5t-64.5 202.5q0 62 17.5 114t51 91t67 65.5t79.5 53.5q49 34 78.5 56.5t62.5 55t50.5 62.5t29.5 71t12 89h95z" />
    <glyph glyph-name="Agrave" unicode="&#xc0;" horiz-adv-x="1423" 
d="M741 1593h-96l-192 342h168zM31 0l585 1434h191l584 -1434h-197l-174 430h-696l-177 -430h-116zM354 524h633l-313 764h-6z" />
    <glyph glyph-name="Aacute" unicode="&#xc1;" horiz-adv-x="1423" 
d="M680 1593l123 342h168l-193 -342h-98zM31 0l585 1434h191l584 -1434h-197l-174 430h-696l-177 -430h-116zM354 524h633l-313 764h-6z" />
    <glyph glyph-name="Acircumflex" unicode="&#xc2;" horiz-adv-x="1423" 
d="M1090 1608h-185l-229 241l-230 -241h-114l299 327h157zM31 0l585 1434h191l584 -1434h-197l-174 430h-696l-177 -430h-116zM354 524h633l-313 764h-6z" />
    <glyph glyph-name="Atilde" unicode="&#xc3;" horiz-adv-x="1423" 
d="M326 1673q0 98 55 157.5t141 59.5q64 0 134 -24.5t133.5 -49t113.5 -24.5q44 0 76.5 27t32.5 67h86q0 -98 -56.5 -157.5t-142.5 -59.5q-63 0 -133 24.5t-133.5 49t-112.5 24.5q-45 0 -76.5 -26.5t-31.5 -67.5h-86zM31 0l585 1434h191l584 -1434h-197l-174 430h-696
l-177 -430h-116zM354 524h633l-313 764h-6z" />
    <glyph glyph-name="Adieresis" unicode="&#xc4;" horiz-adv-x="1423" 
d="M555 1579l-88 356h195l-89 -356h-18zM848 1579l-86 356h192l-88 -356h-18zM31 0l585 1434h191l584 -1434h-197l-174 430h-696l-177 -430h-116zM354 524h633l-313 764h-6z" />
    <glyph glyph-name="Aring" unicode="&#xc5;" horiz-adv-x="1423" 
d="M711 1577q-110 0 -186 76.5t-76 185.5t76 186.5t186 77.5q109 0 186.5 -77.5t77.5 -186.5t-77.5 -185.5t-186.5 -76.5zM711 1690q85 0 136.5 42t51.5 107q0 66 -51.5 109t-136.5 43q-86 0 -137.5 -42.5t-51.5 -109.5q0 -66 51.5 -107.5t137.5 -41.5zM31 0l585 1434h191
l584 -1434h-197l-174 430h-696l-177 -430h-116zM354 524h633l-313 764h-6z" />
    <glyph glyph-name="AE" unicode="&#xc6;" horiz-adv-x="2060" 
d="M1348 102h651v-102h-805l-174 430h-696l-177 -430h-116l585 1434h1295v-101h-1053l225 -567h648v-96h-609zM354 524h633l-313 764h-6z" />
    <glyph glyph-name="Ccedilla" unicode="&#xc7;" horiz-adv-x="1642" 
d="M858 -31q-159 0 -295 55.5t-232 153.5t-150 237t-54 302q0 217 92.5 387.5t259 265t379.5 94.5q270 0 457 -161t219 -422h-115q-32 208 -178.5 335t-357.5 127q-253 0 -411.5 -173.5t-158.5 -452.5q0 -278 159.5 -452.5t410.5 -174.5q211 0 357.5 127.5t178.5 337.5h115
q-32 -261 -219 -423.5t-457 -162.5zM901 -160l-123 -342h-166l191 342h98z" />
    <glyph glyph-name="Egrave" unicode="&#xc8;" horiz-adv-x="1241" 
d="M698 1593h-96l-192 342h168zM246 0v1434h846v-101h-664v-567h479v-96h-479v-568h752v-102h-934z" />
    <glyph glyph-name="Eacute" unicode="&#xc9;" horiz-adv-x="1241" 
d="M637 1593l123 342h168l-193 -342h-98zM246 0v1434h846v-101h-664v-567h479v-96h-479v-568h752v-102h-934z" />
    <glyph glyph-name="Ecircumflex" unicode="&#xca;" horiz-adv-x="1241" 
d="M1047 1608h-185l-229 241l-230 -241h-114l299 327h157zM246 0v1434h846v-101h-664v-567h479v-96h-479v-568h752v-102h-934z" />
    <glyph glyph-name="Edieresis" unicode="&#xcb;" horiz-adv-x="1241" 
d="M512 1579l-88 356h194l-88 -356h-18zM805 1579l-86 356h192l-88 -356h-18zM246 0v1434h846v-101h-664v-567h479v-96h-479v-568h752v-102h-934z" />
    <glyph glyph-name="Igrave" unicode="&#xcc;" horiz-adv-x="675" 
d="M369 1593h-97l-192 342h168zM246 0v1434h184v-1434h-184z" />
    <glyph glyph-name="Iacute" unicode="&#xcd;" horiz-adv-x="675" 
d="M307 1593l123 342h168l-192 -342h-99zM246 0v1434h184v-1434h-184z" />
    <glyph glyph-name="Icircumflex" unicode="&#xce;" horiz-adv-x="675" 
d="M717 1608h-185l-229 241l-229 -241h-115l299 327h158zM246 0v1434h184v-1434h-184z" />
    <glyph glyph-name="Idieresis" unicode="&#xcf;" horiz-adv-x="675" 
d="M182 1579l-88 356h195l-88 -356h-19zM475 1579l-86 356h193l-88 -356h-19zM246 0v1434h184v-1434h-184z" />
    <glyph glyph-name="Eth" unicode="&#xd0;" horiz-adv-x="1585" 
d="M682 1434q349 0 563.5 -198.5t214.5 -518.5t-214.5 -518.5t-563.5 -198.5h-436v680h-154v76h154v678h436zM686 104q268 0 426 165t158 448q0 285 -158 449.5t-426 164.5h-256v-575h307v-76h-307v-576h256z" />
    <glyph glyph-name="Ntilde" unicode="&#xd1;" horiz-adv-x="1677" 
d="M455 1673q0 98 55 157.5t141 59.5q64 0 134 -24.5t133.5 -49t113.5 -24.5q44 0 76.5 27t32.5 67h86q0 -98 -56.5 -157.5t-142.5 -59.5q-63 0 -133 24.5t-133.5 49t-112.5 24.5q-45 0 -76.5 -26.5t-31.5 -67.5h-86zM244 0v1434h190l893 -1174v1174h107v-1448h-121
l-961 1255v-1241h-108z" />
    <glyph glyph-name="Ograve" unicode="&#xd2;" horiz-adv-x="1736" 
d="M899 1593h-96l-193 342h168zM868 -31q-210 0 -379.5 96.5t-265.5 268t-96 383.5t96 383t265.5 267.5t379.5 96.5q158 0 296.5 -56.5t236.5 -155t154.5 -237.5t56.5 -298t-56.5 -298t-154.5 -237.5t-236.5 -155.5t-296.5 -57zM868 80q244 0 399.5 176.5t155.5 460.5
q0 285 -155 461t-400 176t-400 -176t-155 -461q0 -284 155.5 -460.5t399.5 -176.5z" />
    <glyph glyph-name="Oacute" unicode="&#xd3;" horiz-adv-x="1736" 
d="M838 1593l123 342h167l-192 -342h-98zM868 -31q-210 0 -379.5 96.5t-265.5 268t-96 383.5t96 383t265.5 267.5t379.5 96.5q158 0 296.5 -56.5t236.5 -155t154.5 -237.5t56.5 -298t-56.5 -298t-154.5 -237.5t-236.5 -155.5t-296.5 -57zM868 80q244 0 399.5 176.5
t155.5 460.5q0 285 -155 461t-400 176t-400 -176t-155 -461q0 -284 155.5 -460.5t399.5 -176.5z" />
    <glyph glyph-name="Ocircumflex" unicode="&#xd4;" horiz-adv-x="1736" 
d="M1247 1608h-184l-229 241l-230 -241h-115l299 327h158zM868 -31q-210 0 -379.5 96.5t-265.5 268t-96 383.5t96 383t265.5 267.5t379.5 96.5q158 0 296.5 -56.5t236.5 -155t154.5 -237.5t56.5 -298t-56.5 -298t-154.5 -237.5t-236.5 -155.5t-296.5 -57zM868 80
q244 0 399.5 176.5t155.5 460.5q0 285 -155 461t-400 176t-400 -176t-155 -461q0 -284 155.5 -460.5t399.5 -176.5z" />
    <glyph glyph-name="Otilde" unicode="&#xd5;" horiz-adv-x="1736" 
d="M483 1673q0 98 55.5 157.5t141.5 59.5q64 0 134 -24.5t133.5 -49t113.5 -24.5q44 0 76 27t32 67h86q0 -98 -56 -157.5t-142 -59.5q-63 0 -133 24.5t-133.5 49t-112.5 24.5q-45 0 -77 -26.5t-32 -67.5h-86zM868 -31q-210 0 -379.5 96.5t-265.5 268t-96 383.5t96 383
t265.5 267.5t379.5 96.5q158 0 296.5 -56.5t236.5 -155t154.5 -237.5t56.5 -298t-56.5 -298t-154.5 -237.5t-236.5 -155.5t-296.5 -57zM868 80q244 0 399.5 176.5t155.5 460.5q0 285 -155 461t-400 176t-400 -176t-155 -461q0 -284 155.5 -460.5t399.5 -176.5z" />
    <glyph glyph-name="Odieresis" unicode="&#xd6;" horiz-adv-x="1736" 
d="M713 1579l-88 356h194l-88 -356h-18zM1006 1579l-86 356h192l-88 -356h-18zM868 -31q-210 0 -379.5 96.5t-265.5 268t-96 383.5t96 383t265.5 267.5t379.5 96.5q158 0 296.5 -56.5t236.5 -155t154.5 -237.5t56.5 -298t-56.5 -298t-154.5 -237.5t-236.5 -155.5t-296.5 -57
zM868 80q244 0 399.5 176.5t155.5 460.5q0 285 -155 461t-400 176t-400 -176t-155 -461q0 -284 155.5 -460.5t399.5 -176.5z" />
    <glyph glyph-name="multiply" unicode="&#xd7;" horiz-adv-x="1146" 
d="M279 354l-68 68l295 295l-295 295l68 69l294 -295l295 295l70 -69l-295 -295l295 -295l-70 -68l-295 295z" />
    <glyph glyph-name="Oslash" unicode="&#xd8;" horiz-adv-x="1736" 
d="M868 -31q-275 0 -471 166l-129 -135h-123l179 197q-197 210 -197 520q0 212 96 383t265.5 267.5t379.5 96.5q273 0 473 -166l129 136h123l-180 -195q199 -212 199 -522q0 -159 -56.5 -298t-154.5 -237.5t-236.5 -155.5t-296.5 -57zM438 328l793 843q-134 189 -363 189
q-247 0 -403 -178t-156 -465q0 -232 129 -389zM868 76q247 0 404.5 177.5t157.5 463.5q0 227 -130 389l-792 -842q134 -188 360 -188z" />
    <glyph glyph-name="Ugrave" unicode="&#xd9;" horiz-adv-x="1632" 
d="M868 1593h-96l-192 342h168zM823 -31q-278 0 -443 171.5t-165 459.5v834h184v-830q0 -244 121.5 -379t335.5 -135q210 0 334.5 140.5t124.5 377.5v826h112v-830q0 -290 -163.5 -462.5t-440.5 -172.5z" />
    <glyph glyph-name="Uacute" unicode="&#xda;" horiz-adv-x="1632" 
d="M807 1593l123 342h168l-193 -342h-98zM823 -31q-278 0 -443 171.5t-165 459.5v834h184v-830q0 -244 121.5 -379t335.5 -135q210 0 334.5 140.5t124.5 377.5v826h112v-830q0 -290 -163.5 -462.5t-440.5 -172.5z" />
    <glyph glyph-name="Ucircumflex" unicode="&#xdb;" horiz-adv-x="1632" 
d="M1217 1608h-185l-229 241l-230 -241h-114l299 327h157zM823 -31q-278 0 -443 171.5t-165 459.5v834h184v-830q0 -244 121.5 -379t335.5 -135q210 0 334.5 140.5t124.5 377.5v826h112v-830q0 -290 -163.5 -462.5t-440.5 -172.5z" />
    <glyph glyph-name="Udieresis" unicode="&#xdc;" horiz-adv-x="1632" 
d="M682 1579l-88 356h194l-88 -356h-18zM975 1579l-86 356h192l-88 -356h-18zM823 -31q-278 0 -443 171.5t-165 459.5v834h184v-830q0 -244 121.5 -379t335.5 -135q210 0 334.5 140.5t124.5 377.5v826h112v-830q0 -290 -163.5 -462.5t-440.5 -172.5z" />
    <glyph glyph-name="Yacute" unicode="&#xdd;" horiz-adv-x="1366" 
d="M657 1593l123 342h168l-192 -342h-99zM592 0v555l-582 879h207l506 -772l508 772h127l-582 -881v-553h-184z" />
    <glyph glyph-name="Thorn" unicode="&#xde;" horiz-adv-x="1339" 
d="M246 0v1434h180v-281h264q256 0 402.5 -113.5t146.5 -312.5q0 -198 -147 -312t-402 -114h-264v-301h-180zM426 399h260q175 0 274 87t99 239q0 154 -99 240t-274 86h-260v-652z" />
    <glyph glyph-name="germandbls" unicode="&#xdf;" horiz-adv-x="1564" 
d="M293 -410v1340h-207v94h207v113q0 173 124 276t339 103q211 0 339 -101t128 -274v-187q-82 9 -152 9q-50 0 -97 -10t-91 -31t-70.5 -60.5t-26.5 -91.5q0 -42 21 -72t63.5 -49.5t88 -32.5t112.5 -28q8 -1 12.5 -2t11.5 -3t13 -3q52 -11 87 -19t81.5 -22.5t78 -29t65 -38
t53 -50.5t32.5 -64t13 -81q0 -63 -26 -115t-68.5 -85.5t-98 -56t-112 -32.5t-113.5 -10q-86 0 -162.5 20.5t-139 60.5t-104.5 106t-55 151h90q24 -125 125.5 -189.5t239.5 -64.5q46 0 93.5 10t92.5 30t73.5 58t28.5 87q0 33 -9.5 58.5t-31.5 44.5t-45 32t-63 25t-71 19
t-82 18q-19 4 -29 6q-49 10 -82 18t-78.5 21.5t-75 28t-62.5 37t-52 48.5t-31.5 62t-12.5 79q0 58 20.5 105.5t54.5 79.5t80 55.5t94.5 35t101.5 15.5h57v113q0 131 -90 202.5t-236 71.5q-145 0 -232 -67t-87 -191q0 -29 17.5 -107t17.5 -157v-1309h-162z" />
    <glyph glyph-name="agrave" unicode="&#xe0;" horiz-adv-x="1232" 
d="M616 1184h-96l-192 342h168zM424 -23q-161 0 -247.5 73.5t-86.5 195.5q0 67 29 119t75.5 85t115 56t135.5 34t149 17q90 6 147 18t93 37.5t36 65.5q0 123 -82.5 198.5t-212.5 75.5q-133 0 -222.5 -77.5t-112.5 -212.5h-97q26 178 148 280t307 102q194 0 311 -111.5
t117 -301.5v-537h141v-94h-288v248q-55 -126 -177.5 -198.5t-277.5 -72.5zM473 72q167 0 282 112.5t115 276.5l2 98q-52 -46 -239 -63q-198 -19 -287.5 -75.5t-89.5 -160.5q0 -92 58 -140t159 -48z" />
    <glyph glyph-name="aacute" unicode="&#xe1;" horiz-adv-x="1232" 
d="M555 1184l123 342h168l-193 -342h-98zM424 -23q-161 0 -247.5 73.5t-86.5 195.5q0 67 29 119t75.5 85t115 56t135.5 34t149 17q90 6 147 18t93 37.5t36 65.5q0 123 -82.5 198.5t-212.5 75.5q-133 0 -222.5 -77.5t-112.5 -212.5h-97q26 178 148 280t307 102
q194 0 311 -111.5t117 -301.5v-537h141v-94h-288v248q-55 -126 -177.5 -198.5t-277.5 -72.5zM473 72q167 0 282 112.5t115 276.5l2 98q-52 -46 -239 -63q-198 -19 -287.5 -75.5t-89.5 -160.5q0 -92 58 -140t159 -48z" />
    <glyph glyph-name="acircumflex" unicode="&#xe2;" horiz-adv-x="1232" 
d="M965 1198h-185l-229 242l-229 -242h-115l299 328h158zM424 -23q-161 0 -247.5 73.5t-86.5 195.5q0 67 29 119t75.5 85t115 56t135.5 34t149 17q90 6 147 18t93 37.5t36 65.5q0 123 -82.5 198.5t-212.5 75.5q-133 0 -222.5 -77.5t-112.5 -212.5h-97q26 178 148 280
t307 102q194 0 311 -111.5t117 -301.5v-537h141v-94h-288v248q-55 -126 -177.5 -198.5t-277.5 -72.5zM473 72q167 0 282 112.5t115 276.5l2 98q-52 -46 -239 -63q-198 -19 -287.5 -75.5t-89.5 -160.5q0 -92 58 -140t159 -48z" />
    <glyph glyph-name="atilde" unicode="&#xe3;" horiz-adv-x="1232" 
d="M201 1264q0 98 55 157.5t141 59.5q51 0 106.5 -15.5t95.5 -34t89.5 -34t89.5 -15.5q44 0 76.5 27.5t32.5 67.5h86q0 -98 -56.5 -157.5t-142.5 -59.5q-63 0 -133 24.5t-133.5 49t-112.5 24.5q-45 0 -76.5 -26.5t-31.5 -67.5h-86zM424 -23q-161 0 -247.5 73.5t-86.5 195.5
q0 67 29 119t75.5 85t115 56t135.5 34t149 17q90 6 147 18t93 37.5t36 65.5q0 123 -82.5 198.5t-212.5 75.5q-133 0 -222.5 -77.5t-112.5 -212.5h-97q26 178 148 280t307 102q194 0 311 -111.5t117 -301.5v-537h141v-94h-288v248q-55 -126 -177.5 -198.5t-277.5 -72.5z
M473 72q167 0 282 112.5t115 276.5l2 98q-52 -46 -239 -63q-198 -19 -287.5 -75.5t-89.5 -160.5q0 -92 58 -140t159 -48z" />
    <glyph glyph-name="adieresis" unicode="&#xe4;" horiz-adv-x="1232" 
d="M430 1169l-88 357h195l-88 -357h-19zM723 1169l-86 357h192l-88 -357h-18zM424 -23q-161 0 -247.5 73.5t-86.5 195.5q0 67 29 119t75.5 85t115 56t135.5 34t149 17q90 6 147 18t93 37.5t36 65.5q0 123 -82.5 198.5t-212.5 75.5q-133 0 -222.5 -77.5t-112.5 -212.5h-97
q26 178 148 280t307 102q194 0 311 -111.5t117 -301.5v-537h141v-94h-288v248q-55 -126 -177.5 -198.5t-277.5 -72.5zM473 72q167 0 282 112.5t115 276.5l2 98q-52 -46 -239 -63q-198 -19 -287.5 -75.5t-89.5 -160.5q0 -92 58 -140t159 -48z" />
    <glyph glyph-name="aring" unicode="&#xe5;" horiz-adv-x="1232" 
d="M586 1167q-110 0 -186 77t-76 186t76 186.5t186 77.5q109 0 186.5 -77.5t77.5 -186.5t-77.5 -186t-186.5 -77zM586 1280q85 0 136.5 42t51.5 108t-51.5 108.5t-136.5 42.5q-87 0 -138 -42t-51 -109q0 -66 51.5 -108t137.5 -42zM424 -23q-161 0 -247.5 73.5t-86.5 195.5
q0 67 29 119t75.5 85t115 56t135.5 34t149 17q90 6 147 18t93 37.5t36 65.5q0 123 -82.5 198.5t-212.5 75.5q-133 0 -222.5 -77.5t-112.5 -212.5h-97q26 178 148 280t307 102q194 0 311 -111.5t117 -301.5v-537h141v-94h-288v248q-55 -126 -177.5 -198.5t-277.5 -72.5z
M473 72q167 0 282 112.5t115 276.5l2 98q-52 -46 -239 -63q-198 -19 -287.5 -75.5t-89.5 -160.5q0 -92 58 -140t159 -48z" />
    <glyph glyph-name="ae" unicode="&#xe6;" horiz-adv-x="2019" 
d="M430 -23q-163 0 -251.5 73.5t-88.5 195.5q0 67 29 119t75.5 85t115 56t135.5 34t149 17q90 6 147 18t93 37.5t36 65.5q0 123 -82.5 198.5t-212.5 75.5q-133 0 -222.5 -77.5t-112.5 -212.5h-97q26 178 147 280t304 102q141 0 239 -67t132 -186q62 117 179 185t263 68
q230 0 380 -150.5t152 -379.5q0 -25 -2 -35h-911q10 -182 120.5 -293.5t278.5 -111.5q130 0 228.5 62t136.5 167h104q-41 -144 -173 -233.5t-318 -89.5q-170 0 -302 88.5t-188 234.5q-32 -106 -108 -181t-172 -110t-203 -35zM1026 549h752q-9 185 -113 297t-262 112
q-157 0 -262.5 -113t-114.5 -290v-6zM473 72q167 0 282 112.5t115 276.5l2 98q-52 -46 -239 -63q-198 -19 -287.5 -75.5t-89.5 -160.5q0 -92 58 -140t159 -48z" />
    <glyph glyph-name="ccedilla" unicode="&#xe7;" horiz-adv-x="1220" 
d="M635 -20q-233 0 -385 151.5t-152 380.5q0 230 152 381t385 151q203 0 337 -108.5t165 -294.5h-103q-29 139 -129.5 221t-245.5 82q-175 0 -285 -120.5t-110 -311.5q0 -190 110.5 -311t284.5 -121q145 0 245.5 82t129.5 221h103q-31 -185 -165.5 -294t-336.5 -109z
M678 -160l-123 -342h-166l191 342h98z" />
    <glyph glyph-name="egrave" unicode="&#xe8;" horiz-adv-x="1253" 
d="M655 1184h-96l-192 342h168zM637 -20q-152 0 -275.5 68.5t-193.5 190t-70 271.5q0 231 154.5 382.5t388.5 151.5q230 0 380.5 -150.5t152.5 -379.5q0 -20 -3 -35h-909q9 -182 119 -293.5t278 -111.5q130 0 228.5 62t136.5 167h104q-41 -144 -173 -233.5t-318 -89.5z
M1012 549q-9 185 -113 297t-262 112q-157 0 -262.5 -113t-112.5 -290v-6h750z" />
    <glyph glyph-name="eacute" unicode="&#xe9;" horiz-adv-x="1253" 
d="M594 1184l123 342h168l-193 -342h-98zM637 -20q-152 0 -275.5 68.5t-193.5 190t-70 271.5q0 231 154.5 382.5t388.5 151.5q230 0 380.5 -150.5t152.5 -379.5q0 -20 -3 -35h-909q9 -182 119 -293.5t278 -111.5q130 0 228.5 62t136.5 167h104q-41 -144 -173 -233.5
t-318 -89.5zM1012 549q-9 185 -113 297t-262 112q-157 0 -262.5 -113t-112.5 -290v-6h750z" />
    <glyph glyph-name="ecircumflex" unicode="&#xea;" horiz-adv-x="1253" 
d="M1004 1198h-185l-229 242l-230 -242h-114l299 328h157zM637 -20q-152 0 -275.5 68.5t-193.5 190t-70 271.5q0 231 154.5 382.5t388.5 151.5q230 0 380.5 -150.5t152.5 -379.5q0 -20 -3 -35h-909q9 -182 119 -293.5t278 -111.5q130 0 228.5 62t136.5 167h104
q-41 -144 -173 -233.5t-318 -89.5zM1012 549q-9 185 -113 297t-262 112q-157 0 -262.5 -113t-112.5 -290v-6h750z" />
    <glyph glyph-name="edieresis" unicode="&#xeb;" horiz-adv-x="1253" 
d="M469 1169l-88 357h194l-88 -357h-18zM762 1169l-86 357h192l-88 -357h-18zM637 -20q-152 0 -275.5 68.5t-193.5 190t-70 271.5q0 231 154.5 382.5t388.5 151.5q230 0 380.5 -150.5t152.5 -379.5q0 -20 -3 -35h-909q9 -182 119 -293.5t278 -111.5q130 0 228.5 62
t136.5 167h104q-41 -144 -173 -233.5t-318 -89.5zM1012 549q-9 185 -113 297t-262 112q-157 0 -262.5 -113t-112.5 -290v-6h750z" />
    <glyph glyph-name="igrave" unicode="&#xec;" horiz-adv-x="557" 
d="M309 1184h-96l-193 342h168zM197 0v1024h163v-1024h-163z" />
    <glyph glyph-name="iacute" unicode="&#xed;" horiz-adv-x="557" 
d="M248 1184l123 342h168l-193 -342h-98zM197 0v1024h163v-1024h-163z" />
    <glyph glyph-name="icircumflex" unicode="&#xee;" horiz-adv-x="557" 
d="M657 1198h-184l-229 242l-230 -242h-114l299 328h157zM197 0v1024h163v-1024h-163z" />
    <glyph glyph-name="idieresis" unicode="&#xef;" horiz-adv-x="557" 
d="M123 1169l-88 357h194l-88 -357h-18zM416 1169l-86 357h192l-88 -357h-18zM197 0v1024h163v-1024h-163z" />
    <glyph glyph-name="eth" unicode="&#xf0;" horiz-adv-x="1298" 
d="M647 -20q-235 0 -392 151.5t-157 378.5q0 149 70 270.5t194.5 191.5t278.5 70q118 0 221 -59q-15 23 -53 72l-102 133h-355v76h301l-149 190h119l151 -190h297v-76h-246l205 -262q84 -101 127 -200t43 -214q0 -150 -71 -271.5t-198 -191t-284 -69.5zM649 76
q167 0 276 122t109 314q0 193 -109 315.5t-276 122.5q-168 0 -275.5 -122t-107.5 -316q0 -193 107.5 -314.5t275.5 -121.5z" />
    <glyph glyph-name="ntilde" unicode="&#xf1;" horiz-adv-x="1351" 
d="M303 1264q0 98 55.5 157.5t141.5 59.5q51 0 106.5 -15.5t95.5 -34t89.5 -34t89.5 -15.5q44 0 76 27.5t32 67.5h86q0 -98 -56 -157.5t-142 -59.5q-63 0 -133 24.5t-133.5 49t-112.5 24.5q-45 0 -77 -26.5t-32 -67.5h-86zM197 0v1024h157v-233q50 118 150 185.5t229 67.5
q207 0 325 -129.5t118 -359.5v-555h-164v543q0 188 -85.5 292.5t-236.5 104.5q-141 0 -235.5 -114.5t-94.5 -286.5v-539h-163z" />
    <glyph glyph-name="ograve" unicode="&#xf2;" horiz-adv-x="1298" 
d="M680 1184h-96l-193 342h168zM649 -20q-236 0 -393.5 152.5t-157.5 379.5q0 150 71.5 272t198 191t281.5 69t281.5 -69t198 -191t71.5 -272q0 -227 -157.5 -379.5t-393.5 -152.5zM649 76q167 0 276 122t109 314q0 193 -109 315.5t-276 122.5q-168 0 -275.5 -122
t-107.5 -316q0 -193 107.5 -314.5t275.5 -121.5z" />
    <glyph glyph-name="oacute" unicode="&#xf3;" horiz-adv-x="1298" 
d="M618 1184l123 342h168l-192 -342h-99zM649 -20q-236 0 -393.5 152.5t-157.5 379.5q0 150 71.5 272t198 191t281.5 69t281.5 -69t198 -191t71.5 -272q0 -227 -157.5 -379.5t-393.5 -152.5zM649 76q167 0 276 122t109 314q0 193 -109 315.5t-276 122.5q-168 0 -275.5 -122
t-107.5 -316q0 -193 107.5 -314.5t275.5 -121.5z" />
    <glyph glyph-name="ocircumflex" unicode="&#xf4;" horiz-adv-x="1298" 
d="M1028 1198h-184l-230 242l-229 -242h-115l299 328h158zM649 -20q-236 0 -393.5 152.5t-157.5 379.5q0 150 71.5 272t198 191t281.5 69t281.5 -69t198 -191t71.5 -272q0 -227 -157.5 -379.5t-393.5 -152.5zM649 76q167 0 276 122t109 314q0 193 -109 315.5t-276 122.5
q-168 0 -275.5 -122t-107.5 -316q0 -193 107.5 -314.5t275.5 -121.5z" />
    <glyph glyph-name="otilde" unicode="&#xf5;" horiz-adv-x="1298" 
d="M264 1264q0 98 55.5 157.5t141.5 59.5q51 0 106.5 -15.5t95.5 -34t89.5 -34t89.5 -15.5q44 0 76 27.5t32 67.5h86q0 -98 -56 -157.5t-142 -59.5q-63 0 -133 24.5t-133.5 49t-112.5 24.5q-45 0 -77 -26.5t-32 -67.5h-86zM649 -20q-236 0 -393.5 152.5t-157.5 379.5
q0 150 71.5 272t198 191t281.5 69t281.5 -69t198 -191t71.5 -272q0 -227 -157.5 -379.5t-393.5 -152.5zM649 76q167 0 276 122t109 314q0 193 -109 315.5t-276 122.5q-168 0 -275.5 -122t-107.5 -316q0 -193 107.5 -314.5t275.5 -121.5z" />
    <glyph glyph-name="odieresis" unicode="&#xf6;" horiz-adv-x="1298" 
d="M494 1169l-88 357h194l-88 -357h-18zM786 1169l-86 357h193l-88 -357h-19zM649 -20q-236 0 -393.5 152.5t-157.5 379.5q0 150 71.5 272t198 191t281.5 69t281.5 -69t198 -191t71.5 -272q0 -227 -157.5 -379.5t-393.5 -152.5zM649 76q167 0 276 122t109 314
q0 193 -109 315.5t-276 122.5q-168 0 -275.5 -122t-107.5 -316q0 -193 107.5 -314.5t275.5 -121.5z" />
    <glyph glyph-name="divide" unicode="&#xf7;" horiz-adv-x="1146" 
d="M573 1004q-37 0 -62.5 25.5t-25.5 62.5q0 38 25.5 64t62.5 26q38 0 63.5 -26t25.5 -64q0 -37 -25.5 -62.5t-63.5 -25.5zM150 670v94h849v-94h-849zM573 254q-37 0 -62.5 25.5t-25.5 62.5t25.5 62.5t62.5 25.5q38 0 63.5 -25.5t25.5 -62.5t-25.5 -62.5t-63.5 -25.5z" />
    <glyph glyph-name="oslash" unicode="&#xf8;" horiz-adv-x="1298" 
d="M649 -20q-200 0 -344 116l-90 -96h-104l135 143q-70 72 -109 167t-39 202q0 150 71.5 272t198 191t281.5 69q198 0 336 -110l88 90h105l-131 -137q153 -153 153 -375q0 -227 -157.5 -379.5t-393.5 -152.5zM344 254l553 584q-89 120 -248 120q-172 0 -283.5 -124
t-111.5 -322q0 -147 90 -258zM649 66q173 0 284 124.5t111 321.5q0 157 -90 268l-553 -581q89 -133 248 -133z" />
    <glyph glyph-name="ugrave" unicode="&#xf9;" horiz-adv-x="1351" 
d="M696 1184h-96l-192 342h167zM618 -20q-206 0 -324 130.5t-118 360.5v553h164l2 -541q0 -189 84.5 -294t235.5 -105q141 0 236 115t95 288v537h162v-1024h-156v236q-50 -120 -150 -188t-231 -68z" />
    <glyph glyph-name="uacute" unicode="&#xfa;" horiz-adv-x="1351" 
d="M635 1184l123 342h168l-193 -342h-98zM618 -20q-206 0 -324 130.5t-118 360.5v553h164l2 -541q0 -189 84.5 -294t235.5 -105q141 0 236 115t95 288v537h162v-1024h-156v236q-50 -120 -150 -188t-231 -68z" />
    <glyph glyph-name="ucircumflex" unicode="&#xfb;" horiz-adv-x="1351" 
d="M1044 1198h-184l-229 242l-230 -242h-114l299 328h157zM618 -20q-206 0 -324 130.5t-118 360.5v553h164l2 -541q0 -189 84.5 -294t235.5 -105q141 0 236 115t95 288v537h162v-1024h-156v236q-50 -120 -150 -188t-231 -68z" />
    <glyph glyph-name="udieresis" unicode="&#xfc;" horiz-adv-x="1351" 
d="M510 1169l-88 357h194l-88 -357h-18zM803 1169l-86 357h192l-88 -357h-18zM618 -20q-206 0 -324 130.5t-118 360.5v553h164l2 -541q0 -189 84.5 -294t235.5 -105q141 0 236 115t95 288v537h162v-1024h-156v236q-50 -120 -150 -188t-231 -68z" />
    <glyph glyph-name="yacute" unicode="&#xfd;" horiz-adv-x="1124" 
d="M545 1184l123 342h168l-193 -342h-98zM377 -430q-143 0 -234.5 89.5t-91.5 242.5v55h99v-59q0 -107 62 -172.5t159 -65.5q92 0 148 56.5t56 150.5v24q0 90 -63 211l-487 922h180l397 -754q39 -86 43 -123q4 19 23 72l331 805h109l-369 -883q-37 -84 -37 -182v-51
q0 -155 -90.5 -246.5t-234.5 -91.5z" />
    <glyph glyph-name="thorn" unicode="&#xfe;" horiz-adv-x="1357" 
d="M197 -410v1864h163v-672q52 122 158 192t246 70q212 0 354 -151t142 -381q0 -229 -142 -380.5t-354 -151.5q-141 0 -246.5 70.5t-157.5 193.5v-654h-163zM729 82q157 0 261 119.5t104 310.5q0 192 -103.5 311t-261.5 119q-160 0 -267.5 -123.5t-107.5 -306.5
q0 -182 108 -306t267 -124z" />
    <glyph glyph-name="ydieresis" unicode="&#xff;" horiz-adv-x="1124" 
d="M420 1169l-88 357h194l-88 -357h-18zM713 1169l-86 357h192l-88 -357h-18zM377 -430q-143 0 -234.5 89.5t-91.5 242.5v55h99v-59q0 -107 62 -172.5t159 -65.5q92 0 148 56.5t56 150.5v24q0 90 -63 211l-487 922h180l397 -754q39 -86 43 -123q4 19 23 72l331 805h109
l-369 -883q-37 -84 -37 -182v-51q0 -155 -90.5 -246.5t-234.5 -91.5z" />
    <glyph glyph-name="Amacron" unicode="&#x100;" horiz-adv-x="1423" 
d="M383 1823h655v-80h-655v80zM31 0l585 1434h191l584 -1434h-197l-174 430h-696l-177 -430h-116zM354 524h633l-313 764h-6z" />
    <glyph glyph-name="amacron" unicode="&#x101;" horiz-adv-x="1232" 
d="M258 1413h655v-80h-655v80zM424 -23q-161 0 -247.5 73.5t-86.5 195.5q0 67 29 119t75.5 85t115 56t135.5 34t149 17q90 6 147 18t93 37.5t36 65.5q0 123 -82.5 198.5t-212.5 75.5q-133 0 -222.5 -77.5t-112.5 -212.5h-97q26 178 148 280t307 102q194 0 311 -111.5
t117 -301.5v-537h141v-94h-288v248q-55 -126 -177.5 -198.5t-277.5 -72.5zM473 72q167 0 282 112.5t115 276.5l2 98q-52 -46 -239 -63q-198 -19 -287.5 -75.5t-89.5 -160.5q0 -92 58 -140t159 -48z" />
    <glyph glyph-name="Abreve" unicode="&#x102;" horiz-adv-x="1423" 
d="M711 1581q-167 0 -268 96t-101 252v17h86v-15q0 -105 75 -165t208 -60q134 0 209 60t75 165v15h86v-17q0 -156 -101.5 -252t-268.5 -96zM31 0l585 1434h191l584 -1434h-197l-174 430h-696l-177 -430h-116zM354 524h633l-313 764h-6z" />
    <glyph glyph-name="abreve" unicode="&#x103;" horiz-adv-x="1232" 
d="M586 1171q-167 0 -268 96.5t-101 252.5v16h86v-14q0 -105 75 -165.5t208 -60.5q134 0 209 60.5t75 165.5v14h86v-16q0 -156 -101.5 -252.5t-268.5 -96.5zM424 -23q-161 0 -247.5 73.5t-86.5 195.5q0 67 29 119t75.5 85t115 56t135.5 34t149 17q90 6 147 18t93 37.5
t36 65.5q0 123 -82.5 198.5t-212.5 75.5q-133 0 -222.5 -77.5t-112.5 -212.5h-97q26 178 148 280t307 102q194 0 311 -111.5t117 -301.5v-537h141v-94h-288v248q-55 -126 -177.5 -198.5t-277.5 -72.5zM473 72q167 0 282 112.5t115 276.5l2 98q-52 -46 -239 -63
q-198 -19 -287.5 -75.5t-89.5 -160.5q0 -92 58 -140t159 -48z" />
    <glyph glyph-name="Aogonek" unicode="&#x104;" horiz-adv-x="1423" 
d="M31 0l585 1434h191l584 -1434h-197l-174 430h-696l-177 -430h-116zM354 524h633l-313 764h-6zM1399 -160l-123 -342h-166l193 342h96z" />
    <glyph glyph-name="aogonek" unicode="&#x105;" horiz-adv-x="1232" 
d="M424 -23q-161 0 -247.5 73.5t-86.5 195.5q0 67 29 119t75.5 85t115 56t135.5 34t149 17q90 6 147 18t93 37.5t36 65.5q0 123 -82.5 198.5t-212.5 75.5q-133 0 -222.5 -77.5t-112.5 -212.5h-97q26 178 148 280t307 102q194 0 311 -111.5t117 -301.5v-537h141v-94h-288v248
q-55 -126 -177.5 -198.5t-277.5 -72.5zM473 72q167 0 282 112.5t115 276.5l2 98q-52 -46 -239 -63q-198 -19 -287.5 -75.5t-89.5 -160.5q0 -92 58 -140t159 -48zM1174 -160l-123 -342h-166l192 342h97z" />
    <glyph glyph-name="Cacute" unicode="&#x106;" horiz-adv-x="1642" 
d="M819 1593l123 342h168l-192 -342h-99zM858 -31q-159 0 -295 55.5t-232 153.5t-150 237t-54 302q0 217 92.5 387.5t259 265t379.5 94.5q270 0 457 -161t219 -422h-115q-32 208 -178.5 335t-357.5 127q-253 0 -411.5 -173.5t-158.5 -452.5q0 -278 159.5 -452.5
t410.5 -174.5q211 0 357.5 127.5t178.5 337.5h115q-32 -261 -219 -423.5t-457 -162.5z" />
    <glyph glyph-name="cacute" unicode="&#x107;" horiz-adv-x="1220" 
d="M596 1184l123 342h168l-193 -342h-98zM635 -20q-233 0 -385 151.5t-152 380.5q0 230 152 381t385 151q203 0 337 -108.5t165 -294.5h-103q-29 139 -129.5 221t-245.5 82q-175 0 -285 -120.5t-110 -311.5q0 -190 110.5 -311t284.5 -121q145 0 245.5 82t129.5 221h103
q-31 -185 -165.5 -294t-336.5 -109z" />
    <glyph glyph-name="Cdotaccent" unicode="&#x10a;" horiz-adv-x="1642" 
d="M840 1579l-92 356h204l-92 -356h-20zM858 -31q-159 0 -295 55.5t-232 153.5t-150 237t-54 302q0 217 92.5 387.5t259 265t379.5 94.5q270 0 457 -161t219 -422h-115q-32 208 -178.5 335t-357.5 127q-253 0 -411.5 -173.5t-158.5 -452.5q0 -278 159.5 -452.5t410.5 -174.5
q211 0 357.5 127.5t178.5 337.5h115q-32 -261 -219 -423.5t-457 -162.5z" />
    <glyph glyph-name="cdotaccent" unicode="&#x10b;" horiz-adv-x="1220" 
d="M616 1169l-92 357h205l-92 -357h-21zM635 -20q-233 0 -385 151.5t-152 380.5q0 230 152 381t385 151q203 0 337 -108.5t165 -294.5h-103q-29 139 -129.5 221t-245.5 82q-175 0 -285 -120.5t-110 -311.5q0 -190 110.5 -311t284.5 -121q145 0 245.5 82t129.5 221h103
q-31 -185 -165.5 -294t-336.5 -109z" />
    <glyph glyph-name="Ccaron" unicode="&#x10c;" horiz-adv-x="1642" 
d="M471 1935h184l230 -241l229 241h115l-299 -327h-158zM858 -31q-159 0 -295 55.5t-232 153.5t-150 237t-54 302q0 217 92.5 387.5t259 265t379.5 94.5q270 0 457 -161t219 -422h-115q-32 208 -178.5 335t-357.5 127q-253 0 -411.5 -173.5t-158.5 -452.5
q0 -278 159.5 -452.5t410.5 -174.5q211 0 357.5 127.5t178.5 337.5h115q-32 -261 -219 -423.5t-457 -162.5z" />
    <glyph glyph-name="ccaron" unicode="&#x10d;" horiz-adv-x="1220" 
d="M248 1526h184l230 -242l229 242h115l-299 -328h-158zM635 -20q-233 0 -385 151.5t-152 380.5q0 230 152 381t385 151q203 0 337 -108.5t165 -294.5h-103q-29 139 -129.5 221t-245.5 82q-175 0 -285 -120.5t-110 -311.5q0 -190 110.5 -311t284.5 -121q145 0 245.5 82
t129.5 221h103q-31 -185 -165.5 -294t-336.5 -109z" />
    <glyph glyph-name="Dcaron" unicode="&#x10e;" horiz-adv-x="1585" 
d="M311 1935h185l229 -241l229 241h115l-299 -327h-158zM246 0v1434h436q349 0 563.5 -198.5t214.5 -518.5t-214.5 -518.5t-563.5 -198.5h-436zM430 104h256q268 0 426 165t158 448q0 285 -158 449.5t-426 164.5h-256v-1227z" />
    <glyph glyph-name="dcaron" unicode="&#x10f;" horiz-adv-x="1357" 
d="M596 -20q-213 0 -355.5 151.5t-142.5 380.5q0 231 142.5 381.5t355.5 150.5q140 0 245.5 -70t155.5 -192v672h164v-1454h-155v248q-53 -125 -160 -196.5t-250 -71.5zM1298 1126v328h148l-64 -328h-84zM629 82q159 0 267 124t108 306q0 183 -107.5 306.5t-267.5 123.5
q-156 0 -259.5 -119t-103.5 -311q0 -191 103.5 -310.5t259.5 -119.5z" />
    <glyph glyph-name="Dcroat" unicode="&#x110;" horiz-adv-x="1585" 
d="M682 1434q349 0 563.5 -198.5t214.5 -518.5t-214.5 -518.5t-563.5 -198.5h-436v680h-154v76h154v678h436zM686 104q268 0 426 165t158 448q0 285 -158 449.5t-426 164.5h-256v-575h307v-76h-307v-576h256z" />
    <glyph glyph-name="dcroat" unicode="&#x111;" horiz-adv-x="1357" 
d="M1313 1264v-76h-152v-1188h-155v248q-53 -125 -160 -196.5t-250 -71.5q-213 0 -355.5 151.5t-142.5 380.5q0 231 142.5 381.5t355.5 150.5q140 0 245.5 -70t155.5 -192v406h-389v76h389v190h164v-190h152zM629 82q159 0 267 124t108 306q0 183 -107.5 306.5t-267.5 123.5
q-156 0 -259.5 -119t-103.5 -311q0 -191 103.5 -310.5t259.5 -119.5z" />
    <glyph glyph-name="Emacron" unicode="&#x112;" horiz-adv-x="1241" 
d="M340 1823h655v-80h-655v80zM246 0v1434h846v-101h-664v-567h479v-96h-479v-568h752v-102h-934z" />
    <glyph glyph-name="emacron" unicode="&#x113;" horiz-adv-x="1253" 
d="M297 1413h655v-80h-655v80zM637 -20q-152 0 -275.5 68.5t-193.5 190t-70 271.5q0 231 154.5 382.5t388.5 151.5q230 0 380.5 -150.5t152.5 -379.5q0 -20 -3 -35h-909q9 -182 119 -293.5t278 -111.5q130 0 228.5 62t136.5 167h104q-41 -144 -173 -233.5t-318 -89.5z
M1012 549q-9 185 -113 297t-262 112q-157 0 -262.5 -113t-112.5 -290v-6h750z" />
    <glyph glyph-name="Edotaccent" unicode="&#x116;" horiz-adv-x="1241" 
d="M657 1579l-92 356h205l-92 -356h-21zM246 0v1434h846v-101h-664v-567h479v-96h-479v-568h752v-102h-934z" />
    <glyph glyph-name="edotaccent" unicode="&#x117;" horiz-adv-x="1253" 
d="M614 1169l-92 357h205l-92 -357h-21zM637 -20q-152 0 -275.5 68.5t-193.5 190t-70 271.5q0 231 154.5 382.5t388.5 151.5q230 0 380.5 -150.5t152.5 -379.5q0 -20 -3 -35h-909q9 -182 119 -293.5t278 -111.5q130 0 228.5 62t136.5 167h104q-41 -144 -173 -233.5
t-318 -89.5zM1012 549q-9 185 -113 297t-262 112q-157 0 -262.5 -113t-112.5 -290v-6h750z" />
    <glyph glyph-name="Eogonek" unicode="&#x118;" horiz-adv-x="1241" 
d="M246 0v1434h846v-101h-664v-567h479v-96h-479v-568h752v-102h-934zM1186 -160l-123 -342h-166l193 342h96z" />
    <glyph glyph-name="eogonek" unicode="&#x119;" horiz-adv-x="1253" 
d="M637 -20q-152 0 -275.5 68.5t-193.5 190t-70 271.5q0 231 154.5 382.5t388.5 151.5q230 0 380.5 -150.5t152.5 -379.5q0 -20 -3 -35h-909q9 -182 119 -293.5t278 -111.5q130 0 228.5 62t136.5 167h104q-41 -144 -173 -233.5t-318 -89.5zM1012 549q-9 185 -113 297
t-262 112q-157 0 -262.5 -113t-112.5 -290v-6h750zM1014 -160l-123 -342h-166l193 342h96z" />
    <glyph glyph-name="Ecaron" unicode="&#x11a;" horiz-adv-x="1241" 
d="M289 1935h184l229 -241l230 241h115l-299 -327h-158zM246 0v1434h846v-101h-664v-567h479v-96h-479v-568h752v-102h-934z" />
    <glyph glyph-name="ecaron" unicode="&#x11b;" horiz-adv-x="1253" 
d="M246 1526h184l229 -242l230 242h115l-299 -328h-158zM637 -20q-152 0 -275.5 68.5t-193.5 190t-70 271.5q0 231 154.5 382.5t388.5 151.5q230 0 380.5 -150.5t152.5 -379.5q0 -20 -3 -35h-909q9 -182 119 -293.5t278 -111.5q130 0 228.5 62t136.5 167h104
q-41 -144 -173 -233.5t-318 -89.5zM1012 549q-9 185 -113 297t-262 112q-157 0 -262.5 -113t-112.5 -290v-6h750z" />
    <glyph glyph-name="Gbreve" unicode="&#x11e;" horiz-adv-x="1703" 
d="M858 1581q-167 0 -268 96t-101 252v17h86v-15q0 -105 75 -165t208 -60q134 0 209.5 60t75.5 165v15h86v-17q0 -156 -102 -252t-269 -96zM831 -31q-153 0 -283.5 55.5t-223 153t-145 236.5t-52.5 301q0 218 93 389t258.5 265.5t375.5 94.5q263 0 443 -145.5t225 -386.5
h-117q-42 191 -181 303.5t-341 112.5q-252 0 -411 -176t-159 -457q0 -280 158.5 -457.5t402.5 -177.5q212 0 351 138.5t147 354.5v78h-481v94h663v-745h-165v328q-64 -167 -210.5 -263t-347.5 -96z" />
    <glyph glyph-name="gbreve" unicode="&#x11f;" horiz-adv-x="1370" 
d="M733 1171q-166 0 -267 96.5t-101 252.5v16h86v-14q0 -105 74.5 -165.5t207.5 -60.5q134 0 209.5 60.5t75.5 165.5v14h86v-16q0 -156 -102 -252.5t-269 -96.5zM731 -430q-275 0 -432.5 86t-157.5 235q0 108 89.5 184t248.5 105q-101 11 -175 28t-140.5 46.5t-101.5 77.5
t-35 114q0 57 40.5 99.5t104.5 46.5q42 0 76 -12q-37 55 -37 131q0 151 142.5 242t394.5 91q253 0 395.5 -90.5t142.5 -242.5q0 -153 -145.5 -242.5t-390.5 -89.5q-103 0 -181 15.5t-122.5 37.5t-79.5 44.5t-72.5 38t-79.5 15.5q-40 0 -65 -24t-25 -57q0 -39 19.5 -70
t51 -52t81.5 -37.5t101 -26t120.5 -17t128 -11.5t134.5 -8h3q128 -6 225.5 -25.5t175 -57t118 -99.5t40.5 -147q0 -152 -159 -240t-433 -88zM750 453q170 0 271 70t101 188q0 120 -100 190t-272 70q-173 0 -274 -70t-101 -190q0 -119 99.5 -188.5t275.5 -69.5zM731 -348
q195 0 309.5 68t114.5 182q0 125 -108.5 190.5t-315.5 65.5q-194 0 -308 -69t-114 -187q0 -114 114.5 -182t307.5 -68z" />
    <glyph glyph-name="Gdotaccent" unicode="&#x120;" horiz-adv-x="1703" 
d="M848 1579l-92 356h205l-93 -356h-20zM831 -31q-153 0 -283.5 55.5t-223 153t-145 236.5t-52.5 301q0 218 93 389t258.5 265.5t375.5 94.5q263 0 443 -145.5t225 -386.5h-117q-42 191 -181 303.5t-341 112.5q-252 0 -411 -176t-159 -457q0 -280 158.5 -457.5t402.5 -177.5
q212 0 351 138.5t147 354.5v78h-481v94h663v-745h-165v328q-64 -167 -210.5 -263t-347.5 -96z" />
    <glyph glyph-name="gdotaccent" unicode="&#x121;" horiz-adv-x="1370" 
d="M723 1169l-92 357h205l-93 -357h-20zM731 -430q-275 0 -432.5 86t-157.5 235q0 108 89.5 184t248.5 105q-101 11 -175 28t-140.5 46.5t-101.5 77.5t-35 114q0 57 40.5 99.5t104.5 46.5q42 0 76 -12q-37 55 -37 131q0 151 142.5 242t394.5 91q253 0 395.5 -90.5
t142.5 -242.5q0 -153 -145.5 -242.5t-390.5 -89.5q-103 0 -181 15.5t-122.5 37.5t-79.5 44.5t-72.5 38t-79.5 15.5q-40 0 -65 -24t-25 -57q0 -39 19.5 -70t51 -52t81.5 -37.5t101 -26t120.5 -17t128 -11.5t134.5 -8h3q128 -6 225.5 -25.5t175 -57t118 -99.5t40.5 -147
q0 -152 -159 -240t-433 -88zM750 453q170 0 271 70t101 188q0 120 -100 190t-272 70q-173 0 -274 -70t-101 -190q0 -119 99.5 -188.5t275.5 -69.5zM731 -348q195 0 309.5 68t114.5 182q0 125 -108.5 190.5t-315.5 65.5q-194 0 -308 -69t-114 -187q0 -114 114.5 -182
t307.5 -68z" />
    <glyph glyph-name="uni0122" unicode="&#x122;" horiz-adv-x="1703" 
d="M831 -31q-153 0 -283.5 55.5t-223 153t-145 236.5t-52.5 301q0 218 93 389t258.5 265.5t375.5 94.5q263 0 443 -145.5t225 -386.5h-117q-42 191 -181 303.5t-341 112.5q-252 0 -411 -176t-159 -457q0 -280 158.5 -457.5t402.5 -177.5q212 0 351 138.5t147 354.5v78h-481
v94h663v-745h-165v328q-64 -167 -210.5 -263t-347.5 -96zM889 -502h-80v2q114 105 121 183q-10 -7 -35 -7q-41 0 -65.5 23.5t-24.5 58.5q0 37 32 61.5t81 24.5q52 0 83 -25.5t31 -70.5q0 -65 -44 -139t-99 -111z" />
    <glyph glyph-name="uni0123" unicode="&#x123;" horiz-adv-x="1370" 
d="M764 1534h78v-4q-114 -102 -119 -182q9 6 35 6q40 -1 65 -24t25 -56q0 -37 -32.5 -62.5t-82.5 -25.5t-81 25.5t-31 70.5q0 65 43.5 139.5t99.5 112.5zM731 -430q-275 0 -432.5 86t-157.5 235q0 108 89.5 184t248.5 105q-101 11 -175 28t-140.5 46.5t-101.5 77.5t-35 114
q0 57 40.5 99.5t104.5 46.5q42 0 76 -12q-37 55 -37 131q0 151 142.5 242t394.5 91q253 0 395.5 -90.5t142.5 -242.5q0 -153 -145.5 -242.5t-390.5 -89.5q-103 0 -181 15.5t-122.5 37.5t-79.5 44.5t-72.5 38t-79.5 15.5q-40 0 -65 -24t-25 -57q0 -39 19.5 -70t51 -52
t81.5 -37.5t101 -26t120.5 -17t128 -11.5t134.5 -8h3q128 -6 225.5 -25.5t175 -57t118 -99.5t40.5 -147q0 -152 -159 -240t-433 -88zM750 453q170 0 271 70t101 188q0 120 -100 190t-272 70q-173 0 -274 -70t-101 -190q0 -119 99.5 -188.5t275.5 -69.5zM731 -348
q195 0 309.5 68t114.5 182q0 125 -108.5 190.5t-315.5 65.5q-194 0 -308 -69t-114 -187q0 -114 114.5 -182t307.5 -68z" />
    <glyph glyph-name="Hbar" unicode="&#x126;" horiz-adv-x="1679" 
d="M1589 1180v-86h-155v-1094h-185v662h-819v-662h-184v1094h-154v86h154v254h184v-254h819v254h185v-254h155zM1249 772v322h-819v-322h819z" />
    <glyph glyph-name="hbar" unicode="&#x127;" horiz-adv-x="1351" 
d="M733 1044q207 0 325 -129.5t118 -359.5v-555h-164v543q0 188 -85.5 292.5t-236.5 104.5q-141 0 -235.5 -114.5t-94.5 -286.5v-539h-163v1188h-148v76h148v190h163v-190h394v-76h-394v-393q50 116 148 182.5t225 66.5z" />
    <glyph glyph-name="Imacron" unicode="&#x12a;" horiz-adv-x="675" 
d="M10 1823h656v-80h-656v80zM246 0v1434h184v-1434h-184z" />
    <glyph glyph-name="imacron" unicode="&#x12b;" horiz-adv-x="557" 
d="M-49 1413h655v-80h-655v80zM197 0v1024h163v-1024h-163z" />
    <glyph glyph-name="Iogonek" unicode="&#x12e;" horiz-adv-x="675" 
d="M246 0v1434h184v-1434h-184zM436 -160l-123 -342h-166l193 342h96z" />
    <glyph glyph-name="iogonek" unicode="&#x12f;" horiz-adv-x="557" 
d="M268 1169l-92 357h205l-92 -357h-21zM197 0v1024h163v-1024h-163zM365 -160l-123 -342h-166l192 342h97z" />
    <glyph glyph-name="Idotaccent" unicode="&#x130;" horiz-adv-x="675" 
d="M328 1579l-92 356h204l-92 -356h-20zM246 0v1434h184v-1434h-184z" />
    <glyph glyph-name="dotlessi" unicode="&#x131;" horiz-adv-x="557" 
d="M197 0v1024h163v-1024h-163z" />
    <glyph glyph-name="uni0136" unicode="&#x136;" horiz-adv-x="1447" 
d="M246 0v1434h184v-662h225l553 662h129l-536 -652l592 -782h-222l-514 662h-227v-662h-184zM729 -502h-80v2q114 105 121 183q-11 -7 -35 -7q-41 0 -65.5 23.5t-24.5 58.5q0 37 32 61.5t81 24.5q52 0 83 -25.5t31 -70.5q0 -65 -44 -139t-99 -111z" />
    <glyph glyph-name="uni0137" unicode="&#x137;" horiz-adv-x="1142" 
d="M197 0v1454h163v-893h170l414 463h115l-406 -457l447 -567h-193l-381 465h-166v-465h-163zM586 -502h-80v2q114 105 121 183q-11 -7 -35 -7q-41 0 -65.5 23.5t-24.5 58.5q0 37 31.5 61.5t80.5 24.5q52 0 83.5 -25.5t31.5 -70.5q0 -65 -44 -139t-99 -111z" />
    <glyph glyph-name="Lacute" unicode="&#x139;" horiz-adv-x="1226" 
d="M307 1593l123 342h168l-192 -342h-99zM246 0v1434h184v-1323h733v-111h-917z" />
    <glyph glyph-name="lacute" unicode="&#x13a;" horiz-adv-x="557" 
d="M248 1593l123 342h168l-193 -342h-98zM197 0v1454h163v-1454h-163z" />
    <glyph glyph-name="uni013B" unicode="&#x13b;" horiz-adv-x="1226" 
d="M246 0v1434h184v-1323h733v-111h-917zM696 -502h-80v2q114 105 121 183q-11 -7 -35 -7q-41 0 -65.5 23.5t-24.5 58.5q0 37 32 61.5t81 24.5q52 0 83.5 -25.5t31.5 -70.5q0 -65 -44.5 -139t-99.5 -111z" />
    <glyph glyph-name="uni013C" unicode="&#x13c;" horiz-adv-x="557" 
d="M197 0v1454h163v-1454h-163zM250 -502h-80v2q114 105 121 183q-11 -7 -35 -7q-41 0 -65.5 23.5t-24.5 58.5q0 37 32 61.5t81 24.5q52 0 83 -25.5t31 -70.5q0 -65 -44 -139t-99 -111z" />
    <glyph glyph-name="Lcaron" unicode="&#x13d;" horiz-adv-x="1226" 
d="M246 0v1434h184v-1323h733v-111h-917zM567 1106v328h148l-64 -328h-84z" />
    <glyph glyph-name="lcaron" unicode="&#x13e;" horiz-adv-x="557" 
d="M197 0v1454h163v-1454h-163zM496 1126v328h147l-63 -328h-84z" />
    <glyph glyph-name="Lslash" unicode="&#x141;" horiz-adv-x="1226" 
d="M430 111h733v-111h-917v596l-160 -92v108l160 93v729h184v-619l332 195v-111l-332 -192v-596z" />
    <glyph glyph-name="lslash" unicode="&#x142;" horiz-adv-x="565" 
d="M561 1010v-107l-196 -112v-791h-164v694l-160 -96v107l160 94v655h164v-559z" />
    <glyph glyph-name="Nacute" unicode="&#x143;" horiz-adv-x="1677" 
d="M809 1593l123 342h168l-193 -342h-98zM244 0v1434h190l893 -1174v1174h107v-1448h-121l-961 1255v-1241h-108z" />
    <glyph glyph-name="nacute" unicode="&#x144;" horiz-adv-x="1351" 
d="M657 1184l123 342h168l-192 -342h-99zM197 0v1024h157v-233q50 118 150 185.5t229 67.5q207 0 325 -129.5t118 -359.5v-555h-164v543q0 188 -85.5 292.5t-236.5 104.5q-141 0 -235.5 -114.5t-94.5 -286.5v-539h-163z" />
    <glyph glyph-name="uni0145" unicode="&#x145;" horiz-adv-x="1677" 
d="M244 0v1434h190l893 -1174v1174h107v-1448h-121l-961 1255v-1241h-108zM811 -502h-80v2q114 105 121 183q-10 -7 -35 -7q-41 0 -65.5 23.5t-24.5 58.5q0 37 32 61.5t81 24.5q52 0 83 -25.5t31 -70.5q0 -65 -44 -139t-99 -111z" />
    <glyph glyph-name="uni0146" unicode="&#x146;" horiz-adv-x="1351" 
d="M197 0v1024h157v-233q50 118 150 185.5t229 67.5q207 0 325 -129.5t118 -359.5v-555h-164v543q0 188 -85.5 292.5t-236.5 104.5q-141 0 -235.5 -114.5t-94.5 -286.5v-539h-163zM659 -502h-79v2q113 104 120 183q-10 -7 -34 -7q-42 0 -66.5 23.5t-24.5 58.5q0 37 32 61.5
t81 24.5q52 0 83.5 -25.5t31.5 -70.5q0 -65 -44.5 -139t-99.5 -111z" />
    <glyph glyph-name="Ncaron" unicode="&#x147;" horiz-adv-x="1677" 
d="M461 1935h184l229 -241l230 241h115l-299 -327h-158zM244 0v1434h190l893 -1174v1174h107v-1448h-121l-961 1255v-1241h-108z" />
    <glyph glyph-name="ncaron" unicode="&#x148;" horiz-adv-x="1351" 
d="M309 1526h185l229 -242l229 242h115l-299 -328h-158zM197 0v1024h157v-233q50 118 150 185.5t229 67.5q207 0 325 -129.5t118 -359.5v-555h-164v543q0 188 -85.5 292.5t-236.5 104.5q-141 0 -235.5 -114.5t-94.5 -286.5v-539h-163z" />
    <glyph glyph-name="Eng" unicode="&#x14a;" horiz-adv-x="1677" 
d="M1065 -430q-141 0 -234.5 74t-93.5 188h94v-2q0 -74 67.5 -124t162.5 -50q113 0 180.5 64.5t67.5 183.5q0 58 -18 103.5t-56 92.5l-883 1141v-1241h-108v1434h190l893 -1162v1162h107v-1487q0 -179 -98 -278t-271 -99z" />
    <glyph glyph-name="eng" unicode="&#x14b;" horiz-adv-x="1351" 
d="M813 -430q-142 0 -238 75t-96 187h96v-2q0 -74 68.5 -124t165.5 -50q105 0 172.5 59.5t67.5 175.5q0 48 -17.5 161t-17.5 192v299q0 188 -85.5 292.5t-238.5 104.5q-141 0 -235.5 -114.5t-94.5 -286.5v-539h-163v1024h157v-233q50 118 150 185.5t229 67.5
q207 0 325 -129.5t118 -359.5v-608q0 -179 -96.5 -278t-266.5 -99z" />
    <glyph glyph-name="Omacron" unicode="&#x14c;" horiz-adv-x="1736" 
d="M541 1823h655v-80h-655v80zM868 -31q-210 0 -379.5 96.5t-265.5 268t-96 383.5t96 383t265.5 267.5t379.5 96.5q158 0 296.5 -56.5t236.5 -155t154.5 -237.5t56.5 -298t-56.5 -298t-154.5 -237.5t-236.5 -155.5t-296.5 -57zM868 80q244 0 399.5 176.5t155.5 460.5
q0 285 -155 461t-400 176t-400 -176t-155 -461q0 -284 155.5 -460.5t399.5 -176.5z" />
    <glyph glyph-name="omacron" unicode="&#x14d;" horiz-adv-x="1298" 
d="M322 1413h655v-80h-655v80zM649 -20q-236 0 -393.5 152.5t-157.5 379.5q0 150 71.5 272t198 191t281.5 69t281.5 -69t198 -191t71.5 -272q0 -227 -157.5 -379.5t-393.5 -152.5zM649 76q167 0 276 122t109 314q0 193 -109 315.5t-276 122.5q-168 0 -275.5 -122
t-107.5 -316q0 -193 107.5 -314.5t275.5 -121.5z" />
    <glyph glyph-name="Ohungarumlaut" unicode="&#x150;" horiz-adv-x="1736" 
d="M659 1593l111 342h150l-172 -342h-89zM961 1593l108 342h152l-172 -342h-88zM868 -31q-210 0 -379.5 96.5t-265.5 268t-96 383.5t96 383t265.5 267.5t379.5 96.5q158 0 296.5 -56.5t236.5 -155t154.5 -237.5t56.5 -298t-56.5 -298t-154.5 -237.5t-236.5 -155.5
t-296.5 -57zM868 80q244 0 399.5 176.5t155.5 460.5q0 285 -155 461t-400 176t-400 -176t-155 -461q0 -284 155.5 -460.5t399.5 -176.5z" />
    <glyph glyph-name="ohungarumlaut" unicode="&#x151;" horiz-adv-x="1298" 
d="M440 1184l111 342h149l-172 -342h-88zM741 1184l109 342h151l-172 -342h-88zM649 -20q-236 0 -393.5 152.5t-157.5 379.5q0 150 71.5 272t198 191t281.5 69t281.5 -69t198 -191t71.5 -272q0 -227 -157.5 -379.5t-393.5 -152.5zM649 76q167 0 276 122t109 314
q0 193 -109 315.5t-276 122.5q-168 0 -275.5 -122t-107.5 -316q0 -193 107.5 -314.5t275.5 -121.5z" />
    <glyph glyph-name="OE" unicode="&#x152;" horiz-adv-x="2091" 
d="M903 0q-349 0 -562.5 198.5t-213.5 518.5t213.5 518.5t562.5 198.5h1041v-101h-650v-567h478v-96h-478v-568h738v-102h-1129zM899 104h213v1227h-213q-268 0 -426 -164.5t-158 -449.5q0 -283 158 -448t426 -165z" />
    <glyph glyph-name="oe" unicode="&#x153;" horiz-adv-x="2187" 
d="M649 -20q-236 0 -393.5 152.5t-157.5 379.5q0 150 71.5 272t198 191t281.5 69q158 0 282.5 -79.5t182.5 -212.5q56 133 179 212.5t280 79.5q231 0 381.5 -150.5t152.5 -379.5q0 -25 -2 -35h-911q10 -183 119.5 -294t277.5 -111q131 0 230 62t137 167h102
q-39 -144 -171 -233.5t-318 -89.5q-157 0 -279.5 79.5t-179.5 210.5q-56 -131 -180.5 -210.5t-282.5 -79.5zM1194 549h752q-9 185 -113 297t-262 112q-157 0 -262.5 -113t-114.5 -290v-6zM649 76q167 0 276 122t109 314q0 193 -109 315.5t-276 122.5q-168 0 -275.5 -122
t-107.5 -316q0 -193 107.5 -314.5t275.5 -121.5z" />
    <glyph glyph-name="Racute" unicode="&#x154;" horiz-adv-x="1427" 
d="M657 1593l123 342h168l-192 -342h-99zM246 0v1434h454q258 0 406.5 -111.5t148.5 -306.5q0 -149 -93.5 -249t-258.5 -136l490 -631h-213l-471 600q-12 -2 -43 -2h-236v-598h-184zM430 694h270q178 0 277.5 85t99.5 233q0 151 -99.5 235t-277.5 84h-270v-637z" />
    <glyph glyph-name="racute" unicode="&#x155;" horiz-adv-x="1067" 
d="M598 1184l123 342h168l-193 -342h-98zM197 0v1024h157v-242q46 121 140.5 191.5t214.5 70.5q159 0 248.5 -98t89.5 -280v-48h-162v44q0 133 -59 201.5t-169 68.5q-126 0 -211.5 -113t-85.5 -278v-541h-163z" />
    <glyph glyph-name="uni0156" unicode="&#x156;" horiz-adv-x="1427" 
d="M246 0v1434h454q258 0 406.5 -111.5t148.5 -306.5q0 -149 -93.5 -249t-258.5 -136l490 -631h-213l-471 600q-12 -2 -43 -2h-236v-598h-184zM430 694h270q178 0 277.5 85t99.5 233q0 151 -99.5 235t-277.5 84h-270v-637zM725 -502h-80v2q114 105 121 183q-10 -7 -35 -7
q-41 0 -65.5 23.5t-24.5 58.5q0 37 32 61.5t81 24.5q52 0 83 -25.5t31 -70.5q0 -65 -44 -139t-99 -111z" />
    <glyph glyph-name="uni0157" unicode="&#x157;" horiz-adv-x="1067" 
d="M197 0v1024h157v-242q46 121 140.5 191.5t214.5 70.5q159 0 248.5 -98t89.5 -280v-48h-162v44q0 133 -59 201.5t-169 68.5q-126 0 -211.5 -113t-85.5 -278v-541h-163zM250 -502h-80v2q114 105 121 183q-11 -7 -35 -7q-41 0 -65.5 23.5t-24.5 58.5q0 37 32 61.5t81 24.5
q52 0 83 -25.5t31 -70.5q0 -65 -44 -139t-99 -111z" />
    <glyph glyph-name="Rcaron" unicode="&#x158;" horiz-adv-x="1427" 
d="M309 1935h185l229 -241l229 241h115l-299 -327h-158zM246 0v1434h454q258 0 406.5 -111.5t148.5 -306.5q0 -149 -93.5 -249t-258.5 -136l490 -631h-213l-471 600q-12 -2 -43 -2h-236v-598h-184zM430 694h270q178 0 277.5 85t99.5 233q0 151 -99.5 235t-277.5 84h-270
v-637z" />
    <glyph glyph-name="rcaron" unicode="&#x159;" horiz-adv-x="1067" 
d="M250 1526h184l230 -242l229 242h115l-299 -328h-158zM197 0v1024h157v-242q46 121 140.5 191.5t214.5 70.5q159 0 248.5 -98t89.5 -280v-48h-162v44q0 133 -59 201.5t-169 68.5q-126 0 -211.5 -113t-85.5 -278v-541h-163z" />
    <glyph glyph-name="Sacute" unicode="&#x15a;" horiz-adv-x="1341" 
d="M621 1593l122 342h168l-192 -342h-98zM694 -31q-258 0 -425.5 134t-192.5 366h110q28 -186 162 -293.5t338 -107.5q183 0 288 71t105 201q0 43 -13 79t-32 62t-54 49t-66.5 37.5t-83 30t-89 24t-98.5 21.5q-81 18 -126.5 30t-118 36t-114.5 52t-86.5 68.5t-64.5 97
t-20 126.5q0 131 74 225.5t194 140t270 45.5q241 0 400 -129t182 -358h-117q-25 182 -147 284.5t-312 102.5q-165 0 -270.5 -73t-105.5 -201q0 -40 12.5 -74t30.5 -58t53 -46t63.5 -35.5t79.5 -28.5t84.5 -23t93.5 -22q6 -1 9 -2q56 -12 90 -20t86 -22.5t84.5 -27t75.5 -33
t70 -41.5t56 -50.5t45 -62.5t26.5 -75.5t10.5 -91.5q0 -195 -151.5 -301.5t-405.5 -106.5z" />
    <glyph glyph-name="sacute" unicode="&#x15b;" horiz-adv-x="1089" 
d="M500 1184l123 342h168l-193 -342h-98zM565 -23q-196 0 -334.5 91.5t-162.5 267.5h102q21 -134 130 -203.5t257 -69.5q49 0 97.5 9.5t95 29.5t75.5 58t29 88q0 21 -5 39t-17 32.5t-24 25.5t-35 21t-40.5 17t-49.5 15t-53 13t-60.5 13.5t-63.5 13.5q-50 10 -85 18t-81 22
t-77 29.5t-64.5 39t-53 50.5t-32.5 65t-13 83q0 79 37.5 139.5t100.5 95t136 51t152 16.5q119 0 215.5 -36.5t162.5 -116.5t79 -194h-102q-21 129 -119 195t-240 66q-49 0 -95.5 -10t-90 -31t-70 -60.5t-26.5 -91.5q0 -27 10.5 -49.5t29.5 -38.5t47 -29.5t60.5 -23t72 -19
t80.5 -18.5q25 -5 38 -8q56 -11 89 -18.5t83.5 -22t81 -29t66.5 -38t56 -50.5t33.5 -65t13.5 -83q0 -63 -27 -115t-70.5 -85.5t-101 -56t-117 -32.5t-120.5 -10z" />
    <glyph glyph-name="Scedilla" unicode="&#x15e;" horiz-adv-x="1341" 
d="M694 -31q-258 0 -425.5 134t-192.5 366h110q28 -186 162 -293.5t338 -107.5q183 0 288 71t105 201q0 43 -13 79t-32 62t-54 49t-66.5 37.5t-83 30t-89 24t-98.5 21.5q-81 18 -126.5 30t-118 36t-114.5 52t-86.5 68.5t-64.5 97t-20 126.5q0 131 74 225.5t194 140t270 45.5
q241 0 400 -129t182 -358h-117q-25 182 -147 284.5t-312 102.5q-165 0 -270.5 -73t-105.5 -201q0 -40 12.5 -74t30.5 -58t53 -46t63.5 -35.5t79.5 -28.5t84.5 -23t93.5 -22q6 -1 9 -2q56 -12 90 -20t86 -22.5t84.5 -27t75.5 -33t70 -41.5t56 -50.5t45 -62.5t26.5 -75.5
t10.5 -91.5q0 -195 -151.5 -301.5t-405.5 -106.5zM725 -160l-123 -342h-166l191 342h98z" />
    <glyph glyph-name="scedilla" unicode="&#x15f;" horiz-adv-x="1089" 
d="M565 -23q-196 0 -334.5 91.5t-162.5 267.5h102q21 -134 130 -203.5t257 -69.5q49 0 97.5 9.5t95 29.5t75.5 58t29 88q0 21 -5 39t-17 32.5t-24 25.5t-35 21t-40.5 17t-49.5 15t-53 13t-60.5 13.5t-63.5 13.5q-50 10 -85 18t-81 22t-77 29.5t-64.5 39t-53 50.5t-32.5 65
t-13 83q0 79 37.5 139.5t100.5 95t136 51t152 16.5q119 0 215.5 -36.5t162.5 -116.5t79 -194h-102q-21 129 -119 195t-240 66q-49 0 -95.5 -10t-90 -31t-70 -60.5t-26.5 -91.5q0 -27 10.5 -49.5t29.5 -38.5t47 -29.5t60.5 -23t72 -19t80.5 -18.5q25 -5 38 -8
q56 -11 89 -18.5t83.5 -22t81 -29t66.5 -38t56 -50.5t33.5 -65t13.5 -83q0 -63 -27 -115t-70.5 -85.5t-101 -56t-117 -32.5t-120.5 -10zM623 -160l-123 -342h-166l190 342h99z" />
    <glyph glyph-name="Scaron" unicode="&#x160;" horiz-adv-x="1341" 
d="M272 1935h185l229 -241l229 241h115l-299 -327h-158zM694 -31q-258 0 -425.5 134t-192.5 366h110q28 -186 162 -293.5t338 -107.5q183 0 288 71t105 201q0 43 -13 79t-32 62t-54 49t-66.5 37.5t-83 30t-89 24t-98.5 21.5q-81 18 -126.5 30t-118 36t-114.5 52t-86.5 68.5
t-64.5 97t-20 126.5q0 131 74 225.5t194 140t270 45.5q241 0 400 -129t182 -358h-117q-25 182 -147 284.5t-312 102.5q-165 0 -270.5 -73t-105.5 -201q0 -40 12.5 -74t30.5 -58t53 -46t63.5 -35.5t79.5 -28.5t84.5 -23t93.5 -22q6 -1 9 -2q56 -12 90 -20t86 -22.5t84.5 -27
t75.5 -33t70 -41.5t56 -50.5t45 -62.5t26.5 -75.5t10.5 -91.5q0 -195 -151.5 -301.5t-405.5 -106.5z" />
    <glyph glyph-name="scaron" unicode="&#x161;" horiz-adv-x="1089" 
d="M152 1526h184l229 -242l230 242h114l-299 -328h-157zM565 -23q-196 0 -334.5 91.5t-162.5 267.5h102q21 -134 130 -203.5t257 -69.5q49 0 97.5 9.5t95 29.5t75.5 58t29 88q0 21 -5 39t-17 32.5t-24 25.5t-35 21t-40.5 17t-49.5 15t-53 13t-60.5 13.5t-63.5 13.5
q-50 10 -85 18t-81 22t-77 29.5t-64.5 39t-53 50.5t-32.5 65t-13 83q0 79 37.5 139.5t100.5 95t136 51t152 16.5q119 0 215.5 -36.5t162.5 -116.5t79 -194h-102q-21 129 -119 195t-240 66q-49 0 -95.5 -10t-90 -31t-70 -60.5t-26.5 -91.5q0 -27 10.5 -49.5t29.5 -38.5
t47 -29.5t60.5 -23t72 -19t80.5 -18.5q25 -5 38 -8q56 -11 89 -18.5t83.5 -22t81 -29t66.5 -38t56 -50.5t33.5 -65t13.5 -83q0 -63 -27 -115t-70.5 -85.5t-101 -56t-117 -32.5t-120.5 -10z" />
    <glyph glyph-name="uni0162" unicode="&#x162;" horiz-adv-x="1339" 
d="M578 0v1323h-539v111h1264v-111h-541v-1323h-184zM721 -160l-123 -342h-166l191 342h98z" />
    <glyph glyph-name="uni0163" unicode="&#x163;" horiz-adv-x="956" 
d="M643 -20q-356 0 -356 335v615h-242v94h203q47 0 47 47v199h158l-2 -246h436v-94h-436v-608q0 -125 58 -183.5t181 -58.5q74 0 197 35v-95q-49 -17 -119.5 -28.5t-124.5 -11.5zM666 -160l-123 -342h-166l190 342h99z" />
    <glyph glyph-name="Tcaron" unicode="&#x164;" horiz-adv-x="1339" 
d="M291 1935h184l230 -241l229 241h115l-299 -327h-158zM578 0v1323h-539v111h1264v-111h-541v-1323h-184z" />
    <glyph glyph-name="tcaron" unicode="&#x165;" horiz-adv-x="956" 
d="M590 1106v328h147l-63 -328h-84zM643 -20q-356 0 -356 335v615h-242v94h203q47 0 47 47v199h158l-2 -246h436v-94h-436v-608q0 -125 58 -183.5t181 -58.5q74 0 197 35v-95q-49 -17 -119.5 -28.5t-124.5 -11.5z" />
    <glyph glyph-name="Tbar" unicode="&#x166;" horiz-adv-x="1339" 
d="M1303 1323h-541v-584h301v-86h-301v-653h-184v653h-299v86h299v584h-539v111h1264v-111z" />
    <glyph glyph-name="tbar" unicode="&#x167;" horiz-adv-x="956" 
d="M887 938h-436v-383h434v-78h-434v-160q1 -121 60 -179t179 -58q74 0 197 35v-95q-49 -17 -119.5 -28.5t-124.5 -11.5q-356 0 -356 335v162h-240v78h240v383h-242v86h203q47 0 47 47v199h158l-2 -246h436v-86z" />
    <glyph glyph-name="Umacron" unicode="&#x16a;" horiz-adv-x="1632" 
d="M510 1823h655v-80h-655v80zM823 -31q-278 0 -443 171.5t-165 459.5v834h184v-830q0 -244 121.5 -379t335.5 -135q210 0 334.5 140.5t124.5 377.5v826h112v-830q0 -290 -163.5 -462.5t-440.5 -172.5z" />
    <glyph glyph-name="umacron" unicode="&#x16b;" horiz-adv-x="1351" 
d="M338 1413h655v-80h-655v80zM618 -20q-206 0 -324 130.5t-118 360.5v553h164l2 -541q0 -189 84.5 -294t235.5 -105q141 0 236 115t95 288v537h162v-1024h-156v236q-50 -120 -150 -188t-231 -68z" />
    <glyph glyph-name="Uring" unicode="&#x16e;" horiz-adv-x="1632" 
d="M838 1577q-110 0 -186.5 76.5t-76.5 185.5t76.5 186.5t186.5 77.5q109 0 186.5 -77.5t77.5 -186.5t-77.5 -185.5t-186.5 -76.5zM838 1690q85 0 136.5 42t51.5 107q0 66 -51.5 109t-136.5 43q-86 0 -137.5 -42.5t-51.5 -109.5q0 -66 51.5 -107.5t137.5 -41.5zM823 -31
q-278 0 -443 171.5t-165 459.5v834h184v-830q0 -244 121.5 -379t335.5 -135q210 0 334.5 140.5t124.5 377.5v826h112v-830q0 -290 -163.5 -462.5t-440.5 -172.5z" />
    <glyph glyph-name="uring" unicode="&#x16f;" horiz-adv-x="1351" 
d="M666 1167q-110 0 -186.5 77t-76.5 186t76.5 186.5t186.5 77.5q109 0 186.5 -77.5t77.5 -186.5t-77.5 -186t-186.5 -77zM666 1280q85 0 136.5 42t51.5 108t-51.5 108.5t-136.5 42.5q-87 0 -138 -42t-51 -109q0 -66 51.5 -108t137.5 -42zM618 -20q-206 0 -324 130.5
t-118 360.5v553h164l2 -541q0 -189 84.5 -294t235.5 -105q141 0 236 115t95 288v537h162v-1024h-156v236q-50 -120 -150 -188t-231 -68z" />
    <glyph glyph-name="Uhungarumlaut" unicode="&#x170;" horiz-adv-x="1632" 
d="M629 1593l110 342h150l-172 -342h-88zM930 1593l108 342h152l-172 -342h-88zM823 -31q-278 0 -443 171.5t-165 459.5v834h184v-830q0 -244 121.5 -379t335.5 -135q210 0 334.5 140.5t124.5 377.5v826h112v-830q0 -290 -163.5 -462.5t-440.5 -172.5z" />
    <glyph glyph-name="uhungarumlaut" unicode="&#x171;" horiz-adv-x="1351" 
d="M457 1184l110 342h150l-172 -342h-88zM758 1184l108 342h152l-172 -342h-88zM618 -20q-206 0 -324 130.5t-118 360.5v553h164l2 -541q0 -189 84.5 -294t235.5 -105q141 0 236 115t95 288v537h162v-1024h-156v236q-50 -120 -150 -188t-231 -68z" />
    <glyph glyph-name="Uogonek" unicode="&#x172;" horiz-adv-x="1632" 
d="M823 -31q-278 0 -443 171.5t-165 459.5v834h184v-830q0 -244 121.5 -379t335.5 -135q210 0 334.5 140.5t124.5 377.5v826h112v-830q0 -290 -163.5 -462.5t-440.5 -172.5zM1360 -160l-123 -342h-166l193 342h96z" />
    <glyph glyph-name="uogonek" unicode="&#x173;" horiz-adv-x="1351" 
d="M618 -20q-206 0 -324 130.5t-118 360.5v553h164l2 -541q0 -189 84.5 -294t235.5 -105q141 0 236 115t95 288v537h162v-1024h-156v236q-50 -120 -150 -188t-231 -68zM1161 -160l-123 -342h-166l193 342h96z" />
    <glyph glyph-name="Wcircumflex" unicode="&#x174;" horiz-adv-x="2099" 
d="M1430 1608h-185l-229 241l-230 -241h-114l299 327h157zM498 0l-428 1434h192l377 -1252l367 1252h161l375 -1252l379 1252h113l-426 -1434h-193l-366 1229l-359 -1229h-192z" />
    <glyph glyph-name="wcircumflex" unicode="&#x175;" horiz-adv-x="1630" 
d="M1194 1198h-184l-230 242l-229 -242h-115l299 328h158zM373 0l-328 1024h164l283 -864l280 864h152l278 -860l283 860h102l-327 -1024h-160l-285 868l-283 -868h-159z" />
    <glyph glyph-name="Ycircumflex" unicode="&#x176;" horiz-adv-x="1366" 
d="M1067 1608h-184l-230 241l-229 -241h-115l299 327h158zM592 0v555l-582 879h207l506 -772l508 772h127l-582 -881v-553h-184z" />
    <glyph glyph-name="ycircumflex" unicode="&#x177;" horiz-adv-x="1124" 
d="M954 1198h-184l-229 242l-230 -242h-114l299 328h157zM377 -430q-143 0 -234.5 89.5t-91.5 242.5v55h99v-59q0 -107 62 -172.5t159 -65.5q92 0 148 56.5t56 150.5v24q0 90 -63 211l-487 922h180l397 -754q39 -86 43 -123q4 19 23 72l331 805h109l-369 -883
q-37 -84 -37 -182v-51q0 -155 -90.5 -246.5t-234.5 -91.5z" />
    <glyph glyph-name="Ydieresis" unicode="&#x178;" horiz-adv-x="1366" 
d="M532 1579l-88 356h195l-88 -356h-19zM825 1579l-86 356h193l-88 -356h-19zM592 0v555l-582 879h207l506 -772l508 772h127l-582 -881v-553h-184z" />
    <glyph glyph-name="Zacute" unicode="&#x179;" horiz-adv-x="1304" 
d="M668 1593l123 342h167l-192 -342h-98zM88 0v96l903 1233h-860v105h1086v-95l-904 -1233h906v-106h-1131z" />
    <glyph glyph-name="zacute" unicode="&#x17a;" horiz-adv-x="1052" 
d="M584 1184l123 342h167l-192 -342h-98zM74 0v82l688 848h-653v94h856v-82l-689 -846h689v-96h-891z" />
    <glyph glyph-name="Zdotaccent" unicode="&#x17b;" horiz-adv-x="1304" 
d="M688 1579l-92 356h205l-92 -356h-21zM88 0v96l903 1233h-860v105h1086v-95l-904 -1233h906v-106h-1131z" />
    <glyph glyph-name="zdotaccent" unicode="&#x17c;" horiz-adv-x="1052" 
d="M604 1169l-92 357h205l-92 -357h-21zM74 0v82l688 848h-653v94h856v-82l-689 -846h689v-96h-891z" />
    <glyph glyph-name="Zcaron" unicode="&#x17d;" horiz-adv-x="1304" 
d="M319 1935h185l229 -241l230 241h114l-299 -327h-157zM88 0v96l903 1233h-860v105h1086v-95l-904 -1233h906v-106h-1131z" />
    <glyph glyph-name="zcaron" unicode="&#x17e;" horiz-adv-x="1052" 
d="M236 1526h184l229 -242l230 242h114l-299 -328h-157zM74 0v82l688 848h-653v94h856v-82l-689 -846h689v-96h-891z" />
    <glyph glyph-name="uni01D0" unicode="&#x1d0;" horiz-adv-x="557" 
d="M-100 1526h184l229 -242l230 242h114l-299 -328h-157zM197 0v1024h163v-1024h-163z" />
    <glyph glyph-name="uni0218" unicode="&#x218;" horiz-adv-x="1341" 
d="M694 -31q-258 0 -425.5 134t-192.5 366h110q28 -186 162 -293.5t338 -107.5q183 0 288 71t105 201q0 43 -13 79t-32 62t-54 49t-66.5 37.5t-83 30t-89 24t-98.5 21.5q-81 18 -126.5 30t-118 36t-114.5 52t-86.5 68.5t-64.5 97t-20 126.5q0 131 74 225.5t194 140t270 45.5
q241 0 400 -129t182 -358h-117q-25 182 -147 284.5t-312 102.5q-165 0 -270.5 -73t-105.5 -201q0 -40 12.5 -74t30.5 -58t53 -46t63.5 -35.5t79.5 -28.5t84.5 -23t93.5 -22q6 -1 9 -2q56 -12 90 -20t86 -22.5t84.5 -27t75.5 -33t70 -41.5t56 -50.5t45 -62.5t26.5 -75.5
t10.5 -91.5q0 -195 -151.5 -301.5t-405.5 -106.5zM645 -502h-80v2q114 105 121 183q-11 -7 -35 -7q-41 0 -65.5 23.5t-24.5 58.5q0 37 32 61.5t81 24.5q52 0 83 -25.5t31 -70.5q0 -65 -44 -139t-99 -111z" />
    <glyph glyph-name="uni0219" unicode="&#x219;" horiz-adv-x="1089" 
d="M565 -23q-196 0 -334.5 91.5t-162.5 267.5h102q21 -134 130 -203.5t257 -69.5q49 0 97.5 9.5t95 29.5t75.5 58t29 88q0 21 -5 39t-17 32.5t-24 25.5t-35 21t-40.5 17t-49.5 15t-53 13t-60.5 13.5t-63.5 13.5q-50 10 -85 18t-81 22t-77 29.5t-64.5 39t-53 50.5t-32.5 65
t-13 83q0 79 37.5 139.5t100.5 95t136 51t152 16.5q119 0 215.5 -36.5t162.5 -116.5t79 -194h-102q-21 129 -119 195t-240 66q-49 0 -95.5 -10t-90 -31t-70 -60.5t-26.5 -91.5q0 -27 10.5 -49.5t29.5 -38.5t47 -29.5t60.5 -23t72 -19t80.5 -18.5q25 -5 38 -8
q56 -11 89 -18.5t83.5 -22t81 -29t66.5 -38t56 -50.5t33.5 -65t13.5 -83q0 -63 -27 -115t-70.5 -85.5t-101 -56t-117 -32.5t-120.5 -10zM543 -502h-80v2q114 105 121 183q-11 -7 -35 -7q-41 0 -65.5 23.5t-24.5 58.5q0 37 31.5 61.5t80.5 24.5q52 0 83.5 -25.5t31.5 -70.5
q0 -65 -44 -139t-99 -111z" />
    <glyph glyph-name="uni021A" unicode="&#x21a;" horiz-adv-x="1339" 
d="M578 0v1323h-539v111h1264v-111h-541v-1323h-184zM641 -502h-80v2q114 105 121 183q-10 -7 -35 -7q-41 0 -65.5 23.5t-24.5 58.5q0 37 32 61.5t81 24.5q52 0 83 -25.5t31 -70.5q0 -65 -44 -139t-99 -111z" />
    <glyph glyph-name="uni021B" unicode="&#x21b;" horiz-adv-x="956" 
d="M643 -20q-356 0 -356 335v615h-242v94h203q47 0 47 47v199h158l-2 -246h436v-94h-436v-608q0 -125 58 -183.5t181 -58.5q74 0 197 35v-95q-49 -17 -119.5 -28.5t-124.5 -11.5zM586 -502h-80v2q114 105 121 183q-11 -7 -35 -7q-41 0 -65.5 23.5t-24.5 58.5q0 37 31.5 61.5
t80.5 24.5q52 0 83.5 -25.5t31.5 -70.5q0 -65 -44 -139t-99 -111z" />
    <glyph glyph-name="uni0237" unicode="&#x237;" horiz-adv-x="616" 
d="M63 -430q-143 0 -239 75t-96 187h96v-2q0 -74 69 -124t166 -50q105 0 172.5 59.5t67.5 175.5q0 48 -17.5 161t-17.5 192v780h162v-1077q0 -179 -96.5 -278t-266.5 -99z" />
    <glyph glyph-name="uni02BC" unicode="&#x2bc;" horiz-adv-x="403" 
d="M199 1008h-88v4q110 110 127 227q-16 -16 -39 -16q-49 6 -79 39t-30 79q0 51 34.5 87t88.5 36t88.5 -35.5t34.5 -97.5q0 -82 -41.5 -179.5t-95.5 -143.5z" />
    <glyph glyph-name="gravecomb" unicode="&#x300;" horiz-adv-x="0" 
d="M-584 1184h-96l-192 342h167z" />
    <glyph glyph-name="acutecomb" unicode="&#x301;" horiz-adv-x="0" 
d="M-645 1184l123 342h168l-193 -342h-98z" />
    <glyph glyph-name="uni0302" unicode="&#x302;" horiz-adv-x="0" 
d="M-236 1198h-184l-229 242l-230 -242h-114l299 328h157z" />
    <glyph glyph-name="tildecomb" unicode="&#x303;" horiz-adv-x="0" 
d="M-999 1264q0 98 55 157.5t141 59.5q51 0 106.5 -15.5t95.5 -34t89.5 -34t89.5 -15.5q44 0 76.5 27.5t32.5 67.5h86q0 -98 -56.5 -157.5t-142.5 -59.5q-63 0 -133 24.5t-133.5 49t-112.5 24.5q-45 0 -76.5 -26.5t-31.5 -67.5h-86z" />
    <glyph glyph-name="uni0304" unicode="&#x304;" horiz-adv-x="0" 
d="M-942 1413h655v-80h-655v80z" />
    <glyph glyph-name="uni0306" unicode="&#x306;" horiz-adv-x="0" 
d="M-614 1171q-167 0 -268 96.5t-101 252.5v16h86v-14q0 -105 75 -165.5t208 -60.5q134 0 209 60.5t75 165.5v14h86v-16q0 -156 -101.5 -252.5t-268.5 -96.5z" />
    <glyph glyph-name="uni0307" unicode="&#x307;" horiz-adv-x="0" 
d="M-625 1169l-92 357h205l-92 -357h-21z" />
    <glyph glyph-name="uni0308" unicode="&#x308;" horiz-adv-x="0" 
d="M-770 1169l-88 357h194l-88 -357h-18zM-477 1169l-86 357h192l-88 -357h-18z" />
    <glyph glyph-name="uni030A" unicode="&#x30a;" horiz-adv-x="0" 
d="M-614 1167q-110 0 -186.5 77t-76.5 186t76.5 186.5t186.5 77.5q109 0 186.5 -77.5t77.5 -186.5t-77.5 -186t-186.5 -77zM-614 1280q85 0 136.5 42t51.5 108t-51.5 108.5t-136.5 42.5q-87 0 -138 -42t-51 -109q0 -66 51.5 -108t137.5 -42z" />
    <glyph glyph-name="uni030B" unicode="&#x30b;" horiz-adv-x="0" 
d="M-823 1184l110 342h150l-172 -342h-88zM-522 1184l108 342h152l-172 -342h-88z" />
    <glyph glyph-name="uni030C" unicode="&#x30c;" horiz-adv-x="0" 
d="M-993 1526h184l229 -242l230 242h114l-299 -328h-157z" />
    <glyph glyph-name="uni0312" unicode="&#x312;" horiz-adv-x="0" 
d="M-584 1534h78v-4q-114 -102 -119 -182q9 6 35 6q40 -1 65 -24t25 -56q0 -37 -32 -62.5t-82 -25.5q-51 0 -82 25.5t-31 70.5q0 65 43.5 139.5t99.5 112.5z" />
    <glyph glyph-name="uni0326" unicode="&#x326;" horiz-adv-x="0" 
d="M-643 -502h-80v2q114 105 121 183q-10 -7 -35 -7q-41 0 -65.5 23.5t-24.5 58.5q0 37 32 61.5t81 24.5q52 0 83 -25.5t31 -70.5q0 -65 -44 -139t-99 -111z" />
    <glyph glyph-name="uni0327" unicode="&#x327;" horiz-adv-x="0" 
d="M-563 -160l-123 -342h-166l190 342h99z" />
    <glyph glyph-name="uni0328" unicode="&#x328;" horiz-adv-x="0" 
d="M-608 -160l-123 -342h-166l192 342h97z" />
    <glyph glyph-name="uni0335" unicode="&#x335;" horiz-adv-x="0" 
d="M-967 1268h705v-76h-705v76z" />
    <glyph glyph-name="uni0401" unicode="&#x401;" horiz-adv-x="1241" 
d="M512 1579l-88 356h194l-88 -356h-18zM805 1579l-86 356h192l-88 -356h-18zM246 0v1434h846v-101h-664v-567h479v-96h-479v-568h752v-102h-934z" />
    <glyph glyph-name="uni0404" unicode="&#x404;" horiz-adv-x="1642" 
d="M858 -31q-159 0 -295 55.5t-232 153.5t-150 237t-54 302q0 217 92.5 387.5t259 265t379.5 94.5q267 0 452.5 -157t223.5 -412h-115q-37 204 -184 329.5t-356 125.5q-242 0 -398 -162t-168 -424h566v-92h-566q12 -261 168.5 -423.5t397.5 -162.5q209 0 356 125t184 330
h115q-38 -256 -223.5 -414t-452.5 -158z" />
    <glyph glyph-name="uni0406" unicode="&#x406;" horiz-adv-x="675" 
d="M246 0v1434h184v-1434h-184z" />
    <glyph glyph-name="uni0407" unicode="&#x407;" horiz-adv-x="675" 
d="M182 1579l-88 356h195l-88 -356h-19zM475 1579l-86 356h193l-88 -356h-19zM246 0v1434h184v-1434h-184z" />
    <glyph glyph-name="uni040E" unicode="&#x40e;" horiz-adv-x="1308" 
d="M713 1581q-167 0 -268 96t-101 252v17h86v-15q0 -105 75 -165t208 -60q134 0 209 60t75 165v15h86v-17q0 -156 -101.5 -252t-268.5 -96zM532 -31q-143 0 -241 100t-98 265v59h112v-61q0 -110 59.5 -181t155.5 -71q88 0 138.5 47t50.5 123q0 79 -56 168l-633 1016h218
l526 -863q55 -87 65 -180l351 1043h118l-387 -1133q-58 -170 -147.5 -251t-231.5 -81z" />
    <glyph glyph-name="uni0410" unicode="&#x410;" horiz-adv-x="1423" 
d="M31 0l585 1434h191l584 -1434h-197l-174 430h-696l-177 -430h-116zM354 524h633l-313 764h-6z" />
    <glyph glyph-name="uni0411" unicode="&#x411;" horiz-adv-x="1431" 
d="M246 0v1434h962v-101h-782v-516h344q250 0 391.5 -108.5t141.5 -298.5q0 -191 -141.5 -300.5t-391.5 -109.5h-524zM426 96h336q167 0 261.5 83.5t94.5 230.5q0 148 -94.5 231.5t-261.5 83.5h-336v-629z" />
    <glyph glyph-name="uni0412" unicode="&#x412;" horiz-adv-x="1462" 
d="M246 0v1434h538q239 0 374.5 -99t135.5 -272q0 -123 -72 -209t-204 -123v-8q160 -31 246 -121t86 -225q0 -173 -138 -275t-381 -102h-585zM426 764h356q161 0 249.5 76t88.5 211q0 136 -89.5 211t-252.5 75h-352v-573zM426 96h391q166 0 258 76t92 213q0 135 -93.5 211
t-258.5 76h-389v-576z" />
    <glyph glyph-name="uni0413" unicode="&#x413;" horiz-adv-x="1224" 
d="M246 0v1434h917v-111h-733v-1323h-184z" />
    <glyph glyph-name="uni0414" unicode="&#x414;" horiz-adv-x="1572" 
d="M35 -336v447h153q121 393 121 921q0 64 -6 123l-8 279h1003v-1323h183v-447h-168v336h-1110v-336h-168zM299 104h817v1225h-672l-10 -268q-12 -306 -44 -529.5t-91 -427.5z" />
    <glyph glyph-name="uni0415" unicode="&#x415;" horiz-adv-x="1241" 
d="M246 0v1434h846v-101h-664v-567h479v-96h-479v-568h752v-102h-934z" />
    <glyph glyph-name="uni0416" unicode="&#x416;" horiz-adv-x="2117" 
d="M57 0l533 782l-492 652h129l508 -662h232v662h184v-662h231l508 662h129l-491 -652l534 -782h-217l-461 662h-233v-662h-184v662h-234l-461 -662h-215z" />
    <glyph glyph-name="uni0417" unicode="&#x417;" horiz-adv-x="1345" 
d="M707 -31q-260 0 -434.5 138t-200.5 378h108q28 -187 160.5 -295t337.5 -108q188 0 297.5 84t109.5 223q0 124 -98.5 204.5t-241.5 80.5h-149v90h149q137 0 226.5 83t89.5 204q0 136 -106.5 218.5t-280.5 82.5q-189 0 -311.5 -103t-145.5 -280h-113q29 233 192.5 364
t412.5 131q234 0 383 -109.5t149 -289.5q0 -122 -74.5 -212.5t-203.5 -129.5q132 -31 219.5 -125.5t87.5 -214.5q0 -192 -153.5 -303t-409.5 -111z" />
    <glyph glyph-name="uni0418" unicode="&#x418;" horiz-adv-x="1705" 
d="M246 -16v1450h182v-1162l864 1162h168v-1434h-182v1231l-920 -1247h-112z" />
    <glyph glyph-name="uni0419" unicode="&#x419;" horiz-adv-x="1705" 
d="M854 1581q-167 0 -268 96t-101 252v17h86v-15q0 -105 75 -165t208 -60q134 0 209.5 60t75.5 165v15h86v-17q0 -156 -102 -252t-269 -96zM246 -16v1450h182v-1162l864 1162h168v-1434h-182v1231l-920 -1247h-112z" />
    <glyph glyph-name="uni041A" unicode="&#x41a;" horiz-adv-x="1447" 
d="M246 0v1434h184v-662h225l553 662h129l-536 -652l592 -782h-222l-514 662h-227v-662h-184z" />
    <glyph glyph-name="uni041B" unicode="&#x41b;" horiz-adv-x="1609" 
d="M150 -27q-82 0 -138 27v182q74 -18 127 -18q163 0 197 209q55 217 49 825l-8 236h987v-1434h-184v1323h-660l-8 -176q-22 -682 -102 -938q-34 -115 -100.5 -175.5t-159.5 -60.5z" />
    <glyph glyph-name="uni041C" unicode="&#x41c;" horiz-adv-x="2021" 
d="M246 0v1434h248l522 -1209l520 1209h242v-1434h-185v1300l-553 -1300h-129l-553 1296v-1296h-112z" />
    <glyph glyph-name="uni041D" unicode="&#x41d;" horiz-adv-x="1679" 
d="M246 0v1434h184v-662h819v662h185v-1434h-185v662h-819v-662h-184z" />
    <glyph glyph-name="uni041E" unicode="&#x41e;" horiz-adv-x="1736" 
d="M868 -31q-210 0 -379.5 96.5t-265.5 268t-96 383.5t96 383t265.5 267.5t379.5 96.5q158 0 296.5 -56.5t236.5 -155t154.5 -237.5t56.5 -298t-56.5 -298t-154.5 -237.5t-236.5 -155.5t-296.5 -57zM868 80q244 0 399.5 176.5t155.5 460.5q0 285 -155 461t-400 176
t-400 -176t-155 -461q0 -284 155.5 -460.5t399.5 -176.5z" />
    <glyph glyph-name="uni041F" unicode="&#x41f;" horiz-adv-x="1679" 
d="M246 0v1434h1188v-1434h-185v1323h-819v-1323h-184z" />
    <glyph glyph-name="uni0420" unicode="&#x420;" horiz-adv-x="1345" 
d="M246 0v1434h444q262 0 408.5 -112.5t146.5 -311.5q0 -197 -147 -310.5t-408 -113.5h-260v-586h-184zM430 682h260q175 0 273 86t98 240q0 152 -98 238.5t-273 86.5h-260v-651z" />
    <glyph glyph-name="uni0421" unicode="&#x421;" horiz-adv-x="1642" 
d="M858 -31q-159 0 -295 55.5t-232 153.5t-150 237t-54 302q0 217 92.5 387.5t259 265t379.5 94.5q270 0 457 -161t219 -422h-115q-32 208 -178.5 335t-357.5 127q-253 0 -411.5 -173.5t-158.5 -452.5q0 -278 159.5 -452.5t410.5 -174.5q211 0 357.5 127.5t178.5 337.5h115
q-32 -261 -219 -423.5t-457 -162.5z" />
    <glyph glyph-name="uni0422" unicode="&#x422;" horiz-adv-x="1339" 
d="M578 0v1323h-539v111h1264v-111h-541v-1323h-184z" />
    <glyph glyph-name="uni0423" unicode="&#x423;" horiz-adv-x="1308" 
d="M532 -31q-143 0 -241 100t-98 265v59h112v-61q0 -110 59.5 -181t155.5 -71q88 0 138.5 47t50.5 123q0 79 -56 168l-633 1016h218l526 -863q55 -87 65 -180l351 1043h118l-387 -1133q-58 -170 -147.5 -251t-231.5 -81z" />
    <glyph glyph-name="uni0424" unicode="&#x424;" horiz-adv-x="2058" 
d="M938 0v213h-147q-314 0 -489 138t-175 384q0 248 174.5 385t489.5 137h147v197h184v-197h146q315 0 489 -137t174 -385q0 -246 -174.5 -384t-488.5 -138h-146v-213h-184zM788 315h150v842h-150q-229 0 -352 -110t-123 -312q0 -201 123 -310.5t352 -109.5zM1122 315h150
q226 0 348.5 110t122.5 310q0 202 -122 312t-349 110h-150v-842z" />
    <glyph glyph-name="uni0425" unicode="&#x425;" horiz-adv-x="1404" 
d="M45 0l549 717l-535 717h217l451 -592l461 592h133l-518 -668l565 -766h-217l-479 637l-494 -637h-133z" />
    <glyph glyph-name="uni0426" unicode="&#x426;" horiz-adv-x="1712" 
d="M1452 -336v336h-1206v1434h184v-1323h823v1323h185v-1323h182v-447h-168z" />
    <glyph glyph-name="uni0427" unicode="&#x427;" horiz-adv-x="1495" 
d="M1067 0v588h-354q-267 0 -415 115.5t-148 324.5v406h184v-424q0 -150 100 -234t279 -84h354v742h184v-1434h-184z" />
    <glyph glyph-name="uni0428" unicode="&#x428;" horiz-adv-x="2299" 
d="M246 0v1434h184v-1323h629v1323h184v-1323h627v1323h184v-1434h-1808z" />
    <glyph glyph-name="uni0429" unicode="&#x429;" horiz-adv-x="2328" 
d="M2071 -336v336h-1825v1434h184v-1323h629v1323h184v-1323h627v1323h184v-1323h184v-447h-167z" />
    <glyph glyph-name="uni042A" unicode="&#x42a;" horiz-adv-x="1572" 
d="M899 848q260 0 406.5 -112.5t146.5 -311.5q0 -197 -146.5 -310.5t-406.5 -113.5h-455v1323h-405v111h588v-586h272zM895 102q176 0 274.5 86.5t98.5 239.5q0 154 -98 240t-275 86h-268v-652h268z" />
    <glyph glyph-name="uni042B" unicode="&#x42b;" horiz-adv-x="1976" 
d="M246 0v1434h184v-586h272q260 0 406.5 -112.5t146.5 -311.5q0 -197 -146.5 -310.5t-406.5 -113.5h-456zM1548 0v1434h185v-1434h-185zM430 102h268q176 0 274.5 86.5t98.5 239.5q0 154 -98 240t-275 86h-268v-652z" />
    <glyph glyph-name="uni042C" unicode="&#x42c;" horiz-adv-x="1374" 
d="M246 0v1434h184v-586h272q260 0 406.5 -112.5t146.5 -311.5q0 -197 -146.5 -310.5t-406.5 -113.5h-456zM430 102h268q176 0 274.5 86.5t98.5 239.5q0 154 -98 240t-275 86h-268v-652z" />
    <glyph glyph-name="uni042D" unicode="&#x42d;" horiz-adv-x="1603" 
d="M758 -31q-271 0 -460 158t-226 414h110q38 -205 188 -330t363 -125q236 0 389 162.5t164 423.5h-561v92h561q-11 261 -164 423.5t-389 162.5q-212 0 -362 -125.5t-189 -329.5h-110q37 254 226 411.5t460 157.5q209 0 373 -94.5t256 -265t92 -387.5q0 -163 -53.5 -302
t-148.5 -237t-229 -153.5t-290 -55.5z" />
    <glyph glyph-name="uni042E" unicode="&#x42e;" horiz-adv-x="2322" 
d="M1475 -31q-147 0 -277 52t-224 143.5t-152.5 220t-67.5 277.5h-324v-662h-184v1434h184v-662h324q9 149 67.5 277.5t152.5 219.5t224 143t277 52q205 0 370.5 -96.5t259 -267.5t93.5 -383q0 -159 -55 -298t-150.5 -237.5t-229.5 -155.5t-288 -57zM1475 80
q235 0 384.5 176.5t149.5 460.5q0 285 -149.5 461t-384.5 176q-237 0 -387 -176t-150 -461q0 -284 150.5 -460.5t386.5 -176.5z" />
    <glyph glyph-name="uni042F" unicode="&#x42f;" horiz-adv-x="1431" 
d="M25 0l458 635q-153 40 -237 138t-84 241q0 196 147 308t410 112h467v-1434h-182v594h-265q-48 0 -71 4l-435 -598h-208zM721 690h283v641h-283q-178 0 -277.5 -84.5t-99.5 -234.5q0 -151 99.5 -236.5t277.5 -85.5z" />
    <glyph glyph-name="uni0430" unicode="&#x430;" horiz-adv-x="1232" 
d="M424 -23q-161 0 -247.5 73.5t-86.5 195.5q0 67 29 119t75.5 85t115 56t135.5 34t149 17q90 6 147 18t93 37.5t36 65.5q0 123 -82.5 198.5t-212.5 75.5q-133 0 -222.5 -77.5t-112.5 -212.5h-97q26 178 148 280t307 102q194 0 311 -111.5t117 -301.5v-537h141v-94h-288v248
q-55 -126 -177.5 -198.5t-277.5 -72.5zM473 72q167 0 282 112.5t115 276.5l2 98q-52 -46 -239 -63q-198 -19 -287.5 -75.5t-89.5 -160.5q0 -92 58 -140t159 -48z" />
    <glyph glyph-name="uni0431" unicode="&#x431;" horiz-adv-x="1292" 
d="M662 -20q-235 0 -389 147t-154 377v225q6 291 161 445.5t422 154.5h285v127h94v-270h-405q-463 0 -463 -430v-80q56 127 180 201.5t281 74.5q223 0 371.5 -138t148.5 -345q0 -209 -152.5 -349t-379.5 -140zM657 70q161 0 266 111t105 288q0 174 -105 285.5t-266 111.5
q-162 0 -266 -111.5t-104 -285.5q0 -177 104 -288t266 -111z" />
    <glyph glyph-name="uni0432" unicode="&#x432;" horiz-adv-x="1165" 
d="M197 0v1024h452q185 0 287 -69.5t102 -196.5q0 -178 -204 -234v-8q121 -23 183 -87t62 -161q0 -127 -103 -197.5t-298 -70.5h-481zM356 549h267q124 0 192 51t68 143q0 96 -66 148.5t-186 52.5h-275v-395zM356 82h303q122 0 189 52.5t67 148.5q0 93 -69 143.5t-195 50.5
h-295v-395z" />
    <glyph glyph-name="uni0433" unicode="&#x433;" horiz-adv-x="942" 
d="M197 0v1024h718v-98h-555v-926h-163z" />
    <glyph glyph-name="uni0434" unicode="&#x434;" horiz-adv-x="1218" 
d="M27 -256v352h114q86 275 86 639q0 6 -6 135l-6 154h791v-928h143v-352h-145v256h-832v-256h-145zM244 92h598v842h-498l-6 -184q-19 -390 -94 -658z" />
    <glyph glyph-name="uni0435" unicode="&#x435;" horiz-adv-x="1253" 
d="M637 -20q-152 0 -275.5 68.5t-193.5 190t-70 271.5q0 231 154.5 382.5t388.5 151.5q230 0 380.5 -150.5t152.5 -379.5q0 -20 -3 -35h-909q9 -182 119 -293.5t278 -111.5q130 0 228.5 62t136.5 167h104q-41 -144 -173 -233.5t-318 -89.5zM1012 549q-9 185 -113 297
t-262 112q-157 0 -262.5 -113t-112.5 -290v-6h750z" />
    <glyph glyph-name="uni0436" unicode="&#x436;" horiz-adv-x="1650" 
d="M49 0l400 567l-373 457h117l382 -463h168v893h164v-893h170l383 463h115l-371 -457l400 -567h-187l-342 465h-168v-465h-164v465h-168l-342 -465h-184z" />
    <glyph glyph-name="uni0437" unicode="&#x437;" horiz-adv-x="1077" 
d="M551 -25q-212 0 -348.5 106t-149.5 288h99q14 -136 113.5 -216.5t262.5 -80.5q145 0 225.5 58.5t80.5 160.5q0 78 -70.5 132t-173.5 54h-125v72h117q96 0 162.5 52.5t66.5 129.5q0 100 -77 160.5t-208 60.5q-150 0 -243 -77.5t-107 -212.5h-98q12 174 139 279.5
t334 105.5q197 0 308.5 -84.5t111.5 -219.5q0 -79 -53 -138t-146 -87q101 -24 164 -88.5t63 -148.5q0 -142 -121.5 -224t-326.5 -82z" />
    <glyph glyph-name="uni0438" unicode="&#x438;" horiz-adv-x="1339" 
d="M197 -12v1036h161v-809l637 809h148v-1024h-162v856l-678 -868h-106z" />
    <glyph glyph-name="uni0439" unicode="&#x439;" horiz-adv-x="1339" 
d="M674 1171q-167 0 -268 96.5t-101 252.5v16h86v-14q0 -105 75 -165.5t208 -60.5q134 0 209 60.5t75 165.5v14h86v-16q0 -156 -101.5 -252.5t-268.5 -96.5zM197 -12v1036h161v-809l637 809h148v-1024h-162v856l-678 -868h-106z" />
    <glyph glyph-name="uni043A" unicode="&#x43a;" horiz-adv-x="1142" 
d="M197 0v1454h163v-893h170l414 463h115l-406 -457l447 -567h-193l-381 465h-166v-465h-163z" />
    <glyph glyph-name="uni043B" unicode="&#x43b;" horiz-adv-x="1265" 
d="M127 -23q-59 0 -111 25v148q52 -19 99 -19q107 0 141 117q46 136 39 600l-6 176h780v-1024h-162v928h-491l-6 -127q-20 -533 -80 -666q-63 -158 -203 -158z" />
    <glyph glyph-name="uni043C" unicode="&#x43c;" horiz-adv-x="1601" 
d="M197 0v1024h217l395 -836l389 836h207v-1024h-162v899l-418 -899h-102l-426 899v-899h-100z" />
    <glyph glyph-name="uni043D" unicode="&#x43d;" horiz-adv-x="1325" 
d="M197 0v1024h163v-463h607v463h161v-1024h-161v465h-607v-465h-163z" />
    <glyph glyph-name="uni043E" unicode="&#x43e;" horiz-adv-x="1298" 
d="M649 -20q-236 0 -393.5 152.5t-157.5 379.5q0 150 71.5 272t198 191t281.5 69t281.5 -69t198 -191t71.5 -272q0 -227 -157.5 -379.5t-393.5 -152.5zM649 76q167 0 276 122t109 314q0 193 -109 315.5t-276 122.5q-168 0 -275.5 -122t-107.5 -316q0 -193 107.5 -314.5
t275.5 -121.5z" />
    <glyph glyph-name="uni043F" unicode="&#x43f;" horiz-adv-x="1325" 
d="M197 0v1024h931v-1024h-161v928h-607v-928h-163z" />
    <glyph glyph-name="uni0440" unicode="&#x440;" horiz-adv-x="1357" 
d="M197 -410v1434h157v-246q52 123 159.5 194.5t250.5 71.5q212 0 354 -151t142 -381q0 -229 -142 -380.5t-354 -151.5q-141 0 -246.5 70.5t-157.5 193.5v-654h-163zM729 82q157 0 261 119.5t104 310.5q0 192 -103.5 311t-261.5 119q-160 0 -267.5 -123.5t-107.5 -306.5
q0 -182 108 -306t267 -124z" />
    <glyph glyph-name="uni0441" unicode="&#x441;" horiz-adv-x="1220" 
d="M635 -20q-233 0 -385 151.5t-152 380.5q0 230 152 381t385 151q203 0 337 -108.5t165 -294.5h-103q-29 139 -129.5 221t-245.5 82q-175 0 -285 -120.5t-110 -311.5q0 -190 110.5 -311t284.5 -121q145 0 245.5 82t129.5 221h103q-31 -185 -165.5 -294t-336.5 -109z" />
    <glyph glyph-name="uni0442" unicode="&#x442;" horiz-adv-x="1091" 
d="M465 0v926h-412v98h985v-98h-409v-926h-164z" />
    <glyph glyph-name="uni0443" unicode="&#x443;" horiz-adv-x="1124" 
d="M377 -430q-143 0 -234.5 89.5t-91.5 242.5v55h99v-59q0 -107 62 -172.5t159 -65.5q92 0 148 56.5t56 150.5v24q0 90 -63 211l-487 922h180l397 -754q39 -86 43 -123q4 19 23 72l331 805h109l-369 -883q-37 -84 -37 -182v-51q0 -155 -90.5 -246.5t-234.5 -91.5z" />
    <glyph glyph-name="uni0444" unicode="&#x444;" horiz-adv-x="1947" 
d="M893 -410v637q-46 -117 -137 -182t-215 -65q-191 0 -317 150t-126 382t126 382t317 150q124 0 215 -65t137 -182v657h162v-657q48 117 138.5 182t213.5 65q191 0 316.5 -150t125.5 -382t-125.5 -382t-316.5 -150q-123 0 -213.5 65t-138.5 182v-637h-162zM580 82
q138 0 228.5 122.5t90.5 307.5q0 186 -91 308t-230 122q-137 0 -224.5 -117t-87.5 -309q0 -196 88.5 -315t225.5 -119zM1370 82q136 0 224.5 119t88.5 315q0 192 -87.5 309t-223.5 117q-139 0 -230 -122t-91 -308q0 -185 90.5 -307.5t228.5 -122.5z" />
    <glyph glyph-name="uni0445" unicode="&#x445;" horiz-adv-x="1153" 
d="M59 0l424 508l-415 516h194l334 -403l342 403h121l-395 -473l438 -551h-197l-356 440l-369 -440h-121z" />
    <glyph glyph-name="uni0446" unicode="&#x446;" horiz-adv-x="1337" 
d="M1122 -256v256h-925v1024h163v-928h601v928h161v-928h146v-352h-146z" />
    <glyph glyph-name="uni0447" unicode="&#x447;" horiz-adv-x="1183" 
d="M825 0v412h-282q-198 0 -309 83t-111 232v297h162v-299q0 -104 69 -161.5t195 -57.5h276v518h164v-1024h-164z" />
    <glyph glyph-name="uni0448" unicode="&#x448;" horiz-adv-x="1818" 
d="M197 0v1024h163v-928h469v928h162v-928h469v928h162v-1024h-1425z" />
    <glyph glyph-name="uni0449" unicode="&#x449;" horiz-adv-x="1832" 
d="M1618 -256v256h-1423v1024h161v-928h469v928h162v-928h469v928h164v-928h143v-352h-145z" />
    <glyph glyph-name="uni044A" unicode="&#x44a;" horiz-adv-x="1245" 
d="M739 612q197 0 308.5 -81.5t111.5 -225.5q0 -143 -112 -224t-308 -81h-383v928h-321v96h483v-412h221zM733 82q124 0 193 59.5t69 165.5t-69.5 165.5t-192.5 59.5h-215v-450h215z" />
    <glyph glyph-name="uni044B" unicode="&#x44b;" horiz-adv-x="1546" 
d="M197 0v1024h163v-412h220q197 0 308 -81t111 -226q0 -143 -111.5 -224t-307.5 -81h-383zM1188 0v1024h162v-1024h-162zM360 82h213q125 0 195 59.5t70 165.5q0 105 -71 165t-194 60h-213v-450z" />
    <glyph glyph-name="uni044C" unicode="&#x44c;" horiz-adv-x="1087" 
d="M197 0v1024h163v-412h220q197 0 308 -81t111 -226q0 -143 -111.5 -224t-307.5 -81h-383zM360 82h213q125 0 195 59.5t70 165.5q0 105 -71 165t-194 60h-213v-450z" />
    <glyph glyph-name="uni044D" unicode="&#x44d;" horiz-adv-x="1224" 
d="M602 -20q-207 0 -346 110t-172 293h100q31 -141 137 -224t263 -83q158 0 265 112t116 289h-402v72h402q-9 176 -116 287.5t-265 111.5q-157 0 -263 -82.5t-137 -224.5h-100q32 184 171 293.5t347 109.5q224 0 374 -151.5t150 -380.5t-150 -380.5t-374 -151.5z" />
    <glyph glyph-name="uni044E" unicode="&#x44e;" horiz-adv-x="1757" 
d="M1126 -20q-216 0 -363.5 137t-162.5 348h-240v-465h-163v1024h163v-463h240q15 210 162.5 346.5t363.5 136.5q150 0 272.5 -69t191.5 -191t69 -272q0 -228 -152.5 -380t-380.5 -152zM1126 76q159 0 263 122t104 314q0 194 -104 316t-263 122q-161 0 -263.5 -122
t-102.5 -316q0 -193 103 -314.5t263 -121.5z" />
    <glyph glyph-name="uni044F" unicode="&#x44f;" horiz-adv-x="1155" 
d="M35 0l325 440q-108 29 -167.5 102t-59.5 177q0 143 107.5 224t298.5 81h422v-1024h-162v408h-242q-25 0 -35 2l-299 -410h-188zM555 487h244v451h-244q-122 0 -191 -59.5t-69 -165.5q0 -105 69.5 -165.5t190.5 -60.5z" />
    <glyph glyph-name="uni0451" unicode="&#x451;" horiz-adv-x="1253" 
d="M469 1169l-88 357h194l-88 -357h-18zM762 1169l-86 357h192l-88 -357h-18zM637 -20q-152 0 -275.5 68.5t-193.5 190t-70 271.5q0 231 154.5 382.5t388.5 151.5q230 0 380.5 -150.5t152.5 -379.5q0 -20 -3 -35h-909q9 -182 119 -293.5t278 -111.5q130 0 228.5 62
t136.5 167h104q-41 -144 -173 -233.5t-318 -89.5zM1012 549q-9 185 -113 297t-262 112q-157 0 -262.5 -113t-112.5 -290v-6h750z" />
    <glyph glyph-name="uni0454" unicode="&#x454;" horiz-adv-x="1224" 
d="M637 -20q-233 0 -386 151t-153 381t153 381t386 151q201 0 337.5 -109.5t168.5 -293.5h-101q-31 142 -134 224.5t-255 82.5q-165 0 -273.5 -111t-117.5 -288h400v-72h-400q9 -179 117 -290t274 -111q152 0 255 83t134 224h101q-33 -183 -169 -293t-337 -110z" />
    <glyph glyph-name="uni0456" unicode="&#x456;" horiz-adv-x="557" 
d="M268 1169l-92 357h205l-92 -357h-21zM197 0v1024h163v-1024h-163z" />
    <glyph glyph-name="uni0457" unicode="&#x457;" horiz-adv-x="557" 
d="M123 1169l-88 357h194l-88 -357h-18zM416 1169l-86 357h192l-88 -357h-18zM197 0v1024h163v-1024h-163z" />
    <glyph glyph-name="uni045E" unicode="&#x45e;" horiz-adv-x="1124" 
d="M575 1171q-166 0 -267 96.5t-101 252.5v16h86v-14q0 -105 74.5 -165.5t207.5 -60.5q134 0 209.5 60.5t75.5 165.5v14h86v-16q0 -156 -102 -252.5t-269 -96.5zM377 -430q-143 0 -234.5 89.5t-91.5 242.5v55h99v-59q0 -107 62 -172.5t159 -65.5q92 0 148 56.5t56 150.5v24
q0 90 -63 211l-487 922h180l397 -754q39 -86 43 -123q4 19 23 72l331 805h109l-369 -883q-37 -84 -37 -182v-51q0 -155 -90.5 -246.5t-234.5 -91.5z" />
    <glyph glyph-name="uni0490" unicode="&#x490;" horiz-adv-x="1224" 
d="M997 1765h166v-442h-733v-1323h-184v1434h751v331z" />
    <glyph glyph-name="uni0491" unicode="&#x491;" horiz-adv-x="942" 
d="M197 -410v1434h573v240h145v-338h-555v-1336h-163z" />
    <glyph glyph-name="Wgrave" unicode="&#x1e80;" horiz-adv-x="2099" 
d="M1081 1593h-96l-192 342h168zM498 0l-428 1434h192l377 -1252l367 1252h161l375 -1252l379 1252h113l-426 -1434h-193l-366 1229l-359 -1229h-192z" />
    <glyph glyph-name="wgrave" unicode="&#x1e81;" horiz-adv-x="1630" 
d="M846 1184h-96l-193 342h168zM373 0l-328 1024h164l283 -864l280 864h152l278 -860l283 860h102l-327 -1024h-160l-285 868l-283 -868h-159z" />
    <glyph glyph-name="Wacute" unicode="&#x1e82;" horiz-adv-x="2099" 
d="M1020 1593l123 342h168l-193 -342h-98zM498 0l-428 1434h192l377 -1252l367 1252h161l375 -1252l379 1252h113l-426 -1434h-193l-366 1229l-359 -1229h-192z" />
    <glyph glyph-name="wacute" unicode="&#x1e83;" horiz-adv-x="1630" 
d="M784 1184l123 342h168l-192 -342h-99zM373 0l-328 1024h164l283 -864l280 864h152l278 -860l283 860h102l-327 -1024h-160l-285 868l-283 -868h-159z" />
    <glyph glyph-name="Wdieresis" unicode="&#x1e84;" horiz-adv-x="2099" 
d="M895 1579l-88 356h194l-88 -356h-18zM1188 1579l-86 356h192l-88 -356h-18zM498 0l-428 1434h192l377 -1252l367 1252h161l375 -1252l379 1252h113l-426 -1434h-193l-366 1229l-359 -1229h-192z" />
    <glyph glyph-name="wdieresis" unicode="&#x1e85;" horiz-adv-x="1630" 
d="M659 1169l-88 357h195l-88 -357h-19zM952 1169l-86 357h193l-88 -357h-19zM373 0l-328 1024h164l283 -864l280 864h152l278 -860l283 860h102l-327 -1024h-160l-285 868l-283 -868h-159z" />
    <glyph glyph-name="uni1E9E" unicode="&#x1e9e;" horiz-adv-x="1720" 
d="M1104 -29q-218 0 -359.5 123t-146.5 312h100q4 -144 109.5 -235t267.5 -91t263.5 98t101.5 246q0 152 -87.5 241t-234.5 89q-149 0 -270 -52l-19 -12l-18 66l516 577h-901v-1333h-180v1434h1280v-103l-477 -528q81 33 149 33q184 -3 303 -117t119 -287
q0 -200 -144.5 -330.5t-371.5 -130.5z" />
    <glyph glyph-name="Ygrave" unicode="&#x1ef2;" horiz-adv-x="1366" 
d="M719 1593h-96l-193 342h168zM592 0v555l-582 879h207l506 -772l508 772h127l-582 -881v-553h-184z" />
    <glyph glyph-name="ygrave" unicode="&#x1ef3;" horiz-adv-x="1124" 
d="M606 1184h-96l-193 342h168zM377 -430q-143 0 -234.5 89.5t-91.5 242.5v55h99v-59q0 -107 62 -172.5t159 -65.5q92 0 148 56.5t56 150.5v24q0 90 -63 211l-487 922h180l397 -754q39 -86 43 -123q4 19 23 72l331 805h109l-369 -883q-37 -84 -37 -182v-51
q0 -155 -90.5 -246.5t-234.5 -91.5z" />
    <glyph glyph-name="endash" unicode="&#x2013;" horiz-adv-x="1120" 
d="M158 567v95h807v-95h-807z" />
    <glyph glyph-name="emdash" unicode="&#x2014;" horiz-adv-x="1480" 
d="M158 567v95h1167v-95h-1167z" />
    <glyph glyph-name="quoteleft" unicode="&#x2018;" horiz-adv-x="403" 
d="M205 1495h88v-4q-107 -107 -127 -227q19 16 39 16q50 -6 80 -39t30 -80q0 -51 -34.5 -87t-87.5 -36q-54 0 -89.5 36t-35.5 97q0 81 42 179.5t95 144.5z" />
    <glyph glyph-name="quoteright" unicode="&#x2019;" horiz-adv-x="403" 
d="M199 1008h-88v4q110 110 127 227q-16 -16 -39 -16q-49 6 -79 39t-30 79q0 51 34.5 87t88.5 36t88.5 -35.5t34.5 -97.5q0 -82 -41.5 -179.5t-95.5 -143.5z" />
    <glyph glyph-name="quotesinglbase" unicode="&#x201a;" horiz-adv-x="403" 
d="M199 -225h-88v4q110 110 127 227q-16 -16 -39 -16q-49 7 -79 40.5t-30 78.5q0 51 34.5 86.5t88.5 35.5t88.5 -35.5t34.5 -97.5q0 -82 -41.5 -179.5t-95.5 -143.5z" />
    <glyph glyph-name="quotedblleft" unicode="&#x201c;" horiz-adv-x="765" 
d="M244 1495h88v-4q-110 -106 -127 -227q16 16 39 16q49 -6 78.5 -39.5t29.5 -79.5q0 -51 -34.5 -87t-88.5 -36t-89.5 36t-35.5 97q0 81 43 179.5t97 144.5zM606 1495h88v-4q-110 -110 -127 -227q16 16 39 16q49 -6 79 -39.5t30 -79.5q0 -51 -34.5 -87t-88.5 -36t-88.5 35.5
t-34.5 97.5q0 82 41.5 180t95.5 144z" />
    <glyph glyph-name="quotedblright" unicode="&#x201d;" horiz-adv-x="765" 
d="M162 1008h-88v4q110 110 127 227q-16 -16 -39 -16q-49 6 -80 39t-31 79q0 51 35 87t88 36q54 0 89.5 -36t35.5 -97q0 -81 -42 -179t-95 -144zM524 1008h-88v4q110 106 127 227q-16 -16 -39 -16q-49 6 -78.5 39t-29.5 79q0 51 34.5 87t88.5 36t89.5 -36t35.5 -97
q0 -81 -43 -179t-97 -144z" />
    <glyph glyph-name="quotedblbase" unicode="&#x201e;" horiz-adv-x="765" 
d="M199 -225h-88v4q110 110 127 227q-16 -16 -39 -16q-49 7 -79 40.5t-30 78.5q0 51 34.5 86.5t88.5 35.5t88.5 -35.5t34.5 -97.5q0 -82 -41.5 -179.5t-95.5 -143.5zM563 -225h-90v4q109 105 129 227q-19 -16 -39 -16q-50 7 -80 40.5t-30 78.5q0 51 34 86.5t88 35.5
t89.5 -36t35.5 -97q0 -81 -42 -179t-95 -144z" />
    <glyph glyph-name="dagger" unicode="&#x2020;" horiz-adv-x="667" 
d="M295 829v338h-275v78h275v209h80v-209h272v-78h-272v-338h-80z" />
    <glyph glyph-name="daggerdbl" unicode="&#x2021;" horiz-adv-x="667" 
d="M295 829v172h-275v74h275v133h-275v74h275v172h80v-172h272v-74h-272v-133h272v-74h-272v-172h-80z" />
    <glyph glyph-name="bullet" unicode="&#x2022;" horiz-adv-x="1079" 
d="M541 410q-88 0 -146.5 58t-58.5 146t58.5 146.5t146.5 58.5q87 0 145.5 -58.5t58.5 -146.5q0 -87 -58.5 -145.5t-145.5 -58.5z" />
    <glyph glyph-name="ellipsis" unicode="&#x2026;" horiz-adv-x="1576" 
d="M268 -16q-52 0 -87.5 36t-35.5 89q0 52 35 87t88 35t88 -35t35 -87q0 -53 -35.5 -89t-87.5 -36zM788 -16q-52 0 -87 36t-35 89t35 87.5t87 34.5q53 0 88 -35t35 -87q0 -53 -35.5 -89t-87.5 -36zM1309 -16q-52 0 -87.5 36t-35.5 89q0 52 35 87t88 35t88 -35t35 -87
q0 -53 -35.5 -89t-87.5 -36z" />
    <glyph glyph-name="perthousand" unicode="&#x2030;" horiz-adv-x="2349" 
d="M412 772q-141 0 -238.5 97.5t-97.5 238.5q0 142 97.5 239t238.5 97q143 0 240.5 -97t97.5 -239q0 -141 -98 -238.5t-240 -97.5zM311 0l844 1434h96l-843 -1434h-97zM412 856q95 0 158 71.5t63 180.5q0 110 -62.5 181t-158.5 71t-159 -71t-63 -181q0 -109 63.5 -180.5
t158.5 -71.5zM1151 -10q-141 0 -238.5 98t-97.5 240q0 141 97.5 238.5t238.5 97.5q142 0 240 -97.5t98 -238.5q0 -142 -97.5 -240t-240.5 -98zM1939 -10q-142 0 -239.5 97.5t-97.5 240.5q0 141 97.5 238.5t239.5 97.5q141 0 238.5 -97.5t97.5 -238.5q0 -142 -97.5 -240
t-238.5 -98zM1151 74q95 0 158 72t63 182q0 109 -63 180.5t-158 71.5t-158 -71.5t-63 -180.5q0 -110 63 -182t158 -72zM1939 74q94 0 157 72t63 182q0 108 -63 180t-157 72q-95 0 -159 -72t-64 -180q0 -110 63.5 -182t159.5 -72z" />
    <glyph glyph-name="guilsinglleft" unicode="&#x2039;" horiz-adv-x="653" 
d="M489 1024l-223 -410l223 -409h-110l-217 397v25l217 397h110z" />
    <glyph glyph-name="guilsinglright" unicode="&#x203a;" horiz-adv-x="653" 
d="M164 205l223 409l-223 410h108l217 -397v-25l-217 -397h-108z" />
    <glyph glyph-name="Euro" unicode="&#x20ac;" 
d="M791 -31q-227 0 -390 160t-206 424h-154v74h141q-2 29 -2 90q0 63 2 92h-141v74h154q43 263 206 422t390 159q139 0 260.5 -65.5t204.5 -192.5t100 -291h-111q-14 131 -77 232t-155.5 154t-199.5 53q-168 0 -288 -129.5t-152 -341.5h508v-74h-521q0 -14 -1 -44.5
t-1 -47.5q0 -16 1 -46t1 -44h521v-74h-508q32 -213 152 -343t288 -130q163 0 287 121.5t145 316.5h111q-17 -163 -100 -290t-204.5 -193t-260.5 -66z" />
    <glyph glyph-name="uni20B4" unicode="&#x20b4;" 
d="M690 -31q-231 0 -368.5 99.5t-137.5 265.5q0 127 80 219h-170v74h246q77 48 268 103.5t246 78.5h-760v74h852q94 72 94 200q0 125 -93 201t-249 76q-161 0 -265.5 -86t-133.5 -242h-111q37 203 181.5 317.5t369.5 114.5q220 0 351 -99.5t131 -266.5q0 -127 -82 -215h204
v-74h-270q-77 -41 -264.5 -94t-261.5 -88h796v-74h-888q-93 -84 -93 -207q0 -124 100 -197t267 -73q172 0 286 89t146 247h113q-37 -207 -190.5 -325t-393.5 -118z" />
    <glyph glyph-name="uni20BD" unicode="&#x20bd;" 
d="M322 0v377h-228v74h228v157h-228v74h228v752h438q256 0 399.5 -109.5t143.5 -302.5q0 -194 -143.5 -304t-399.5 -110h-256v-157h678v-74h-678v-377h-182zM504 682h256q175 0 272.5 86t97.5 240q0 153 -98 239t-272 86h-256v-651z" />
    <glyph glyph-name="uni2116" unicode="&#x2116;" horiz-adv-x="2480" 
d="M2044 762q-141 0 -238.5 98t-97.5 240q0 141 97.5 238.5t238.5 97.5q142 0 240 -97.5t98 -238.5q0 -142 -98 -240t-240 -98zM244 0v1434h190l893 -1174v1174h107v-1448h-121l-961 1255v-1241h-108zM2044 846q96 0 159.5 72t63.5 182q0 108 -64 180t-159 72
q-94 0 -157.5 -72t-63.5 -180q0 -110 63.5 -182t157.5 -72z" />
    <glyph glyph-name="trademark" unicode="&#x2122;" horiz-adv-x="1667" 
d="M281 819v547h-246v68h598v-68h-248v-547h-104zM770 819v615h137l234 -486l229 486h131v-615h-104v512l-244 -512h-68l-245 514v-514h-70z" />
    <glyph glyph-name="arrowleft" unicode="&#x2190;" 
d="M729 285l-729 420v30l729 420l51 -76l-487 -268v-45h1141v-94h-1141v-43l487 -269z" />
    <glyph glyph-name="arrowup" unicode="&#x2191;" 
d="M670 0v1143h-43l-269 -490l-75 54l419 727h31l420 -727l-76 -54l-268 490h-45v-1143h-94z" />
    <glyph glyph-name="arrowright" unicode="&#x2192;" 
d="M707 283l-54 75l490 269v43h-1143v94h1143v45l-490 268l54 76l727 -420v-31z" />
    <glyph glyph-name="arrowdown" unicode="&#x2193;" 
d="M702 0l-419 729l75 51l269 -487h43v1141h94v-1141h45l268 487l76 -51l-420 -729h-31z" />
    <glyph glyph-name="arrowboth" unicode="&#x2194;" horiz-adv-x="1884" 
d="M711 293l-715 409v31l715 410l53 -76l-479 -262v-43h1317v43l-482 262l54 76l714 -410v-31l-714 -409l-54 76l482 260v45h-1317v-45l479 -260z" />
    <glyph glyph-name="arrowupdn" unicode="&#x2195;" 
d="M702 -229l-409 714l76 54l260 -480h45v1317h-45l-260 -481l-76 53l409 715h31l410 -715l-76 -53l-262 481h-43v-1317h43l262 480l76 -54l-410 -714h-31z" />
    <glyph glyph-name="uni2196" unicode="&#x2196;" 
d="M1190 178l-807 807l-31 -31l156 -534l-92 -17l-217 811l22 23l811 -217l-16 -92l-535 155l-30 -30l806 -807z" />
    <glyph glyph-name="uni2197" unicode="&#x2197;" 
d="M244 178l-68 68l807 807l-31 30l-534 -155l-17 92l811 217l23 -23l-217 -811l-92 17l155 534l-30 31z" />
    <glyph glyph-name="uni2198" unicode="&#x2198;" 
d="M1212 199l-811 217l17 92l534 -156l31 31l-807 807l68 67l807 -806l30 30l-155 535l92 16l217 -811z" />
    <glyph glyph-name="uni2199" unicode="&#x2199;" 
d="M221 199l-22 22l217 811l92 -16l-156 -535l31 -30l807 806l67 -67l-806 -807l30 -31l535 156l16 -92z" />
    <glyph glyph-name="uni21B0" unicode="&#x21b0;" horiz-adv-x="1495" 
d="M1339 0v670h-1046v-43l487 -269l-51 -75l-729 419v31l729 420l51 -76l-487 -268v-45h1141v-764h-95z" />
    <glyph glyph-name="uni21B1" unicode="&#x21b1;" horiz-adv-x="1495" 
d="M61 0v764h1143v45l-489 268l53 76l727 -420v-31l-727 -419l-53 75l489 269v43h-1046v-670h-97z" />
    <glyph glyph-name="uni21B2" unicode="&#x21b2;" horiz-adv-x="1495" 
d="M729 283l-729 419v31l729 420l51 -76l-487 -268v-45h1046v670h95v-764h-1141v-43l487 -269z" />
    <glyph glyph-name="uni21B3" unicode="&#x21b3;" horiz-adv-x="1495" 
d="M768 283l-53 75l489 269v43h-1143v764h97v-670h1046v45l-489 268l53 76l727 -420v-31z" />
    <glyph glyph-name="minus" unicode="&#x2212;" horiz-adv-x="1146" 
d="M158 670v94h833v-94h-833z" />
    <glyph glyph-name="approxequal" unicode="&#x2248;" horiz-adv-x="1146" 
d="M156 811q0 91 58 149t144 58q38 0 83.5 -12t66 -20.5t72.5 -31.5q106 -42 154 -49q18 -2 36 -2q52 0 89.5 33t37.5 78h96q0 -90 -58 -148.5t-144 -58.5q-38 0 -82 10.5t-69.5 20.5t-72.5 30q-122 54 -188 54q-52 0 -90.5 -33.5t-38.5 -77.5h-94zM156 420q0 91 58 149
t144 58q38 0 82 -11t69 -21t71 -30q119 -51 190 -51q52 0 89.5 32.5t37.5 78.5h96q0 -91 -58 -149t-144 -58q-38 0 -82 10.5t-69.5 20.5t-72.5 30q-120 53 -188 53q-53 0 -91 -33t-38 -79h-94z" />
    <glyph glyph-name="notequal" unicode="&#x2260;" horiz-adv-x="1146" 
d="M991 868h-297l-145 -303h442v-94h-483l-96 -199h-97l99 199h-256v94h295l147 303h-442v95h483l96 200h94l-96 -200h256v-95z" />
    <glyph glyph-name="lessequal" unicode="&#x2264;" horiz-adv-x="1146" 
d="M991 1266v-103l-692 -325l692 -326v-104l-833 393v71zM158 186v95h833v-95h-833z" />
    <glyph glyph-name="greaterequal" unicode="&#x2265;" horiz-adv-x="1146" 
d="M158 408v102l690 324l-690 325v107l833 -394v-71zM158 186v95h833v-95h-833z" />
    <glyph glyph-name="uni2605" unicode="&#x2605;" horiz-adv-x="2179" 
d="M995 -80l45 512l-397 -354l-350 104l98 353h608l-753 231v354l327 84l451 -538l-258 723l324 272l323 -272l-258 -723l451 538l327 -84v-354l-753 -231h608l98 -353l-350 -104l-397 354l45 -512h-189z" />
    <glyph glyph-name="M.ss03" horiz-adv-x="2299" 
d="M2054 1434v-1434h-184v1323h-629v-1323h-184v1323h-627v-1323h-184v1434h1808z" />
    <glyph glyph-name="N.ss03" horiz-adv-x="1679" 
d="M246 0v1434h1188v-1434h-185v1323h-819v-1323h-184z" />
    <glyph glyph-name="Nacute.ss03" horiz-adv-x="1679" 
d="M809 1593l123 342h168l-193 -342h-98zM246 0v1434h1188v-1434h-185v1323h-819v-1323h-184z" />
    <glyph glyph-name="Ncaron.ss03" horiz-adv-x="1679" 
d="M461 1935h184l229 -241l230 241h115l-299 -327h-158zM246 0v1434h1188v-1434h-185v1323h-819v-1323h-184z" />
    <glyph glyph-name="uni0145.ss03" horiz-adv-x="1679" 
d="M246 0v1434h1188v-1434h-185v1323h-819v-1323h-184zM811 -502h-80v2q114 105 121 183q-10 -7 -35 -7q-41 0 -65.5 23.5t-24.5 58.5q0 37 32 61.5t81 24.5q52 0 83 -25.5t31 -70.5q0 -65 -44 -139t-99 -111z" />
    <glyph glyph-name="Eng.ss03" horiz-adv-x="1679" 
d="M1065 -430q-140 0 -234 75t-94 187h99v-2q0 -74 66 -124t161 -50q103 0 168 59.5t65 175.5q0 45 -23.5 158t-23.5 207v1067h-819v-1323h-184v1434h1188v-1487q0 -179 -98 -278t-271 -99z" />
    <glyph glyph-name="Ntilde.ss03" horiz-adv-x="1679" 
d="M455 1673q0 98 55 157.5t141 59.5q64 0 134 -24.5t133.5 -49t113.5 -24.5q44 0 76.5 27t32.5 67h86q0 -98 -56.5 -157.5t-142.5 -59.5q-63 0 -133 24.5t-133.5 49t-112.5 24.5q-45 0 -76.5 -26.5t-31.5 -67.5h-86zM246 0v1434h1188v-1434h-185v1323h-819v-1323h-184z" />
    <glyph glyph-name="S.ss03" horiz-adv-x="1222" 
d="M59 0v106h877l-846 1233v95h1030v-105h-805l846 -1233v-96h-1102z" />
    <glyph glyph-name="Sacute.ss03" horiz-adv-x="1222" 
d="M592 1593l123 342h168l-193 -342h-98zM59 0v106h877l-846 1233v95h1030v-105h-805l846 -1233v-96h-1102z" />
    <glyph glyph-name="Scaron.ss03" horiz-adv-x="1222" 
d="M244 1935h184l229 -241l230 241h114l-299 -327h-157zM59 0v106h877l-846 1233v95h1030v-105h-805l846 -1233v-96h-1102z" />
    <glyph glyph-name="Scedilla.ss03" horiz-adv-x="1222" 
d="M59 0v106h877l-846 1233v95h1030v-105h-805l846 -1233v-96h-1102zM694 -160l-123 -342h-165l190 342h98z" />
    <glyph glyph-name="uni0218.ss03" horiz-adv-x="1222" 
d="M59 0v106h877l-846 1233v95h1030v-105h-805l846 -1233v-96h-1102zM614 -502h-79v2q113 104 120 183q-11 -7 -34 -7q-42 0 -66.5 23.5t-24.5 58.5q0 37 32 61.5t81 24.5q52 0 83.5 -25.5t31.5 -70.5q0 -65 -44.5 -139t-99.5 -111z" />
    <glyph glyph-name="U.ss03" horiz-adv-x="1679" 
d="M1434 1434v-1434h-1188v1434h184v-1323h819v1323h185z" />
    <glyph glyph-name="Uacute.ss03" horiz-adv-x="1679" 
d="M809 1593l123 342h168l-193 -342h-98zM1434 1434v-1434h-1188v1434h184v-1323h819v1323h185z" />
    <glyph glyph-name="Ucircumflex.ss03" horiz-adv-x="1679" 
d="M1219 1608h-185l-229 241l-230 -241h-114l299 327h158zM1434 1434v-1434h-1188v1434h184v-1323h819v1323h185z" />
    <glyph glyph-name="Udieresis.ss03" horiz-adv-x="1679" 
d="M684 1579l-88 356h195l-89 -356h-18zM977 1579l-86 356h192l-88 -356h-18zM1434 1434v-1434h-1188v1434h184v-1323h819v1323h185z" />
    <glyph glyph-name="Ugrave.ss03" horiz-adv-x="1679" 
d="M870 1593h-96l-192 342h168zM1434 1434v-1434h-1188v1434h184v-1323h819v1323h185z" />
    <glyph glyph-name="Uhungarumlaut.ss03" horiz-adv-x="1679" 
d="M631 1593l110 342h150l-172 -342h-88zM932 1593l108 342h152l-172 -342h-88zM1434 1434v-1434h-1188v1434h184v-1323h819v1323h185z" />
    <glyph glyph-name="Umacron.ss03" horiz-adv-x="1679" 
d="M512 1823h655v-80h-655v80zM1434 1434v-1434h-1188v1434h184v-1323h819v1323h185z" />
    <glyph glyph-name="Uogonek.ss03" horiz-adv-x="1679" 
d="M1434 1434v-1434h-1188v1434h184v-1323h819v1323h185zM1440 -160l-123 -342h-166l192 342h97z" />
    <glyph glyph-name="Uring.ss03" horiz-adv-x="1679" 
d="M840 1577q-110 0 -186 76.5t-76 185.5t76 186.5t186 77.5q109 0 186.5 -77.5t77.5 -186.5t-77.5 -185.5t-186.5 -76.5zM840 1690q85 0 136.5 42t51.5 107q0 66 -51.5 109t-136.5 43q-86 0 -137.5 -42.5t-51.5 -109.5q0 -66 51.5 -107.5t137.5 -41.5zM1434 1434v-1434
h-1188v1434h184v-1323h819v1323h185z" />
    <glyph glyph-name="W.ss03" horiz-adv-x="2299" 
d="M246 0v1434h184v-1323h629v1323h184v-1323h627v1323h184v-1434h-1808z" />
    <glyph glyph-name="Wacute.ss03" horiz-adv-x="2299" 
d="M1120 1593l123 342h168l-192 -342h-99zM246 0v1434h184v-1323h629v1323h184v-1323h627v1323h184v-1434h-1808z" />
    <glyph glyph-name="Wcircumflex.ss03" horiz-adv-x="2299" 
d="M1530 1608h-184l-230 241l-229 -241h-115l299 327h158zM246 0v1434h184v-1323h629v1323h184v-1323h627v1323h184v-1434h-1808z" />
    <glyph glyph-name="Wdieresis.ss03" horiz-adv-x="2299" 
d="M995 1579l-88 356h195l-88 -356h-19zM1288 1579l-86 356h193l-88 -356h-19zM246 0v1434h184v-1323h629v1323h184v-1323h627v1323h184v-1434h-1808z" />
    <glyph glyph-name="Wgrave.ss03" horiz-adv-x="2299" 
d="M1182 1593h-97l-192 342h168zM246 0v1434h184v-1323h629v1323h184v-1323h627v1323h184v-1434h-1808z" />
    <glyph glyph-name="i.loclTRK" horiz-adv-x="557" 
d="M268 1169l-92 357h205l-92 -357h-21zM197 0v1024h163v-1024h-163z" />
    <glyph glyph-name="g.alt" horiz-adv-x="1370" 
d="M731 -430q-275 0 -432.5 86t-157.5 235q0 108 89.5 184t248.5 105q-101 11 -175 28t-140.5 46.5t-101.5 77.5t-35 114q0 57 40.5 99.5t104.5 46.5q42 0 76 -12q-37 55 -37 131q0 151 142.5 242t394.5 91q253 0 395.5 -90.5t142.5 -242.5q0 -153 -145.5 -242.5
t-390.5 -89.5q-103 0 -181 15.5t-122.5 37.5t-79.5 44.5t-72.5 38t-79.5 15.5q-40 0 -65 -24t-25 -57q0 -39 19.5 -70t51 -52t81.5 -37.5t101 -26t120.5 -17t128 -11.5t134.5 -8h3q128 -6 225.5 -25.5t175 -57t118 -99.5t40.5 -147q0 -152 -159 -240t-433 -88zM750 453
q170 0 271 70t101 188q0 120 -100 190t-272 70q-173 0 -274 -70t-101 -190q0 -119 99.5 -188.5t275.5 -69.5zM731 -348q195 0 309.5 68t114.5 182q0 125 -108.5 190.5t-315.5 65.5q-194 0 -308 -69t-114 -187q0 -114 114.5 -182t307.5 -68z" />
    <glyph glyph-name="f.long" horiz-adv-x="915" 
d="M293 0v930h-207v94h207v117q0 174 99.5 274.5t271.5 100.5q145 0 236 -85t91 -221h-96v4q-1 95 -66 154t-165 59q-109 0 -176.5 -64t-67.5 -185q0 -24 3 -47.5t8.5 -56t8.5 -50.5h701v-94h-692q6 -18 6 -56v-874h-162z" />
    <glyph glyph-name="m.ss03" horiz-adv-x="1818" 
d="M197 0v1024h1425v-1024h-162v930h-469v-930h-162v930h-469v-930h-163z" />
    <glyph glyph-name="n.ss03" horiz-adv-x="1325" 
d="M197 0v1024h931v-1024h-161v928h-607v-928h-163z" />
    <glyph glyph-name="nacute.ss03" horiz-adv-x="1325" 
d="M633 1184l123 342h168l-193 -342h-98zM197 0v1024h931v-1024h-161v928h-607v-928h-163z" />
    <glyph glyph-name="ncaron.ss03" horiz-adv-x="1325" 
d="M285 1526h184l229 -242l230 242h114l-299 -328h-157zM197 0v1024h931v-1024h-161v928h-607v-928h-163z" />
    <glyph glyph-name="uni0146.ss03" horiz-adv-x="1325" 
d="M197 0v1024h931v-1024h-161v928h-607v-928h-163zM635 -502h-80v2q114 105 121 183q-10 -7 -35 -7q-41 0 -65.5 23.5t-24.5 58.5q0 37 32 61.5t81 24.5q52 0 83 -25.5t31 -70.5q0 -65 -44 -139t-99 -111z" />
    <glyph glyph-name="eng.ss03" horiz-adv-x="1325" 
d="M766 -430q-142 0 -238 75t-96 187h96v-2q0 -74 68.5 -124t165.5 -50q105 0 172 59.5t67 175.5q0 48 -17 161t-17 192v684h-607v-928h-163v1024h931v-1077q0 -179 -96 -278t-266 -99z" />
    <glyph glyph-name="ntilde.ss03" horiz-adv-x="1325" 
d="M279 1264q0 98 55 157.5t141 59.5q51 0 106.5 -15.5t95.5 -34t89.5 -34t89.5 -15.5q44 0 76.5 27.5t32.5 67.5h86q0 -98 -56.5 -157.5t-142.5 -59.5q-63 0 -133 24.5t-133.5 49t-112.5 24.5q-45 0 -76.5 -26.5t-31.5 -67.5h-86zM197 0v1024h931v-1024h-161v928h-607v-928
h-163z" />
    <glyph glyph-name="r.ss03" horiz-adv-x="942" 
d="M197 0v1024h718v-98h-555v-926h-163z" />
    <glyph glyph-name="racute.ss03" horiz-adv-x="942" 
d="M522 1184l123 342h168l-192 -342h-99zM197 0v1024h718v-98h-555v-926h-163z" />
    <glyph glyph-name="rcaron.ss03" horiz-adv-x="942" 
d="M174 1526h184l230 -242l229 242h115l-299 -328h-158zM197 0v1024h718v-98h-555v-926h-163z" />
    <glyph glyph-name="uni0157.ss03" horiz-adv-x="942" 
d="M197 0v1024h718v-98h-555v-926h-163zM250 -502h-80v2q114 105 121 183q-11 -7 -35 -7q-41 0 -65.5 23.5t-24.5 58.5q0 37 32 61.5t81 24.5q52 0 83 -25.5t31 -70.5q0 -65 -44 -139t-99 -111z" />
    <glyph glyph-name="s.ss03" horiz-adv-x="1032" 
d="M70 0v96h688l-680 846v82h844v-94h-643l679 -848v-82h-888z" />
    <glyph glyph-name="sacute.ss03" horiz-adv-x="1032" 
d="M483 1184l123 342h168l-192 -342h-99zM70 0v96h688l-680 846v82h844v-94h-643l679 -848v-82h-888z" />
    <glyph glyph-name="scaron.ss03" horiz-adv-x="1032" 
d="M135 1526h184l230 -242l229 242h115l-299 -328h-158zM70 0v96h688l-680 846v82h844v-94h-643l679 -848v-82h-888z" />
    <glyph glyph-name="scedilla.ss03" horiz-adv-x="1032" 
d="M70 0v96h688l-680 846v82h844v-94h-643l679 -848v-82h-888zM565 -160l-123 -342h-166l191 342h98z" />
    <glyph glyph-name="uni0219.ss03" horiz-adv-x="1032" 
d="M70 0v96h688l-680 846v82h844v-94h-643l679 -848v-82h-888zM485 -502h-79v2q113 104 120 183q-10 -7 -34 -7q-42 0 -66.5 23.5t-24.5 58.5q0 37 32 61.5t81 24.5q52 0 83.5 -25.5t31.5 -70.5q0 -65 -44.5 -139t-99.5 -111z" />
    <glyph glyph-name="germandbls.ss03" horiz-adv-x="1552" 
d="M293 -410v1340h-207v94h207v113q0 173 127.5 276t349.5 103q217 0 349 -101t132 -274v-207h-393l672 -852v-82h-871v96h674l-674 846v82h435v123q0 131 -94 202.5t-246 71.5q-151 0 -242.5 -67t-91.5 -191q0 -29 17.5 -107t17.5 -157v-1309h-162z" />
    <glyph glyph-name="u.ss03" horiz-adv-x="1325" 
d="M1128 1024v-1024h-931v1024h161v-928h609v928h161z" />
    <glyph glyph-name="uacute.ss03" horiz-adv-x="1325" 
d="M633 1184l123 342h168l-193 -342h-98zM1128 1024v-1024h-931v1024h161v-928h609v928h161z" />
    <glyph glyph-name="ucircumflex.ss03" horiz-adv-x="1325" 
d="M1042 1198h-184l-229 242l-230 -242h-114l299 328h157zM1128 1024v-1024h-931v1024h161v-928h609v928h161z" />
    <glyph glyph-name="udieresis.ss03" horiz-adv-x="1325" 
d="M508 1169l-88 357h194l-88 -357h-18zM801 1169l-86 357h192l-88 -357h-18zM1128 1024v-1024h-931v1024h161v-928h609v928h161z" />
    <glyph glyph-name="ugrave.ss03" horiz-adv-x="1325" 
d="M694 1184h-96l-192 342h167zM1128 1024v-1024h-931v1024h161v-928h609v928h161z" />
    <glyph glyph-name="uhungarumlaut.ss03" horiz-adv-x="1325" 
d="M455 1184l110 342h150l-172 -342h-88zM756 1184l108 342h152l-172 -342h-88zM1128 1024v-1024h-931v1024h161v-928h609v928h161z" />
    <glyph glyph-name="umacron.ss03" horiz-adv-x="1325" 
d="M336 1413h655v-80h-655v80zM1128 1024v-1024h-931v1024h161v-928h609v928h161z" />
    <glyph glyph-name="uogonek.ss03" horiz-adv-x="1325" 
d="M1128 1024v-1024h-931v1024h161v-928h609v928h161zM1135 -160l-123 -342h-166l192 342h97z" />
    <glyph glyph-name="uring.ss03" horiz-adv-x="1325" 
d="M664 1167q-110 0 -186.5 77t-76.5 186t76.5 186.5t186.5 77.5q109 0 186.5 -77.5t77.5 -186.5t-77.5 -186t-186.5 -77zM664 1280q85 0 136.5 42t51.5 108t-51.5 108.5t-136.5 42.5q-87 0 -138 -42t-51 -109q0 -66 51.5 -108t137.5 -42zM1128 1024v-1024h-931v1024h161
v-928h609v928h161z" />
    <glyph glyph-name="w.ss03" horiz-adv-x="1818" 
d="M197 0v1024h163v-928h469v928h162v-928h469v928h162v-1024h-1425z" />
    <glyph glyph-name="wacute.ss03" horiz-adv-x="1818" 
d="M879 1184l122 342h168l-192 -342h-98zM197 0v1024h163v-928h469v928h162v-928h469v928h162v-1024h-1425z" />
    <glyph glyph-name="wcircumflex.ss03" horiz-adv-x="1818" 
d="M1288 1198h-184l-230 242l-229 -242h-115l299 328h158zM197 0v1024h163v-928h469v928h162v-928h469v928h162v-1024h-1425z" />
    <glyph glyph-name="wdieresis.ss03" horiz-adv-x="1818" 
d="M754 1169l-88 357h194l-88 -357h-18zM1047 1169l-86 357h192l-88 -357h-18zM197 0v1024h163v-928h469v928h162v-928h469v928h162v-1024h-1425z" />
    <glyph glyph-name="wgrave.ss03" horiz-adv-x="1818" 
d="M940 1184h-96l-193 342h168zM197 0v1024h163v-928h469v928h162v-928h469v928h162v-1024h-1425z" />
    <glyph glyph-name="y.ss04" horiz-adv-x="1103" 
d="M473 -410v441l-453 993h177l391 -879l391 879h106l-450 -997v-437h-162z" />
    <glyph glyph-name="yacute.ss04" horiz-adv-x="1103" 
d="M530 1184l123 342h168l-192 -342h-99zM473 -410v441l-453 993h177l391 -879l391 879h106l-450 -997v-437h-162z" />
    <glyph glyph-name="ycircumflex.ss04" horiz-adv-x="1103" 
d="M940 1198h-184l-230 242l-229 -242h-115l299 328h158zM473 -410v441l-453 993h177l391 -879l391 879h106l-450 -997v-437h-162z" />
    <glyph glyph-name="ydieresis.ss04" horiz-adv-x="1103" 
d="M406 1169l-89 357h195l-88 -357h-18zM698 1169l-86 357h193l-88 -357h-19zM473 -410v441l-453 993h177l391 -879l391 879h106l-450 -997v-437h-162z" />
    <glyph glyph-name="ygrave.ss04" horiz-adv-x="1103" 
d="M592 1184h-96l-193 342h168zM473 -410v441l-453 993h177l391 -879l391 879h106l-450 -997v-437h-162z" />
    <glyph glyph-name="uni041D.ss02" horiz-adv-x="1677" 
d="M244 0v1434h190l893 -1174v1174h107v-1448h-121l-961 1255v-1241h-108z" />
    <glyph glyph-name="uni0417.ss03" horiz-adv-x="1304" 
d="M1090 -340v340h-1002v96l918 1233h-875v105h1100v-95l-918 -1233h942v-446h-165z" />
    <glyph glyph-name="uni0421.ss03" horiz-adv-x="1239" 
d="M90 0v96l334 623l-328 620v95h1069v-105h-866l324 -612l-328 -611h915v-106h-1120z" />
    <glyph glyph-name="uni0422.ss03" horiz-adv-x="2299" 
d="M246 0v1434h1808v-1434h-184v1325h-627v-1325h-184v1325h-629v-1325h-184z" />
    <glyph glyph-name="uni0423.ss04" horiz-adv-x="1366" 
d="M592 0v555l-582 879h207l506 -772l508 772h127l-582 -881v-553h-184z" />
    <glyph glyph-name="uni040E.ss04" horiz-adv-x="1366" 
d="M688 1581q-167 0 -268 96t-101 252v17h87v-15q0 -105 74.5 -165t207.5 -60q134 0 209.5 60t75.5 165v15h86v-17q0 -156 -102 -252t-269 -96zM592 0v555l-582 879h207l506 -772l508 772h127l-582 -881v-553h-184z" />
    <glyph glyph-name="uni0491.ss01" horiz-adv-x="942" 
d="M197 0v1024h573v240h145v-338h-555v-926h-163z" />
    <glyph glyph-name="uni0436.ss01" horiz-adv-x="1650" 
d="M49 0l400 567l-373 457h117l382 -463h168v463h164v-463h170l383 463h115l-371 -457l400 -567h-187l-342 465h-168v-465h-164v465h-168l-342 -465h-184z" />
    <glyph glyph-name="uni043A.ss01" horiz-adv-x="1142" 
d="M197 0v1024h163v-463h170l414 463h115l-406 -457l447 -567h-193l-381 465h-166v-465h-163z" />
    <glyph glyph-name="uni043D.ss02" horiz-adv-x="1318" 
d="M197 0v1024h165l660 -807v807h100v-1036h-110l-715 868v-856h-100z" />
    <glyph glyph-name="uni0437.ss03" horiz-adv-x="1034" 
d="M831 -256v256h-757v82l688 848h-653v94h856v-82l-689 -846h703v-352h-148z" />
    <glyph glyph-name="uni0441.ss03" horiz-adv-x="962" 
d="M94 0v80l256 432l-258 432v80h793v-94h-604l243 -418l-241 -416h641v-96h-830z" />
    <glyph glyph-name="uni0442.ss03" horiz-adv-x="1818" 
d="M197 0v1024h1425v-1024h-162v930h-469v-930h-162v930h-469v-930h-163z" />
    <glyph glyph-name="uni0443.ss04" horiz-adv-x="1103" 
d="M473 -410v441l-453 993h177l391 -879l391 879h106l-450 -997v-437h-162z" />
    <glyph glyph-name="uni045E.ss04" horiz-adv-x="1103" 
d="M561 1171q-166 0 -267 96.5t-101 252.5v16h86v-14q0 -105 74.5 -165.5t207.5 -60.5q134 0 209.5 60.5t75.5 165.5v14h86v-16q0 -156 -102 -252.5t-269 -96.5zM473 -410v441l-453 993h177l391 -879l391 879h106l-450 -997v-437h-162z" />
    <glyph glyph-name="uni04220410.dlig" horiz-adv-x="1443" 
d="M31 0l602 1001v328h-555v105h1296v-105h-557v-340l596 -989h-129l-168 289h-710l-173 -289h-202zM457 379h608l-305 514z" />
    <glyph glyph-name="uni04420430.dlig" horiz-adv-x="1249" 
d="M440 -23q-162 0 -250 70.5t-88 188.5q0 63 29.5 113t76 81t115 52.5t136 32t149.5 15.5q137 10 208 35.5t71 77.5q0 119 -82.5 190.5t-214.5 71.5q-133 0 -224 -73t-116 -201h-96q25 152 126.5 243t256.5 105v379h-426v96h985v-96h-398v-377q159 -22 251.5 -124
t92.5 -259v-504h142v-96h-291v235q-55 -118 -177 -187t-276 -69zM487 72q170 0 287 106.5t117 263.5v95q-60 -49 -242 -62q-200 -19 -290.5 -72t-90.5 -153q0 -86 58.5 -132t160.5 -46z" />
    <glyph glyph-name="zero.lf" horiz-adv-x="1470" 
d="M731 -31q-177 0 -317.5 96t-219.5 267t-79 385t79 385t219.5 266.5t317.5 95.5q133 0 248 -56t196.5 -154.5t128 -237t46.5 -299.5q0 -214 -79 -385t-220.5 -267t-319.5 -96zM731 70q128 0 228 82t156 229.5t56 335.5q0 287 -123 467t-317 180t-317 -180t-123 -467
q0 -188 56 -335.5t156 -229.5t228 -82z" />
    <glyph glyph-name="one.lf" horiz-adv-x="811" 
d="M377 0v1270l-330 -215v121l387 258h117v-1434h-174z" />
    <glyph glyph-name="two.lf" horiz-adv-x="1271" 
d="M96 0v94l592 406q136 95 207 196q-112 -101 -293 -98q-233 6 -378.5 126.5t-145.5 301.5q0 189 156 313.5t405 124.5q246 0 404.5 -123.5t158.5 -316.5q0 -289 -416 -565l-442 -301h891v-158h-1139zM639 674q175 0 283 94.5t108 241.5q0 163 -109 261.5t-282 98.5
q-171 0 -280 -97.5t-109 -252.5q0 -152 109.5 -249t279.5 -97z" />
    <glyph glyph-name="three.lf" horiz-adv-x="1177" 
d="M575 -29q-231 0 -380.5 128t-155.5 327h108q6 -154 120.5 -251t287.5 -97q175 0 284 102t109 258q0 147 -86.5 239.5t-228.5 92.5q-61 0 -120 -17.5t-99 -47.5l-23 -17l-59 72l565 516h-821v158h1026v-103l-567 -522q82 39 172 39q185 -8 300 -121t115 -293
q0 -202 -151.5 -332.5t-395.5 -130.5z" />
    <glyph glyph-name="four.lf" horiz-adv-x="1306" 
d="M829 0v371h-802v94l790 969h182v-920h299v-143h-299v-371h-170zM178 514h651v784z" />
    <glyph glyph-name="five.lf" horiz-adv-x="1265" 
d="M625 -29q-232 0 -382 117.5t-165 308.5h110q14 -141 126.5 -229t281.5 -88q184 0 297 109.5t113 283.5q0 163 -108.5 267t-283.5 104q-134 0 -235.5 -55.5t-142.5 -151.5l-105 2l115 795h874v-154h-792l-78 -508q64 76 169 118t236 42q232 0 379.5 -126.5t147.5 -336.5
q0 -220 -155.5 -359t-401.5 -139z" />
    <glyph glyph-name="six.lf" horiz-adv-x="1386" 
d="M727 -31q-182 0 -321.5 96.5t-214 266t-74.5 385.5q0 218 76 387.5t217.5 264.5t328.5 95q204 0 345 -108.5t167 -280.5h-116q-23 125 -128 203t-255 78q-208 0 -336.5 -162.5t-128.5 -458.5q0 -63 6 -125q41 149 171 236.5t310 87.5q225 0 372.5 -135.5t147.5 -345.5
q0 -97 -41.5 -185t-114.5 -154.5t-180 -105.5t-231 -39zM725 66q165 0 279 112.5t114 274.5q0 168 -109 277.5t-280 109.5q-169 0 -282.5 -101.5t-116.5 -249.5q0 -100 48 -196.5t140.5 -161.5t206.5 -65z" />
    <glyph glyph-name="seven.lf" horiz-adv-x="1187" 
d="M393 0q37 342 212.5 687.5t410.5 586.5h-983v160h1134v-103q-234 -245 -399 -604.5t-195 -726.5h-180z" />
    <glyph glyph-name="eight.lf" horiz-adv-x="1394" 
d="M698 -31q-257 0 -422 113.5t-165 288.5q0 131 96.5 226.5t269.5 135.5q-150 35 -241 128.5t-91 211.5q0 169 155 277t398 108q159 0 285.5 -49t197 -137t70.5 -199q0 -118 -91.5 -211.5t-241.5 -128.5q173 -40 269.5 -135.5t96.5 -226.5q0 -175 -165 -288.5t-421 -113.5z
M698 772q169 0 278 84.5t109 214.5t-109 213.5t-278 83.5q-172 0 -280.5 -83t-108.5 -214t109 -215t280 -84zM698 61q180 0 295 88t115 226q0 137 -115 225t-295 88t-295.5 -88t-115.5 -225q0 -138 115.5 -226t295.5 -88z" />
    <glyph glyph-name="nine.lf" horiz-adv-x="1386" 
d="M659 1464q182 0 322.5 -96t215.5 -265.5t75 -385.5q0 -218 -76.5 -387.5t-219 -265t-329.5 -95.5q-203 0 -344 109t-168 280h117q23 -125 128 -202.5t255 -77.5q208 0 337.5 162t129.5 458q0 43 -8 125q-41 -148 -171.5 -235.5t-310.5 -87.5q-225 0 -372.5 135.5
t-147.5 345.5q0 97 41.5 185t114.5 154t180 105t231 39zM662 1368q-165 0 -279.5 -112.5t-114.5 -274.5q0 -168 109 -277.5t280 -109.5q169 0 283 101t117 249q0 101 -48 197t-140.5 161.5t-206.5 65.5z" />
    <glyph glyph-name="zero.osf" horiz-adv-x="1447" 
d="M725 -31q-177 0 -318.5 83t-221 230.5t-79.5 331.5q0 138 46.5 258t128 205t197 134t247.5 49q177 0 317.5 -83t219.5 -231t79 -332t-79 -331.5t-219.5 -230.5t-317.5 -83zM725 70q194 0 317 152.5t123 391.5t-123.5 392t-316.5 153t-316.5 -153t-123.5 -392t123 -391.5
t317 -152.5z" />
    <glyph glyph-name="one.osf" horiz-adv-x="843" 
d="M418 0v1065l-332 -215v121l389 258h115v-1229h-172z" />
    <glyph glyph-name="two.osf" horiz-adv-x="1308" 
d="M100 0v88l582 344q51 28 92 66q-89 -27 -178 -27q-225 8 -367.5 115.5t-142.5 271.5q0 177 158.5 290.5t404.5 113.5q251 0 409.5 -113t158.5 -291q0 -74 -30 -138.5t-90.5 -121t-127.5 -101.5t-164 -98l-412 -245h869v-154h-1162zM649 532q175 0 283 87t108 221
q0 148 -109 238.5t-282 90.5q-170 0 -279.5 -90t-109.5 -231q0 -138 109.5 -227t279.5 -89z" />
    <glyph glyph-name="three.osf" horiz-adv-x="1204" 
d="M575 -29q-231 0 -380.5 128t-155.5 327h108q6 -154 120.5 -251t287.5 -97q175 0 284 102t109 258q0 147 -86.5 239.5t-228.5 92.5q-61 0 -120 -17.5t-99 -47.5l-23 -17l-59 72l565 516h-821v158h1026v-103l-567 -522q82 39 172 39q185 -8 300 -121t115 -293
q0 -202 -151.5 -332.5t-395.5 -130.5z" />
    <glyph glyph-name="four.osf" horiz-adv-x="1294" 
d="M823 -205v371h-805v94l793 969h182v-920h297v-143h-297v-371h-170zM172 309h651v785z" />
    <glyph glyph-name="five.osf" horiz-adv-x="1265" 
d="M623 -233q-232 0 -382 117.5t-165 308.5h108q14 -141 127.5 -229.5t282.5 -88.5q183 0 295 109.5t112 283.5q0 163 -107 267t-282 104q-135 0 -237.5 -56t-143.5 -151l-104 2l117 795h874v-154h-794l-76 -508q64 76 169 118t236 42q232 0 378.5 -126.5t146.5 -336.5
q0 -220 -154.5 -358.5t-400.5 -138.5z" />
    <glyph glyph-name="six.osf" horiz-adv-x="1386" 
d="M727 -31q-182 0 -321.5 96.5t-214 266t-74.5 385.5q0 218 76 387.5t217.5 264.5t328.5 95q204 0 345 -108.5t167 -280.5h-116q-23 125 -128 203t-255 78q-208 0 -336.5 -162.5t-128.5 -458.5q0 -63 6 -125q41 149 171 236.5t310 87.5q225 0 372.5 -135.5t147.5 -345.5
q0 -97 -41.5 -185t-114.5 -154.5t-180 -105.5t-231 -39zM725 66q165 0 279 112.5t114 274.5q0 168 -109 277.5t-280 109.5q-169 0 -282.5 -101.5t-116.5 -249.5q0 -100 48 -196.5t140.5 -161.5t206.5 -65z" />
    <glyph glyph-name="seven.osf" horiz-adv-x="1173" 
d="M385 -205q25 230 119 473t223.5 444t280.5 357h-983v160h1134v-103q-233 -246 -398.5 -605.5t-195.5 -725.5h-180z" />
    <glyph glyph-name="eight.osf" horiz-adv-x="1394" 
d="M698 -31q-257 0 -422 113.5t-165 288.5q0 131 96.5 226.5t269.5 135.5q-150 35 -241 128.5t-91 211.5q0 169 155 277t398 108q159 0 285.5 -49t197 -137t70.5 -199q0 -118 -91.5 -211.5t-241.5 -128.5q173 -40 269.5 -135.5t96.5 -226.5q0 -175 -165 -288.5t-421 -113.5z
M698 772q169 0 278 84.5t109 214.5t-109 213.5t-278 83.5q-172 0 -280.5 -83t-108.5 -214t109 -215t280 -84zM698 61q180 0 295 88t115 226q0 137 -115 225t-295 88t-295.5 -88t-115.5 -225q0 -138 115.5 -226t295.5 -88z" />
    <glyph glyph-name="nine.osf" horiz-adv-x="1386" 
d="M659 1260q182 0 322.5 -96.5t215.5 -266t75 -385.5q0 -218 -76.5 -387.5t-219 -265t-329.5 -95.5q-204 0 -344.5 109t-167.5 281h117q23 -125 128 -203t255 -78q208 0 337.5 162.5t129.5 458.5q0 42 -8 124q-41 -148 -171.5 -235.5t-310.5 -87.5q-225 0 -372.5 135.5
t-147.5 345.5q0 97 41.5 185t114.5 154.5t180 105.5t231 39zM662 1163q-165 0 -279.5 -112.5t-114.5 -274.5q0 -168 109 -277.5t280 -109.5q169 0 283 101t117 249q0 101 -48 197t-140.5 161.5t-206.5 65.5z" />
    <glyph glyph-name="zero.tf" 
d="M717 -31q-177 0 -318 96t-220 267t-79 385q0 160 46.5 299t127.5 237.5t196 154.5t247 56q178 0 319 -95.5t220 -266.5t79 -385t-79 -385t-220 -267t-319 -96zM717 70q128 0 228 82t156 229.5t56 335.5q0 287 -123 467t-317 180t-317.5 -180.5t-123.5 -466.5
q0 -285 123.5 -466t317.5 -181z" />
    <glyph glyph-name="one.tf" 
d="M180 0v100h471v1170l-372 -242v123l428 283h116v-1334h480v-100h-1123z" />
    <glyph glyph-name="two.tf" 
d="M166 0v94l592 406q136 95 207 196q-112 -101 -293 -98q-233 6 -379 126.5t-146 301.5q0 188 156.5 313t405.5 125q246 0 404.5 -123.5t158.5 -316.5q0 -289 -416 -565l-442 -301h891v-158h-1139zM709 674q175 0 283 94.5t108 241.5q0 163 -109 261.5t-282 98.5
q-171 0 -280.5 -97.5t-109.5 -252.5q0 -152 109.5 -249t280.5 -97z" />
    <glyph glyph-name="three.tf" 
d="M676 -29q-231 0 -381 128t-156 327h109q6 -154 120 -251t287 -97q175 0 283.5 102t108.5 258q0 147 -86 239.5t-228 92.5q-61 0 -120 -17.5t-99 -47.5l-22 -17l-60 72l565 516h-821v158h1026v-103l-567 -522q79 39 172 39q185 -8 300.5 -121t115.5 -293
q0 -201 -152.5 -332t-394.5 -131z" />
    <glyph glyph-name="four.tf" 
d="M870 0v371h-802v94l790 969h182v-920h299v-143h-299v-371h-170zM219 514h651v784z" />
    <glyph glyph-name="five.tf" 
d="M700 -29q-232 0 -381.5 117t-166.5 309h110q13 -141 127 -229t283 -88q183 0 295 109.5t112 283.5q0 163 -107 267t-282 104q-135 0 -237.5 -56t-143.5 -151l-104 2l117 795h874v-154h-795l-75 -508q64 76 169 118t236 42q232 0 378 -126.5t146 -336.5
q0 -220 -154.5 -359t-400.5 -139z" />
    <glyph glyph-name="six.tf" 
d="M741 -31q-183 0 -323 96.5t-214.5 266t-74.5 385.5q0 218 76.5 387.5t219 264.5t329.5 95q203 0 344.5 -108.5t167.5 -280.5h-117q-23 125 -129 203t-256 78q-208 0 -336.5 -162.5t-128.5 -458.5q0 -70 8 -125q41 149 171 236.5t310 87.5q224 0 371.5 -135.5
t147.5 -345.5q0 -97 -41.5 -185t-114.5 -154.5t-179.5 -105.5t-230.5 -39zM739 66q165 0 278 112.5t113 274.5q0 168 -108.5 277.5t-278.5 109.5q-169 0 -282.5 -101.5t-116.5 -249.5q0 -101 47.5 -196.5t140 -161t207.5 -65.5z" />
    <glyph glyph-name="seven.tf" 
d="M506 0q38 342 218 687.5t421 586.5h-1041v160h1186v-103q-238 -246 -406 -605.5t-198 -725.5h-180z" />
    <glyph glyph-name="eight.tf" 
d="M719 -31q-256 0 -422 113.5t-166 288.5q0 131 97.5 226.5t271.5 135.5q-151 35 -242.5 128.5t-91.5 211.5q0 169 155 277t398 108q159 0 285.5 -49t197 -137t70.5 -199q0 -118 -92 -211.5t-242 -128.5q173 -40 271 -136t98 -226q0 -175 -166 -288.5t-422 -113.5zM719 772
q169 0 278 84.5t109 214.5t-109 213.5t-278 83.5q-172 0 -280.5 -83t-108.5 -214t109 -215t280 -84zM719 61q180 0 294.5 88t114.5 226q0 137 -114.5 225t-294.5 88t-296 -88t-116 -225q0 -138 116 -226t296 -88z" />
    <glyph glyph-name="nine.tf" 
d="M672 1464q182 0 321.5 -96t214 -265.5t74.5 -385.5q0 -218 -76.5 -387.5t-218.5 -265t-328 -95.5q-204 0 -345.5 109.5t-166.5 279.5h115q25 -125 130 -202.5t255 -77.5q208 0 336.5 162t128.5 458q0 70 -8 125q-41 -148 -171 -235.5t-308 -87.5q-225 0 -373 135.5
t-148 345.5q0 97 41.5 185t115 154t180.5 105t231 39zM672 1368q-165 0 -278 -112.5t-113 -274.5q0 -168 108.5 -277.5t278.5 -109.5t283 101t118 249q0 74 -29 149.5t-79 136.5t-126 99.5t-163 38.5z" />
    <glyph glyph-name="zero.tosf" 
d="M717 -31q-176 0 -317 83t-220.5 230.5t-79.5 331.5q0 138 46.5 258t128 205t196 134t246.5 49q177 0 318 -83t220.5 -231t79.5 -332t-79.5 -331.5t-220.5 -230.5t-318 -83zM717 70q194 0 317 152.5t123 391.5t-123.5 392t-316.5 153q-192 0 -316.5 -153t-124.5 -392
t124.5 -391.5t316.5 -152.5z" />
    <glyph glyph-name="one.tosf" 
d="M178 0v100h471v965l-370 -242v123l428 283h114v-1129h475v-100h-1118z" />
    <glyph glyph-name="two.tosf" 
d="M147 0v88l584 344q46 26 90 66q-89 -27 -176 -27q-225 8 -368.5 115.5t-143.5 271.5q0 177 158.5 290.5t406.5 113.5q251 0 409.5 -113t158.5 -291q0 -74 -30 -138.5t-90.5 -121t-127.5 -101.5t-164 -98l-414 -245h871v-154h-1164zM698 532q175 0 283.5 87t108.5 221
q0 148 -109.5 238.5t-282.5 90.5q-171 0 -281 -90t-110 -231q0 -138 110.5 -227t280.5 -89z" />
    <glyph glyph-name="three.tosf" 
d="M662 -29q-231 0 -380.5 128t-154.5 327h106q6 -153 121 -250.5t287 -97.5q175 0 284 102t109 258q0 147 -86.5 239.5t-228.5 92.5q-60 0 -119.5 -18t-99.5 -47l-23 -17l-59 72l565 516h-819v158h1024v-103l-567 -522q82 39 172 39q185 -8 301 -121t116 -293
q0 -201 -152 -332t-396 -131z" />
    <glyph glyph-name="four.tosf" 
d="M889 -205v371h-803v94l791 969h182v-920h299v-143h-299v-371h-170zM238 309h651v785z" />
    <glyph glyph-name="five.tosf" 
d="M711 -233q-232 0 -382 117.5t-165 308.5h108q14 -141 127.5 -229.5t282.5 -88.5q183 0 295.5 109.5t112.5 283.5q0 163 -107.5 267t-282.5 104q-135 0 -237.5 -56t-143.5 -151l-104 2l117 795h874v-154h-794l-76 -508q64 76 169 118t236 42q232 0 378.5 -126.5
t146.5 -336.5q0 -220 -154.5 -358.5t-400.5 -138.5z" />
    <glyph glyph-name="six.tosf" 
d="M748 -31q-182 0 -322.5 96.5t-215.5 266t-75 385.5q0 218 76.5 387.5t219 264.5t329.5 95q203 0 344.5 -108.5t167.5 -280.5h-117q-23 125 -129 203t-256 78q-100 0 -185 -40.5t-147.5 -117t-97.5 -195.5t-35 -268q0 -43 8 -125q41 149 171.5 236.5t310.5 87.5
q224 0 371 -135.5t147 -345.5q0 -97 -41.5 -185t-114 -154.5t-179 -105.5t-230.5 -39zM745 66q165 0 279.5 112.5t114.5 274.5q0 168 -109.5 277.5t-279.5 109.5q-169 0 -283 -101.5t-117 -249.5q0 -101 47.5 -196.5t140 -161t207.5 -65.5z" />
    <glyph glyph-name="seven.tosf" 
d="M518 -205q26 230 122 473t229.5 444.5t289.5 356.5h-1042v160h1186v-103q-238 -246 -406.5 -605.5t-198.5 -725.5h-180z" />
    <glyph glyph-name="eight.tosf" 
d="M725 -31q-256 0 -422 113.5t-166 288.5q0 130 98 226t271 136q-150 35 -242 128.5t-92 211.5q0 111 70.5 199t197 137t285.5 49q243 0 398 -108t155 -277q0 -118 -91.5 -211.5t-242.5 -128.5q174 -40 271.5 -135.5t97.5 -226.5q0 -175 -166 -288.5t-422 -113.5zM725 772
q170 0 279.5 84t109.5 215q0 130 -109.5 213.5t-279.5 83.5t-278.5 -83t-108.5 -214t108.5 -215t278.5 -84zM725 61q180 0 296 88t116 226q0 137 -116 225t-296 88t-295 -88t-115 -225q0 -138 115 -226t295 -88z" />
    <glyph glyph-name="nine.tosf" 
d="M668 1260q182 0 322 -96.5t215 -266t75 -385.5q0 -218 -76.5 -387.5t-219 -265t-329.5 -95.5q-202 0 -344 109t-168 281h117q23 -125 129 -203t256 -78q100 0 185 40.5t147.5 117t97.5 195.5t35 268q0 69 -8 124q-41 -148 -171 -235.5t-310 -87.5q-224 0 -371.5 135.5
t-147.5 345.5q0 97 41.5 185t114.5 154.5t179.5 105.5t230.5 39zM670 1163q-165 0 -279.5 -112.5t-114.5 -274.5q0 -168 110 -277.5t280 -109.5q169 0 282.5 101t116.5 249q0 74 -28.5 149t-78.5 136.5t-125.5 100t-162.5 38.5z" />
    <glyph glyph-name="colon.case" horiz-adv-x="536" 
d="M268 963q-53 0 -88 35t-35 87q0 53 35.5 88t87.5 35t87.5 -35t35.5 -88q0 -52 -35 -87t-88 -35zM268 229q-52 0 -87.5 35.5t-35.5 87.5t35.5 87.5t87.5 35.5t87.5 -35.5t35.5 -87.5t-35.5 -87.5t-87.5 -35.5z" />
    <glyph glyph-name="exclamdown.case" horiz-adv-x="618" 
d="M309 1450q52 0 87.5 -36t35.5 -89q0 -51 -35.5 -87t-87.5 -36t-87.5 36t-35.5 87q0 53 35.5 89t87.5 36zM354 993l58 -993h-199l57 993h84z" />
    <glyph glyph-name="questiondown.case" horiz-adv-x="1142" 
d="M586 1450q53 0 88 -36t35 -89q0 -52 -35 -87.5t-88 -35.5q-51 0 -87 36t-36 87q0 52 36 88.5t87 36.5zM651 995q6 -21 6 -39q0 -62 -15.5 -113t-46 -91.5t-63 -69.5t-79.5 -61q-54 -45 -84.5 -76.5t-55 -85t-24.5 -117.5q0 -126 85.5 -196t219.5 -70q163 0 253.5 103
t90.5 270h109q0 -219 -129 -349.5t-351 -130.5q-124 0 -226 40t-167 125.5t-65 201.5q0 61 18 113t51.5 90.5t67 65t78.5 54.5q62 42 97.5 71t70.5 69.5t50 88t15 107.5h94z" />
    <glyph glyph-name="asterisk.case" horiz-adv-x="2179" 
d="M995 -80l45 512l-397 -354l-350 104l98 353h608l-753 231v354l327 84l451 -538l-258 723l324 272l323 -272l-258 -723l451 538l327 -84v-354l-753 -231h608l98 -353l-350 -104l-397 354l45 -512h-189z" />
    <glyph glyph-name="bullet.ss01" horiz-adv-x="2179" 
d="M995 -80l45 512l-397 -354l-350 104l98 353h608l-753 231v354l327 84l451 -538l-258 723l324 272l323 -272l-258 -723l451 538l327 -84v-354l-753 -231h608l98 -353l-350 -104l-397 354l45 -512h-189z" />
    <glyph glyph-name="asterisk.ss01" horiz-adv-x="677" 
d="M305 829v252l-221 -125l-35 58l221 127l-221 127l35 59l221 -127v254h70v-254l219 127l35 -59l-219 -127l219 -127l-35 -58l-219 125v-252h-70z" />
    <glyph glyph-name="parenleft.case" horiz-adv-x="1024" 
d="M778 -31q-250 0 -404.5 206.5t-154.5 541.5q0 336 154 541.5t405 205.5v-92q-185 0 -294 -176.5t-109 -478.5q0 -300 109 -477t294 -177v-94z" />
    <glyph glyph-name="parenright.case" horiz-adv-x="1024" 
d="M246 1464q251 0 405 -205.5t154 -541.5q0 -335 -154.5 -541.5t-404.5 -206.5v94q185 0 294 177t109 477q0 302 -109 478.5t-294 176.5v92z" />
    <glyph glyph-name="braceleft.case" horiz-adv-x="1024" 
d="M621 -31q-126 0 -205.5 65t-79.5 191q0 48 31.5 159t31.5 148q0 70 -35 107t-100 37h-84v84h84q65 0 100 36.5t35 106.5q0 38 -31.5 152t-31.5 159q0 123 79.5 186.5t205.5 63.5q105 0 194 -28v-95q-83 27 -153 27q-85 0 -132 -43.5t-47 -124.5q0 -34 30 -143t30 -148
q0 -152 -152 -192q75 -18 113.5 -68t38.5 -123q0 -39 -30 -147.5t-30 -142.5q0 -81 47 -125.5t132 -44.5q67 0 153 28v-96q-92 -29 -194 -29z" />
    <glyph glyph-name="braceright.case" horiz-adv-x="1024" 
d="M406 1464q125 0 204.5 -64.5t79.5 -191.5q0 -48 -31.5 -158t-31.5 -147q0 -143 135 -143h84v-84h-84q-66 0 -100.5 -37t-34.5 -107q0 -38 31.5 -152t31.5 -159q0 -123 -80 -187.5t-204 -64.5q-106 0 -195 29v96q82 -28 151 -28q85 0 132 44.5t47 125.5q0 34 -29 142.5
t-29 147.5q0 73 38 123t112 68q-150 41 -150 192q0 39 29 148t29 143q0 81 -47 124.5t-132 43.5q-72 0 -151 -27v95q86 28 195 28z" />
    <glyph glyph-name="bracketleft.case" horiz-adv-x="1024" 
d="M299 0v1434h528v-95h-378v-1243h378v-96h-528z" />
    <glyph glyph-name="bracketright.case" horiz-adv-x="1024" 
d="M725 1434v-1434h-528v96h381v1243h-381v95h528z" />
    <glyph glyph-name="hyphen.case" horiz-adv-x="827" 
d="M158 664v108h512v-108h-512z" />
    <glyph glyph-name="endash.case" horiz-adv-x="1120" 
d="M158 670v94h807v-94h-807z" />
    <glyph glyph-name="emdash.case" horiz-adv-x="1480" 
d="M158 670v94h1167v-94h-1167z" />
    <glyph glyph-name="guillemotleft.case" horiz-adv-x="1030" 
d="M489 1126l-223 -409l223 -410h-110l-217 398v24l217 397h110zM868 1126l-223 -409l223 -410h-110l-217 398v24l217 397h110z" />
    <glyph glyph-name="guillemotright.case" horiz-adv-x="1030" 
d="M164 307l223 410l-223 409h108l217 -397v-24l-217 -398h-108zM541 307l223 410l-223 409h110l217 -397v-24l-217 -398h-110z" />
    <glyph glyph-name="guilsinglleft.case" horiz-adv-x="653" 
d="M489 1126l-223 -409l223 -410h-110l-217 398v24l217 397h110z" />
    <glyph glyph-name="guilsinglright.case" horiz-adv-x="653" 
d="M164 307l223 410l-223 409h108l217 -397v-24l-217 -398h-108z" />
    <glyph glyph-name="at.case" horiz-adv-x="1679" 
d="M840 -31q-208 0 -379.5 98.5t-270 270t-98.5 379.5t98.5 379.5t270 269.5t379.5 98q156 0 294.5 -58t237.5 -157t157 -237.5t58 -294.5q0 -231 -114 -406h-392v201q-44 -102 -142.5 -160.5t-223.5 -58.5q-127 0 -201 59t-74 156q0 119 103 181t331 75q113 9 158 32.5
t45 73.5q0 90 -66 148.5t-171 58.5q-108 0 -181 -60t-92 -167h-86q20 144 120 226.5t251 82.5q161 0 259.5 -91t98.5 -245v-430h232q82 149 82 324q0 143 -53 270t-143.5 217.5t-217.5 143.5t-270 53q-142 0 -268.5 -53t-217 -143.5t-143.5 -217.5t-53 -270
q0 -142 53 -268.5t143.5 -217t217 -143.5t268.5 -53q282 0 479 184l43 -45q-101 -99 -234.5 -152t-287.5 -53zM758 373q132 0 226.5 92t94.5 221v74q-62 -42 -198 -53q-155 -12 -228 -57t-73 -128q0 -71 46.5 -110t131.5 -39z" />
    <glyph glyph-name="bar.case" horiz-adv-x="692" 
d="M299 0v1434h96v-1434h-96z" />
    <glyph glyph-name="brokenbar.case" horiz-adv-x="692" 
d="M299 860v574h96v-574h-96zM299 0v573h96v-573h-96z" />
    <glyph glyph-name="ampersand.ss02" horiz-adv-x="1253" 
d="M641 -20q-233 0 -387 143.5t-154 361.5q0 193 124.5 331.5t318.5 166.5v375h-412v96h985v-96h-409v-373q204 -17 336.5 -157t132.5 -341v-32h-912q9 -171 120 -277t278 -106q130 0 225.5 58t132.5 157h110q-39 -136 -172 -221.5t-317 -85.5zM266 524h748
q-9 174 -113.5 281.5t-259.5 107.5q-156 0 -261.5 -107.5t-113.5 -273.5v-8z" />
    <glyph glyph-name="uni030C.alt" horiz-adv-x="0" 
d="M-477 1106v328h147l-63 -328h-84z" />
    <glyph glyph-name="uni0308.cv01" horiz-adv-x="0" 
d="M-770 1169l-88 357h194l-88 -357h-18zM-477 1169l-86 357h192l-88 -357h-18z" />
    <glyph glyph-name="uni0307.cv01" horiz-adv-x="0" 
d="M-625 1169l-92 357h205l-92 -357h-21z" />
    <glyph glyph-name="brevecombcy" horiz-adv-x="0" 
d="M-614 1171q-167 0 -268 96.5t-101 252.5v16h86v-14q0 -105 75 -165.5t208 -60.5q134 0 209 60.5t75 165.5v14h86v-16q0 -156 -101.5 -252.5t-268.5 -96.5z" />
    </font>
</defs>
</svg>
