<?xml version="1.0" standalone="no"?>
<!DOCTYPE svg PUBLIC "-//W3C//DTD SVG 1.1//EN" "http://www.w3.org/Graphics/SVG/1.1/DTD/svg11.dtd" >
<svg xmlns="http://www.w3.org/2000/svg" xmlns:xlink="http://www.w3.org/1999/xlink" version="1.1">
<metadata>
Created by FontForge 20170731 at Sun Nov  6 16:45:35 2022
 By Aleksey,,,
Copyright (c) 2019 by Dmitry Rastvortsev. Ordered by Projector, Dmytro Bulanov Creative Bu:ro and Banda Agency for Kyiv city identification. Long live Free Ukraine!
</metadata>
<defs>
<font id="KyivTypeSans-Heavy2" horiz-adv-x="1433" >
  <font-face 
    font-family="KyivType Sans Heavy2"
    font-weight="800"
    font-stretch="normal"
    units-per-em="2048"
    panose-1="0 0 9 0 0 0 0 0 0 0"
    ascent="1638"
    descent="-410"
    x-height="1024"
    cap-height="1434"
    bbox="-1044 -502 2374 2107"
    underline-thickness="102"
    underline-position="-307"
    unicode-range="U+000D-2605"
  />
<missing-glyph horiz-adv-x="2179" 
d="M995 -82l45 512l-397 -354l-350 104l98 352h608l-753 232v354l327 84l451 -538l-258 722l324 273l323 -273l-258 -722l451 538l327 -84v-354l-753 -232h608l98 -352l-350 -104l-397 354l45 -512h-189z" />
    <glyph glyph-name=".notdef" horiz-adv-x="2179" 
d="M995 -82l45 512l-397 -354l-350 104l98 352h608l-753 232v354l327 84l451 -538l-258 722l324 273l323 -273l-258 -722l451 538l327 -84v-354l-753 -232h608l98 -352l-350 -104l-397 354l45 -512h-189z" />
    <glyph glyph-name=".null" horiz-adv-x="712" 
 />
    <glyph glyph-name="nonmarkingreturn" horiz-adv-x="682" 
 />
    <glyph glyph-name="CR" unicode="&#xd;" horiz-adv-x="512" 
 />
    <glyph glyph-name="space" unicode=" " horiz-adv-x="512" 
 />
    <glyph glyph-name="exclam" unicode="!" horiz-adv-x="739" 
d="M285 541l-133 893h419l-133 -893h-153zM369 -23q-94 0 -159 64.5t-65 159.5t65 159t159 64q95 0 159 -64t64 -159t-64 -159.5t-159 -64.5z" />
    <glyph glyph-name="quotedbl" unicode="&#x22;" horiz-adv-x="817" 
d="M766 1438l-184 -535h-21l-151 443l-154 -443h-20l-183 535h713z" />
    <glyph glyph-name="numbersign" unicode="#" 
d="M393 -31v269h-260v325h260v309h-260v324h260v268h170v-268h309v268h170v-268h258v-324h-258v-309h258v-325h-258v-269h-170v269h-309v-269h-170zM563 563h309v309h-309v-309z" />
    <glyph glyph-name="dollar" unicode="$" 
d="M657 -266v239q-239 14 -394.5 146.5t-178.5 361.5h207q26 -157 139.5 -245.5t276.5 -88.5q125 0 201.5 45.5t76.5 133.5q0 39 -16 69.5t-41 52.5t-72.5 43.5t-91 36t-117.5 35.5q-199 64 -287 110q-208 110 -235 297q-4 30 -4 62q0 131 71.5 228t189.5 146.5t269 55.5
v238h146v-240q214 -23 353.5 -150t160.5 -345h-215q-25 151 -125.5 234t-255.5 83q-67 0 -123 -16t-95.5 -55t-39.5 -95q0 -19 3.5 -36t14 -32t19 -27t28.5 -25t32 -21.5t40.5 -20t42.5 -17t49.5 -17t50.5 -16.5t56 -17q55 -16 90.5 -27.5t86.5 -29.5t84.5 -34t75.5 -39.5
t69.5 -47.5t56 -56t44.5 -67.5t26.5 -79.5t10.5 -94q0 -101 -41.5 -182t-115.5 -134.5t-170 -84.5t-209 -38v-239h-144z" />
    <glyph glyph-name="percent" unicode="%" horiz-adv-x="1628" 
d="M416 745q-148 0 -249 101.5t-101 249.5t101 248t249 100q147 0 247.5 -100.5t100.5 -247.5q0 -148 -101 -249.5t-247 -101.5zM291 0l883 1434h165l-884 -1434h-164zM416 891q57 0 93 56t36 149t-35.5 148.5t-93.5 55.5q-59 0 -95 -55.5t-36 -148.5t36 -149t95 -56z
M1214 -10q-148 0 -249 101t-101 249t101 248t249 100t248.5 -100t100.5 -248t-100.5 -249t-248.5 -101zM1214 133q57 0 93 57t36 150t-36 149t-93 56q-59 0 -95 -56t-36 -149t36 -150t95 -57z" />
    <glyph glyph-name="ampersand" unicode="&#x26;" horiz-adv-x="1548" 
d="M598 -31q-250 0 -400.5 120.5t-150.5 318.5q0 170 112.5 281t305.5 134h2l-313 439v172h1091v-189h-645l528 -727q56 136 68 301h203q-15 -273 -131 -467l256 -352h-437l-69 94q-178 -125 -420 -125zM651 154q140 0 248 82l-324 458h-20q-77 -13 -123.5 -85.5
t-46.5 -170.5q0 -123 69 -203.5t197 -80.5z" />
    <glyph glyph-name="quotesingle" unicode="'" horiz-adv-x="493" 
d="M236 903l-183 535h387l-184 -535h-20z" />
    <glyph glyph-name="parenleft" unicode="(" horiz-adv-x="1024" 
d="M838 -236q-187 0 -333 121t-226 338t-80 494q0 278 80 494.5t226 337t333 120.5v-164q-151 0 -238.5 -211t-87.5 -577t87.5 -577.5t238.5 -211.5v-164z" />
    <glyph glyph-name="parenright" unicode=")" horiz-adv-x="1024" 
d="M188 1669q186 0 332 -120.5t226.5 -337.5t80.5 -494q0 -276 -80.5 -493.5t-226.5 -338.5t-332 -121v164q151 0 238.5 211.5t87.5 577.5t-87.5 577t-238.5 211v164z" />
    <glyph glyph-name="asterisk" unicode="*" horiz-adv-x="798" 
d="M360 930l19 205l-158 -142l-141 41l39 142h243l-301 92v141l132 35l180 -215l-103 289l129 108l129 -108l-102 -289l180 215l131 -35v-141l-303 -92h244l39 -142l-139 -41l-160 142l18 -205h-76z" />
    <glyph glyph-name="plus" unicode="+" horiz-adv-x="1146" 
d="M999 803v-170h-340v-342h-170v342h-342v170h342v340h170v-340h340z" />
    <glyph glyph-name="comma" unicode="," horiz-adv-x="657" 
d="M358 -195h-153v9q62 36 108 91t66 120q-44 -35 -82 -35q-87 13 -140 72.5t-53 138.5q0 92 62.5 157.5t161.5 65.5q96 0 160.5 -63.5t64.5 -170.5q0 -105 -57.5 -218t-137.5 -167z" />
    <glyph glyph-name="hyphen" unicode="-" horiz-adv-x="835" 
d="M147 514v203h543v-203h-543z" />
    <glyph glyph-name="period" unicode="." horiz-adv-x="657" 
d="M328 -23q-94 0 -159 64.5t-65 159.5t65 159t159 64q95 0 159 -64t64 -159t-64 -159.5t-159 -64.5z" />
    <glyph glyph-name="slash" unicode="/" horiz-adv-x="995" 
d="M59 0l693 1434h184l-692 -1434h-185z" />
    <glyph glyph-name="zero" unicode="0" horiz-adv-x="1503" 
d="M752 -31q-188 0 -336.5 95.5t-231 266t-82.5 386.5t82.5 386.5t231 265.5t336.5 95t336.5 -95t231.5 -265.5t83 -386.5q0 -215 -83 -386t-231.5 -266.5t-336.5 -95.5zM752 154q129 0 205.5 153t76.5 410q0 258 -76.5 411.5t-205.5 153.5t-205 -153.5t-76 -411.5
q0 -257 76 -410t205 -153z" />
    <glyph glyph-name="one" unicode="1" horiz-adv-x="927" 
d="M362 0v1110l-307 -215v227l432 312h230v-1434h-355z" />
    <glyph glyph-name="two" unicode="2" horiz-adv-x="1341" 
d="M90 0v164l490 323q35 25 71.5 63t57.5 73q-59 -40 -134 -37q-234 15 -369.5 134t-135.5 294q0 191 163 320.5t433 129.5q262 0 429 -126t167 -326q0 -80 -35.5 -157.5t-103 -149.5t-151 -136t-194.5 -133l-188 -114h676v-322h-1176zM664 713q117 0 180 74t63 190
q0 155 -65.5 237t-177.5 82q-108 0 -174 -80t-66 -212t66 -211.5t174 -79.5z" />
    <glyph glyph-name="three" unicode="3" horiz-adv-x="1236" 
d="M596 -27q-242 0 -394.5 132.5t-164.5 345.5h203q12 -127 97 -203t210 -76q127 0 198.5 80.5t71.5 202.5q0 110 -58.5 183t-154.5 73q-80 0 -158 -58l-20 -16l-100 125l403 352h-637v320h1063v-170l-493 -447q61 25 118 25q178 -19 290 -127t112 -275
q0 -204 -159.5 -335.5t-426.5 -131.5z" />
    <glyph glyph-name="four" unicode="4" horiz-adv-x="1327" 
d="M748 0v317h-728v168l713 949h365v-830h219v-287h-219v-317h-350zM309 604h439v572z" />
    <glyph glyph-name="five" unicode="5" horiz-adv-x="1294" 
d="M635 -27q-241 0 -395.5 125t-169.5 326h206q12 -109 94 -177.5t197 -68.5q128 0 206.5 84t78.5 211q0 123 -74.5 204t-197.5 81q-86 0 -161 -41.5t-116 -114.5l-184 2l110 830h910v-314h-762l-47 -319q135 117 350 117q151 0 272 -53t193 -156.5t72 -241.5
q0 -217 -163 -355.5t-419 -138.5z" />
    <glyph glyph-name="six" unicode="6" horiz-adv-x="1427" 
d="M752 -31q-148 0 -270.5 58.5t-204 160t-126.5 238t-45 291.5q0 212 79 381t228.5 267.5t344.5 98.5q215 0 360.5 -114t173.5 -295h-219q-22 95 -100 150t-187 55q-52 0 -98.5 -15.5t-89.5 -52.5t-73.5 -93.5t-49 -143t-18.5 -195.5q0 -25 2 -37q53 101 155 156t240 55
q213 0 353.5 -130.5t140.5 -334.5q0 -96 -38.5 -184.5t-111 -159.5t-188.5 -113.5t-258 -42.5zM748 141q104 0 169.5 93.5t65.5 232.5q0 131 -64.5 214t-173.5 83q-104 0 -172.5 -68t-76.5 -174q0 -162 72 -271.5t180 -109.5z" />
    <glyph glyph-name="seven" unicode="7" horiz-adv-x="1228" 
d="M328 0q41 282 199.5 578t375.5 530h-856v326h1161v-168q-217 -248 -351.5 -585t-154.5 -681h-374z" />
    <glyph glyph-name="eight" unicode="8" horiz-adv-x="1423" 
d="M713 -31q-281 0 -458 115.5t-177 298.5q0 123 85.5 214.5t256.5 137.5q-131 36 -212 129t-81 201q0 177 163 287t423 110t422.5 -110t162.5 -287q0 -108 -80.5 -201t-211.5 -129q172 -46 257 -137t85 -215q0 -183 -177 -298.5t-458 -115.5zM713 801q113 0 182.5 69
t69.5 183t-69.5 184t-182.5 70q-114 0 -182 -70t-68 -184t68 -183t182 -69zM713 129q120 0 193 72.5t73 191.5q0 117 -73 189.5t-193 72.5t-193.5 -72.5t-73.5 -189.5q0 -119 73.5 -191.5t193.5 -72.5z" />
    <glyph glyph-name="nine" unicode="9" horiz-adv-x="1427" 
d="M676 1464q196 0 344.5 -101t224.5 -269.5t76 -376.5q0 -158 -46 -295.5t-129.5 -237.5t-206 -157.5t-269.5 -57.5q-215 0 -361 114.5t-174 295.5h219q22 -95 100 -150t187 -55q66 0 123 26.5t104.5 82t75 156t27.5 235.5q0 25 -2 37q-53 -101 -155.5 -156t-240.5 -55
q-212 0 -352.5 130.5t-140.5 334.5q0 96 38.5 184.5t111 159t188.5 113t258 42.5zM680 1292q-104 0 -170 -93t-66 -232q0 -131 64.5 -214t173.5 -83q104 0 173 67.5t77 173.5q0 162 -72 271.5t-180 109.5z" />
    <glyph glyph-name="colon" unicode=":" horiz-adv-x="657" 
d="M328 590q-94 0 -159 64t-65 159t65 159t159 64q95 0 159 -64t64 -159t-64 -159t-159 -64zM328 -23q-94 0 -159 64.5t-65 159.5t65 159t159 64q95 0 159 -64t64 -159t-64 -159.5t-159 -64.5z" />
    <glyph glyph-name="semicolon" unicode=";" horiz-adv-x="659" 
d="M328 590q-94 0 -159 64t-65 159t65 159t159 64q95 0 159 -64t64 -159t-64 -159t-159 -64zM358 -195h-153v9q62 36 108 91t66 120q-44 -35 -82 -35q-87 13 -140 72.5t-53 138.5q0 92 62.5 157.5t161.5 65.5q96 0 160.5 -63.5t64.5 -170.5q0 -105 -57.5 -218t-137.5 -167z
" />
    <glyph glyph-name="less" unicode="&#x3c;" horiz-adv-x="1146" 
d="M999 1176v-183l-581 -270l581 -274v-189l-852 399v115z" />
    <glyph glyph-name="equal" unicode="=" horiz-adv-x="1146" 
d="M147 852v170h852v-170h-852zM147 414v170h852v-170h-852z" />
    <glyph glyph-name="greater" unicode="&#x3e;" horiz-adv-x="1146" 
d="M147 260v180l582 273l-582 272v191l852 -402v-115z" />
    <glyph glyph-name="question" unicode="?" horiz-adv-x="1171" 
d="M461 537q-15 44 -15 81q0 87 44 148t133 113q59 44 86.5 93t27.5 115q0 83 -53.5 132t-142.5 49q-114 0 -185 -75.5t-82 -199.5h-208q15 217 157 344t377 127q100 0 190 -23t161 -66.5t113 -113.5t42 -157q0 -111 -69.5 -187.5t-194.5 -132.5q-58 -31 -91.5 -52.5
t-64 -50.5t-43 -63.5t-12.5 -80.5h-170zM569 -23q-95 0 -159 64.5t-64 159.5t64 159t159 64q94 0 159 -64t65 -159t-65 -159.5t-159 -64.5z" />
    <glyph glyph-name="at" unicode="@" horiz-adv-x="1679" 
d="M840 -342q-208 0 -379.5 98.5t-270 270t-98.5 379.5t98.5 379.5t270 269.5t379.5 98q156 0 294.5 -58t237.5 -157t157 -237.5t58 -294.5q0 -226 -114 -406h-484v141q-45 -78 -124.5 -117.5t-182.5 -39.5q-132 0 -207.5 60.5t-75.5 164.5q0 226 375 250q112 9 159.5 37.5
t47.5 83.5q0 63 -43 97t-113 34q-82 0 -140 -47.5t-71 -126.5h-147q19 144 124.5 227.5t264.5 83.5q171 0 277 -93t106 -251v-365h191q61 125 61 267q0 136 -50 257t-136.5 207.5t-207.5 136.5t-257 50q-135 0 -256 -50t-207 -136.5t-136.5 -207.5t-50.5 -257
q0 -181 85.5 -330t234.5 -234.5t330 -85.5q263 0 450 166l64 -72q-208 -192 -514 -192zM778 121q78 0 142.5 73.5t64.5 165.5v74q-17 -17 -56 -32t-83 -21q-92 -15 -132 -50.5t-40 -99.5q0 -110 104 -110z" />
    <glyph glyph-name="A" unicode="A" horiz-adv-x="1511" 
d="M31 0l532 1434h383l531 -1434h-410l-133 371h-549l-133 -371h-221zM440 543h439l-213 592h-13z" />
    <glyph glyph-name="B" unicode="B" horiz-adv-x="1513" 
d="M188 0v1434h615q272 0 421.5 -99t149.5 -274q0 -116 -71 -201t-199 -123v-10q150 -34 236.5 -123.5t86.5 -214.5q0 -177 -156.5 -283t-434.5 -106h-648zM563 803h234q106 0 161.5 58.5t55.5 168.5q0 112 -58 169.5t-168 57.5h-225v-454zM563 176h234q121 0 185.5 59
t64.5 171q0 110 -66 170.5t-186 60.5h-232v-461z" />
    <glyph glyph-name="C" unicode="C" horiz-adv-x="1568" 
d="M829 -31q-213 0 -379 94.5t-258 265t-92 388.5q0 332 203 539.5t526 207.5q131 0 249 -45.5t205.5 -125t143 -190.5t66.5 -237h-215q-25 158 -134 261.5t-255 103.5q-175 0 -285 -142t-110 -372q0 -228 110 -371t285 -143q146 0 255 104t134 262h215
q-11 -126 -66.5 -237.5t-143 -191t-205.5 -125.5t-249 -46z" />
    <glyph glyph-name="D" unicode="D" horiz-adv-x="1593" 
d="M188 0v1434h486q375 0 598 -196.5t223 -520.5q0 -323 -223.5 -520t-597.5 -197h-486zM573 190h111q201 0 307.5 134t106.5 393q0 260 -106.5 393t-307.5 133h-111v-1053z" />
    <glyph glyph-name="E" unicode="E" horiz-adv-x="1286" 
d="M188 0v1434h969v-187h-588v-442h392v-174h-392v-443h658v-188h-1039z" />
    <glyph glyph-name="F" unicode="F" horiz-adv-x="1204" 
d="M188 0v1434h983v-199h-598v-451h410v-188h-410v-596h-385z" />
    <glyph glyph-name="G" unicode="G" horiz-adv-x="1650" 
d="M766 -31q-191 0 -343 94t-237.5 263t-85.5 383q0 167 54 308.5t149 239.5t228.5 152.5t289.5 54.5q255 0 428 -139t217 -364h-221q-38 127 -129.5 202.5t-224.5 75.5q-177 0 -287 -146t-110 -380q0 -236 108 -385.5t270 -149.5q109 0 184.5 78t94.5 203v131h-293v164h676
v-754h-344v186q-131 -217 -424 -217z" />
    <glyph glyph-name="H" unicode="H" horiz-adv-x="1679" 
d="M188 0v1434h385v-615h535v615h385v-1434h-385v614h-535v-614h-385z" />
    <glyph glyph-name="I" unicode="I" horiz-adv-x="759" 
d="M188 0v1434h385v-1434h-385z" />
    <glyph glyph-name="J" unicode="J" horiz-adv-x="1294" 
d="M584 -31q-239 0 -383 144.5t-144 394.5v115h209v-103q0 -139 66 -224t174 -85q102 0 164.5 78t62.5 205v940h385v-910q0 -260 -144 -407.5t-390 -147.5z" />
    <glyph glyph-name="K" unicode="K" horiz-adv-x="1570" 
d="M188 0v1434h383v-615h138l479 615h235l-415 -564l544 -870h-452l-383 614h-146v-614h-383z" />
    <glyph glyph-name="L" unicode="L" horiz-adv-x="1251" 
d="M188 0v1434h385v-1227h639v-207h-1024z" />
    <glyph glyph-name="M" unicode="M" horiz-adv-x="2058" 
d="M188 0v1434h504l346 -949l344 949h490v-1434h-381v1178l-430 -1178h-236l-426 1163v-1163h-211z" />
    <glyph glyph-name="N" unicode="N" horiz-adv-x="1617" 
d="M184 0v1434h385l664 -891v891h201v-1469h-224l-823 1084v-1049h-203z" />
    <glyph glyph-name="O" unicode="O" horiz-adv-x="1701" 
d="M852 -31q-215 0 -387 96.5t-268.5 267.5t-96.5 384q0 160 56.5 299t155.5 237.5t239 154.5t301 56t300.5 -56t238 -154.5t155 -237t56.5 -299.5q0 -213 -96 -384t-267.5 -267.5t-386.5 -96.5zM852 178q166 0 261 141t95 398q0 258 -95 399t-261 141q-168 0 -263 -141
t-95 -399q0 -257 95.5 -398t262.5 -141z" />
    <glyph glyph-name="P" unicode="P" horiz-adv-x="1423" 
d="M188 0v1434h560q288 0 447 -118t159 -327q0 -208 -159 -326t-447 -118h-177v-545h-383zM571 717h172q106 0 166 69.5t60 194.5q0 126 -60 196t-166 70h-172v-530z" />
    <glyph glyph-name="Q" unicode="Q" horiz-adv-x="1701" 
d="M659 -410v404q-252 59 -405.5 255t-153.5 468q0 160 56.5 299t155.5 237.5t239 154.5t301 56t300.5 -56t238 -154.5t155 -237t56.5 -299.5q0 -272 -154 -468t-404 -255v-404h-385zM852 178q166 0 261 141t95 398q0 258 -95 399t-261 141q-168 0 -263 -141t-95 -399
q0 -257 95.5 -398t262.5 -141z" />
    <glyph glyph-name="R" unicode="R" horiz-adv-x="1536" 
d="M188 0v1434h582q283 0 444.5 -115.5t161.5 -317.5q0 -124 -75 -216.5t-207 -143.5l417 -641h-434l-377 575h-10h-119v-575h-383zM571 748h197q112 0 175 66t63 183t-63 182.5t-175 65.5h-197v-497z" />
    <glyph glyph-name="S" unicode="S" horiz-adv-x="1382" 
d="M702 -31q-177 0 -316.5 56.5t-230 173.5t-106.5 282h213q24 -157 139.5 -245.5t280.5 -88.5q126 0 204.5 46t78.5 133q0 39 -16.5 69.5t-41.5 52.5t-73 43.5t-92 36t-119 35.5q-71 22 -108.5 34.5t-104 38.5t-103.5 48.5t-85.5 59.5t-73.5 76.5t-43.5 94t-18.5 117.5
q0 111 51 196.5t136 135.5t186.5 75t212.5 25q122 0 227.5 -31t190 -91t138.5 -157t66 -220h-219q-26 151 -128 234t-257 83q-68 0 -125 -16t-97 -55t-40 -95q0 -27 10 -50.5t23 -41t41.5 -35t50 -28.5t65.5 -26.5t70.5 -23.5t81.5 -24q56 -16 92 -27.5t88 -29.5t86 -34
t77 -39.5t70.5 -47.5t56.5 -56t45.5 -67.5t27 -79.5t10.5 -94q0 -87 -32 -160t-88.5 -124.5t-134.5 -87.5t-170 -53.5t-196 -17.5z" />
    <glyph glyph-name="T" unicode="T" horiz-adv-x="1380" 
d="M498 0v1227h-465v207h1315v-207h-465v-1227h-385z" />
    <glyph glyph-name="U" unicode="U" horiz-adv-x="1566" 
d="M801 -31q-289 0 -461 169t-172 452v844h385v-834q0 -203 83.5 -302t240.5 -99q150 0 238.5 112t88.5 301v822h213v-832q0 -292 -166 -462.5t-450 -170.5z" />
    <glyph glyph-name="V" unicode="V" horiz-adv-x="1519" 
d="M567 0l-528 1434h412l401 -1133h8l400 1133h227l-529 -1434h-391z" />
    <glyph glyph-name="W" unicode="W" horiz-adv-x="2109" 
d="M424 0l-371 1434h398l270 -1053l254 1053h328l274 -1053l276 1053h213l-370 -1434h-379l-266 1028l-248 -1028h-379z" />
    <glyph glyph-name="X" unicode="X" horiz-adv-x="1480" 
d="M37 0l477 698l-471 736h442l314 -484l334 484h241l-430 -621l516 -813h-444l-352 551l-381 -551h-246z" />
    <glyph glyph-name="Y" unicode="Y" horiz-adv-x="1425" 
d="M522 0v543l-512 891h422l377 -691l375 691h235l-512 -893v-541h-385z" />
    <glyph glyph-name="Z" unicode="Z" horiz-adv-x="1345" 
d="M68 0v170l723 1067h-680v197h1149v-170l-723 -1067h718v-197h-1187z" />
    <glyph glyph-name="bracketleft" unicode="[" horiz-adv-x="1024" 
d="M258 -205v1843h610v-170h-311v-1503h311v-170h-610z" />
    <glyph glyph-name="backslash" unicode="\" horiz-adv-x="995" 
d="M752 0l-693 1434h185l692 -1434h-184z" />
    <glyph glyph-name="bracketright" unicode="]" horiz-adv-x="1024" 
d="M766 1638v-1843h-610v170h311v1503h-311v170h610z" />
    <glyph glyph-name="asciicircum" unicode="^" horiz-adv-x="1146" 
d="M135 788l371 646h135l371 -646h-189l-250 437l-251 -437h-187z" />
    <glyph glyph-name="underscore" unicode="_" horiz-adv-x="970" 
d="M61 -152v168h848v-168h-848z" />
    <glyph glyph-name="a" unicode="a" horiz-adv-x="1220" 
d="M385 -20q-162 0 -252 74t-90 200q0 274 457 311q130 9 191 44.5t61 103.5q0 80 -53 123t-138 43q-96 0 -164.5 -59.5t-85.5 -160.5h-176q23 177 154 281t327 104q203 0 328 -115t125 -311v-452h109v-166h-410v176q-56 -97 -155 -146.5t-228 -49.5zM502 145
q100 0 177 85.5t77 213.5v95q-47 -47 -166 -64q-110 -18 -157.5 -63t-47.5 -125q0 -69 31.5 -105.5t85.5 -36.5z" />
    <glyph glyph-name="b" unicode="b" horiz-adv-x="1351" 
d="M793 -20q-216 0 -318 180v-160h-319v1454h333v-580q47 83 125.5 126.5t178.5 43.5q208 0 344.5 -148.5t136.5 -383.5q0 -234 -137 -383t-344 -149zM717 168q96 0 155.5 88.5t59.5 255.5q0 168 -59 256t-156 88q-103 0 -170.5 -99t-67.5 -245t67.5 -245t170.5 -99z" />
    <glyph glyph-name="c" unicode="c" horiz-adv-x="1198" 
d="M633 -20q-243 0 -399 150t-156 382q0 233 156 382.5t399 149.5q205 0 343 -115.5t163 -303.5h-187q-24 105 -95.5 170t-168.5 65q-127 0 -198.5 -92t-71.5 -256q0 -163 71.5 -254.5t198.5 -91.5q97 0 169 64t95 169h187q-25 -187 -163 -303t-343 -116z" />
    <glyph glyph-name="d" unicode="d" horiz-adv-x="1351" 
d="M561 -20q-209 0 -346 149t-137 383q0 235 137 383.5t346 148.5q205 0 301 -170v580h334v-1454h-319v160q-102 -180 -316 -180zM635 168q103 0 171 99t68 245t-68 245t-171 99q-97 0 -156 -88t-59 -256q0 -167 59.5 -255.5t155.5 -88.5z" />
    <glyph glyph-name="e" unicode="e" horiz-adv-x="1239" 
d="M635 -20q-247 0 -402 146t-155 382q0 156 72.5 278.5t200.5 190t290 67.5q241 0 392.5 -147.5t154.5 -382.5q0 -37 -4 -55h-772q12 -153 83.5 -233.5t190.5 -80.5q91 0 160 45.5t100 124.5h189q-32 -146 -164.5 -240.5t-335.5 -94.5zM858 569q-10 161 -68.5 244.5
t-154.5 83.5q-94 0 -153 -83.5t-70 -227.5v-17h446z" />
    <glyph glyph-name="f" unicode="f" horiz-adv-x="935" 
d="M242 0v854h-183v170h183v88q0 190 110.5 297t302.5 107q172 0 277.5 -88.5t105.5 -237.5h-176v10q-1 71 -58 115.5t-138 44.5q-74 0 -125.5 -40t-51.5 -118q0 -30 7 -56t22.5 -62.5t22.5 -59.5h372v-170h-356q18 -56 18 -133v-721h-333z" />
    <glyph glyph-name="g" unicode="g" horiz-adv-x="1388" 
d="M745 -430q-291 0 -450.5 83t-159.5 234q0 98 79 166.5t220 98.5q-428 59 -428 274q0 60 41.5 107t116.5 57q32 0 59 -12q-33 54 -33 120q0 134 106 221.5t296 112.5v258h328v-256q197 -25 305 -112.5t108 -223.5q0 -159 -153 -249.5t-418 -90.5q-96 0 -171.5 14.5
t-119.5 35t-77.5 41t-66 35t-65.5 14.5q-36 0 -57 -19.5t-21 -50.5q0 -22 6.5 -40.5t22 -33.5t32 -27t46 -22t53.5 -17.5t65.5 -14t70.5 -10.5t79.5 -9t82.5 -7.5t89 -6.5q20 -1 31.5 -2t29 -2.5t31.5 -2.5q541 -35 541 -327q0 -158 -165 -247t-454 -89zM762 477
q110 0 172.5 58.5t62.5 162.5q0 107 -62 166.5t-173 59.5t-173.5 -59.5t-62.5 -166.5q0 -105 62 -163t174 -58zM748 -289q126 0 196 53.5t70 151.5q0 102 -68.5 155.5t-197.5 53.5q-126 0 -196.5 -54.5t-70.5 -154.5q0 -98 71 -151.5t196 -53.5z" />
    <glyph glyph-name="h" unicode="h" horiz-adv-x="1351" 
d="M156 0v1454h333v-580q96 170 308 170q195 0 307.5 -122.5t112.5 -337.5v-584h-338v557q0 144 -48.5 219.5t-136.5 75.5q-90 0 -147.5 -86.5t-57.5 -218.5v-547h-333z" />
    <glyph glyph-name="i" unicode="i" horiz-adv-x="647" 
d="M313 1128l-192 398h405l-192 -398h-21zM156 0v1024h333v-1024h-333z" />
    <glyph glyph-name="j" unicode="j" horiz-adv-x="645" 
d="M330 1128l-193 398h406l-193 -398h-20zM94 -430q-159 0 -266 88.5t-107 218.5h175v-2q0 -67 57 -112.5t131 -45.5q72 0 123 40t51 120q0 34 -13.5 76.5t-29.5 81t-29.5 102t-13.5 133.5v754h334v-1012q0 -222 -109 -332t-303 -110z" />
    <glyph glyph-name="k" unicode="k" horiz-adv-x="1245" 
d="M156 0v1454h333v-854h95l346 424h200l-296 -383l395 -641h-383l-264 426h-93v-426h-333z" />
    <glyph glyph-name="l" unicode="l" horiz-adv-x="647" 
d="M156 0v1454h333v-1454h-333z" />
    <glyph glyph-name="m" unicode="m" horiz-adv-x="2015" 
d="M156 0v1024h319v-158q98 178 307 178q122 0 210 -57.5t132 -159.5q46 107 132.5 162t207.5 55q195 0 305.5 -120t110.5 -334v-590h-338v563q0 140 -43.5 214.5t-122.5 74.5q-85 0 -138.5 -78.5t-53.5 -204.5v-569h-336v563q0 140 -43.5 214.5t-122.5 74.5
q-84 0 -138.5 -87t-54.5 -218v-547h-333z" />
    <glyph glyph-name="n" unicode="n" horiz-adv-x="1351" 
d="M156 0v1024h319v-160q102 180 322 180q195 0 307.5 -122.5t112.5 -337.5v-584h-338v557q0 144 -48.5 219.5t-136.5 75.5q-90 0 -147.5 -86.5t-57.5 -218.5v-547h-333z" />
    <glyph glyph-name="o" unicode="o" horiz-adv-x="1306" 
d="M653 -20q-250 0 -412.5 150t-162.5 382t162.5 382t412.5 150q252 0 414 -150t162 -382t-162 -382t-414 -150zM653 150q108 0 171 95.5t63 266.5q0 173 -62.5 267.5t-171.5 94.5q-107 0 -170 -95t-63 -267q0 -171 63 -266.5t170 -95.5z" />
    <glyph glyph-name="p" unicode="p" horiz-adv-x="1351" 
d="M156 -410v1434h319v-160q102 180 318 180q208 0 344.5 -148.5t136.5 -383.5q0 -234 -137 -383t-344 -149q-100 0 -178.5 44t-125.5 126v-560h-333zM717 168q96 0 155.5 88.5t59.5 255.5q0 168 -59 256t-156 88q-103 0 -170.5 -99t-67.5 -245t67.5 -245t170.5 -99z" />
    <glyph glyph-name="q" unicode="q" horiz-adv-x="1351" 
d="M1196 -410h-334v560q-48 -82 -125 -126t-176 -44q-209 0 -346 149t-137 383q0 235 137 383.5t346 148.5q214 0 316 -180v160h319v-1434zM635 168q103 0 171 99t68 245t-68 245t-171 99q-97 0 -156 -88t-59 -256q0 -167 59.5 -255.5t155.5 -88.5z" />
    <glyph glyph-name="r" unicode="r" horiz-adv-x="1114" 
d="M156 0v1024h319v-170q46 92 125 141t182 49q156 0 247 -100.5t91 -292.5v-53h-329v43q0 190 -132 190q-76 0 -123 -78.5t-47 -201.5v-551h-333z" />
    <glyph glyph-name="s" unicode="s" horiz-adv-x="1103" 
d="M565 -27q-215 0 -360 96t-166 275h190q17 -104 105.5 -162.5t214.5 -58.5q83 0 146 27.5t63 82.5q0 26 -11.5 44t-48 34.5t-64.5 25t-99 28.5q-42 12 -64 18q-64 16 -112.5 32.5t-105 45.5t-93 64t-61 88t-25.5 118q0 67 27.5 122t73 91.5t106.5 61t125.5 35t132.5 10.5
q129 0 232.5 -38t173.5 -120.5t83 -200.5h-188q-21 100 -100.5 154.5t-196.5 54.5q-75 0 -132 -27.5t-57 -87.5q0 -51 74 -83q42 -19 170 -53q34 -10 53 -15q66 -17 113.5 -32.5t106 -43.5t95 -60.5t62 -82.5t25.5 -111q0 -83 -41.5 -148.5t-112 -104.5t-155.5 -59t-179 -20
z" />
    <glyph glyph-name="t" unicode="t" horiz-adv-x="950" 
d="M608 -20q-379 0 -379 344v530h-204v170h139q84 0 84 86v160h315v-246h332v-170h-332v-512q0 -91 38.5 -134.5t121.5 -43.5q64 0 172 24v-168q-53 -19 -135.5 -29.5t-151.5 -10.5z" />
    <glyph glyph-name="u" unicode="u" horiz-adv-x="1351" 
d="M557 -20q-195 0 -308.5 123.5t-113.5 338.5v582h338l2 -555q0 -144 47 -220.5t135 -76.5q90 0 147.5 87t57.5 220v545h334v-1024h-317v162q-101 -182 -322 -182z" />
    <glyph glyph-name="v" unicode="v" horiz-adv-x="1165" 
d="M412 0l-392 1024h357l285 -770h10l284 770h195l-393 -1024h-346z" />
    <glyph glyph-name="w" unicode="w" horiz-adv-x="1650" 
d="M309 0l-270 1024h336l188 -719l195 719h295l188 -713l191 713h186l-270 -1024h-322l-199 731l-196 -731h-322z" />
    <glyph glyph-name="x" unicode="x" horiz-adv-x="1175" 
d="M27 0l370 487l-374 537h393l219 -309l235 309h215l-329 -432l405 -592h-391l-252 369l-278 -369h-213z" />
    <glyph glyph-name="y" unicode="y" horiz-adv-x="1177" 
d="M428 -430q-161 0 -270 102t-109 281v53h176v-65q0 -92 54.5 -150.5t132.5 -58.5q66 0 107.5 38.5t41.5 98.5v8q0 38 -18 91.5t-72 162.5l-457 893h369l252 -518q58 -132 67 -187q5 26 19 60l246 645h194l-319 -803q-35 -85 -35 -190v-66q0 -184 -107 -289.5t-272 -105.5z
" />
    <glyph glyph-name="z" unicode="z" horiz-adv-x="1062" 
d="M61 0v141l529 713h-494v170h903v-139l-526 -715h520v-170h-932z" />
    <glyph glyph-name="braceleft" unicode="{" horiz-adv-x="1024" 
d="M629 -236q-340 0 -340 293q0 66 32.5 231.5t32.5 227.5q0 63 -27 90t-83 27h-99v170h99q56 0 83 27t27 90q0 62 -32.5 226.5t-32.5 229.5q0 293 340 293q115 0 231 -33v-168q-89 27 -145 27q-60 0 -93.5 -30.5t-33.5 -94.5q0 -37 23.5 -184t23.5 -203
q0 -108 -45.5 -173.5t-147.5 -92.5q102 -26 147.5 -91.5t45.5 -172.5q0 -56 -23.5 -203t-23.5 -184q0 -127 127 -127q59 0 145 26v-168q-116 -33 -231 -33z" />
    <glyph glyph-name="bar" unicode="|" horiz-adv-x="688" 
d="M258 -205v1843h172v-1843h-172z" />
    <glyph glyph-name="braceright" unicode="}" horiz-adv-x="1024" 
d="M397 1669q340 0 340 -293q0 -65 -32.5 -229.5t-32.5 -226.5q0 -63 27 -90t81 -27h101v-170h-101q-54 0 -81 -27t-27 -90q0 -62 32.5 -227.5t32.5 -231.5q0 -293 -340 -293q-117 0 -233 33v168q89 -26 145 -26q127 0 127 127q0 37 -23.5 184t-23.5 203q0 107 45.5 172.5
t147.5 91.5q-102 27 -147.5 92.5t-45.5 173.5q0 56 23.5 203t23.5 184q0 125 -127 125q-52 0 -145 -27v168q116 33 233 33z" />
    <glyph glyph-name="asciitilde" unicode="~" horiz-adv-x="1146" 
d="M143 590q0 127 63 198.5t161 71.5q40 0 82 -11t66.5 -21.5t62.5 -30.5q100 -45 153 -45q44 0 74.5 28t30.5 68h170q0 -126 -62.5 -197t-161.5 -71q-40 0 -81.5 10.5t-66 21t-63.5 29.5q-96 47 -153 47q-43 0 -74 -28.5t-31 -69.5h-170z" />
    <glyph glyph-name="uni00A0" unicode="&#xa0;" horiz-adv-x="512" 
 />
    <glyph glyph-name="exclamdown" unicode="&#xa1;" horiz-adv-x="739" 
d="M369 1047q95 0 159 -64.5t64 -159.5t-64 -159t-159 -64q-94 0 -159 64t-65 159t65 159.5t159 64.5zM455 483l133 -893h-420l135 893h152z" />
    <glyph glyph-name="cent" unicode="&#xa2;" 
d="M770 375q97 0 169 64t99 169h185q-25 -169 -141 -280t-294 -133v-256h-145v256q-215 23 -347 167.5t-132 358.5t132 358.5t347 167.5v248h145v-248q178 -20 294 -131t141 -282h-185q-27 106 -99 170.5t-169 64.5q-126 0 -198 -92t-72 -256q0 -162 72 -254t198 -92z" />
    <glyph glyph-name="sterling" unicode="&#xa3;" 
d="M340 -31q-121 0 -197.5 69t-76.5 181q0 106 74.5 180t205.5 74q78 0 199 -33v4q-11 37 -34.5 73t-59.5 80t-48 60h-282v119h211q-82 135 -82 264q0 196 136 310t359 114q234 0 373.5 -127.5t147.5 -341.5h-201q-6 139 -81 210t-181 71q-97 0 -157 -60.5t-60 -173.5
q0 -41 7 -79t24 -97.5t24 -89.5h453v-119h-414q37 -136 37 -204q0 -28 -4 -78q97 -39 167.5 -59.5t139.5 -20.5q93 0 134.5 35t41.5 112q0 37 -8 64h176q12 -71 12 -131q0 -195 -104.5 -300.5t-263.5 -105.5q-102 0 -195 36t-201 101q-103 -137 -272 -137zM334 88
q113 0 176 92q-74 43 -122 64.5t-91 21.5t-69.5 -22.5t-26.5 -57.5q0 -41 36.5 -69.5t96.5 -28.5z" />
    <glyph glyph-name="currency" unicode="&#xa4;" 
d="M260 129l-131 131l190 191q-83 120 -83 266t83 266l-190 193l131 131l191 -193q120 86 266 86t266 -86l193 193l131 -131l-193 -193q86 -120 86 -266t-86 -266l193 -191l-131 -131l-193 190q-120 -83 -266 -83t-266 83zM717 422q124 0 210.5 86t86.5 209q0 125 -86 211
t-211 86q-123 0 -209 -86.5t-86 -210.5q0 -123 86 -209t209 -86z" />
    <glyph glyph-name="yen" unicode="&#xa5;" 
d="M524 0v342h-401v119h391v106l-27 47h-364v121h301l-373 699h420l332 -654h6l334 654h241l-372 -699h305v-121h-369l-28 -51v-102h397v-119h-408v-342h-385z" />
    <glyph glyph-name="brokenbar" unicode="&#xa6;" horiz-adv-x="688" 
d="M258 860v778h172v-778h-172zM258 -205v778h172v-778h-172z" />
    <glyph glyph-name="section" unicode="&#xa7;" 
d="M723 -205q-135 0 -247 41.5t-190 132t-93 217.5h198q14 -103 106 -165t210 -62q85 0 149 28t64 83q0 60 -70 95q-40 20 -193 63q-5 2 -10 3q-69 16 -117.5 30t-110 36t-103 49t-79.5 63t-57 83.5t-20 105.5q0 192 223 276q-153 98 -156 261q0 71 28 128.5t74 95t108 63.5
t127 37t134 11q201 0 340 -96.5t160 -283.5h-194q-23 101 -105.5 157t-193.5 56q-50 0 -90.5 -10t-70.5 -37.5t-30 -69.5q0 -28 15 -49t60 -40t75.5 -28.5t111.5 -31.5q16 -5 25 -7q57 -13 100 -24.5t96 -29t91 -36.5t77 -46t63 -58t39 -72t15 -88q0 -102 -59 -174
t-160 -115q160 -94 160 -250q0 -85 -42.5 -152.5t-114 -107.5t-159 -61t-184.5 -21zM881 459q53 13 91 41.5t38 74.5q0 39 -26.5 69.5t-80 53.5t-101 38t-126 35t-117.5 32q-51 -9 -89 -38t-38 -77q0 -27 15.5 -51.5t46 -44t63.5 -35.5t80 -30.5t83 -24.5t85.5 -23t75.5 -20
z" />
    <glyph glyph-name="copyright" unicode="&#xa9;" horiz-adv-x="1679" 
d="M840 -31q-208 0 -379.5 98.5t-270 270t-98.5 379.5t98.5 379.5t270 269.5t379.5 98q156 0 294.5 -58t237.5 -157t157 -237.5t58 -294.5q0 -208 -98 -379.5t-269.5 -270t-379.5 -98.5zM840 68q136 0 257 50t207.5 136.5t136.5 207t50 255.5q0 136 -50 257t-136.5 207.5
t-207.5 136.5t-257 50q-135 0 -256 -50t-207 -136.5t-136.5 -207.5t-50.5 -257q0 -181 85.5 -330t234.5 -234t330 -85zM856 291q-194 0 -319 120t-125 306t125 306t319 120q163 0 273.5 -92.5t132.5 -243.5h-154q-21 83 -76.5 133.5t-132.5 50.5q-100 0 -157.5 -72.5
t-57.5 -201.5q0 -127 57.5 -200t157.5 -73q77 0 132.5 51t76.5 134h154q-22 -151 -132.5 -244.5t-273.5 -93.5z" />
    <glyph glyph-name="guillemotleft" unicode="&#xab;" horiz-adv-x="1155" 
d="M573 1024l-223 -410l223 -409h-204l-217 397v25l217 397h204zM1022 1024l-223 -410l223 -409h-205l-217 397v25l217 397h205z" />
    <glyph glyph-name="logicalnot" unicode="&#xac;" horiz-adv-x="1146" 
d="M999 803v-512h-168v342h-684v170h852z" />
    <glyph glyph-name="registered" unicode="&#xae;" horiz-adv-x="901" 
d="M455 727q-157 0 -263 106t-106 263t106 262.5t263 105.5t262.5 -105.5t105.5 -262.5t-105.5 -263t-262.5 -106zM455 768q139 0 233 94t94 234t-94 233.5t-233 93.5q-140 0 -235 -94t-95 -233t95 -233.5t235 -94.5zM281 897v418h172q83 0 129.5 -34.5t46.5 -94.5
q0 -68 -72 -107l119 -182h-137l-101 160h-45v-160h-112zM393 1116h58q30 0 46.5 18.5t16.5 51.5q0 61 -63 61h-58v-131z" />
    <glyph glyph-name="degree" unicode="&#xb0;" horiz-adv-x="694" 
d="M348 903q-117 0 -198.5 82t-81.5 199t81.5 198.5t198.5 81.5t199 -81.5t82 -198.5t-82 -199t-199 -82zM348 1022q66 0 114 48t48 114q0 67 -48 114.5t-114 47.5q-68 0 -115 -47t-47 -115q0 -66 47.5 -114t114.5 -48z" />
    <glyph glyph-name="plusminus" unicode="&#xb1;" horiz-adv-x="1146" 
d="M659 948h340v-170h-340v-342h-170v342h-342v170h342v342h170v-342zM147 131v170h852v-170h-852z" />
    <glyph glyph-name="paragraph" unicode="&#xb6;" horiz-adv-x="1220" 
d="M594 -410v1024h-19q-192 0 -322 118.5t-130 291.5t130 291.5t322 118.5h388v-1844h-369z" />
    <glyph glyph-name="periodcentered" unicode="&#xb7;" horiz-adv-x="657" 
d="M328 395q-94 0 -159 65.5t-65 160.5q0 94 65 158.5t159 64.5q95 0 159 -64.5t64 -158.5q0 -96 -64 -161t-159 -65z" />
    <glyph glyph-name="guillemotright" unicode="&#xbb;" horiz-adv-x="1134" 
d="M133 205l223 409l-223 410h205l217 -397v-25l-217 -397h-205zM582 205l223 409l-223 410h204l218 -397v-25l-218 -397h-204z" />
    <glyph glyph-name="questiondown" unicode="&#xbf;" horiz-adv-x="1171" 
d="M621 1051q95 0 159 -65t64 -159q0 -95 -64 -159t-159 -64t-159.5 64t-64.5 159q0 94 64.5 159t159.5 65zM729 489q14 -47 14 -79q0 -87 -43.5 -147.5t-132.5 -112.5q-58 -44 -86 -94t-28 -117q0 -83 52.5 -131t143.5 -48q114 0 184.5 75t79.5 200h209
q-14 -217 -156.5 -345t-375.5 -128q-136 0 -248.5 38.5t-185 122.5t-72.5 201q0 111 68.5 186.5t195.5 133.5q116 61 163.5 110t47.5 135h170z" />
    <glyph glyph-name="Agrave" unicode="&#xc0;" horiz-adv-x="1511" 
d="M829 1573h-174l-266 362h336zM31 0l532 1434h383l531 -1434h-410l-133 371h-549l-133 -371h-221zM440 543h439l-213 592h-13z" />
    <glyph glyph-name="Aacute" unicode="&#xc1;" horiz-adv-x="1511" 
d="M684 1573l104 362h336l-268 -362h-172zM31 0l532 1434h383l531 -1434h-410l-133 371h-549l-133 -371h-221zM440 543h439l-213 592h-13z" />
    <glyph glyph-name="Acircumflex" unicode="&#xc2;" horiz-adv-x="1511" 
d="M1171 1608h-356l-141 178l-142 -178h-194l250 327h334zM31 0l532 1434h383l531 -1434h-410l-133 371h-549l-133 -371h-221zM440 543h439l-213 592h-13z" />
    <glyph glyph-name="Atilde" unicode="&#xc3;" horiz-adv-x="1511" 
d="M358 1622q0 154 63 234.5t171 80.5q63 0 128.5 -21.5t120 -43t89.5 -21.5q33 0 53.5 19.5t20.5 58.5h149q0 -154 -62 -233.5t-169 -79.5q-63 0 -129 21t-120.5 42t-88.5 21t-54 -19t-20 -59h-152zM31 0l532 1434h383l531 -1434h-410l-133 371h-549l-133 -371h-221z
M440 543h439l-213 592h-13z" />
    <glyph glyph-name="Adieresis" unicode="&#xc4;" horiz-adv-x="1511" 
d="M590 1538h-19l-180 397h731l-182 -397h-18l-166 360zM946 1434l531 -1434h-410l-133 371h-549l-133 -371h-221l532 1434h383zM440 543h439l-213 592h-13z" />
    <glyph glyph-name="Aring" unicode="&#xc5;" horiz-adv-x="1511" 
d="M756 1530q-121 0 -205 84.5t-84 204.5t84 204t205 84q120 0 204 -84t84 -204t-84 -204.5t-204 -84.5zM756 1743q168 0 168 76q0 75 -168 75q-166 0 -166 -75q0 -76 166 -76zM31 0l532 1434h383l531 -1434h-410l-133 371h-549l-133 -371h-221zM440 543h439l-213 592h-13z
" />
    <glyph glyph-name="AE" unicode="&#xc6;" horiz-adv-x="2037" 
d="M1405 188h573v-188h-911l-133 371h-549l-133 -371h-221l532 1434h1346v-187h-873l154 -442h532v-174h-471zM440 543h439l-213 592h-13z" />
    <glyph glyph-name="Ccedilla" unicode="&#xc7;" horiz-adv-x="1568" 
d="M829 -31q-213 0 -379 94.5t-258 265t-92 388.5q0 332 203 539.5t526 207.5q131 0 249 -45.5t205.5 -125t143 -190.5t66.5 -237h-215q-25 158 -134 261.5t-255 103.5q-175 0 -285 -142t-110 -372q0 -228 110 -371t285 -143q146 0 255 104t134 262h215
q-11 -126 -66.5 -237.5t-143 -191t-205.5 -125.5t-249 -46zM903 -139l-104 -363h-338l268 363h174z" />
    <glyph glyph-name="Egrave" unicode="&#xc8;" horiz-adv-x="1286" 
d="M741 1573h-174l-266 362h336zM188 0v1434h969v-187h-588v-442h392v-174h-392v-443h658v-188h-1039z" />
    <glyph glyph-name="Eacute" unicode="&#xc9;" horiz-adv-x="1286" 
d="M596 1573l104 362h336l-268 -362h-172zM188 0v1434h969v-187h-588v-442h392v-174h-392v-443h658v-188h-1039z" />
    <glyph glyph-name="Ecircumflex" unicode="&#xca;" horiz-adv-x="1286" 
d="M1083 1608h-356l-141 178l-142 -178h-194l250 327h334zM188 0v1434h969v-187h-588v-442h392v-174h-392v-443h658v-188h-1039z" />
    <glyph glyph-name="Edieresis" unicode="&#xcb;" horiz-adv-x="1286" 
d="M502 1538h-19l-180 397h731l-182 -397h-18l-166 360zM569 188h658v-188h-1039v1434h969v-187h-588v-442h392v-174h-392v-443z" />
    <glyph glyph-name="Igrave" unicode="&#xcc;" horiz-adv-x="759" 
d="M455 1573h-174l-267 362h336zM188 0v1434h385v-1434h-385z" />
    <glyph glyph-name="Iacute" unicode="&#xcd;" horiz-adv-x="759" 
d="M309 1573l105 362h336l-269 -362h-172zM188 0v1434h385v-1434h-385z" />
    <glyph glyph-name="Icircumflex" unicode="&#xce;" horiz-adv-x="759" 
d="M797 1608h-357l-141 178l-141 -178h-195l250 327h334zM188 0v1434h385v-1434h-385z" />
    <glyph glyph-name="Idieresis" unicode="&#xcf;" horiz-adv-x="759" 
d="M215 1538h-18l-181 397h732l-183 -397h-18l-166 360zM188 0v1434h385v-1434h-385z" />
    <glyph glyph-name="Eth" unicode="&#xd0;" horiz-adv-x="1593" 
d="M674 1434q375 0 598 -196.5t223 -520.5q0 -323 -223.5 -520t-597.5 -197h-486v653h-129v127h129v654h486zM684 190q201 0 307.5 134t106.5 393q0 260 -106.5 393t-307.5 133h-111v-463h222v-127h-222v-463h111z" />
    <glyph glyph-name="Ntilde" unicode="&#xd1;" horiz-adv-x="1617" 
d="M412 1622q0 154 63 234.5t170 80.5q63 0 128.5 -21.5t120 -43t89.5 -21.5q33 0 53.5 19.5t20.5 58.5h149q0 -154 -62 -233.5t-169 -79.5q-63 0 -129 21t-120.5 42t-88.5 21t-54 -19t-20 -59h-151zM184 0v1434h385l664 -891v891h201v-1469h-224l-823 1084v-1049h-203z" />
    <glyph glyph-name="Ograve" unicode="&#xd2;" horiz-adv-x="1701" 
d="M926 1573h-174l-267 362h336zM852 -31q-215 0 -387 96.5t-268.5 267.5t-96.5 384q0 160 56.5 299t155.5 237.5t239 154.5t301 56t300.5 -56t238 -154.5t155 -237t56.5 -299.5q0 -213 -96 -384t-267.5 -267.5t-386.5 -96.5zM852 178q166 0 261 141t95 398q0 258 -95 399
t-261 141q-168 0 -263 -141t-95 -399q0 -257 95.5 -398t262.5 -141z" />
    <glyph glyph-name="Oacute" unicode="&#xd3;" horiz-adv-x="1701" 
d="M780 1573l105 362h336l-269 -362h-172zM852 -31q-215 0 -387 96.5t-268.5 267.5t-96.5 384q0 160 56.5 299t155.5 237.5t239 154.5t301 56t300.5 -56t238 -154.5t155 -237t56.5 -299.5q0 -213 -96 -384t-267.5 -267.5t-386.5 -96.5zM852 178q166 0 261 141t95 398
q0 258 -95 399t-261 141q-168 0 -263 -141t-95 -399q0 -257 95.5 -398t262.5 -141z" />
    <glyph glyph-name="Ocircumflex" unicode="&#xd4;" horiz-adv-x="1701" 
d="M1268 1608h-357l-141 178l-141 -178h-195l250 327h334zM852 -31q-215 0 -387 96.5t-268.5 267.5t-96.5 384q0 160 56.5 299t155.5 237.5t239 154.5t301 56t300.5 -56t238 -154.5t155 -237t56.5 -299.5q0 -213 -96 -384t-267.5 -267.5t-386.5 -96.5zM852 178
q166 0 261 141t95 398q0 258 -95 399t-261 141q-168 0 -263 -141t-95 -399q0 -257 95.5 -398t262.5 -141z" />
    <glyph glyph-name="Otilde" unicode="&#xd5;" horiz-adv-x="1701" 
d="M455 1622q0 154 63 234.5t170 80.5q63 0 128.5 -21.5t120 -43t89.5 -21.5q33 0 53.5 19.5t20.5 58.5h149q0 -154 -62 -233.5t-169 -79.5q-63 0 -129 21t-120.5 42t-88.5 21t-54 -19t-20 -59h-151zM852 -31q-215 0 -387 96.5t-268.5 267.5t-96.5 384q0 160 56.5 299
t155.5 237.5t239 154.5t301 56t300.5 -56t238 -154.5t155 -237t56.5 -299.5q0 -213 -96 -384t-267.5 -267.5t-386.5 -96.5zM852 178q166 0 261 141t95 398q0 258 -95 399t-261 141q-168 0 -263 -141t-95 -399q0 -257 95.5 -398t262.5 -141z" />
    <glyph glyph-name="Odieresis" unicode="&#xd6;" horiz-adv-x="1701" 
d="M686 1538h-18l-181 397h732l-183 -397h-18l-166 360zM852 1464q161 0 300.5 -56t238 -154.5t155 -237t56.5 -299.5q0 -213 -96 -384t-267.5 -267.5t-386.5 -96.5t-387 96.5t-268.5 267.5t-96.5 384q0 160 56.5 299t155.5 237.5t239 154.5t301 56zM852 178q166 0 261 141
t95 398q0 258 -95 399t-261 141q-168 0 -263 -141t-95 -399q0 -257 95.5 -398t262.5 -141z" />
    <glyph glyph-name="multiply" unicode="&#xd7;" horiz-adv-x="1146" 
d="M291 313l-121 121l283 283l-283 282l121 123l282 -282l283 282l123 -123l-283 -282l283 -283l-123 -121l-283 283z" />
    <glyph glyph-name="Oslash" unicode="&#xd8;" horiz-adv-x="1701" 
d="M852 -31q-250 0 -426 131l-96 -100h-219l178 205q-189 211 -189 512q0 160 56.5 299t155.5 237.5t239 154.5t301 56q247 0 426 -131l96 101h217l-178 -205q189 -208 189 -512q0 -213 -96 -384t-267.5 -267.5t-386.5 -96.5zM524 481l529 588q-55 199 -201 199
q-172 0 -271.5 -144.5t-99.5 -406.5q0 -131 43 -236zM852 168q172 0 270.5 144t98.5 405q0 127 -41 235l-531 -587q55 -197 203 -197z" />
    <glyph glyph-name="Ugrave" unicode="&#xd9;" horiz-adv-x="1566" 
d="M909 1573h-174l-266 362h336zM801 -31q-289 0 -461 169t-172 452v844h385v-834q0 -203 83.5 -302t240.5 -99q150 0 238.5 112t88.5 301v822h213v-832q0 -292 -166 -462.5t-450 -170.5z" />
    <glyph glyph-name="Uacute" unicode="&#xda;" horiz-adv-x="1566" 
d="M764 1573l104 362h336l-268 -362h-172zM801 -31q-289 0 -461 169t-172 452v844h385v-834q0 -203 83.5 -302t240.5 -99q150 0 238.5 112t88.5 301v822h213v-832q0 -292 -166 -462.5t-450 -170.5z" />
    <glyph glyph-name="Ucircumflex" unicode="&#xdb;" horiz-adv-x="1566" 
d="M1251 1608h-356l-141 178l-142 -178h-194l250 327h333zM801 -31q-289 0 -461 169t-172 452v844h385v-834q0 -203 83.5 -302t240.5 -99q150 0 238.5 112t88.5 301v822h213v-832q0 -292 -166 -462.5t-450 -170.5z" />
    <glyph glyph-name="Udieresis" unicode="&#xdc;" horiz-adv-x="1566" 
d="M670 1538h-19l-180 397h731l-182 -397h-19l-165 360zM1204 1434h213v-832q0 -292 -166 -462.5t-450 -170.5q-289 0 -461 169t-172 452v844h385v-834q0 -203 83.5 -302t240.5 -99q150 0 238.5 112t88.5 301v822z" />
    <glyph glyph-name="Yacute" unicode="&#xdd;" horiz-adv-x="1425" 
d="M651 1573l105 362h336l-269 -362h-172zM522 0v543l-512 891h422l377 -691l375 691h235l-512 -893v-541h-385z" />
    <glyph glyph-name="Thorn" unicode="&#xde;" horiz-adv-x="1406" 
d="M188 0v1434h373v-258h187q277 0 434 -119t157 -330q0 -209 -157 -327.5t-434 -118.5h-187v-281h-373zM561 459h174q107 0 167.5 70t60.5 194q0 126 -60.5 196t-167.5 70h-174v-530z" />
    <glyph glyph-name="germandbls" unicode="&#xdf;" horiz-adv-x="1609" 
d="M242 -410v1264h-183v170h183v78q0 186 142 300t390 114q240 0 390.5 -110t150.5 -298v-215q-91 12 -166 12q-50 0 -92.5 -10.5t-73.5 -38t-31 -68.5q0 -13 3 -24t12 -21t17 -17.5t25.5 -16t29.5 -14t37 -14t40 -13t47 -14.5t49 -15q59 -16 107 -33.5t99 -46t85 -63
t56 -84.5t22 -109q0 -67 -25.5 -122t-68.5 -93t-100 -64.5t-120 -38.5t-130 -12q-176 0 -293.5 83.5t-141.5 244.5h160q21 -86 92 -133t170 -47q74 0 130.5 27.5t56.5 82.5t-49.5 83t-176.5 66q-12 3 -18 5q-61 18 -104.5 33.5t-96.5 44.5t-85.5 62.5t-55.5 85.5t-23 116
t24 116t65.5 86.5t89 56.5t102.5 34h14v106q0 102 -76 161t-186 59q-108 0 -177 -46.5t-69 -132.5q0 -34 13.5 -73.5t29.5 -75t29.5 -107t13.5 -161.5v-1160h-333z" />
    <glyph glyph-name="agrave" unicode="&#xe0;" horiz-adv-x="1220" 
d="M662 1163h-175l-266 363h336zM385 -20q-162 0 -252 74t-90 200q0 274 457 311q130 9 191 44.5t61 103.5q0 80 -53 123t-138 43q-96 0 -164.5 -59.5t-85.5 -160.5h-176q23 177 154 281t327 104q203 0 328 -115t125 -311v-452h109v-166h-410v176q-56 -97 -155 -146.5
t-228 -49.5zM502 145q100 0 177 85.5t77 213.5v95q-47 -47 -166 -64q-110 -18 -157.5 -63t-47.5 -125q0 -69 31.5 -105.5t85.5 -36.5z" />
    <glyph glyph-name="aacute" unicode="&#xe1;" horiz-adv-x="1220" 
d="M516 1163l105 363h335l-268 -363h-172zM385 -20q-162 0 -252 74t-90 200q0 274 457 311q130 9 191 44.5t61 103.5q0 80 -53 123t-138 43q-96 0 -164.5 -59.5t-85.5 -160.5h-176q23 177 154 281t327 104q203 0 328 -115t125 -311v-452h109v-166h-410v176
q-56 -97 -155 -146.5t-228 -49.5zM502 145q100 0 177 85.5t77 213.5v95q-47 -47 -166 -64q-110 -18 -157.5 -63t-47.5 -125q0 -69 31.5 -105.5t85.5 -36.5z" />
    <glyph glyph-name="acircumflex" unicode="&#xe2;" horiz-adv-x="1220" 
d="M1004 1198h-357l-141 178l-141 -178h-195l250 328h334zM385 -20q-162 0 -252 74t-90 200q0 274 457 311q130 9 191 44.5t61 103.5q0 80 -53 123t-138 43q-96 0 -164.5 -59.5t-85.5 -160.5h-176q23 177 154 281t327 104q203 0 328 -115t125 -311v-452h109v-166h-410v176
q-56 -97 -155 -146.5t-228 -49.5zM502 145q100 0 177 85.5t77 213.5v95q-47 -47 -166 -64q-110 -18 -157.5 -63t-47.5 -125q0 -69 31.5 -105.5t85.5 -36.5z" />
    <glyph glyph-name="atilde" unicode="&#xe3;" horiz-adv-x="1220" 
d="M190 1212q0 154 63.5 235t170.5 81q63 0 128.5 -21.5t120 -43t89.5 -21.5q33 0 53.5 19.5t20.5 58.5h149q0 -154 -62 -234t-169 -80q-63 0 -129 21t-120.5 42t-88.5 21t-54 -19t-20 -59h-152zM385 -20q-162 0 -252 74t-90 200q0 274 457 311q130 9 191 44.5t61 103.5
q0 80 -53 123t-138 43q-96 0 -164.5 -59.5t-85.5 -160.5h-176q23 177 154 281t327 104q203 0 328 -115t125 -311v-452h109v-166h-410v176q-56 -97 -155 -146.5t-228 -49.5zM502 145q100 0 177 85.5t77 213.5v95q-47 -47 -166 -64q-110 -18 -157.5 -63t-47.5 -125
q0 -69 31.5 -105.5t85.5 -36.5z" />
    <glyph glyph-name="adieresis" unicode="&#xe4;" horiz-adv-x="1220" 
d="M422 1128h-19l-180 398h731l-182 -398h-18l-166 361zM1069 166h109v-166h-410v176q-56 -97 -155 -146.5t-228 -49.5q-162 0 -252 74t-90 200q0 274 457 311q130 9 191 44.5t61 103.5q0 80 -53 123t-138 43q-96 0 -164.5 -59.5t-85.5 -160.5h-176q23 177 154 281t327 104
q203 0 328 -115t125 -311v-452zM756 444v95q-47 -47 -166 -64q-110 -18 -157.5 -63t-47.5 -125q0 -69 31.5 -105.5t85.5 -36.5q100 0 177 85.5t77 213.5z" />
    <glyph glyph-name="aring" unicode="&#xe5;" horiz-adv-x="1220" 
d="M588 1120q-121 0 -205 84.5t-84 204.5t84 204.5t205 84.5q120 0 204.5 -84.5t84.5 -204.5t-84.5 -204.5t-204.5 -84.5zM588 1333q168 0 168 76t-168 76q-166 0 -166 -76t166 -76zM385 -20q-162 0 -252 74t-90 200q0 274 457 311q130 9 191 44.5t61 103.5q0 80 -53 123
t-138 43q-96 0 -164.5 -59.5t-85.5 -160.5h-176q23 177 154 281t327 104q203 0 328 -115t125 -311v-452h109v-166h-410v176q-56 -97 -155 -146.5t-228 -49.5zM502 145q100 0 177 85.5t77 213.5v95q-47 -47 -166 -64q-110 -18 -157.5 -63t-47.5 -125q0 -69 31.5 -105.5
t85.5 -36.5z" />
    <glyph glyph-name="ae" unicode="&#xe6;" horiz-adv-x="1898" 
d="M401 -20q-170 0 -264 74t-94 200q0 274 457 311q130 9 191 44.5t61 103.5q0 80 -53 123t-138 43q-96 0 -164.5 -59.5t-85.5 -160.5h-176q23 177 151 281t320 104q105 0 188 -36t134 -103q142 139 372 139q241 0 392.5 -147.5t154.5 -382.5q0 -37 -4 -55h-772
q12 -152 83.5 -233t191.5 -81q91 0 160 45.5t100 124.5h188q-32 -146 -164.5 -240.5t-335.5 -94.5q-161 0 -285 67.5t-188 185.5q-48 -125 -159 -189t-261 -64zM1071 569h447q-10 161 -69 244.5t-155 83.5q-94 0 -153 -83.5t-70 -227.5v-17zM502 145q100 0 177 85.5
t77 213.5v95q-47 -47 -166 -64q-110 -18 -157.5 -63t-47.5 -125q0 -69 31.5 -105.5t85.5 -36.5z" />
    <glyph glyph-name="ccedilla" unicode="&#xe7;" horiz-adv-x="1198" 
d="M633 -20q-243 0 -399 150t-156 382q0 233 156 382.5t399 149.5q205 0 343 -115.5t163 -303.5h-187q-24 105 -95.5 170t-168.5 65q-127 0 -198.5 -92t-71.5 -256q0 -163 71.5 -254.5t198.5 -91.5q97 0 169 64t95 169h187q-25 -187 -163 -303t-343 -116zM705 -139
l-105 -363h-338l268 363h175z" />
    <glyph glyph-name="egrave" unicode="&#xe8;" horiz-adv-x="1239" 
d="M696 1163h-174l-266 363h336zM635 -20q-247 0 -402 146t-155 382q0 156 72.5 278.5t200.5 190t290 67.5q241 0 392.5 -147.5t154.5 -382.5q0 -37 -4 -55h-772q12 -153 83.5 -233.5t190.5 -80.5q91 0 160 45.5t100 124.5h189q-32 -146 -164.5 -240.5t-335.5 -94.5z
M858 569q-10 161 -68.5 244.5t-154.5 83.5q-94 0 -153 -83.5t-70 -227.5v-17h446z" />
    <glyph glyph-name="eacute" unicode="&#xe9;" horiz-adv-x="1239" 
d="M551 1163l104 363h336l-268 -363h-172zM635 -20q-247 0 -402 146t-155 382q0 156 72.5 278.5t200.5 190t290 67.5q241 0 392.5 -147.5t154.5 -382.5q0 -37 -4 -55h-772q12 -153 83.5 -233.5t190.5 -80.5q91 0 160 45.5t100 124.5h189q-32 -146 -164.5 -240.5
t-335.5 -94.5zM858 569q-10 161 -68.5 244.5t-154.5 83.5q-94 0 -153 -83.5t-70 -227.5v-17h446z" />
    <glyph glyph-name="ecircumflex" unicode="&#xea;" horiz-adv-x="1239" 
d="M1038 1198h-356l-141 178l-142 -178h-194l250 328h333zM635 -20q-247 0 -402 146t-155 382q0 156 72.5 278.5t200.5 190t290 67.5q241 0 392.5 -147.5t154.5 -382.5q0 -37 -4 -55h-772q12 -153 83.5 -233.5t190.5 -80.5q91 0 160 45.5t100 124.5h189
q-32 -146 -164.5 -240.5t-335.5 -94.5zM858 569q-10 161 -68.5 244.5t-154.5 83.5q-94 0 -153 -83.5t-70 -227.5v-17h446z" />
    <glyph glyph-name="edieresis" unicode="&#xeb;" horiz-adv-x="1239" 
d="M457 1128h-19l-180 398h731l-182 -398h-19l-165 361zM1188 514q0 -37 -4 -55h-772q12 -153 83.5 -233.5t190.5 -80.5q91 0 160 45.5t100 124.5h189q-32 -146 -164.5 -240.5t-335.5 -94.5q-247 0 -402 146t-155 382q0 156 72.5 278.5t200.5 190t290 67.5
q241 0 392.5 -147.5t154.5 -382.5zM412 569h446q-10 161 -68.5 244.5t-154.5 83.5q-94 0 -153 -83.5t-70 -227.5v-17z" />
    <glyph glyph-name="igrave" unicode="&#xec;" horiz-adv-x="647" 
d="M397 1163h-174l-266 363h336zM156 0v1024h333v-1024h-333z" />
    <glyph glyph-name="iacute" unicode="&#xed;" horiz-adv-x="647" 
d="M252 1163l104 363h336l-268 -363h-172zM156 0v1024h333v-1024h-333z" />
    <glyph glyph-name="icircumflex" unicode="&#xee;" horiz-adv-x="647" 
d="M739 1198h-356l-141 178l-142 -178h-194l250 328h333zM156 0v1024h333v-1024h-333z" />
    <glyph glyph-name="idieresis" unicode="&#xef;" horiz-adv-x="647" 
d="M690 1526l-182 -398h-19l-165 361l-166 -361h-19l-180 398h731zM156 0v1024h333v-1024h-333z" />
    <glyph glyph-name="eth" unicode="&#xf0;" horiz-adv-x="1306" 
d="M651 -20q-249 0 -411 149t-162 379q0 227 156 377.5t399 150.5q77 0 143 -32q-26 54 -63 94l-47 59h-351v127h271l-142 170h213l142 -170h293v-127h-213l96 -117q131 -147 192.5 -265t61.5 -263q0 -233 -161.5 -382.5t-416.5 -149.5zM653 150q108 0 171 95.5t63 266.5
q0 173 -62.5 267.5t-171.5 94.5q-107 0 -170 -95t-63 -267q0 -171 63 -266.5t170 -95.5z" />
    <glyph glyph-name="ntilde" unicode="&#xf1;" horiz-adv-x="1351" 
d="M289 1212q0 154 63 235t170 81q63 0 128.5 -21.5t120 -43t89.5 -21.5q33 0 53.5 19.5t20.5 58.5h149q0 -154 -62 -234t-169 -80q-63 0 -129 21t-120.5 42t-88.5 21t-54 -19t-20 -59h-151zM156 0v1024h319v-160q102 180 322 180q195 0 307.5 -122.5t112.5 -337.5v-584
h-338v557q0 144 -48.5 219.5t-136.5 75.5q-90 0 -147.5 -86.5t-57.5 -218.5v-547h-333z" />
    <glyph glyph-name="ograve" unicode="&#xf2;" horiz-adv-x="1306" 
d="M727 1163h-174l-266 363h336zM653 -20q-250 0 -412.5 150t-162.5 382t162.5 382t412.5 150q252 0 414 -150t162 -382t-162 -382t-414 -150zM653 150q108 0 171 95.5t63 266.5q0 173 -62.5 267.5t-171.5 94.5q-107 0 -170 -95t-63 -267q0 -171 63 -266.5t170 -95.5z" />
    <glyph glyph-name="oacute" unicode="&#xf3;" horiz-adv-x="1306" 
d="M582 1163l104 363h336l-268 -363h-172zM653 -20q-250 0 -412.5 150t-162.5 382t162.5 382t412.5 150q252 0 414 -150t162 -382t-162 -382t-414 -150zM653 150q108 0 171 95.5t63 266.5q0 173 -62.5 267.5t-171.5 94.5q-107 0 -170 -95t-63 -267q0 -171 63 -266.5
t170 -95.5z" />
    <glyph glyph-name="ocircumflex" unicode="&#xf4;" horiz-adv-x="1306" 
d="M1069 1198h-356l-142 178l-141 -178h-194l249 328h334zM653 -20q-250 0 -412.5 150t-162.5 382t162.5 382t412.5 150q252 0 414 -150t162 -382t-162 -382t-414 -150zM653 150q108 0 171 95.5t63 266.5q0 173 -62.5 267.5t-171.5 94.5q-107 0 -170 -95t-63 -267
q0 -171 63 -266.5t170 -95.5z" />
    <glyph glyph-name="otilde" unicode="&#xf5;" horiz-adv-x="1306" 
d="M256 1212q0 154 63 235t170 81q63 0 128.5 -21.5t120 -43t89.5 -21.5q33 0 53.5 19.5t20.5 58.5h150q0 -154 -62.5 -234t-169.5 -80q-63 0 -129 21t-120.5 42t-88.5 21q-73 0 -73 -78h-152zM653 -20q-250 0 -412.5 150t-162.5 382t162.5 382t412.5 150q252 0 414 -150
t162 -382t-162 -382t-414 -150zM653 150q108 0 171 95.5t63 266.5q0 173 -62.5 267.5t-171.5 94.5q-107 0 -170 -95t-63 -267q0 -171 63 -266.5t170 -95.5z" />
    <glyph glyph-name="odieresis" unicode="&#xf6;" horiz-adv-x="1306" 
d="M487 1128h-18l-180 398h731l-182 -398h-19l-166 361zM653 1044q252 0 414 -150t162 -382t-162 -382t-414 -150q-250 0 -412.5 150t-162.5 382t162.5 382t412.5 150zM653 150q108 0 171 95.5t63 266.5q0 173 -62.5 267.5t-171.5 94.5q-107 0 -170 -95t-63 -267
q0 -171 63 -266.5t170 -95.5z" />
    <glyph glyph-name="divide" unicode="&#xf7;" horiz-adv-x="1146" 
d="M573 1004q-53 0 -88.5 36t-35.5 90t35.5 89.5t88.5 35.5q54 0 90.5 -35.5t36.5 -89.5t-36.5 -90t-90.5 -36zM129 633v170h891v-170h-891zM573 178q-53 0 -88.5 36.5t-35.5 90.5t35.5 89.5t88.5 35.5q54 0 90.5 -35.5t36.5 -89.5t-36.5 -90.5t-90.5 -36.5z" />
    <glyph glyph-name="oslash" unicode="&#xf8;" horiz-adv-x="1306" 
d="M653 -20q-181 0 -323 92l-68 -72h-172l135 147q-147 150 -147 365q0 232 162.5 382t412.5 150q179 0 312 -79l55 59h172l-121 -133q158 -152 158 -379q0 -232 -162 -382t-414 -150zM424 371l367 401q-36 125 -138 125q-119 0 -188.5 -101.5t-69.5 -283.5q0 -75 29 -141z
M653 129q121 0 190.5 100.5t69.5 282.5q0 96 -28 166l-369 -399q37 -150 137 -150z" />
    <glyph glyph-name="ugrave" unicode="&#xf9;" horiz-adv-x="1351" 
d="M741 1163h-174l-266 363h336zM557 -20q-195 0 -308.5 123.5t-113.5 338.5v582h338l2 -555q0 -144 47 -220.5t135 -76.5q90 0 147.5 87t57.5 220v545h334v-1024h-317v162q-101 -182 -322 -182z" />
    <glyph glyph-name="uacute" unicode="&#xfa;" horiz-adv-x="1351" 
d="M596 1163l104 363h336l-268 -363h-172zM557 -20q-195 0 -308.5 123.5t-113.5 338.5v582h338l2 -555q0 -144 47 -220.5t135 -76.5q90 0 147.5 87t57.5 220v545h334v-1024h-317v162q-101 -182 -322 -182z" />
    <glyph glyph-name="ucircumflex" unicode="&#xfb;" horiz-adv-x="1351" 
d="M1083 1198h-356l-141 178l-142 -178h-194l250 328h334zM557 -20q-195 0 -308.5 123.5t-113.5 338.5v582h338l2 -555q0 -144 47 -220.5t135 -76.5q90 0 147.5 87t57.5 220v545h334v-1024h-317v162q-101 -182 -322 -182z" />
    <glyph glyph-name="udieresis" unicode="&#xfc;" horiz-adv-x="1351" 
d="M502 1128h-19l-180 398h731l-182 -398h-18l-166 361zM862 1024h334v-1024h-317v162q-101 -182 -322 -182q-195 0 -308.5 123.5t-113.5 338.5v582h338l2 -555q0 -144 47 -220.5t135 -76.5q90 0 147.5 87t57.5 220v545z" />
    <glyph glyph-name="yacute" unicode="&#xfd;" horiz-adv-x="1177" 
d="M537 1163l104 363h336l-268 -363h-172zM428 -430q-161 0 -270 102t-109 281v53h176v-65q0 -92 54.5 -150.5t132.5 -58.5q66 0 107.5 38.5t41.5 98.5v8q0 38 -18 91.5t-72 162.5l-457 893h369l252 -518q58 -132 67 -187q5 26 19 60l246 645h194l-319 -803
q-35 -85 -35 -190v-66q0 -184 -107 -289.5t-272 -105.5z" />
    <glyph glyph-name="thorn" unicode="&#xfe;" horiz-adv-x="1351" 
d="M156 -410v1864h333v-580q47 83 125.5 126.5t178.5 43.5q208 0 344.5 -148.5t136.5 -383.5q0 -234 -137 -383t-344 -149q-100 0 -178.5 44t-125.5 126v-560h-333zM717 168q96 0 155.5 88.5t59.5 255.5q0 168 -59 256t-156 88q-103 0 -170.5 -99t-67.5 -245t67.5 -245
t170.5 -99z" />
    <glyph glyph-name="ydieresis" unicode="&#xff;" horiz-adv-x="1177" 
d="M442 1128h-18l-180 398h731l-182 -398h-19l-166 361zM967 1024h194l-319 -803q-35 -85 -35 -190v-66q0 -184 -107 -289.5t-272 -105.5q-161 0 -270 102t-109 281v53h176v-65q0 -92 54.5 -150.5t132.5 -58.5q66 0 107.5 38.5t41.5 98.5v8q0 38 -18 91.5t-72 162.5
l-457 893h369l252 -518q58 -132 67 -187q5 26 19 60z" />
    <glyph glyph-name="Amacron" unicode="&#x100;" horiz-adv-x="1511" 
d="M428 1851h655v-137h-655v137zM31 0l532 1434h383l531 -1434h-410l-133 371h-549l-133 -371h-221zM440 543h439l-213 592h-13z" />
    <glyph glyph-name="amacron" unicode="&#x101;" horiz-adv-x="1220" 
d="M260 1442h655v-137h-655v137zM385 -20q-162 0 -252 74t-90 200q0 274 457 311q130 9 191 44.5t61 103.5q0 80 -53 123t-138 43q-96 0 -164.5 -59.5t-85.5 -160.5h-176q23 177 154 281t327 104q203 0 328 -115t125 -311v-452h109v-166h-410v176q-56 -97 -155 -146.5
t-228 -49.5zM502 145q100 0 177 85.5t77 213.5v95q-47 -47 -166 -64q-110 -18 -157.5 -63t-47.5 -125q0 -69 31.5 -105.5t85.5 -36.5z" />
    <glyph glyph-name="Abreve" unicode="&#x102;" horiz-adv-x="1511" 
d="M756 1540q-180 0 -291 113t-111 291v14h152v-12q0 -76 64 -118t186 -42q123 0 186.5 42t63.5 118v12h153v-14q0 -178 -111.5 -291t-291.5 -113zM31 0l532 1434h383l531 -1434h-410l-133 371h-549l-133 -371h-221zM440 543h439l-213 592h-13z" />
    <glyph glyph-name="abreve" unicode="&#x103;" horiz-adv-x="1220" 
d="M588 1130q-180 0 -291 113t-111 291v14h152v-12q0 -76 64 -118t186 -42q123 0 186.5 42t63.5 118v12h153v-14q0 -178 -111.5 -291t-291.5 -113zM385 -20q-162 0 -252 74t-90 200q0 274 457 311q130 9 191 44.5t61 103.5q0 80 -53 123t-138 43q-96 0 -164.5 -59.5
t-85.5 -160.5h-176q23 177 154 281t327 104q203 0 328 -115t125 -311v-452h109v-166h-410v176q-56 -97 -155 -146.5t-228 -49.5zM502 145q100 0 177 85.5t77 213.5v95q-47 -47 -166 -64q-110 -18 -157.5 -63t-47.5 -125q0 -69 31.5 -105.5t85.5 -36.5z" />
    <glyph glyph-name="Aogonek" unicode="&#x104;" horiz-adv-x="1511" 
d="M31 0l532 1434h383l531 -1434h-410l-133 371h-549l-133 -371h-221zM440 543h439l-213 592h-13zM1489 -139l-105 -363h-335l268 363h172z" />
    <glyph glyph-name="aogonek" unicode="&#x105;" horiz-adv-x="1220" 
d="M385 -20q-162 0 -252 74t-90 200q0 274 457 311q130 9 191 44.5t61 103.5q0 80 -53 123t-138 43q-96 0 -164.5 -59.5t-85.5 -160.5h-176q23 177 154 281t327 104q203 0 328 -115t125 -311v-452h109v-166h-410v176q-56 -97 -155 -146.5t-228 -49.5zM502 145
q100 0 177 85.5t77 213.5v95q-47 -47 -166 -64q-110 -18 -157.5 -63t-47.5 -125q0 -69 31.5 -105.5t85.5 -36.5zM1188 -139l-105 -363h-335l268 363h172z" />
    <glyph glyph-name="Cacute" unicode="&#x106;" horiz-adv-x="1568" 
d="M739 1573l105 362h336l-269 -362h-172zM829 -31q-213 0 -379 94.5t-258 265t-92 388.5q0 332 203 539.5t526 207.5q131 0 249 -45.5t205.5 -125t143 -190.5t66.5 -237h-215q-25 158 -134 261.5t-255 103.5q-175 0 -285 -142t-110 -372q0 -228 110 -371t285 -143
q146 0 255 104t134 262h215q-11 -126 -66.5 -237.5t-143 -191t-205.5 -125.5t-249 -46z" />
    <glyph glyph-name="cacute" unicode="&#x107;" horiz-adv-x="1198" 
d="M541 1163l104 363h336l-268 -363h-172zM633 -20q-243 0 -399 150t-156 382q0 233 156 382.5t399 149.5q205 0 343 -115.5t163 -303.5h-187q-24 105 -95.5 170t-168.5 65q-127 0 -198.5 -92t-71.5 -256q0 -163 71.5 -254.5t198.5 -91.5q97 0 169 64t95 169h187
q-25 -187 -163 -303t-343 -116z" />
    <glyph glyph-name="Cdotaccent" unicode="&#x10a;" horiz-adv-x="1568" 
d="M801 1538l-193 397h406l-193 -397h-20zM829 -31q-213 0 -379 94.5t-258 265t-92 388.5q0 332 203 539.5t526 207.5q131 0 249 -45.5t205.5 -125t143 -190.5t66.5 -237h-215q-25 158 -134 261.5t-255 103.5q-175 0 -285 -142t-110 -372q0 -228 110 -371t285 -143
q146 0 255 104t134 262h215q-11 -126 -66.5 -237.5t-143 -191t-205.5 -125.5t-249 -46z" />
    <glyph glyph-name="cdotaccent" unicode="&#x10b;" horiz-adv-x="1198" 
d="M602 1128l-192 398h405l-192 -398h-21zM633 -20q-243 0 -399 150t-156 382q0 233 156 382.5t399 149.5q205 0 343 -115.5t163 -303.5h-187q-24 105 -95.5 170t-168.5 65q-127 0 -198.5 -92t-71.5 -256q0 -163 71.5 -254.5t198.5 -91.5q97 0 169 64t95 169h187
q-25 -187 -163 -303t-343 -116z" />
    <glyph glyph-name="Ccaron" unicode="&#x10c;" horiz-adv-x="1568" 
d="M395 1935h357l141 -178l141 178h195l-250 -327h-334zM829 -31q-213 0 -379 94.5t-258 265t-92 388.5q0 332 203 539.5t526 207.5q131 0 249 -45.5t205.5 -125t143 -190.5t66.5 -237h-215q-25 158 -134 261.5t-255 103.5q-175 0 -285 -142t-110 -372q0 -228 110 -371
t285 -143q146 0 255 104t134 262h215q-11 -126 -66.5 -237.5t-143 -191t-205.5 -125.5t-249 -46z" />
    <glyph glyph-name="ccaron" unicode="&#x10d;" horiz-adv-x="1198" 
d="M197 1526h356l141 -178l142 178h194l-250 -328h-334zM633 -20q-243 0 -399 150t-156 382q0 233 156 382.5t399 149.5q205 0 343 -115.5t163 -303.5h-187q-24 105 -95.5 170t-168.5 65q-127 0 -198.5 -92t-71.5 -256q0 -163 71.5 -254.5t198.5 -91.5q97 0 169 64t95 169
h187q-25 -187 -163 -303t-343 -116z" />
    <glyph glyph-name="Dcaron" unicode="&#x10e;" horiz-adv-x="1593" 
d="M285 1935h356l141 -178l142 178h194l-250 -327h-333zM188 0v1434h486q375 0 598 -196.5t223 -520.5q0 -323 -223.5 -520t-597.5 -197h-486zM573 190h111q201 0 307.5 134t106.5 393q0 260 -106.5 393t-307.5 133h-111v-1053z" />
    <glyph glyph-name="dcaron" unicode="&#x10f;" horiz-adv-x="1351" 
d="M561 -20q-209 0 -346 149t-137 383q0 235 137 383.5t346 148.5q205 0 301 -170v580h334v-1454h-319v160q-102 -180 -316 -180zM1323 1126v328h299l-145 -328h-154zM635 168q103 0 171 99t68 245t-68 245t-171 99q-97 0 -156 -88t-59 -256q0 -167 59.5 -255.5t155.5 -88.5
z" />
    <glyph glyph-name="Dcroat" unicode="&#x110;" horiz-adv-x="1593" 
d="M674 1434q375 0 598 -196.5t223 -520.5q0 -323 -223.5 -520t-597.5 -197h-486v653h-129v127h129v654h486zM684 190q201 0 307.5 134t106.5 393q0 260 -106.5 393t-307.5 133h-111v-463h222v-127h-222v-463h111z" />
    <glyph glyph-name="dcroat" unicode="&#x111;" horiz-adv-x="1351" 
d="M1327 1284v-127h-131v-1157h-319v160q-102 -180 -316 -180q-209 0 -346 149t-137 383q0 235 137 383.5t346 148.5q205 0 301 -170v283h-280v127h280v170h334v-170h131zM635 168q103 0 171 99t68 245t-68 245t-171 99q-97 0 -156 -88t-59 -256q0 -167 59.5 -255.5
t155.5 -88.5z" />
    <glyph glyph-name="Emacron" unicode="&#x112;" horiz-adv-x="1286" 
d="M340 1851h655v-137h-655v137zM188 0v1434h969v-187h-588v-442h392v-174h-392v-443h658v-188h-1039z" />
    <glyph glyph-name="emacron" unicode="&#x113;" horiz-adv-x="1239" 
d="M295 1442h655v-137h-655v137zM635 -20q-247 0 -402 146t-155 382q0 156 72.5 278.5t200.5 190t290 67.5q241 0 392.5 -147.5t154.5 -382.5q0 -37 -4 -55h-772q12 -153 83.5 -233.5t190.5 -80.5q91 0 160 45.5t100 124.5h189q-32 -146 -164.5 -240.5t-335.5 -94.5z
M858 569q-10 161 -68.5 244.5t-154.5 83.5q-94 0 -153 -83.5t-70 -227.5v-17h446z" />
    <glyph glyph-name="Edotaccent" unicode="&#x116;" horiz-adv-x="1286" 
d="M657 1538l-192 397h405l-192 -397h-21zM188 0v1434h969v-187h-588v-442h392v-174h-392v-443h658v-188h-1039z" />
    <glyph glyph-name="edotaccent" unicode="&#x117;" horiz-adv-x="1239" 
d="M612 1128l-192 398h405l-192 -398h-21zM635 -20q-247 0 -402 146t-155 382q0 156 72.5 278.5t200.5 190t290 67.5q241 0 392.5 -147.5t154.5 -382.5q0 -37 -4 -55h-772q12 -153 83.5 -233.5t190.5 -80.5q91 0 160 45.5t100 124.5h189q-32 -146 -164.5 -240.5
t-335.5 -94.5zM858 569q-10 161 -68.5 244.5t-154.5 83.5q-94 0 -153 -83.5t-70 -227.5v-17h446z" />
    <glyph glyph-name="Eogonek" unicode="&#x118;" horiz-adv-x="1286" 
d="M188 0v1434h969v-187h-588v-442h392v-174h-392v-443h658v-188h-1039zM1237 -139l-104 -363h-336l268 363h172z" />
    <glyph glyph-name="eogonek" unicode="&#x119;" horiz-adv-x="1239" 
d="M635 -20q-247 0 -402 146t-155 382q0 156 72.5 278.5t200.5 190t290 67.5q241 0 392.5 -147.5t154.5 -382.5q0 -37 -4 -55h-772q12 -153 83.5 -233.5t190.5 -80.5q91 0 160 45.5t100 124.5h189q-32 -146 -164.5 -240.5t-335.5 -94.5zM858 569q-10 161 -68.5 244.5
t-154.5 83.5q-94 0 -153 -83.5t-70 -227.5v-17h446zM1004 -139l-105 -363h-336l268 363h173z" />
    <glyph glyph-name="Ecaron" unicode="&#x11a;" horiz-adv-x="1286" 
d="M252 1935h356l142 -178l141 178h194l-249 -327h-334zM188 0v1434h969v-187h-588v-442h392v-174h-392v-443h658v-188h-1039z" />
    <glyph glyph-name="ecaron" unicode="&#x11b;" horiz-adv-x="1239" 
d="M207 1526h356l142 -178l141 178h194l-249 -328h-334zM635 -20q-247 0 -402 146t-155 382q0 156 72.5 278.5t200.5 190t290 67.5q241 0 392.5 -147.5t154.5 -382.5q0 -37 -4 -55h-772q12 -153 83.5 -233.5t190.5 -80.5q91 0 160 45.5t100 124.5h189
q-32 -146 -164.5 -240.5t-335.5 -94.5zM858 569q-10 161 -68.5 244.5t-154.5 83.5q-94 0 -153 -83.5t-70 -227.5v-17h446z" />
    <glyph glyph-name="Gbreve" unicode="&#x11e;" horiz-adv-x="1650" 
d="M831 1540q-180 0 -290.5 113t-110.5 291v14h152v-12q0 -76 64 -118t185 -42q123 0 186.5 42t63.5 118v12h154v-14q0 -178 -112 -291t-292 -113zM766 -31q-191 0 -343 94t-237.5 263t-85.5 383q0 167 54 308.5t149 239.5t228.5 152.5t289.5 54.5q255 0 428 -139t217 -364
h-221q-38 127 -129.5 202.5t-224.5 75.5q-177 0 -287 -146t-110 -380q0 -236 108 -385.5t270 -149.5q109 0 184.5 78t94.5 203v131h-293v164h676v-754h-344v186q-131 -217 -424 -217z" />
    <glyph glyph-name="gbreve" unicode="&#x11f;" horiz-adv-x="1388" 
d="M748 1130q-180 0 -291 113t-111 291v14h152v-12q0 -76 64 -118t186 -42q123 0 186 42t63 118v12h154v-14q0 -178 -111.5 -291t-291.5 -113zM745 -430q-291 0 -450.5 83t-159.5 234q0 98 79 166.5t220 98.5q-428 59 -428 274q0 60 41.5 107t116.5 57q32 0 59 -12
q-33 54 -33 120q0 155 146 250.5t420 95.5q284 0 430.5 -95t146.5 -251q0 -159 -153 -249.5t-418 -90.5q-96 0 -171.5 14.5t-119.5 35t-77.5 41t-66 35t-65.5 14.5q-36 0 -57 -19.5t-21 -50.5q0 -22 6.5 -40.5t22 -33.5t32 -27t46 -22t53.5 -17.5t65.5 -14t70.5 -10.5
t79.5 -9t82.5 -7.5t89 -6.5q20 -1 31.5 -2t29 -2.5t31.5 -2.5q541 -35 541 -327q0 -158 -165 -247t-454 -89zM762 477q110 0 172.5 58.5t62.5 162.5q0 107 -62 166.5t-173 59.5t-173.5 -59.5t-62.5 -166.5q0 -105 62 -163t174 -58zM748 -289q126 0 196 53.5t70 151.5
q0 102 -68.5 155.5t-197.5 53.5q-126 0 -196.5 -54.5t-70.5 -154.5q0 -98 71 -151.5t196 -53.5z" />
    <glyph glyph-name="Gdotaccent" unicode="&#x120;" horiz-adv-x="1650" 
d="M821 1538l-192 397h405l-192 -397h-21zM766 -31q-191 0 -343 94t-237.5 263t-85.5 383q0 167 54 308.5t149 239.5t228.5 152.5t289.5 54.5q255 0 428 -139t217 -364h-221q-38 127 -129.5 202.5t-224.5 75.5q-177 0 -287 -146t-110 -380q0 -236 108 -385.5t270 -149.5
q109 0 184.5 78t94.5 203v131h-293v164h676v-754h-344v186q-131 -217 -424 -217z" />
    <glyph glyph-name="gdotaccent" unicode="&#x121;" horiz-adv-x="1388" 
d="M737 1128l-192 398h405l-192 -398h-21zM745 -430q-291 0 -450.5 83t-159.5 234q0 98 79 166.5t220 98.5q-428 59 -428 274q0 60 41.5 107t116.5 57q32 0 59 -12q-33 54 -33 120q0 155 146 250.5t420 95.5q284 0 430.5 -95t146.5 -251q0 -159 -153 -249.5t-418 -90.5
q-96 0 -171.5 14.5t-119.5 35t-77.5 41t-66 35t-65.5 14.5q-36 0 -57 -19.5t-21 -50.5q0 -22 6.5 -40.5t22 -33.5t32 -27t46 -22t53.5 -17.5t65.5 -14t70.5 -10.5t79.5 -9t82.5 -7.5t89 -6.5q20 -1 31.5 -2t29 -2.5t31.5 -2.5q541 -35 541 -327q0 -158 -165 -247t-454 -89z
M762 477q110 0 172.5 58.5t62.5 162.5q0 107 -62 166.5t-173 59.5t-173.5 -59.5t-62.5 -166.5q0 -105 62 -163t174 -58zM748 -289q126 0 196 53.5t70 151.5q0 102 -68.5 155.5t-197.5 53.5q-126 0 -196.5 -54.5t-70.5 -154.5q0 -98 71 -151.5t196 -53.5z" />
    <glyph glyph-name="uni0122" unicode="&#x122;" horiz-adv-x="1650" 
d="M766 -31q-191 0 -343 94t-237.5 263t-85.5 383q0 167 54 308.5t149 239.5t228.5 152.5t289.5 54.5q255 0 428 -139t217 -364h-221q-38 127 -129.5 202.5t-224.5 75.5q-177 0 -287 -146t-110 -380q0 -236 108 -385.5t270 -149.5q109 0 184.5 78t94.5 203v131h-293v164h676
v-754h-344v186q-131 -217 -424 -217zM881 -502h-133v6q57 21 105.5 53t53.5 64q-25 -14 -69 -14q-70 4 -109 39t-39 88q0 58 55.5 96.5t143.5 38.5q90 0 146.5 -39.5t56.5 -108.5t-62.5 -130t-148.5 -93z" />
    <glyph glyph-name="uni0123" unicode="&#x123;" horiz-adv-x="1388" 
d="M758 1542h131v-6q-54 -17 -103 -50.5t-55 -66.5q21 15 70 15q68 -3 107.5 -38.5t39.5 -86.5q0 -58 -55.5 -98t-144.5 -40q-90 0 -145.5 39.5t-55.5 108.5q0 70 62 132t149 91zM745 -430q-291 0 -450.5 83t-159.5 234q0 98 79 166.5t220 98.5q-428 59 -428 274
q0 60 41.5 107t116.5 57q32 0 59 -12q-33 54 -33 120q0 155 146 250.5t420 95.5q284 0 430.5 -95t146.5 -251q0 -159 -153 -249.5t-418 -90.5q-96 0 -171.5 14.5t-119.5 35t-77.5 41t-66 35t-65.5 14.5q-36 0 -57 -19.5t-21 -50.5q0 -22 6.5 -40.5t22 -33.5t32 -27t46 -22
t53.5 -17.5t65.5 -14t70.5 -10.5t79.5 -9t82.5 -7.5t89 -6.5q20 -1 31.5 -2t29 -2.5t31.5 -2.5q541 -35 541 -327q0 -158 -165 -247t-454 -89zM762 477q110 0 172.5 58.5t62.5 162.5q0 107 -62 166.5t-173 59.5t-173.5 -59.5t-62.5 -166.5q0 -105 62 -163t174 -58zM748 -289
q126 0 196 53.5t70 151.5q0 102 -68.5 155.5t-197.5 53.5q-126 0 -196.5 -54.5t-70.5 -154.5q0 -98 71 -151.5t196 -53.5z" />
    <glyph glyph-name="Hbar" unicode="&#x126;" horiz-adv-x="1679" 
d="M1636 1227v-148h-143v-1079h-385v614h-535v-614h-385v1079h-143v148h143v207h385v-207h535v207h385v-207h143zM1108 819v260h-535v-260h535z" />
    <glyph glyph-name="hbar" unicode="&#x127;" horiz-adv-x="1351" 
d="M797 1044q195 0 307.5 -122.5t112.5 -337.5v-584h-338v557q0 144 -48.5 219.5t-136.5 75.5q-90 0 -147.5 -86.5t-57.5 -218.5v-547h-333v1157h-125v127h125v170h333v-170h285v-127h-285v-283q96 170 308 170z" />
    <glyph glyph-name="Imacron" unicode="&#x12a;" horiz-adv-x="759" 
d="M53 1851h656v-137h-656v137zM188 0v1434h385v-1434h-385z" />
    <glyph glyph-name="imacron" unicode="&#x12b;" horiz-adv-x="647" 
d="M-4 1442h655v-137h-655v137zM156 0v1024h333v-1024h-333z" />
    <glyph glyph-name="Iogonek" unicode="&#x12e;" horiz-adv-x="759" 
d="M188 0v1434h385v-1434h-385zM584 -139l-105 -363h-336l269 363h172z" />
    <glyph glyph-name="iogonek" unicode="&#x12f;" horiz-adv-x="647" 
d="M313 1128l-192 398h405l-192 -398h-21zM156 0v1024h333v-1024h-333zM500 -139l-105 -363h-336l269 363h172z" />
    <glyph glyph-name="Idotaccent" unicode="&#x130;" horiz-adv-x="759" 
d="M371 1538l-193 397h406l-193 -397h-20zM188 0v1434h385v-1434h-385z" />
    <glyph glyph-name="dotlessi" unicode="&#x131;" horiz-adv-x="647" 
d="M156 0v1024h333v-1024h-333z" />
    <glyph glyph-name="uni0136" unicode="&#x136;" horiz-adv-x="1570" 
d="M188 0v1434h383v-615h138l479 615h235l-415 -564l544 -870h-452l-383 614h-146v-614h-383zM815 -502h-133v6q57 21 106 53t54 64q-24 -14 -70 -14q-70 4 -108.5 39t-38.5 88q0 58 55 96.5t143 38.5q90 0 146.5 -39.5t56.5 -108.5t-62.5 -130t-148.5 -93z" />
    <glyph glyph-name="uni0137" unicode="&#x137;" horiz-adv-x="1245" 
d="M156 0v1454h333v-854h95l346 424h200l-296 -383l395 -641h-383l-264 426h-93v-426h-333zM606 -502h-133v6q57 21 106 53t54 64q-24 -14 -70 -14q-70 4 -108.5 39t-38.5 88q0 58 55 96.5t143 38.5q90 0 146.5 -39.5t56.5 -108.5t-62.5 -130t-148.5 -93z" />
    <glyph glyph-name="Lacute" unicode="&#x139;" horiz-adv-x="1251" 
d="M309 1573l105 362h336l-269 -362h-172zM188 0v1434h385v-1227h639v-207h-1024z" />
    <glyph glyph-name="lacute" unicode="&#x13a;" horiz-adv-x="647" 
d="M252 1573l104 362h336l-268 -362h-172zM156 0v1454h333v-1454h-333z" />
    <glyph glyph-name="uni013B" unicode="&#x13b;" horiz-adv-x="1251" 
d="M188 0v1434h385v-1227h639v-207h-1024zM731 -502h-133v6q57 21 106 53t54 64q-24 -14 -70 -14q-70 4 -108.5 39t-38.5 88q0 58 55 96.5t143 38.5q90 0 146.5 -39.5t56.5 -108.5t-62.5 -130t-148.5 -93z" />
    <glyph glyph-name="uni013C" unicode="&#x13c;" horiz-adv-x="647" 
d="M156 0v1454h333v-1454h-333zM315 -502h-133v6q57 21 106 53t54 64q-24 -14 -70 -14q-70 4 -108.5 39t-38.5 88q0 58 55.5 96.5t143.5 38.5q90 0 146 -39.5t56 -108.5t-62.5 -130t-148.5 -93z" />
    <glyph glyph-name="Lcaron" unicode="&#x13d;" horiz-adv-x="1251" 
d="M188 0v1434h385v-1227h639v-207h-1024zM700 1106v328h299l-145 -328h-154z" />
    <glyph glyph-name="lcaron" unicode="&#x13e;" horiz-adv-x="647" 
d="M156 0v1454h333v-1454h-333zM616 1126v328h299l-145 -328h-154z" />
    <glyph glyph-name="Lslash" unicode="&#x141;" horiz-adv-x="1251" 
d="M573 207h639v-207h-1024v514l-141 -82v195l141 82v725h385v-498l279 164v-197l-279 -162v-534z" />
    <glyph glyph-name="lslash" unicode="&#x142;" horiz-adv-x="667" 
d="M676 1028v-186l-176 -105v-737h-334v543l-137 -80v186l137 80v725h334v-530z" />
    <glyph glyph-name="Nacute" unicode="&#x143;" horiz-adv-x="1617" 
d="M737 1573l105 362h336l-269 -362h-172zM184 0v1434h385l664 -891v891h201v-1469h-224l-823 1084v-1049h-203z" />
    <glyph glyph-name="nacute" unicode="&#x144;" horiz-adv-x="1351" 
d="M614 1163l105 363h336l-269 -363h-172zM156 0v1024h319v-160q102 180 322 180q195 0 307.5 -122.5t112.5 -337.5v-584h-338v557q0 144 -48.5 219.5t-136.5 75.5q-90 0 -147.5 -86.5t-57.5 -218.5v-547h-333z" />
    <glyph glyph-name="uni0145" unicode="&#x145;" horiz-adv-x="1617" 
d="M184 0v1434h385l664 -891v891h201v-1469h-224l-823 1084v-1049h-203zM801 -502h-133v6q57 21 105.5 53t53.5 64q-25 -14 -69 -14q-70 4 -109 39t-39 88q0 58 55.5 96.5t143.5 38.5q90 0 146.5 -39.5t56.5 -108.5t-62.5 -130t-148.5 -93z" />
    <glyph glyph-name="uni0146" unicode="&#x146;" horiz-adv-x="1351" 
d="M156 0v1024h319v-160q102 180 322 180q195 0 307.5 -122.5t112.5 -337.5v-584h-338v557q0 144 -48.5 219.5t-136.5 75.5q-90 0 -147.5 -86.5t-57.5 -218.5v-547h-333zM678 -502h-133v6q57 21 106 53t54 64q-24 -14 -70 -14q-70 4 -109 39t-39 88q0 58 55.5 96.5
t143.5 38.5q90 0 146.5 -39.5t56.5 -108.5t-62.5 -130t-148.5 -93z" />
    <glyph glyph-name="Ncaron" unicode="&#x147;" horiz-adv-x="1617" 
d="M393 1935h357l141 -178l141 178h195l-250 -327h-334zM184 0v1434h385l664 -891v891h201v-1469h-224l-823 1084v-1049h-203z" />
    <glyph glyph-name="ncaron" unicode="&#x148;" horiz-adv-x="1351" 
d="M270 1526h357l141 -178l141 178h195l-250 -328h-334zM156 0v1024h319v-160q102 180 322 180q195 0 307.5 -122.5t112.5 -337.5v-584h-338v557q0 144 -48.5 219.5t-136.5 75.5q-90 0 -147.5 -86.5t-57.5 -218.5v-547h-333z" />
    <glyph glyph-name="Eng" unicode="&#x14a;" horiz-adv-x="1617" 
d="M1006 -430q-154 0 -255.5 87.5t-101.5 219.5h168v-2q0 -67 54.5 -112.5t127.5 -45.5q90 0 139.5 51t49.5 138q0 128 -103 252l-698 891v-1049h-203v1434h385l664 -863v863h201v-1422q0 -222 -113 -332t-315 -110z" />
    <glyph glyph-name="eng" unicode="&#x14b;" horiz-adv-x="1351" 
d="M805 -430q-159 0 -266 88.5t-107 218.5h174v-2q0 -67 56.5 -112.5t132.5 -45.5q72 0 123 40t51 120q0 34 -13.5 76.5t-29.5 81t-29.5 102t-13.5 133.5v287q-1 144 -50 219.5t-139 75.5t-147.5 -86.5t-57.5 -218.5v-547h-333v1024h319v-160q102 180 322 180
q195 0 307.5 -122.5t112.5 -337.5v-572q0 -222 -109.5 -332t-302.5 -110z" />
    <glyph glyph-name="Omacron" unicode="&#x14c;" horiz-adv-x="1701" 
d="M524 1851h656v-137h-656v137zM852 -31q-215 0 -387 96.5t-268.5 267.5t-96.5 384q0 160 56.5 299t155.5 237.5t239 154.5t301 56t300.5 -56t238 -154.5t155 -237t56.5 -299.5q0 -213 -96 -384t-267.5 -267.5t-386.5 -96.5zM852 178q166 0 261 141t95 398q0 258 -95 399
t-261 141q-168 0 -263 -141t-95 -399q0 -257 95.5 -398t262.5 -141z" />
    <glyph glyph-name="omacron" unicode="&#x14d;" horiz-adv-x="1306" 
d="M326 1442h655v-137h-655v137zM653 -20q-250 0 -412.5 150t-162.5 382t162.5 382t412.5 150q252 0 414 -150t162 -382t-162 -382t-414 -150zM653 150q108 0 171 95.5t63 266.5q0 173 -62.5 267.5t-171.5 94.5q-107 0 -170 -95t-63 -267q0 -171 63 -266.5t170 -95.5z" />
    <glyph glyph-name="Ohungarumlaut" unicode="&#x150;" horiz-adv-x="1701" 
d="M584 1573l94 362h305l-244 -362h-155zM958 1573l95 362h303l-242 -362h-156zM852 -31q-215 0 -387 96.5t-268.5 267.5t-96.5 384q0 160 56.5 299t155.5 237.5t239 154.5t301 56t300.5 -56t238 -154.5t155 -237t56.5 -299.5q0 -213 -96 -384t-267.5 -267.5t-386.5 -96.5z
M852 178q166 0 261 141t95 398q0 258 -95 399t-261 141q-168 0 -263 -141t-95 -399q0 -257 95.5 -398t262.5 -141z" />
    <glyph glyph-name="ohungarumlaut" unicode="&#x151;" horiz-adv-x="1306" 
d="M385 1163l94 363h305l-243 -363h-156zM760 1163l94 363h303l-242 -363h-155zM653 -20q-250 0 -412.5 150t-162.5 382t162.5 382t412.5 150q252 0 414 -150t162 -382t-162 -382t-414 -150zM653 150q108 0 171 95.5t63 266.5q0 173 -62.5 267.5t-171.5 94.5
q-107 0 -170 -95t-63 -267q0 -171 63 -266.5t170 -95.5z" />
    <glyph glyph-name="OE" unicode="&#x152;" horiz-adv-x="2066" 
d="M920 0q-373 0 -596.5 197t-223.5 520q0 213 100 375.5t286.5 252t433.5 89.5h1019v-187h-557v-442h361v-174h-361v-443h625v-188h-1087zM909 190h95v1053h-95q-201 0 -306 -132.5t-105 -393.5q0 -260 105 -393.5t306 -133.5z" />
    <glyph glyph-name="oe" unicode="&#x153;" horiz-adv-x="2043" 
d="M653 -20q-250 0 -412.5 150t-162.5 382t162.5 382t412.5 150q124 0 228 -44t174 -123q69 79 169.5 123t221.5 44q242 0 393.5 -147.5t153.5 -382.5q0 -37 -2 -55h-774q13 -153 84 -233.5t190 -80.5q92 0 161 45t101 125h186q-31 -146 -163 -240.5t-334 -94.5
q-122 0 -223 43t-170 120q-69 -77 -171.5 -120t-224.5 -43zM1217 569h446q-10 161 -68.5 244.5t-154.5 83.5q-93 0 -152.5 -84t-70.5 -227v-17zM653 150q108 0 171 95.5t63 266.5q0 173 -62.5 267.5t-171.5 94.5q-107 0 -170 -95t-63 -267q0 -171 63 -266.5t170 -95.5z" />
    <glyph glyph-name="Racute" unicode="&#x154;" horiz-adv-x="1536" 
d="M670 1573l104 362h336l-268 -362h-172zM188 0v1434h582q283 0 444.5 -115.5t161.5 -317.5q0 -124 -75 -216.5t-207 -143.5l417 -641h-434l-377 575h-10h-119v-575h-383zM571 748h197q112 0 175 66t63 183t-63 182.5t-175 65.5h-197v-497z" />
    <glyph glyph-name="racute" unicode="&#x155;" horiz-adv-x="1114" 
d="M584 1163l104 363h336l-268 -363h-172zM156 0v1024h319v-170q46 92 125 141t182 49q156 0 247 -100.5t91 -292.5v-53h-329v43q0 190 -132 190q-76 0 -123 -78.5t-47 -201.5v-551h-333z" />
    <glyph glyph-name="uni0156" unicode="&#x156;" horiz-adv-x="1536" 
d="M188 0v1434h582q283 0 444.5 -115.5t161.5 -317.5q0 -124 -75 -216.5t-207 -143.5l417 -641h-434l-377 575h-10h-119v-575h-383zM571 748h197q112 0 175 66t63 183t-63 182.5t-175 65.5h-197v-497zM803 -502h-133v6q57 21 105.5 53t53.5 64q-25 -14 -69 -14
q-70 4 -109 39t-39 88q0 58 55.5 96.5t143.5 38.5q90 0 146.5 -39.5t56.5 -108.5t-62.5 -130t-148.5 -93z" />
    <glyph glyph-name="uni0157" unicode="&#x157;" horiz-adv-x="1114" 
d="M156 0v1024h319v-170q46 92 125 141t182 49q156 0 247 -100.5t91 -292.5v-53h-329v43q0 190 -132 190q-76 0 -123 -78.5t-47 -201.5v-551h-333zM315 -502h-133v6q57 21 106 53t54 64q-24 -14 -70 -14q-70 4 -108.5 39t-38.5 88q0 58 55.5 96.5t143.5 38.5q90 0 146 -39.5
t56 -108.5t-62.5 -130t-148.5 -93z" />
    <glyph glyph-name="Rcaron" unicode="&#x158;" horiz-adv-x="1536" 
d="M326 1935h356l141 -178l142 178h194l-250 -327h-334zM188 0v1434h582q283 0 444.5 -115.5t161.5 -317.5q0 -124 -75 -216.5t-207 -143.5l417 -641h-434l-377 575h-10h-119v-575h-383zM571 748h197q112 0 175 66t63 183t-63 182.5t-175 65.5h-197v-497z" />
    <glyph glyph-name="rcaron" unicode="&#x159;" horiz-adv-x="1114" 
d="M240 1526h356l141 -178l142 178h194l-250 -328h-334zM156 0v1024h319v-170q46 92 125 141t182 49q156 0 247 -100.5t91 -292.5v-53h-329v43q0 190 -132 190q-76 0 -123 -78.5t-47 -201.5v-551h-333z" />
    <glyph glyph-name="Sacute" unicode="&#x15a;" horiz-adv-x="1382" 
d="M600 1573l105 362h335l-268 -362h-172zM702 -31q-177 0 -316.5 56.5t-230 173.5t-106.5 282h213q24 -157 139.5 -245.5t280.5 -88.5q126 0 204.5 46t78.5 133q0 39 -16.5 69.5t-41.5 52.5t-73 43.5t-92 36t-119 35.5q-71 22 -108.5 34.5t-104 38.5t-103.5 48.5
t-85.5 59.5t-73.5 76.5t-43.5 94t-18.5 117.5q0 111 51 196.5t136 135.5t186.5 75t212.5 25q122 0 227.5 -31t190 -91t138.5 -157t66 -220h-219q-26 151 -128 234t-257 83q-68 0 -125 -16t-97 -55t-40 -95q0 -27 10 -50.5t23 -41t41.5 -35t50 -28.5t65.5 -26.5t70.5 -23.5
t81.5 -24q56 -16 92 -27.5t88 -29.5t86 -34t77 -39.5t70.5 -47.5t56.5 -56t45.5 -67.5t27 -79.5t10.5 -94q0 -87 -32 -160t-88.5 -124.5t-134.5 -87.5t-170 -53.5t-196 -17.5z" />
    <glyph glyph-name="sacute" unicode="&#x15b;" horiz-adv-x="1103" 
d="M465 1163l104 363h336l-268 -363h-172zM565 -27q-215 0 -360 96t-166 275h190q17 -104 105.5 -162.5t214.5 -58.5q83 0 146 27.5t63 82.5q0 26 -11.5 44t-48 34.5t-64.5 25t-99 28.5q-42 12 -64 18q-64 16 -112.5 32.5t-105 45.5t-93 64t-61 88t-25.5 118q0 67 27.5 122
t73 91.5t106.5 61t125.5 35t132.5 10.5q129 0 232.5 -38t173.5 -120.5t83 -200.5h-188q-21 100 -100.5 154.5t-196.5 54.5q-75 0 -132 -27.5t-57 -87.5q0 -51 74 -83q42 -19 170 -53q34 -10 53 -15q66 -17 113.5 -32.5t106 -43.5t95 -60.5t62 -82.5t25.5 -111
q0 -83 -41.5 -148.5t-112 -104.5t-155.5 -59t-179 -20z" />
    <glyph glyph-name="Scedilla" unicode="&#x15e;" horiz-adv-x="1382" 
d="M702 -31q-177 0 -316.5 56.5t-230 173.5t-106.5 282h213q24 -157 139.5 -245.5t280.5 -88.5q126 0 204.5 46t78.5 133q0 39 -16.5 69.5t-41.5 52.5t-73 43.5t-92 36t-119 35.5q-71 22 -108.5 34.5t-104 38.5t-103.5 48.5t-85.5 59.5t-73.5 76.5t-43.5 94t-18.5 117.5
q0 111 51 196.5t136 135.5t186.5 75t212.5 25q122 0 227.5 -31t190 -91t138.5 -157t66 -220h-219q-26 151 -128 234t-257 83q-68 0 -125 -16t-97 -55t-40 -95q0 -27 10 -50.5t23 -41t41.5 -35t50 -28.5t65.5 -26.5t70.5 -23.5t81.5 -24q56 -16 92 -27.5t88 -29.5t86 -34
t77 -39.5t70.5 -47.5t56.5 -56t45.5 -67.5t27 -79.5t10.5 -94q0 -87 -32 -160t-88.5 -124.5t-134.5 -87.5t-170 -53.5t-196 -17.5zM786 -139l-104 -363h-338l268 363h174z" />
    <glyph glyph-name="scedilla" unicode="&#x15f;" horiz-adv-x="1103" 
d="M565 -27q-215 0 -360 96t-166 275h190q17 -104 105.5 -162.5t214.5 -58.5q83 0 146 27.5t63 82.5q0 26 -11.5 44t-48 34.5t-64.5 25t-99 28.5q-42 12 -64 18q-64 16 -112.5 32.5t-105 45.5t-93 64t-61 88t-25.5 118q0 67 27.5 122t73 91.5t106.5 61t125.5 35t132.5 10.5
q129 0 232.5 -38t173.5 -120.5t83 -200.5h-188q-21 100 -100.5 154.5t-196.5 54.5q-75 0 -132 -27.5t-57 -87.5q0 -51 74 -83q42 -19 170 -53q34 -10 53 -15q66 -17 113.5 -32.5t106 -43.5t95 -60.5t62 -82.5t25.5 -111q0 -83 -41.5 -148.5t-112 -104.5t-155.5 -59t-179 -20
zM672 -139l-105 -363h-338l269 363h174z" />
    <glyph glyph-name="Scaron" unicode="&#x160;" horiz-adv-x="1382" 
d="M256 1935h356l142 -178l141 178h195l-250 -327h-334zM702 -31q-177 0 -316.5 56.5t-230 173.5t-106.5 282h213q24 -157 139.5 -245.5t280.5 -88.5q126 0 204.5 46t78.5 133q0 39 -16.5 69.5t-41.5 52.5t-73 43.5t-92 36t-119 35.5q-71 22 -108.5 34.5t-104 38.5
t-103.5 48.5t-85.5 59.5t-73.5 76.5t-43.5 94t-18.5 117.5q0 111 51 196.5t136 135.5t186.5 75t212.5 25q122 0 227.5 -31t190 -91t138.5 -157t66 -220h-219q-26 151 -128 234t-257 83q-68 0 -125 -16t-97 -55t-40 -95q0 -27 10 -50.5t23 -41t41.5 -35t50 -28.5t65.5 -26.5
t70.5 -23.5t81.5 -24q56 -16 92 -27.5t88 -29.5t86 -34t77 -39.5t70.5 -47.5t56.5 -56t45.5 -67.5t27 -79.5t10.5 -94q0 -87 -32 -160t-88.5 -124.5t-134.5 -87.5t-170 -53.5t-196 -17.5z" />
    <glyph glyph-name="scaron" unicode="&#x161;" horiz-adv-x="1103" 
d="M121 1526h356l141 -178l142 178h194l-249 -328h-334zM565 -27q-215 0 -360 96t-166 275h190q17 -104 105.5 -162.5t214.5 -58.5q83 0 146 27.5t63 82.5q0 26 -11.5 44t-48 34.5t-64.5 25t-99 28.5q-42 12 -64 18q-64 16 -112.5 32.5t-105 45.5t-93 64t-61 88t-25.5 118
q0 67 27.5 122t73 91.5t106.5 61t125.5 35t132.5 10.5q129 0 232.5 -38t173.5 -120.5t83 -200.5h-188q-21 100 -100.5 154.5t-196.5 54.5q-75 0 -132 -27.5t-57 -87.5q0 -51 74 -83q42 -19 170 -53q34 -10 53 -15q66 -17 113.5 -32.5t106 -43.5t95 -60.5t62 -82.5t25.5 -111
q0 -83 -41.5 -148.5t-112 -104.5t-155.5 -59t-179 -20z" />
    <glyph glyph-name="uni0162" unicode="&#x162;" horiz-adv-x="1380" 
d="M498 0v1227h-465v207h1315v-207h-465v-1227h-385zM782 -139l-104 -363h-338l268 363h174z" />
    <glyph glyph-name="uni0163" unicode="&#x163;" horiz-adv-x="950" 
d="M608 -20q-379 0 -379 344v530h-204v170h139q84 0 84 86v160h315v-246h332v-170h-332v-512q0 -91 38.5 -134.5t121.5 -43.5q64 0 172 24v-168q-53 -19 -135.5 -29.5t-151.5 -10.5zM700 -139l-104 -363h-338l268 363h174z" />
    <glyph glyph-name="Tcaron" unicode="&#x164;" horiz-adv-x="1380" 
d="M274 1935h357l141 -178l141 178h195l-250 -327h-334zM498 0v1227h-465v207h1315v-207h-465v-1227h-385z" />
    <glyph glyph-name="tcaron" unicode="&#x165;" horiz-adv-x="950" 
d="M690 1106v328h299l-145 -328h-154zM608 -20q-379 0 -379 344v530h-204v170h139q84 0 84 86v160h315v-246h332v-170h-332v-512q0 -91 38.5 -134.5t121.5 -43.5q64 0 172 24v-168q-53 -19 -135.5 -29.5t-151.5 -10.5z" />
    <glyph glyph-name="Tbar" unicode="&#x166;" horiz-adv-x="1380" 
d="M1348 1227h-465v-488h276v-147h-276v-592h-385v592h-275v147h275v488h-465v207h1315v-207z" />
    <glyph glyph-name="tbar" unicode="&#x167;" horiz-adv-x="950" 
d="M895 872h-332v-286h328v-129h-328v-125q6 -168 160 -168q64 0 172 24v-168q-53 -19 -135.5 -29.5t-151.5 -10.5q-379 0 -379 344v133h-206v129h206v286h-204v152h139q84 0 84 86v160h315v-246h332v-152z" />
    <glyph glyph-name="Umacron" unicode="&#x16a;" horiz-adv-x="1566" 
d="M508 1851h655v-137h-655v137zM801 -31q-289 0 -461 169t-172 452v844h385v-834q0 -203 83.5 -302t240.5 -99q150 0 238.5 112t88.5 301v822h213v-832q0 -292 -166 -462.5t-450 -170.5z" />
    <glyph glyph-name="umacron" unicode="&#x16b;" horiz-adv-x="1351" 
d="M340 1442h655v-137h-655v137zM557 -20q-195 0 -308.5 123.5t-113.5 338.5v582h338l2 -555q0 -144 47 -220.5t135 -76.5q90 0 147.5 87t57.5 220v545h334v-1024h-317v162q-101 -182 -322 -182z" />
    <glyph glyph-name="Uring" unicode="&#x16e;" horiz-adv-x="1566" 
d="M836 1530q-121 0 -205 84.5t-84 204.5t84 204t205 84q120 0 204 -84t84 -204t-84 -204.5t-204 -84.5zM836 1743q168 0 168 76q0 75 -168 75q-166 0 -166 -75q0 -76 166 -76zM801 -31q-289 0 -461 169t-172 452v844h385v-834q0 -203 83.5 -302t240.5 -99q150 0 238.5 112
t88.5 301v822h213v-832q0 -292 -166 -462.5t-450 -170.5z" />
    <glyph glyph-name="uring" unicode="&#x16f;" horiz-adv-x="1351" 
d="M668 1120q-121 0 -205 84.5t-84 204.5t84 204.5t205 84.5q120 0 204 -84.5t84 -204.5t-84 -204.5t-204 -84.5zM668 1333q168 0 168 76t-168 76q-166 0 -166 -76t166 -76zM557 -20q-195 0 -308.5 123.5t-113.5 338.5v582h338l2 -555q0 -144 47 -220.5t135 -76.5
q90 0 147.5 87t57.5 220v545h334v-1024h-317v162q-101 -182 -322 -182z" />
    <glyph glyph-name="Uhungarumlaut" unicode="&#x170;" horiz-adv-x="1566" 
d="M567 1573l95 362h305l-244 -362h-156zM942 1573l94 362h303l-241 -362h-156zM801 -31q-289 0 -461 169t-172 452v844h385v-834q0 -203 83.5 -302t240.5 -99q150 0 238.5 112t88.5 301v822h213v-832q0 -292 -166 -462.5t-450 -170.5z" />
    <glyph glyph-name="uhungarumlaut" unicode="&#x171;" horiz-adv-x="1351" 
d="M399 1163l95 363h305l-244 -363h-156zM774 1163l94 363h303l-241 -363h-156zM557 -20q-195 0 -308.5 123.5t-113.5 338.5v582h338l2 -555q0 -144 47 -220.5t135 -76.5q90 0 147.5 87t57.5 220v545h334v-1024h-317v162q-101 -182 -322 -182z" />
    <glyph glyph-name="Uogonek" unicode="&#x172;" horiz-adv-x="1566" 
d="M801 -31q-289 0 -461 169t-172 452v844h385v-834q0 -203 83.5 -302t240.5 -99q150 0 238.5 112t88.5 301v822h213v-832q0 -292 -166 -462.5t-450 -170.5zM1311 -139l-105 -363h-336l269 363h172z" />
    <glyph glyph-name="uogonek" unicode="&#x173;" horiz-adv-x="1351" 
d="M557 -20q-195 0 -308.5 123.5t-113.5 338.5v582h338l2 -555q0 -144 47 -220.5t135 -76.5q90 0 147.5 87t57.5 220v545h334v-1024h-317v162q-101 -182 -322 -182zM1206 -139l-104 -363h-336l268 363h172z" />
    <glyph glyph-name="Wcircumflex" unicode="&#x174;" horiz-adv-x="2109" 
d="M1470 1608h-356l-141 178l-142 -178h-194l250 327h334zM424 0l-371 1434h398l270 -1053l254 1053h328l274 -1053l276 1053h213l-370 -1434h-379l-266 1028l-248 -1028h-379z" />
    <glyph glyph-name="wcircumflex" unicode="&#x175;" horiz-adv-x="1650" 
d="M1241 1198h-356l-142 178l-141 -178h-194l249 328h334zM309 0l-270 1024h336l188 -719l195 719h295l188 -713l191 713h186l-270 -1024h-322l-199 731l-196 -731h-322z" />
    <glyph glyph-name="Ycircumflex" unicode="&#x176;" horiz-adv-x="1425" 
d="M1139 1608h-357l-141 178l-141 -178h-195l250 327h334zM522 0v543l-512 891h422l377 -691l375 691h235l-512 -893v-541h-385z" />
    <glyph glyph-name="ycircumflex" unicode="&#x177;" horiz-adv-x="1177" 
d="M1024 1198h-356l-142 178l-141 -178h-195l250 328h334zM428 -430q-161 0 -270 102t-109 281v53h176v-65q0 -92 54.5 -150.5t132.5 -58.5q66 0 107.5 38.5t41.5 98.5v8q0 38 -18 91.5t-72 162.5l-457 893h369l252 -518q58 -132 67 -187q5 26 19 60l246 645h194l-319 -803
q-35 -85 -35 -190v-66q0 -184 -107 -289.5t-272 -105.5z" />
    <glyph glyph-name="Ydieresis" unicode="&#x178;" horiz-adv-x="1425" 
d="M557 1538h-18l-181 397h732l-183 -397h-18l-166 360zM1184 1434h235l-512 -893v-541h-385v543l-512 891h422l377 -691z" />
    <glyph glyph-name="Zacute" unicode="&#x179;" horiz-adv-x="1345" 
d="M647 1573l105 362h335l-268 -362h-172zM68 0v170l723 1067h-680v197h1149v-170l-723 -1067h718v-197h-1187z" />
    <glyph glyph-name="zacute" unicode="&#x17a;" horiz-adv-x="1062" 
d="M543 1163l104 363h336l-268 -363h-172zM61 0v141l529 713h-494v170h903v-139l-526 -715h520v-170h-932z" />
    <glyph glyph-name="Zdotaccent" unicode="&#x17b;" horiz-adv-x="1345" 
d="M709 1538l-193 397h406l-193 -397h-20zM68 0v170l723 1067h-680v197h1149v-170l-723 -1067h718v-197h-1187z" />
    <glyph glyph-name="zdotaccent" unicode="&#x17c;" horiz-adv-x="1062" 
d="M604 1128l-192 398h405l-192 -398h-21zM61 0v141l529 713h-494v170h903v-139l-526 -715h520v-170h-932z" />
    <glyph glyph-name="Zcaron" unicode="&#x17d;" horiz-adv-x="1345" 
d="M303 1935h356l142 -178l141 178h195l-250 -327h-334zM68 0v170l723 1067h-680v197h1149v-170l-723 -1067h718v-197h-1187z" />
    <glyph glyph-name="zcaron" unicode="&#x17e;" horiz-adv-x="1062" 
d="M199 1526h356l141 -178l142 178h194l-250 -328h-333zM61 0v141l529 713h-494v170h903v-139l-526 -715h520v-170h-932z" />
    <glyph glyph-name="uni01D0" unicode="&#x1d0;" horiz-adv-x="647" 
d="M-92 1526h356l142 -178l141 178h194l-249 -328h-334zM156 0v1024h333v-1024h-333z" />
    <glyph glyph-name="uni0218" unicode="&#x218;" horiz-adv-x="1382" 
d="M702 -31q-177 0 -316.5 56.5t-230 173.5t-106.5 282h213q24 -157 139.5 -245.5t280.5 -88.5q126 0 204.5 46t78.5 133q0 39 -16.5 69.5t-41.5 52.5t-73 43.5t-92 36t-119 35.5q-71 22 -108.5 34.5t-104 38.5t-103.5 48.5t-85.5 59.5t-73.5 76.5t-43.5 94t-18.5 117.5
q0 111 51 196.5t136 135.5t186.5 75t212.5 25q122 0 227.5 -31t190 -91t138.5 -157t66 -220h-219q-26 151 -128 234t-257 83q-68 0 -125 -16t-97 -55t-40 -95q0 -27 10 -50.5t23 -41t41.5 -35t50 -28.5t65.5 -26.5t70.5 -23.5t81.5 -24q56 -16 92 -27.5t88 -29.5t86 -34
t77 -39.5t70.5 -47.5t56.5 -56t45.5 -67.5t27 -79.5t10.5 -94q0 -87 -32 -160t-88.5 -124.5t-134.5 -87.5t-170 -53.5t-196 -17.5zM686 -502h-133v6q57 21 106 53t54 64q-25 -14 -70 -14q-70 4 -108.5 39t-38.5 88q0 58 55 96.5t143 38.5q90 0 146.5 -39.5t56.5 -108.5
t-62.5 -130t-148.5 -93z" />
    <glyph glyph-name="uni0219" unicode="&#x219;" horiz-adv-x="1103" 
d="M565 -27q-215 0 -360 96t-166 275h190q17 -104 105.5 -162.5t214.5 -58.5q83 0 146 27.5t63 82.5q0 26 -11.5 44t-48 34.5t-64.5 25t-99 28.5q-42 12 -64 18q-64 16 -112.5 32.5t-105 45.5t-93 64t-61 88t-25.5 118q0 67 27.5 122t73 91.5t106.5 61t125.5 35t132.5 10.5
q129 0 232.5 -38t173.5 -120.5t83 -200.5h-188q-21 100 -100.5 154.5t-196.5 54.5q-75 0 -132 -27.5t-57 -87.5q0 -51 74 -83q42 -19 170 -53q34 -10 53 -15q66 -17 113.5 -32.5t106 -43.5t95 -60.5t62 -82.5t25.5 -111q0 -83 -41.5 -148.5t-112 -104.5t-155.5 -59t-179 -20
zM571 -502h-133v6q57 21 106 53t54 64q-24 -14 -70 -14q-70 4 -108.5 39t-38.5 88q0 58 55.5 96.5t143.5 38.5q90 0 146 -39.5t56 -108.5t-62.5 -130t-148.5 -93z" />
    <glyph glyph-name="uni021A" unicode="&#x21a;" horiz-adv-x="1380" 
d="M498 0v1227h-465v207h1315v-207h-465v-1227h-385zM682 -502h-133v6q57 21 106 53t54 64q-25 -14 -70 -14q-70 4 -108.5 39t-38.5 88q0 58 55 96.5t143 38.5q90 0 146.5 -39.5t56.5 -108.5t-62.5 -130t-148.5 -93z" />
    <glyph glyph-name="uni021B" unicode="&#x21b;" horiz-adv-x="950" 
d="M608 -20q-379 0 -379 344v530h-204v170h139q84 0 84 86v160h315v-246h332v-170h-332v-512q0 -91 38.5 -134.5t121.5 -43.5q64 0 172 24v-168q-53 -19 -135.5 -29.5t-151.5 -10.5zM600 -502h-133v6q57 21 106 53t54 64q-25 -14 -70 -14q-70 4 -108.5 39t-38.5 88
q0 58 55 96.5t143 38.5q90 0 146.5 -39.5t56.5 -108.5t-62.5 -130t-148.5 -93z" />
    <glyph glyph-name="uni0237" unicode="&#x237;" horiz-adv-x="645" 
d="M94 -430q-159 0 -266 88.5t-107 218.5h175v-2q0 -67 57 -112.5t131 -45.5q72 0 123 40t51 120q0 34 -13.5 76.5t-29.5 81t-29.5 102t-13.5 133.5v754h334v-1012q0 -222 -109 -332t-303 -110z" />
    <glyph glyph-name="uni02BC" unicode="&#x2bc;" horiz-adv-x="548" 
d="M305 850h-153v8q62 36 108 91t66 120q-44 -35 -80 -35q-88 13 -140.5 72.5t-52.5 138.5q0 92 62 157.5t161 65.5q95 0 160.5 -63.5t65.5 -169.5q0 -105 -58.5 -217.5t-138.5 -167.5z" />
    <glyph glyph-name="gravecomb" unicode="&#x300;" horiz-adv-x="0" 
d="M-541 1163h-174l-266 363h336z" />
    <glyph glyph-name="acutecomb" unicode="&#x301;" horiz-adv-x="0" 
d="M-686 1163l104 363h336l-268 -363h-172z" />
    <glyph glyph-name="uni0302" unicode="&#x302;" horiz-adv-x="0" 
d="M-199 1198h-356l-141 178l-142 -178h-194l250 328h333z" />
    <glyph glyph-name="tildecomb" unicode="&#x303;" horiz-adv-x="0" 
d="M-1012 1212q0 154 63.5 235t170.5 81q63 0 128.5 -21.5t120 -43t89.5 -21.5q33 0 53 19.5t20 58.5h150q0 -154 -62.5 -234t-169.5 -80q-63 0 -129 21t-120 42t-88 21t-54 -19t-20 -59h-152z" />
    <glyph glyph-name="uni0304" unicode="&#x304;" horiz-adv-x="0" 
d="M-942 1442h655v-137h-655v137z" />
    <glyph glyph-name="uni0306" unicode="&#x306;" horiz-adv-x="0" 
d="M-614 1130q-180 0 -291 113t-111 291v14h152v-12q0 -76 64 -118t186 -42q123 0 186 42t63 118v12h154v-14q0 -178 -111.5 -291t-291.5 -113z" />
    <glyph glyph-name="uni0307" unicode="&#x307;" horiz-adv-x="0" 
d="M-625 1128l-192 398h405l-192 -398h-21z" />
    <glyph glyph-name="uni0308" unicode="&#x308;" horiz-adv-x="0" 
d="M-248 1526l-182 -398h-19l-165 361l-166 -361h-19l-180 398h731z" />
    <glyph glyph-name="uni030A" unicode="&#x30a;" horiz-adv-x="0" 
d="M-614 1120q-121 0 -205 84.5t-84 204.5t84 204.5t205 84.5q120 0 204 -84.5t84 -204.5t-84 -204.5t-204 -84.5zM-614 1333q168 0 168 76t-168 76q-166 0 -166 -76t166 -76z" />
    <glyph glyph-name="uni030B" unicode="&#x30b;" horiz-adv-x="0" 
d="M-883 1163l95 363h305l-244 -363h-156zM-508 1163l94 363h303l-241 -363h-156z" />
    <glyph glyph-name="uni030C" unicode="&#x30c;" horiz-adv-x="0" 
d="M-1030 1526h356l142 -178l141 178h194l-249 -328h-334z" />
    <glyph glyph-name="uni0312" unicode="&#x312;" horiz-adv-x="0" 
d="M-604 1542h131v-6q-54 -17 -103 -50.5t-55 -66.5q21 15 70 15q68 -3 107.5 -38.5t39.5 -86.5q0 -58 -55.5 -98t-144.5 -40q-90 0 -145.5 39.5t-55.5 108.5q0 70 62 132t149 91z" />
    <glyph glyph-name="uni0326" unicode="&#x326;" horiz-adv-x="0" 
d="M-623 -502h-133v6q57 21 106 53t54 64q-24 -14 -70 -14q-70 4 -108.5 39t-38.5 88q0 58 55.5 96.5t143.5 38.5q90 0 146 -39.5t56 -108.5t-62.5 -130t-148.5 -93z" />
    <glyph glyph-name="uni0327" unicode="&#x327;" horiz-adv-x="0" 
d="M-522 -139l-105 -363h-338l269 363h174z" />
    <glyph glyph-name="uni0328" unicode="&#x328;" horiz-adv-x="0" 
d="M-604 -139l-105 -363h-335l268 363h172z" />
    <glyph glyph-name="uni0335" unicode="&#x335;" horiz-adv-x="0" 
d="M-987 1292h745v-127h-745v127z" />
    <glyph glyph-name="uni0401" unicode="&#x401;" horiz-adv-x="1286" 
d="M502 1538h-19l-180 397h731l-182 -397h-18l-166 360zM569 188h658v-188h-1039v1434h969v-187h-588v-442h392v-174h-392v-443z" />
    <glyph glyph-name="uni0404" unicode="&#x404;" horiz-adv-x="1570" 
d="M829 -31q-213 0 -379 94.5t-258 265t-92 388.5t92 388.5t258 264.5t379 94q175 0 322 -77t237 -213t105 -306h-215q-25 163 -135.5 270t-259.5 107q-159 0 -265.5 -122t-123.5 -324h454v-162h-454q17 -202 123.5 -324.5t265.5 -122.5q149 0 259.5 106.5t135.5 268.5h215
q-15 -169 -105 -305t-237 -213.5t-322 -77.5z" />
    <glyph glyph-name="uni0406" unicode="&#x406;" horiz-adv-x="759" 
d="M188 0v1434h385v-1434h-385z" />
    <glyph glyph-name="uni0407" unicode="&#x407;" horiz-adv-x="759" 
d="M215 1538h-18l-181 397h732l-183 -397h-18l-166 360zM188 0v1434h385v-1434h-385z" />
    <glyph glyph-name="uni040E" unicode="&#x40e;" horiz-adv-x="1392" 
d="M764 1540q-180 0 -291 113t-111 291v14h152v-12q0 -76 64 -118t186 -42q123 0 186.5 42t63.5 118v12h153v-14q0 -178 -111.5 -291t-291.5 -113zM578 -31q-181 0 -299.5 112.5t-118.5 299.5v72h213v-76q0 -89 46.5 -145t127.5 -56q70 0 108.5 38.5t38.5 100.5
q0 74 -43 136l-631 983h453l399 -658q42 -72 58 -145l241 803h222l-349 -1074q-129 -391 -466 -391z" />
    <glyph glyph-name="uni0410" unicode="&#x410;" horiz-adv-x="1511" 
d="M31 0l532 1434h383l531 -1434h-410l-133 371h-549l-133 -371h-221zM440 543h439l-213 592h-13z" />
    <glyph glyph-name="uni0411" unicode="&#x411;" horiz-adv-x="1468" 
d="M188 0v1434h1076v-187h-699v-399h246q274 0 426 -112.5t152 -311.5t-152 -311.5t-426 -112.5h-623zM565 174h226q100 0 156.5 67t56.5 187q0 121 -56.5 188.5t-156.5 67.5h-226v-510z" />
    <glyph glyph-name="uni0412" unicode="&#x412;" horiz-adv-x="1513" 
d="M188 0v1434h615q272 0 421.5 -99t149.5 -274q0 -116 -71 -201t-199 -123v-10q150 -34 236.5 -123.5t86.5 -214.5q0 -177 -156.5 -283t-434.5 -106h-648zM563 803h234q106 0 161.5 58.5t55.5 168.5q0 112 -58 169.5t-168 57.5h-225v-454zM563 176h234q121 0 185.5 59
t64.5 171q0 110 -66 170.5t-186 60.5h-232v-461z" />
    <glyph glyph-name="uni0413" unicode="&#x413;" horiz-adv-x="1220" 
d="M188 0v1434h998v-207h-613v-1227h-385z" />
    <glyph glyph-name="uni0414" unicode="&#x414;" horiz-adv-x="1622" 
d="M14 -319v524h183q118 390 118 799q0 48 -14 172l-20 258h1101v-1229h191v-524h-342v319h-875v-319h-342zM403 193h598v1048h-421l-23 -172q-57 -540 -154 -876z" />
    <glyph glyph-name="uni0415" unicode="&#x415;" horiz-adv-x="1286" 
d="M188 0v1434h969v-187h-588v-442h392v-174h-392v-443h658v-188h-1039z" />
    <glyph glyph-name="uni0416" unicode="&#x416;" horiz-adv-x="2277" 
d="M23 0l489 874l-389 560h233l453 -615h137v615h385v-615h137l455 615h234l-390 -560l492 -874h-442l-340 614h-146v-614h-385v614h-145l-338 -614h-440z" />
    <glyph glyph-name="uni0417" unicode="&#x417;" horiz-adv-x="1404" 
d="M715 -31q-268 0 -451.5 145t-206.5 406h209q20 -158 122 -249t257 -91q136 0 214.5 69.5t78.5 180.5q0 98 -68.5 153.5t-171.5 55.5h-145v160h147q100 0 155.5 60.5t55.5 152.5q0 110 -74 174.5t-198 64.5q-138 0 -232 -82t-114 -221h-209q33 249 207 382.5t432 133.5
q158 0 286 -50t203.5 -145.5t75.5 -219.5q0 -113 -63.5 -196.5t-175.5 -123.5q123 -38 201.5 -123.5t78.5 -195.5q0 -134 -80.5 -235t-219.5 -153.5t-314 -52.5z" />
    <glyph glyph-name="uni0418" unicode="&#x418;" horiz-adv-x="1685" 
d="M188 -41v1475h381v-873l592 873h338v-1434h-381v1022l-719 -1063h-211z" />
    <glyph glyph-name="uni0419" unicode="&#x419;" horiz-adv-x="1685" 
d="M844 1540q-180 0 -291 113t-111 291v14h152v-12q0 -76 64 -118t186 -42q123 0 186.5 42t63.5 118v12h153v-14q0 -178 -111.5 -291t-291.5 -113zM188 -41v1475h381v-873l592 873h338v-1434h-381v1022l-719 -1063h-211z" />
    <glyph glyph-name="uni041A" unicode="&#x41a;" horiz-adv-x="1570" 
d="M188 0v1434h383v-615h138l479 615h235l-415 -564l544 -870h-452l-383 614h-146v-614h-383z" />
    <glyph glyph-name="uni041B" unicode="&#x41b;" horiz-adv-x="1597" 
d="M178 -29q-92 0 -160 29v377q76 -8 138 -8q95 0 137 52t49 181q35 150 10 600l-16 232h1075v-1434h-385v1227h-403l-21 -150q-31 -340 -59.5 -539t-73.5 -315q-45 -131 -116 -191.5t-175 -60.5z" />
    <glyph glyph-name="uni041C" unicode="&#x41c;" horiz-adv-x="2058" 
d="M188 0v1434h504l346 -949l344 949h490v-1434h-381v1178l-430 -1178h-236l-426 1163v-1163h-211z" />
    <glyph glyph-name="uni041D" unicode="&#x41d;" horiz-adv-x="1679" 
d="M188 0v1434h385v-615h535v615h385v-1434h-385v614h-535v-614h-385z" />
    <glyph glyph-name="uni041E" unicode="&#x41e;" horiz-adv-x="1701" 
d="M852 -31q-215 0 -387 96.5t-268.5 267.5t-96.5 384q0 160 56.5 299t155.5 237.5t239 154.5t301 56t300.5 -56t238 -154.5t155 -237t56.5 -299.5q0 -213 -96 -384t-267.5 -267.5t-386.5 -96.5zM852 178q166 0 261 141t95 398q0 258 -95 399t-261 141q-168 0 -263 -141
t-95 -399q0 -257 95.5 -398t262.5 -141z" />
    <glyph glyph-name="uni041F" unicode="&#x41f;" horiz-adv-x="1679" 
d="M188 0v1434h1305v-1434h-385v1227h-535v-1227h-385z" />
    <glyph glyph-name="uni0420" unicode="&#x420;" horiz-adv-x="1423" 
d="M188 0v1434h560q288 0 447 -118t159 -327q0 -208 -159 -326t-447 -118h-177v-545h-383zM571 717h172q106 0 166 69.5t60 194.5q0 126 -60 196t-166 70h-172v-530z" />
    <glyph glyph-name="uni0421" unicode="&#x421;" horiz-adv-x="1568" 
d="M829 -31q-213 0 -379 94.5t-258 265t-92 388.5q0 332 203 539.5t526 207.5q131 0 249 -45.5t205.5 -125t143 -190.5t66.5 -237h-215q-25 158 -134 261.5t-255 103.5q-175 0 -285 -142t-110 -372q0 -228 110 -371t285 -143q146 0 255 104t134 262h215
q-11 -126 -66.5 -237.5t-143 -191t-205.5 -125.5t-249 -46z" />
    <glyph glyph-name="uni0422" unicode="&#x422;" horiz-adv-x="1380" 
d="M498 0v1227h-465v207h1315v-207h-465v-1227h-385z" />
    <glyph glyph-name="uni0423" unicode="&#x423;" horiz-adv-x="1392" 
d="M578 -31q-181 0 -299.5 112.5t-118.5 299.5v72h213v-76q0 -89 46.5 -145t127.5 -56q70 0 108.5 38.5t38.5 100.5q0 74 -43 136l-631 983h453l399 -658q42 -72 58 -145l241 803h222l-349 -1074q-129 -391 -466 -391z" />
    <glyph glyph-name="uni0424" unicode="&#x424;" horiz-adv-x="2127" 
d="M872 0v199h-96q-330 0 -516 141.5t-186 392.5t186.5 394t515.5 143h96v184h385v-184h97q328 0 514 -143t186 -394t-186 -392.5t-514 -141.5h-97v-199h-385zM768 383h104v700h-104q-145 0 -223 -91.5t-78 -258.5q0 -166 78 -258t223 -92zM1257 383h105q144 0 221.5 92
t77.5 258q0 167 -77.5 258.5t-221.5 91.5h-105v-700z" />
    <glyph glyph-name="uni0425" unicode="&#x425;" horiz-adv-x="1480" 
d="M37 0l477 698l-471 736h442l314 -484l334 484h241l-430 -621l516 -813h-444l-352 551l-381 -551h-246z" />
    <glyph glyph-name="uni0426" unicode="&#x426;" horiz-adv-x="1740" 
d="M1350 -319v319h-1162v1434h385v-1229h543v1229h385v-1229h191v-524h-342z" />
    <glyph glyph-name="uni0427" unicode="&#x427;" horiz-adv-x="1525" 
d="M952 0v547h-227q-302 0 -462.5 125.5t-160.5 361.5v400h385v-445q0 -118 61 -181t177 -63h227v689h385v-1434h-385z" />
    <glyph glyph-name="uni0428" unicode="&#x428;" horiz-adv-x="2365" 
d="M188 0v1434h385v-1229h418v1229h385v-1229h416v1229h385v-1434h-1989z" />
    <glyph glyph-name="uni0429" unicode="&#x429;" horiz-adv-x="2422" 
d="M2030 -319v319h-1842v1434h385v-1229h418v1229h385v-1229h416v1229h385v-1229h197v-524h-344z" />
    <glyph glyph-name="uni042A" unicode="&#x42a;" horiz-adv-x="1617" 
d="M942 889q287 0 444.5 -118t157.5 -327q0 -208 -157.5 -326t-444.5 -118h-565v1227h-344v207h725v-545h184zM934 188q106 0 165.5 69.5t59.5 195.5t-59.5 196t-165.5 70h-176v-531h176z" />
    <glyph glyph-name="uni042B" unicode="&#x42b;" horiz-adv-x="2134" 
d="M188 0v1434h383v-545h185q285 0 442.5 -118.5t157.5 -326.5t-157.5 -326t-442.5 -118h-568zM1565 0v1434h385v-1434h-385zM571 188h174q106 0 166 69.5t60 195.5t-60 196t-166 70h-174v-531z" />
    <glyph glyph-name="uni042C" unicode="&#x42c;" horiz-adv-x="1431" 
d="M188 0v1434h383v-545h185q285 0 442.5 -118.5t157.5 -326.5t-157.5 -326t-442.5 -118h-568zM571 188h174q106 0 166 69.5t60 195.5t-60 196t-166 70h-174v-531z" />
    <glyph glyph-name="uni042D" unicode="&#x42d;" horiz-adv-x="1550" 
d="M723 -31q-175 0 -322.5 77.5t-238 213.5t-105.5 305h211q25 -161 136 -266.5t260 -105.5q158 0 262 121t123 323h-445v162h445q-19 201 -123.5 322.5t-261.5 121.5q-149 0 -260 -106.5t-136 -268.5h-211q15 170 105.5 306t237.5 213t323 77q212 0 377.5 -94t257.5 -264.5
t92 -388.5t-92 -388.5t-257.5 -265t-377.5 -94.5z" />
    <glyph glyph-name="uni042E" unicode="&#x42e;" horiz-adv-x="2363" 
d="M1528 -31q-192 0 -349 81.5t-254 228t-118 335.5h-234v-614h-385v1434h385v-615h234q32 288 231 466.5t490 178.5q211 0 379 -95.5t262 -266.5t94 -385q0 -213 -94 -384t-262 -267.5t-379 -96.5zM1528 178q160 0 250 141t90 398q0 259 -90 399.5t-250 140.5
q-157 0 -248.5 -141t-91.5 -399q0 -256 91.5 -397.5t248.5 -141.5z" />
    <glyph glyph-name="uni042F" unicode="&#x42f;" horiz-adv-x="1544" 
d="M2 0l404 633q-121 54 -188.5 145t-67.5 213q0 207 161 325t455 118h592v-1434h-383v553h-162q-23 0 -33 2l-348 -555h-430zM768 725h207v518h-207q-112 0 -174 -68.5t-62 -191.5t61.5 -190.5t174.5 -67.5z" />
    <glyph glyph-name="uni0430" unicode="&#x430;" horiz-adv-x="1220" 
d="M385 -20q-162 0 -252 74t-90 200q0 274 457 311q130 9 191 44.5t61 103.5q0 80 -53 123t-138 43q-96 0 -164.5 -59.5t-85.5 -160.5h-176q23 177 154 281t327 104q203 0 328 -115t125 -311v-452h109v-166h-410v176q-56 -97 -155 -146.5t-228 -49.5zM502 145
q100 0 177 85.5t77 213.5v95q-47 -47 -166 -64q-110 -18 -157.5 -63t-47.5 -125q0 -69 31.5 -105.5t85.5 -36.5z" />
    <glyph glyph-name="uni0431" unicode="&#x431;" horiz-adv-x="1323" 
d="M682 -20q-170 0 -302 68t-207 198.5t-75 304.5v121q2 211 70 364.5t209 240.5t346 87h231v96h170v-383h-469q-202 0 -295.5 -74.5t-93.5 -254.5v-46q60 112 177.5 174t269.5 62q230 0 379 -133.5t149 -337.5q0 -212 -158 -349.5t-401 -137.5zM672 137q106 0 168.5 86.5
t62.5 239.5q0 152 -62.5 237.5t-168.5 85.5q-107 0 -169.5 -85.5t-62.5 -237.5q0 -154 62.5 -240t169.5 -86z" />
    <glyph glyph-name="uni0432" unicode="&#x432;" horiz-adv-x="1239" 
d="M156 0v1024h532q208 0 320 -70t112 -198q0 -169 -196 -226v-10q237 -55 237 -246q0 -130 -113.5 -202t-336.5 -72h-555zM481 569h160q76 0 119 42.5t43 117.5q0 77 -44.5 119.5t-123.5 42.5h-154v-322zM481 135h178q78 0 122 44t44 122q0 75 -43.5 115.5t-126.5 40.5
h-174v-322z" />
    <glyph glyph-name="uni0433" unicode="&#x433;" horiz-adv-x="968" 
d="M156 0v1024h780v-178h-447v-846h-333z" />
    <glyph glyph-name="uni0434" unicode="&#x434;" horiz-adv-x="1284" 
d="M18 -242v412h136q86 270 86 545q0 30 -8 86t-9 69l-16 154h885v-854h161v-412h-292v242h-650v-242h-293zM332 164h428v698h-301l-15 -117q-49 -375 -112 -581z" />
    <glyph glyph-name="uni0435" unicode="&#x435;" horiz-adv-x="1239" 
d="M635 -20q-247 0 -402 146t-155 382q0 156 72.5 278.5t200.5 190t290 67.5q241 0 392.5 -147.5t154.5 -382.5q0 -37 -4 -55h-772q12 -153 83.5 -233.5t190.5 -80.5q91 0 160 45.5t100 124.5h189q-32 -146 -164.5 -240.5t-335.5 -94.5zM858 569q-10 161 -68.5 244.5
t-154.5 83.5q-94 0 -153 -83.5t-70 -227.5v-17h446z" />
    <glyph glyph-name="uni0436" unicode="&#x436;" horiz-adv-x="1775" 
d="M29 0l340 647l-275 377h205l326 -424h98v854h332v-854h96l328 424h202l-272 -377l340 -647h-373l-221 426h-100v-426h-332v426h-100l-224 -426h-370z" />
    <glyph glyph-name="uni0437" unicode="&#x437;" horiz-adv-x="1124" 
d="M565 -27q-219 0 -361 105t-163 299h180q18 -108 93 -170t198 -62q101 0 157 46t56 120q0 67 -49.5 106.5t-118.5 39.5h-121v112h117q70 0 113 42t43 104q0 75 -55 120.5t-148 45.5q-108 0 -178.5 -61t-85.5 -167h-179q14 176 149 287t357 111q219 0 341 -87.5t122 -222.5
q0 -74 -45 -131t-129 -88q96 -28 151.5 -90t55.5 -145q0 -145 -138 -229.5t-362 -84.5z" />
    <glyph glyph-name="uni0438" unicode="&#x438;" horiz-adv-x="1351" 
d="M156 -29v1053h331v-580l424 580h285v-1024h-330v690l-524 -719h-186z" />
    <glyph glyph-name="uni0439" unicode="&#x439;" horiz-adv-x="1351" 
d="M682 1130q-180 0 -290.5 113t-110.5 291v14h151v-12q0 -76 64 -118t186 -42q123 0 186.5 42t63.5 118v12h153v-14q0 -178 -111.5 -291t-291.5 -113zM156 -29v1053h331v-580l424 580h285v-1024h-330v690l-524 -719h-186z" />
    <glyph glyph-name="uni043A" unicode="&#x43a;" horiz-adv-x="1245" 
d="M156 0v1454h333v-854h95l346 424h200l-296 -383l395 -641h-383l-264 426h-93v-426h-333z" />
    <glyph glyph-name="uni043B" unicode="&#x43b;" horiz-adv-x="1269" 
d="M156 -23q-69 0 -131 23v291q64 -6 104 -6q69 0 100 30.5t39 104.5q23 109 6 436l-14 168h854v-1024h-334v848h-274l-17 -103q-23 -237 -44 -370.5t-54 -204.5q-39 -104 -95 -148.5t-140 -44.5z" />
    <glyph glyph-name="uni043C" unicode="&#x43c;" horiz-adv-x="1646" 
d="M156 0v1024h422l260 -637l252 637h401v-1024h-330v766l-315 -766h-178l-328 768v-768h-184z" />
    <glyph glyph-name="uni043D" unicode="&#x43d;" horiz-adv-x="1345" 
d="M156 0v1024h333v-424h367v424h332v-1024h-332v426h-367v-426h-333z" />
    <glyph glyph-name="uni043E" unicode="&#x43e;" horiz-adv-x="1306" 
d="M653 -20q-250 0 -412.5 150t-162.5 382t162.5 382t412.5 150q252 0 414 -150t162 -382t-162 -382t-414 -150zM653 150q108 0 171 95.5t63 266.5q0 173 -62.5 267.5t-171.5 94.5q-107 0 -170 -95t-63 -267q0 -171 63 -266.5t170 -95.5z" />
    <glyph glyph-name="uni043F" unicode="&#x43f;" horiz-adv-x="1345" 
d="M156 0v1024h1032v-1024h-332v848h-367v-848h-333z" />
    <glyph glyph-name="uni0440" unicode="&#x440;" horiz-adv-x="1351" 
d="M156 -410v1434h319v-160q102 180 318 180q208 0 344.5 -148.5t136.5 -383.5q0 -234 -137 -383t-344 -149q-100 0 -178.5 44t-125.5 126v-560h-333zM717 168q96 0 155.5 88.5t59.5 255.5q0 168 -59 256t-156 88q-103 0 -170.5 -99t-67.5 -245t67.5 -245t170.5 -99z" />
    <glyph glyph-name="uni0441" unicode="&#x441;" horiz-adv-x="1198" 
d="M633 -20q-243 0 -399 150t-156 382q0 233 156 382.5t399 149.5q205 0 343 -115.5t163 -303.5h-187q-24 105 -95.5 170t-168.5 65q-127 0 -198.5 -92t-71.5 -256q0 -163 71.5 -254.5t198.5 -91.5q97 0 169 64t95 169h187q-25 -187 -163 -303t-343 -116z" />
    <glyph glyph-name="uni0442" unicode="&#x442;" horiz-adv-x="1110" 
d="M389 0v846h-348v178h1030v-178h-348v-846h-334z" />
    <glyph glyph-name="uni0443" unicode="&#x443;" horiz-adv-x="1177" 
d="M428 -430q-161 0 -270 102t-109 281v53h176v-65q0 -92 54.5 -150.5t132.5 -58.5q66 0 107.5 38.5t41.5 98.5v8q0 38 -18 91.5t-72 162.5l-457 893h369l252 -518q58 -132 67 -187q5 26 19 60l246 645h194l-319 -803q-35 -85 -35 -190v-66q0 -184 -107 -289.5t-272 -105.5z
" />
    <glyph glyph-name="uni0444" unicode="&#x444;" horiz-adv-x="1933" 
d="M801 -410v551q-91 -161 -275 -161q-194 0 -321 148.5t-127 383.5t127 383.5t321 148.5q185 0 275 -161v571h334v-571q87 161 274 161q194 0 320 -148t126 -384t-126 -384t-320 -148q-186 0 -274 161v-551h-334zM612 168q87 0 145 99t58 245q0 148 -59 246t-150 98
q-83 0 -134.5 -85.5t-51.5 -248.5q0 -175 53.5 -264.5t138.5 -89.5zM1323 168q83 0 136.5 90t53.5 264q0 164 -50.5 249t-135.5 85q-90 0 -148.5 -98.5t-58.5 -245.5q0 -146 58 -245t145 -99z" />
    <glyph glyph-name="uni0445" unicode="&#x445;" horiz-adv-x="1175" 
d="M27 0l370 487l-374 537h393l219 -309l235 309h215l-329 -432l405 -592h-391l-252 369l-278 -369h-213z" />
    <glyph glyph-name="uni0446" unicode="&#x446;" horiz-adv-x="1380" 
d="M1057 -242v242h-901v1024h333v-854h365v854h334v-854h162v-412h-293z" />
    <glyph glyph-name="uni0447" unicode="&#x447;" horiz-adv-x="1239" 
d="M750 0v373h-168q-237 0 -363.5 89.5t-126.5 258.5v303h334v-309q0 -83 43.5 -126.5t126.5 -43.5h154v479h333v-1024h-333z" />
    <glyph glyph-name="uni0448" unicode="&#x448;" horiz-adv-x="1898" 
d="M156 0v1024h333v-854h293v854h334v-854h293v854h334v-1024h-1587z" />
    <glyph glyph-name="uni0449" unicode="&#x449;" horiz-adv-x="1927" 
d="M1604 -242v242h-1457v1024h334v-854h293v854h334v-854h293v854h334v-854h161v-412h-292z" />
    <glyph glyph-name="uni044A" unicode="&#x44a;" horiz-adv-x="1325" 
d="M799 637q224 0 349.5 -84.5t125.5 -235.5q0 -149 -125.5 -233t-349.5 -84h-488v850h-286v174h618v-387h156zM780 135q74 0 116 49.5t42 137.5q0 86 -42 134t-116 48h-135v-369h135z" />
    <glyph glyph-name="uni044B" unicode="&#x44b;" horiz-adv-x="1742" 
d="M156 0v1024h333v-387h156q223 0 348 -84.5t125 -235.5q0 -149 -125 -233t-348 -84h-489zM1253 0v1024h334v-1024h-334zM489 135h138q74 0 115.5 49.5t41.5 137.5q0 86 -42 134t-115 48h-138v-369z" />
    <glyph glyph-name="uni044C" unicode="&#x44c;" horiz-adv-x="1171" 
d="M156 0v1024h333v-387h156q223 0 348 -84.5t125 -235.5q0 -149 -125 -233t-348 -84h-489zM489 135h138q74 0 115.5 49.5t41.5 137.5q0 86 -42 134t-115 48h-138v-369z" />
    <glyph glyph-name="uni044D" unicode="&#x44d;" horiz-adv-x="1206" 
d="M575 -20q-205 0 -348.5 117t-169.5 302h181q27 -111 104.5 -178t189.5 -67q114 0 183.5 78.5t81.5 224.5h-314v112h314q-12 146 -81.5 224.5t-183.5 78.5q-113 0 -190 -67.5t-104 -179.5h-181q26 186 169 302.5t349 116.5q242 0 398.5 -149t156.5 -383t-156.5 -383
t-398.5 -149z" />
    <glyph glyph-name="uni044E" unicode="&#x44e;" horiz-adv-x="1837" 
d="M1196 -20q-219 0 -369 123.5t-178 322.5h-160v-426h-333v1024h333v-424h160q28 198 178.5 321t368.5 123q246 0 404.5 -150t158.5 -382t-158.5 -382t-404.5 -150zM1196 150q102 0 161.5 95.5t59.5 266.5q0 173 -59 267.5t-162 94.5t-162 -94.5t-59 -267.5
q0 -171 59.5 -266.5t161.5 -95.5z" />
    <glyph glyph-name="uni044F" unicode="&#x44f;" horiz-adv-x="1230" 
d="M-2 0l287 444q-88 41 -137.5 108t-49.5 153q0 151 124 235t349 84h504v-1024h-330v375h-135h-8l-225 -375h-379zM608 508h137v369h-137q-82 0 -129 -49.5t-47 -135.5q0 -85 47 -134.5t129 -49.5z" />
    <glyph glyph-name="uni0451" unicode="&#x451;" horiz-adv-x="1239" 
d="M457 1128h-19l-180 398h731l-182 -398h-19l-165 361zM1188 514q0 -37 -4 -55h-772q12 -153 83.5 -233.5t190.5 -80.5q91 0 160 45.5t100 124.5h189q-32 -146 -164.5 -240.5t-335.5 -94.5q-247 0 -402 146t-155 382q0 156 72.5 278.5t200.5 190t290 67.5
q241 0 392.5 -147.5t154.5 -382.5zM412 569h446q-10 161 -68.5 244.5t-154.5 83.5q-94 0 -153 -83.5t-70 -227.5v-17z" />
    <glyph glyph-name="uni0454" unicode="&#x454;" horiz-adv-x="1210" 
d="M635 -20q-244 0 -400.5 149t-156.5 383t156.5 383t400.5 149q206 0 348 -116.5t168 -302.5h-180q-27 112 -104.5 179.5t-188.5 67.5q-116 0 -185 -78.5t-81 -224.5h313v-112h-313q12 -146 81 -224.5t185 -78.5q111 0 188.5 67.5t104.5 177.5h180q-26 -185 -168.5 -302
t-347.5 -117z" />
    <glyph glyph-name="uni0456" unicode="&#x456;" horiz-adv-x="647" 
d="M313 1128l-192 398h405l-192 -398h-21zM156 0v1024h333v-1024h-333z" />
    <glyph glyph-name="uni0457" unicode="&#x457;" horiz-adv-x="647" 
d="M690 1526l-182 -398h-19l-165 361l-166 -361h-19l-180 398h731zM156 0v1024h333v-1024h-333z" />
    <glyph glyph-name="uni045E" unicode="&#x45e;" horiz-adv-x="1177" 
d="M608 1130q-180 0 -290.5 113t-110.5 291v14h151v-12q0 -76 64 -118t186 -42q123 0 186.5 42t63.5 118v12h154v-14q0 -178 -112 -291t-292 -113zM428 -430q-161 0 -270 102t-109 281v53h176v-65q0 -92 54.5 -150.5t132.5 -58.5q66 0 107.5 38.5t41.5 98.5v8q0 38 -18 91.5
t-72 162.5l-457 893h369l252 -518q58 -132 67 -187q5 26 19 60l246 645h194l-319 -803q-35 -85 -35 -190v-66q0 -184 -107 -289.5t-272 -105.5z" />
    <glyph glyph-name="uni0490" unicode="&#x490;" horiz-adv-x="1220" 
d="M844 1745h342v-518h-613v-1227h-385v1434h656v311z" />
    <glyph glyph-name="uni0491" unicode="&#x491;" horiz-adv-x="968" 
d="M156 -410v1434h487v229h293v-407h-447v-1256h-333z" />
    <glyph glyph-name="Wgrave" unicode="&#x1e80;" horiz-adv-x="2109" 
d="M1128 1573h-174l-266 362h336zM424 0l-371 1434h398l270 -1053l254 1053h328l274 -1053l276 1053h213l-370 -1434h-379l-266 1028l-248 -1028h-379z" />
    <glyph glyph-name="wgrave" unicode="&#x1e81;" horiz-adv-x="1650" 
d="M899 1163h-174l-266 363h336zM309 0l-270 1024h336l188 -719l195 719h295l188 -713l191 713h186l-270 -1024h-322l-199 731l-196 -731h-322z" />
    <glyph glyph-name="Wacute" unicode="&#x1e82;" horiz-adv-x="2109" 
d="M983 1573l104 362h336l-268 -362h-172zM424 0l-371 1434h398l270 -1053l254 1053h328l274 -1053l276 1053h213l-370 -1434h-379l-266 1028l-248 -1028h-379z" />
    <glyph glyph-name="wacute" unicode="&#x1e83;" horiz-adv-x="1650" 
d="M754 1163l104 363h336l-268 -363h-172zM309 0l-270 1024h336l188 -719l195 719h295l188 -713l191 713h186l-270 -1024h-322l-199 731l-196 -731h-322z" />
    <glyph glyph-name="Wdieresis" unicode="&#x1e84;" horiz-adv-x="2109" 
d="M889 1538h-19l-180 397h731l-182 -397h-18l-166 360zM1853 1434h213l-370 -1434h-379l-266 1028l-248 -1028h-379l-371 1434h398l270 -1053l254 1053h328l274 -1053z" />
    <glyph glyph-name="wdieresis" unicode="&#x1e85;" horiz-adv-x="1650" 
d="M659 1128h-18l-180 398h731l-182 -398h-19l-166 361zM1432 1024h186l-270 -1024h-322l-199 731l-196 -731h-322l-270 1024h336l188 -719l195 719h295l188 -713z" />
    <glyph glyph-name="uni1E9E" unicode="&#x1e9e;" horiz-adv-x="1724" 
d="M1145 -27q-210 0 -342.5 121.5t-138.5 306.5h182q7 -103 71 -165t160 -62q98 0 150.5 71t52.5 177q0 118 -61 185t-166 67q-118 0 -279 -25l-14 -6l-4 115l374 493h-565v-1251h-377v1434h1354v-170l-364 -463q29 10 65 10q177 -6 296.5 -114.5t119.5 -264.5
q0 -197 -142.5 -328t-371.5 -131z" />
    <glyph glyph-name="Ygrave" unicode="&#x1ef2;" horiz-adv-x="1425" 
d="M797 1573h-174l-267 362h336zM522 0v543l-512 891h422l377 -691l375 691h235l-512 -893v-541h-385z" />
    <glyph glyph-name="ygrave" unicode="&#x1ef3;" horiz-adv-x="1177" 
d="M682 1163h-174l-266 363h336zM428 -430q-161 0 -270 102t-109 281v53h176v-65q0 -92 54.5 -150.5t132.5 -58.5q66 0 107.5 38.5t41.5 98.5v8q0 38 -18 91.5t-72 162.5l-457 893h369l252 -518q58 -132 67 -187q5 26 19 60l246 645h194l-319 -803q-35 -85 -35 -190v-66
q0 -184 -107 -289.5t-272 -105.5z" />
    <glyph glyph-name="endash" unicode="&#x2013;" horiz-adv-x="1140" 
d="M147 530v170h846v-170h-846z" />
    <glyph glyph-name="emdash" unicode="&#x2014;" horiz-adv-x="1546" 
d="M147 530v170h1252v-170h-1252z" />
    <glyph glyph-name="quoteleft" unicode="&#x2018;" horiz-adv-x="548" 
d="M244 1464h153v-8q-62 -36 -108 -91t-66 -120q44 35 80 35q88 -13 140.5 -72.5t52.5 -138.5q0 -92 -62.5 -157.5t-161.5 -65.5q-95 0 -160 63t-65 170q0 105 58.5 217.5t138.5 167.5z" />
    <glyph glyph-name="quoteright" unicode="&#x2019;" horiz-adv-x="548" 
d="M305 850h-153v8q62 36 108 91t66 120q-44 -35 -80 -35q-88 13 -140.5 72.5t-52.5 138.5q0 92 62 157.5t161 65.5q95 0 160.5 -63.5t65.5 -169.5q0 -105 -58.5 -217.5t-138.5 -167.5z" />
    <glyph glyph-name="quotesinglbase" unicode="&#x201a;" horiz-adv-x="548" 
d="M305 -195h-153v9q62 36 108 91t66 120q-44 -35 -80 -35q-88 13 -140.5 72.5t-52.5 138.5q0 92 62 157.5t161 65.5q95 0 160.5 -63.5t65.5 -170.5q0 -105 -58.5 -217.5t-138.5 -167.5z" />
    <glyph glyph-name="quotedblleft" unicode="&#x201c;" horiz-adv-x="1073" 
d="M252 1464h154v-8q-62 -36 -108.5 -91.5t-64.5 -119.5q40 35 80 35q87 -13 140 -72.5t53 -138.5q0 -92 -62 -157.5t-161 -65.5q-96 0 -161 63t-65 170q0 105 57.5 218t137.5 167zM778 1464h154v-8q-62 -36 -108 -91.5t-64 -119.5q40 35 80 35q88 -13 140 -72t52 -139
q0 -92 -62 -157.5t-161 -65.5q-96 0 -160.5 63t-64.5 170q0 105 57 218t137 167z" />
    <glyph glyph-name="quotedblright" unicode="&#x201d;" horiz-adv-x="1073" 
d="M297 850h-154v8q62 36 108 91.5t64 119.5q-40 -35 -79 -35q-88 13 -140.5 72.5t-52.5 138.5q0 92 62 157.5t161 65.5q96 0 161 -63t65 -170q0 -105 -57.5 -218t-137.5 -167zM823 850h-153v8q62 36 108 91t66 120q-44 -35 -82 -35q-87 13 -140 72.5t-53 138.5
q0 92 62.5 157.5t161.5 65.5q96 0 160.5 -63t64.5 -170q0 -105 -57.5 -218t-137.5 -167z" />
    <glyph glyph-name="quotedblbase" unicode="&#x201e;" horiz-adv-x="1073" 
d="M305 -195h-153v9q62 36 108 91t66 120q-44 -35 -80 -35q-88 13 -140.5 72.5t-52.5 138.5q0 92 62 157.5t161 65.5q95 0 160.5 -63.5t65.5 -170.5q0 -105 -58.5 -217.5t-138.5 -167.5zM831 -195h-153v9q62 36 108 91t66 120q-44 -35 -80 -35q-88 13 -140 72t-52 139
q0 92 62 157.5t161 65.5q96 0 160.5 -63.5t64.5 -170.5q0 -105 -58.5 -217.5t-138.5 -167.5z" />
    <glyph glyph-name="dagger" unicode="&#x2020;" horiz-adv-x="737" 
d="M301 782v342h-268v127h268v203h135v-203h269v-127h-269v-342h-135z" />
    <glyph glyph-name="daggerdbl" unicode="&#x2021;" horiz-adv-x="737" 
d="M301 782v160h-268v119h268v117h-268v118h268v158h135v-158h269v-118h-269v-117h269v-119h-269v-160h-135z" />
    <glyph glyph-name="bullet" unicode="&#x2022;" horiz-adv-x="1300" 
d="M649 309q-129 0 -217 88t-88 217t88 217.5t217 88.5t217 -88.5t88 -217.5t-88 -217t-217 -88z" />
    <glyph glyph-name="ellipsis" unicode="&#x2026;" horiz-adv-x="1777" 
d="M328 -23q-94 0 -159 64.5t-65 159.5t65 159t159 64q95 0 159 -64t64 -159t-64 -159.5t-159 -64.5zM889 -23q-95 0 -159 64.5t-64 159.5t64 159t159 64t159 -64t64 -159t-64 -159.5t-159 -64.5zM1450 -23q-95 0 -159 64.5t-64 159.5t64 159t159 64t159 -64t64 -159
t-64 -159.5t-159 -64.5z" />
    <glyph glyph-name="perthousand" unicode="&#x2030;" horiz-adv-x="2426" 
d="M416 745q-148 0 -249 101.5t-101 249.5t101 248t249 100q147 0 247.5 -100.5t100.5 -247.5q0 -148 -101 -249.5t-247 -101.5zM291 0l883 1434h165l-884 -1434h-164zM416 891q57 0 93 56t36 149t-35.5 148.5t-93.5 55.5q-59 0 -95 -55.5t-36 -148.5t36 -149t95 -56z
M1214 -10q-148 0 -249 101t-101 249t101 248t249 100t248.5 -100t100.5 -248t-100.5 -249t-248.5 -101zM2013 -10q-148 0 -248 101t-100 249t100 248t248 100t249 -100t101 -248t-101 -249t-249 -101zM1214 133q57 0 93 57t36 150t-36 149t-93 56q-59 0 -95 -56t-36 -149
t36 -150t95 -57zM2013 133q59 0 95 57t36 150t-36 149t-95 56q-58 0 -94.5 -56t-36.5 -149t36.5 -150t94.5 -57z" />
    <glyph glyph-name="guilsinglleft" unicode="&#x2039;" horiz-adv-x="686" 
d="M555 1024l-223 -410l223 -409h-205l-217 397v25l217 397h205z" />
    <glyph glyph-name="guilsinglright" unicode="&#x203a;" horiz-adv-x="686" 
d="M133 205l223 409l-223 410h205l217 -397v-25l-217 -397h-205z" />
    <glyph glyph-name="Euro" unicode="&#x20ac;" 
d="M805 -31q-226 0 -393.5 149t-218.5 402h-152v121h133q-2 25 -2 76q0 53 2 78h-133v118h152q51 253 218.5 402t393.5 149q106 0 203 -38t174 -107.5t128.5 -176t65.5 -235.5h-209q-17 163 -102.5 255.5t-204.5 92.5q-109 0 -188 -92.5t-107 -249.5h348v-118h-366
q0 -12 -1 -38t-1 -40t1 -39.5t1 -36.5h366v-121h-348q28 -157 107 -249.5t188 -92.5q119 0 204.5 93t102.5 255h209q-14 -129 -65.5 -235t-128.5 -176t-174 -108t-203 -38z" />
    <glyph glyph-name="uni20B4" unicode="&#x20b4;" 
d="M692 -31q-238 0 -374 97t-136 262q0 110 70 192h-172v121h293q49 30 153.5 80.5t145.5 73.5h-592v118h713q71 62 71 162q0 89 -57 142t-156 53q-100 0 -170 -60.5t-96 -167.5h-205q41 199 190 310.5t378 111.5q228 0 358.5 -96t130.5 -262q0 -109 -66 -193h187v-118h-293
q-51 -30 -155.5 -80t-147.5 -74h596v-121h-731q-72 -66 -72 -162q0 -90 62.5 -142t170.5 -52q107 0 183.5 61t103.5 172h217q-40 -202 -196 -315t-404 -113z" />
    <glyph glyph-name="uni20BD" unicode="&#x20bd;" 
d="M256 0v330h-203v119h203v147h-203v121h203v717h545q275 0 425 -110.5t150 -307.5t-150.5 -308.5t-424.5 -111.5h-164v-147h592v-119h-592v-330h-381zM637 717h162q106 0 164.5 69t58.5 195t-58.5 196t-164.5 70h-162v-530z" />
    <glyph glyph-name="uni2116" unicode="&#x2116;" horiz-adv-x="2508" 
d="M184 0v1434h385l664 -891v891h201v-1469h-224l-823 1084v-1049h-203zM2015 735q-146 0 -247 101t-101 249q0 147 100.5 248t247.5 101q149 0 250.5 -100.5t101.5 -248.5t-101.5 -249t-250.5 -101zM2015 881q59 0 95 55.5t36 148.5t-36 149t-95 56q-57 0 -93 -56t-36 -149
t35.5 -148.5t93.5 -55.5z" />
    <glyph glyph-name="trademark" unicode="&#x2122;" horiz-adv-x="1708" 
d="M246 819v500h-209v115h616v-115h-209v-500h-198zM768 819v615h252l156 -377l149 377h242v-615h-199v445l-182 -445h-115l-188 447v-447h-115z" />
    <glyph glyph-name="arrowleft" unicode="&#x2190;" 
d="M743 219l-743 483v35l743 484l101 -131l-303 -191v-94h893v-170h-893v-94l303 -191z" />
    <glyph glyph-name="arrowup" unicode="&#x2191;" 
d="M633 0v895h-94l-191 -305l-131 102l483 742h35l484 -742l-132 -102l-190 305h-94v-895h-170z" />
    <glyph glyph-name="arrowright" unicode="&#x2192;" 
d="M692 217l-102 131l305 191v94h-895v170h895v94l-305 190l102 132l742 -484v-35z" />
    <glyph glyph-name="arrowdown" unicode="&#x2193;" 
d="M700 0l-483 743l131 101l191 -303h94v893h170v-893h94l190 303l132 -101l-484 -743h-35z" />
    <glyph glyph-name="arrowboth" unicode="&#x2194;" horiz-adv-x="1884" 
d="M702 242l-710 458v35l710 457l103 -129l-285 -174v-94h846v94l-287 174l103 129l710 -457v-35l-710 -458l-103 131l287 174v94h-846v-94l285 -174z" />
    <glyph glyph-name="arrowupdn" unicode="&#x2195;" 
d="M700 -233l-458 710l131 103l174 -285h94v846h-94l-174 -287l-131 102l458 711h35l457 -711l-129 -102l-174 287h-94v-846h94l174 285l129 -103l-457 -710h-35z" />
    <glyph glyph-name="uni2196" unicode="&#x2196;" 
d="M1163 152l-633 632l-65 -65l80 -352l-164 -21l-182 866l24 25l867 -182l-21 -164l-352 80l-66 -66l633 -633z" />
    <glyph glyph-name="uni2197" unicode="&#x2197;" 
d="M270 152l-120 120l632 633l-65 66l-352 -80l-21 164l866 182l25 -25l-182 -866l-164 21l80 352l-66 65z" />
    <glyph glyph-name="uni2198" unicode="&#x2198;" 
d="M1210 199l-866 182l21 164l352 -80l65 65l-632 633l120 121l633 -633l66 66l-80 352l164 21l182 -867z" />
    <glyph glyph-name="uni2199" unicode="&#x2199;" 
d="M223 199l-24 24l182 867l164 -21l-80 -352l65 -66l633 633l121 -121l-633 -633l66 -65l352 80l21 -164z" />
    <glyph glyph-name="uni21B0" unicode="&#x21b0;" horiz-adv-x="1495" 
d="M1264 0v633h-723v-94l303 -191l-101 -131l-743 483v35l743 484l101 -132l-303 -190v-94h893v-803h-170z" />
    <glyph glyph-name="uni21B1" unicode="&#x21b1;" horiz-adv-x="1495" 
d="M61 0v803h895v94l-305 190l103 132l741 -484v-35l-741 -483l-103 131l305 191v94h-725v-633h-170z" />
    <glyph glyph-name="uni21B2" unicode="&#x21b2;" horiz-adv-x="1495" 
d="M743 217l-743 483v35l743 484l101 -132l-303 -190v-94h723v631h170v-801h-893v-94l303 -191z" />
    <glyph glyph-name="uni21B3" unicode="&#x21b3;" horiz-adv-x="1495" 
d="M754 217l-103 131l305 191v94h-895v801h170v-631h725v94l-305 190l103 132l741 -484v-35z" />
    <glyph glyph-name="minus" unicode="&#x2212;" horiz-adv-x="1146" 
d="M147 633v170h852v-170h-852z" />
    <glyph glyph-name="approxequal" unicode="&#x2248;" horiz-adv-x="1146" 
d="M143 801q0 127 63 198.5t161 71.5q40 0 82 -11t66.5 -21.5t62.5 -30.5q92 -45 153 -45q44 0 74.5 27.5t30.5 68.5h170q0 -126 -62.5 -197t-161.5 -71q-40 0 -81.5 10.5t-66 21t-63.5 29.5l-10 5q-97 40 -143 42q-43 0 -74 -28.5t-31 -69.5h-170zM143 379q0 127 63 198.5
t161 71.5q40 0 82 -11t66.5 -21.5t62.5 -30.5q95 -43 153 -43q44 0 74.5 27.5t30.5 68.5h170q0 -126 -62.5 -197t-161.5 -71q-40 0 -81.5 10.5t-66 21t-63.5 29.5q-88 39 -126 45q-14 2 -27 2q-43 0 -74 -29.5t-31 -70.5h-170z" />
    <glyph glyph-name="notequal" unicode="&#x2260;" horiz-adv-x="1146" 
d="M999 852h-280l-123 -268h403v-170h-473l-86 -193h-168l88 193h-213v170h281l125 268h-406v170h474l88 190h165l-86 -190h211v-170z" />
    <glyph glyph-name="lessequal" unicode="&#x2264;" horiz-adv-x="1146" 
d="M999 1315v-180l-581 -273l581 -270v-191l-852 400v117zM147 131v170h852v-170h-852z" />
    <glyph glyph-name="greaterequal" unicode="&#x2265;" horiz-adv-x="1146" 
d="M147 401v181l582 272l-582 272v189l852 -397v-117zM147 131v170h852v-170h-852z" />
    <glyph glyph-name="uni2605" unicode="&#x2605;" horiz-adv-x="2179" 
d="M995 -80l45 512l-397 -354l-350 104l98 353h608l-753 231v354l327 84l451 -538l-258 723l324 272l323 -272l-258 -723l451 538l327 -84v-354l-753 -231h608l98 -353l-350 -104l-397 354l45 -512h-189z" />
    <glyph glyph-name="M.ss03" horiz-adv-x="2365" 
d="M2177 1434v-1434h-385v1229h-418v-1229h-385v1229h-416v-1229h-385v1434h1989z" />
    <glyph glyph-name="N.ss03" horiz-adv-x="1679" 
d="M188 0v1434h1305v-1434h-385v1227h-535v-1227h-385z" />
    <glyph glyph-name="Nacute.ss03" horiz-adv-x="1679" 
d="M768 1573l104 362h336l-268 -362h-172zM188 0v1434h1305v-1434h-385v1227h-535v-1227h-385z" />
    <glyph glyph-name="Ncaron.ss03" horiz-adv-x="1679" 
d="M424 1935h356l142 -178l141 178h194l-249 -327h-334zM188 0v1434h1305v-1434h-385v1227h-535v-1227h-385z" />
    <glyph glyph-name="uni0145.ss03" horiz-adv-x="1679" 
d="M188 0v1434h1305v-1434h-385v1227h-535v-1227h-385zM831 -502h-133v6q57 21 106 53t54 64q-25 -14 -70 -14q-70 4 -108.5 39t-38.5 88q0 58 55.5 96.5t143.5 38.5q90 0 146 -39.5t56 -108.5t-62.5 -130t-148.5 -93z" />
    <glyph glyph-name="Eng.ss03" horiz-adv-x="1679" 
d="M1063 -430q-150 0 -252 89t-102 218h174v-2q0 -67 52.5 -112.5t123.5 -45.5q67 0 113.5 40t46.5 120q0 33 -17.5 72.5t-38 76t-38 109t-17.5 162.5v930h-535v-1227h-385v1434h1305v-1422q0 -222 -114 -332t-316 -110z" />
    <glyph glyph-name="Ntilde.ss03" horiz-adv-x="1679" 
d="M442 1622q0 154 63 234.5t171 80.5q63 0 128.5 -21.5t120 -43t89.5 -21.5q33 0 53 19.5t20 58.5h150q0 -154 -62 -233.5t-169 -79.5q-63 0 -129 21t-120.5 42t-88.5 21t-54 -19t-20 -59h-152zM188 0v1434h1305v-1434h-385v1227h-535v-1227h-385z" />
    <glyph glyph-name="S.ss03" horiz-adv-x="1294" 
d="M53 0v197h709l-672 1067v170h1102v-197h-629l670 -1067v-170h-1180z" />
    <glyph glyph-name="Sacute.ss03" horiz-adv-x="1294" 
d="M573 1573l105 362h336l-269 -362h-172zM53 0v197h709l-672 1067v170h1102v-197h-629l670 -1067v-170h-1180z" />
    <glyph glyph-name="Scaron.ss03" horiz-adv-x="1294" 
d="M229 1935h357l141 -178l141 178h195l-250 -327h-334zM53 0v197h709l-672 1067v170h1102v-197h-629l670 -1067v-170h-1180z" />
    <glyph glyph-name="Scedilla.ss03" horiz-adv-x="1294" 
d="M53 0v197h709l-672 1067v170h1102v-197h-629l670 -1067v-170h-1180zM788 -139l-104 -363h-338l268 363h174z" />
    <glyph glyph-name="uni0218.ss03" horiz-adv-x="1294" 
d="M53 0v197h709l-672 1067v170h1102v-197h-629l670 -1067v-170h-1180zM688 -502h-133v6q57 21 106 53t54 64q-25 -14 -70 -14q-70 4 -108.5 39t-38.5 88q0 58 55 96.5t143 38.5q90 0 146.5 -39.5t56.5 -108.5t-62.5 -130t-148.5 -93z" />
    <glyph glyph-name="U.ss03" horiz-adv-x="1679" 
d="M1491 1434v-1434h-1305v1434h385v-1227h535v1227h385z" />
    <glyph glyph-name="Uacute.ss03" horiz-adv-x="1679" 
d="M768 1573l104 362h336l-268 -362h-172zM1491 1434v-1434h-1305v1434h385v-1227h535v1227h385z" />
    <glyph glyph-name="Ucircumflex.ss03" horiz-adv-x="1679" 
d="M1255 1608h-356l-141 178l-142 -178h-194l250 327h334zM1491 1434v-1434h-1305v1434h385v-1227h535v1227h385z" />
    <glyph glyph-name="Udieresis.ss03" horiz-adv-x="1679" 
d="M674 1538h-19l-180 397h731l-182 -397h-18l-166 360zM1106 1434h385v-1434h-1305v1434h385v-1227h535v1227z" />
    <glyph glyph-name="Ugrave.ss03" horiz-adv-x="1679" 
d="M913 1573h-174l-266 362h336zM1491 1434v-1434h-1305v1434h385v-1227h535v1227h385z" />
    <glyph glyph-name="Uhungarumlaut.ss03" horiz-adv-x="1679" 
d="M571 1573l95 362h305l-244 -362h-156zM946 1573l94 362h303l-241 -362h-156zM1491 1434v-1434h-1305v1434h385v-1227h535v1227h385z" />
    <glyph glyph-name="Umacron.ss03" horiz-adv-x="1679" 
d="M512 1851h655v-137h-655v137zM1491 1434v-1434h-1305v1434h385v-1227h535v1227h385z" />
    <glyph glyph-name="Uogonek.ss03" horiz-adv-x="1679" 
d="M1491 1434v-1434h-1305v1434h385v-1227h535v1227h385zM1503 -139l-104 -363h-336l268 363h172z" />
    <glyph glyph-name="Uring.ss03" horiz-adv-x="1679" 
d="M840 1530q-121 0 -205 84.5t-84 204.5t84 204t205 84q120 0 204 -84t84 -204t-84 -204.5t-204 -84.5zM840 1743q168 0 168 76q0 75 -168 75q-166 0 -166 -75q0 -76 166 -76zM1491 1434v-1434h-1305v1434h385v-1227h535v1227h385z" />
    <glyph glyph-name="W.ss03" horiz-adv-x="2365" 
d="M188 0v1434h385v-1229h418v1229h385v-1229h416v1229h385v-1434h-1989z" />
    <glyph glyph-name="Wacute.ss03" horiz-adv-x="2365" 
d="M1112 1573l105 362h335l-268 -362h-172zM188 0v1434h385v-1229h418v1229h385v-1229h416v1229h385v-1434h-1989z" />
    <glyph glyph-name="Wcircumflex.ss03" horiz-adv-x="2365" 
d="M1599 1608h-356l-141 178l-141 -178h-195l250 327h334zM188 0v1434h385v-1229h418v1229h385v-1229h416v1229h385v-1434h-1989z" />
    <glyph glyph-name="Wdieresis.ss03" horiz-adv-x="2365" 
d="M1018 1538h-19l-180 397h731l-182 -397h-18l-166 360zM1792 1434h385v-1434h-1989v1434h385v-1229h418v1229h385v-1229h416v1229z" />
    <glyph glyph-name="Wgrave.ss03" horiz-adv-x="2365" 
d="M1257 1573h-174l-266 362h336zM188 0v1434h385v-1229h418v1229h385v-1229h416v1229h385v-1434h-1989z" />
    <glyph glyph-name="i.loclTRK" horiz-adv-x="647" 
d="M313 1128l-192 398h405l-192 -398h-21zM156 0v1024h333v-1024h-333z" />
    <glyph glyph-name="g.alt" horiz-adv-x="1388" 
d="M745 -430q-291 0 -450.5 83t-159.5 234q0 98 79 166.5t220 98.5q-428 59 -428 274q0 60 41.5 107t116.5 57q32 0 59 -12q-33 54 -33 120q0 155 146 250.5t420 95.5q284 0 430.5 -95t146.5 -251q0 -159 -153 -249.5t-418 -90.5q-96 0 -171.5 14.5t-119.5 35t-77.5 41
t-66 35t-65.5 14.5q-36 0 -57 -19.5t-21 -50.5q0 -22 6.5 -40.5t22 -33.5t32 -27t46 -22t53.5 -17.5t65.5 -14t70.5 -10.5t79.5 -9t82.5 -7.5t89 -6.5q20 -1 31.5 -2t29 -2.5t31.5 -2.5q541 -35 541 -327q0 -158 -165 -247t-454 -89zM762 477q110 0 172.5 58.5t62.5 162.5
q0 107 -62 166.5t-173 59.5t-173.5 -59.5t-62.5 -166.5q0 -105 62 -163t174 -58zM748 -289q126 0 196 53.5t70 151.5q0 102 -68.5 155.5t-197.5 53.5q-126 0 -196.5 -54.5t-70.5 -154.5q0 -98 71 -151.5t196 -53.5z" />
    <glyph glyph-name="f.long" horiz-adv-x="940" 
d="M242 0v854h-183v170h183v88q0 190 109.5 297t299.5 107q161 0 261 -88.5t100 -237.5h-176v10q-1 70 -54 115t-127 45q-69 0 -117.5 -40t-48.5 -118q0 -30 7 -56t22.5 -62.5t22.5 -59.5h604v-170h-588q18 -56 18 -133v-721h-333z" />
    <glyph glyph-name="m.ss03" horiz-adv-x="1898" 
d="M156 0v1024h1587v-1024h-334v854h-293v-854h-334v854h-293v-854h-333z" />
    <glyph glyph-name="n.ss03" horiz-adv-x="1345" 
d="M156 0v1024h1032v-1024h-332v848h-367v-848h-333z" />
    <glyph glyph-name="nacute.ss03" horiz-adv-x="1345" 
d="M600 1163l105 363h335l-268 -363h-172zM156 0v1024h1032v-1024h-332v848h-367v-848h-333z" />
    <glyph glyph-name="ncaron.ss03" horiz-adv-x="1345" 
d="M256 1526h356l142 -178l141 178h195l-250 -328h-334zM156 0v1024h1032v-1024h-332v848h-367v-848h-333z" />
    <glyph glyph-name="uni0146.ss03" horiz-adv-x="1345" 
d="M156 0v1024h1032v-1024h-332v848h-367v-848h-333zM664 -502h-134v6q57 21 106 53t54 64q-25 -14 -69 -14q-70 4 -109 39t-39 88q0 58 55.5 96.5t143.5 38.5q90 0 146 -39.5t56 -108.5t-62 -130t-148 -93z" />
    <glyph glyph-name="eng.ss03" horiz-adv-x="1345" 
d="M776 -430q-158 0 -265.5 89t-107.5 218h177v-2q0 -67 56 -112.5t130 -45.5q72 0 124 40t52 120q0 34 -13.5 76.5t-29.5 81t-29.5 102t-13.5 133.5v578h-367v-848h-333v1024h1032v-1012q0 -222 -109 -332t-303 -110z" />
    <glyph glyph-name="ntilde.ss03" horiz-adv-x="1345" 
d="M274 1212q0 154 63.5 235t170.5 81q63 0 128.5 -21.5t120 -43t89.5 -21.5q33 0 53.5 19.5t20.5 58.5h149q0 -154 -62 -234t-169 -80q-63 0 -129 21t-120.5 42t-88.5 21t-54 -19t-20 -59h-152zM156 0v1024h1032v-1024h-332v848h-367v-848h-333z" />
    <glyph glyph-name="r.ss03" horiz-adv-x="968" 
d="M156 0v1024h780v-178h-447v-846h-333z" />
    <glyph glyph-name="racute.ss03" horiz-adv-x="968" 
d="M487 1163l105 363h336l-269 -363h-172zM156 0v1024h780v-178h-447v-846h-333z" />
    <glyph glyph-name="rcaron.ss03" horiz-adv-x="968" 
d="M143 1526h357l141 -178l141 178h195l-250 -328h-334zM156 0v1024h780v-178h-447v-846h-333z" />
    <glyph glyph-name="uni0157.ss03" horiz-adv-x="968" 
d="M156 0v1024h780v-178h-447v-846h-333zM315 -502h-133v6q57 21 106 53t54 64q-24 -14 -70 -14q-70 4 -108.5 39t-38.5 88q0 58 55.5 96.5t143.5 38.5q90 0 146 -39.5t56 -108.5t-62.5 -130t-148.5 -93z" />
    <glyph glyph-name="s.ss03" horiz-adv-x="1056" 
d="M68 0v170h520l-510 715v139h876v-170h-467l510 -713v-141h-929z" />
    <glyph glyph-name="sacute.ss03" horiz-adv-x="1056" 
d="M455 1163l104 363h336l-268 -363h-172zM68 0v170h520l-510 715v139h876v-170h-467l510 -713v-141h-929z" />
    <glyph glyph-name="scaron.ss03" horiz-adv-x="1056" 
d="M111 1526h356l141 -178l142 178h194l-250 -328h-334zM68 0v170h520l-510 715v139h876v-170h-467l510 -713v-141h-929z" />
    <glyph glyph-name="scedilla.ss03" horiz-adv-x="1056" 
d="M68 0v170h520l-510 715v139h876v-170h-467l510 -713v-141h-929zM618 -139l-104 -363h-338l268 363h174z" />
    <glyph glyph-name="uni0219.ss03" horiz-adv-x="1056" 
d="M68 0v170h520l-510 715v139h876v-170h-467l510 -713v-141h-929zM518 -502h-133v6q57 21 106 53t54 64q-25 -14 -70 -14q-70 4 -108.5 39t-38.5 88q0 58 55 96.5t143 38.5q90 0 146.5 -39.5t56.5 -108.5t-62.5 -130t-148.5 -93z" />
    <glyph glyph-name="germandbls.ss03" horiz-adv-x="1617" 
d="M242 -410v1264h-183v170h183v78q0 186 151.5 300t415.5 114q254 0 414.5 -110t160.5 -298v-246h-280l491 -721v-141h-888v170h487l-494 715v139h365v102q0 102 -86.5 161t-210.5 59q-123 0 -201 -46.5t-78 -132.5q0 -34 13.5 -73.5t29.5 -75t29.5 -107t13.5 -161.5v-1160
h-333z" />
    <glyph glyph-name="u.ss03" horiz-adv-x="1345" 
d="M1190 1024v-1024h-1032v1024h331v-848h367v848h334z" />
    <glyph glyph-name="uacute.ss03" horiz-adv-x="1345" 
d="M600 1163l105 363h335l-268 -363h-172zM1190 1024v-1024h-1032v1024h331v-848h367v848h334z" />
    <glyph glyph-name="ucircumflex.ss03" horiz-adv-x="1345" 
d="M1087 1198h-356l-141 178l-141 -178h-195l250 328h334zM1190 1024v-1024h-1032v1024h331v-848h367v848h334z" />
    <glyph glyph-name="udieresis.ss03" horiz-adv-x="1345" 
d="M506 1128h-19l-180 398h731l-182 -398h-18l-166 361zM856 1024h334v-1024h-1032v1024h331v-848h367v848z" />
    <glyph glyph-name="ugrave.ss03" horiz-adv-x="1345" 
d="M745 1163h-174l-266 363h336zM1190 1024v-1024h-1032v1024h331v-848h367v848h334z" />
    <glyph glyph-name="uhungarumlaut.ss03" horiz-adv-x="1345" 
d="M403 1163l95 363h305l-244 -363h-156zM778 1163l94 363h304l-242 -363h-156zM1190 1024v-1024h-1032v1024h331v-848h367v848h334z" />
    <glyph glyph-name="umacron.ss03" horiz-adv-x="1345" 
d="M344 1442h655v-137h-655v137zM1190 1024v-1024h-1032v1024h331v-848h367v848h334z" />
    <glyph glyph-name="uogonek.ss03" horiz-adv-x="1345" 
d="M1190 1024v-1024h-1032v1024h331v-848h367v848h334zM1198 -139l-104 -363h-336l268 363h172z" />
    <glyph glyph-name="uring.ss03" horiz-adv-x="1345" 
d="M672 1120q-121 0 -205 84.5t-84 204.5t84 204.5t205 84.5q120 0 204.5 -84.5t84.5 -204.5t-84.5 -204.5t-204.5 -84.5zM672 1333q168 0 168 76t-168 76q-166 0 -166 -76t166 -76zM1190 1024v-1024h-1032v1024h331v-848h367v848h334z" />
    <glyph glyph-name="w.ss03" horiz-adv-x="1898" 
d="M156 0v1024h333v-854h293v854h334v-854h293v854h334v-1024h-1587z" />
    <glyph glyph-name="wacute.ss03" horiz-adv-x="1898" 
d="M879 1163l104 363h336l-268 -363h-172zM156 0v1024h333v-854h293v854h334v-854h293v854h334v-1024h-1587z" />
    <glyph glyph-name="wcircumflex.ss03" horiz-adv-x="1898" 
d="M1366 1198h-356l-142 178l-141 -178h-195l250 328h334zM156 0v1024h333v-854h293v854h334v-854h293v854h334v-1024h-1587z" />
    <glyph glyph-name="wdieresis.ss03" horiz-adv-x="1898" 
d="M784 1128h-18l-180 398h731l-182 -398h-19l-166 361zM1409 1024h334v-1024h-1587v1024h333v-854h293v854h334v-854h293v854z" />
    <glyph glyph-name="wgrave.ss03" horiz-adv-x="1898" 
d="M1024 1163h-174l-266 363h336zM156 0v1024h333v-854h293v854h334v-854h293v854h334v-1024h-1587z" />
    <glyph glyph-name="y.ss04" horiz-adv-x="1165" 
d="M420 -410v482l-400 952h357l291 -750l288 750h195l-399 -958v-476h-332z" />
    <glyph glyph-name="yacute.ss04" horiz-adv-x="1165" 
d="M530 1163l105 363h336l-269 -363h-172zM420 -410v482l-400 952h357l291 -750l288 750h195l-399 -958v-476h-332z" />
    <glyph glyph-name="ycircumflex.ss04" horiz-adv-x="1165" 
d="M1018 1198h-356l-142 178l-141 -178h-195l250 328h334zM420 -410v482l-400 952h357l291 -750l288 750h195l-399 -958v-476h-332z" />
    <glyph glyph-name="ydieresis.ss04" horiz-adv-x="1165" 
d="M436 1128h-18l-180 398h731l-183 -398h-18l-166 361zM956 1024h195l-399 -958v-476h-332v482l-400 952h357l291 -750z" />
    <glyph glyph-name="ygrave.ss04" horiz-adv-x="1165" 
d="M676 1163h-174l-266 363h335zM420 -410v482l-400 952h357l291 -750l288 750h195l-399 -958v-476h-332z" />
    <glyph glyph-name="uni041D.ss02" horiz-adv-x="1617" 
d="M184 0v1434h385l664 -891v891h201v-1469h-224l-823 1084v-1049h-203z" />
    <glyph glyph-name="uni0417.ss03" horiz-adv-x="1345" 
d="M946 -328v328h-878v170l727 1067h-684v197h1153v-170l-727 -1067h751v-525h-342z" />
    <glyph glyph-name="uni0421.ss03" horiz-adv-x="1275" 
d="M84 0v170l268 553l-252 541v170h1084v-197h-664l244 -520l-250 -520h709v-197h-1139z" />
    <glyph glyph-name="uni0422.ss03" horiz-adv-x="2365" 
d="M188 0v1434h1989v-1434h-385v1229h-416v-1229h-385v1229h-418v-1229h-385z" />
    <glyph glyph-name="uni0423.ss04" horiz-adv-x="1425" 
d="M522 0v543l-512 891h422l377 -691l375 691h235l-512 -893v-541h-385z" />
    <glyph glyph-name="uni040E.ss04" horiz-adv-x="1425" 
d="M723 1540q-180 0 -290.5 113t-110.5 291v14h151v-12q0 -76 64 -118t186 -42q123 0 186.5 42t63.5 118v12h153v-14q0 -178 -111.5 -291t-291.5 -113zM522 0v543l-512 891h422l377 -691l375 691h235l-512 -893v-541h-385z" />
    <glyph glyph-name="uni0491.ss01" horiz-adv-x="968" 
d="M156 0v1024h487v229h293v-407h-447v-846h-333z" />
    <glyph glyph-name="uni0436.ss01" horiz-adv-x="1775" 
d="M29 0l340 647l-275 377h205l326 -424h98v424h332v-424h96l328 424h202l-272 -377l340 -647h-373l-221 426h-100v-426h-332v426h-100l-224 -426h-370z" />
    <glyph glyph-name="uni043A.ss01" horiz-adv-x="1245" 
d="M156 0v1024h333v-424h95l346 424h200l-296 -383l395 -641h-383l-264 426h-93v-426h-333z" />
    <glyph glyph-name="uni043D.ss02" horiz-adv-x="1302" 
d="M156 0v1024h321l486 -575v575h184v-1051h-191l-614 717v-690h-186z" />
    <glyph glyph-name="uni0437.ss03" horiz-adv-x="1075" 
d="M735 -242v242h-674v141l529 713h-494v170h903v-139l-526 -715h553v-412h-291z" />
    <glyph glyph-name="uni0441.ss03" horiz-adv-x="1015" 
d="M90 0v133l219 379l-217 379v133h840v-170h-455l187 -342l-189 -342h490v-170h-875z" />
    <glyph glyph-name="uni0442.ss03" horiz-adv-x="1898" 
d="M156 0v1024h1587v-1024h-334v854h-293v-854h-334v854h-293v-854h-333z" />
    <glyph glyph-name="uni0443.ss04" horiz-adv-x="1165" 
d="M420 -410v482l-400 952h357l291 -750l288 750h195l-399 -958v-476h-332z" />
    <glyph glyph-name="uni045E.ss04" horiz-adv-x="1165" 
d="M602 1130q-180 0 -290.5 113t-110.5 291v14h151v-12q0 -76 64 -118t186 -42q123 0 186.5 42t63.5 118v12h154v-14q0 -178 -112 -291t-292 -113zM420 -410v482l-400 952h357l291 -750l288 750h195l-399 -958v-476h-332z" />
    <glyph glyph-name="uni04220410.dlig" horiz-adv-x="1564" 
d="M31 0l565 954v283h-504v197h1391v-197h-502v-313l547 -924h-240l-125 233h-583l-127 -233h-422zM672 387h401l-201 367z" />
    <glyph glyph-name="uni04420430.dlig" horiz-adv-x="1230" 
d="M399 -20q-168 0 -260 71.5t-92 196.5q0 263 459 295q135 11 197.5 44t62.5 95q0 77 -55 119.5t-142 42.5q-98 0 -169.5 -57.5t-90.5 -151.5h-176q18 131 101.5 215.5t209.5 114.5v315h-352v174h1030v-174h-344v-307q141 -38 222 -137.5t81 -247.5v-418h109v-170h-416v168
q-56 -92 -153.5 -140t-221.5 -48zM510 147q103 0 181.5 82.5t78.5 204.5v90q-50 -42 -172 -61q-110 -19 -161.5 -61t-51.5 -117q0 -68 33.5 -103t91.5 -35z" />
    <glyph glyph-name="zero.lf" horiz-adv-x="1519" 
d="M752 -31q-188 0 -336.5 95.5t-231 266t-82.5 386.5t82.5 386.5t231 265.5t336.5 95t336.5 -95t231.5 -265.5t83 -386.5q0 -215 -83 -386t-231.5 -266.5t-336.5 -95.5zM752 154q129 0 205.5 153t76.5 410q0 258 -76.5 411.5t-205.5 153.5t-205 -153.5t-76 -411.5
q0 -257 76 -410t205 -153z" />
    <glyph glyph-name="one.lf" horiz-adv-x="927" 
d="M362 0v1110l-307 -215v227l432 312h230v-1434h-355z" />
    <glyph glyph-name="two.lf" horiz-adv-x="1341" 
d="M90 0v164l490 323q35 25 71.5 63t57.5 73q-59 -40 -134 -37q-234 15 -369.5 134t-135.5 294q0 191 163 320.5t433 129.5q262 0 429 -126t167 -326q0 -80 -35.5 -157.5t-103 -149.5t-151 -136t-194.5 -133l-188 -114h676v-322h-1176zM664 713q117 0 180 74t63 190
q0 155 -65.5 237t-177.5 82q-108 0 -174 -80t-66 -212t66 -211.5t174 -79.5z" />
    <glyph glyph-name="three.lf" horiz-adv-x="1236" 
d="M596 -27q-242 0 -394.5 132.5t-164.5 345.5h203q12 -127 97 -203t210 -76q127 0 198.5 80.5t71.5 202.5q0 110 -58.5 183t-154.5 73q-80 0 -158 -58l-20 -16l-100 125l403 352h-637v320h1063v-170l-493 -447q61 25 118 25q178 -19 290 -127t112 -275
q0 -204 -159.5 -335.5t-426.5 -131.5z" />
    <glyph glyph-name="four.lf" horiz-adv-x="1327" 
d="M748 0v317h-728v168l713 949h365v-830h219v-287h-219v-317h-350zM309 604h439v572z" />
    <glyph glyph-name="five.lf" horiz-adv-x="1294" 
d="M635 -27q-241 0 -395.5 125t-169.5 326h206q12 -109 94 -177.5t197 -68.5q128 0 206.5 84t78.5 211q0 123 -74.5 204t-197.5 81q-86 0 -161 -41.5t-116 -114.5l-184 2l110 830h910v-314h-762l-47 -319q135 117 350 117q151 0 272 -53t193 -156.5t72 -241.5
q0 -217 -163 -355.5t-419 -138.5z" />
    <glyph glyph-name="six.lf" horiz-adv-x="1427" 
d="M752 -31q-148 0 -270.5 58.5t-204 160t-126.5 238t-45 291.5q0 212 79 381t228.5 267.5t344.5 98.5q215 0 360.5 -114t173.5 -295h-219q-22 95 -100 150t-187 55q-52 0 -98.5 -15.5t-89.5 -52.5t-73.5 -93.5t-49 -143t-18.5 -195.5q0 -25 2 -37q53 101 155 156t240 55
q213 0 353.5 -130.5t140.5 -334.5q0 -96 -38.5 -184.5t-111 -159.5t-188.5 -113.5t-258 -42.5zM748 141q104 0 169.5 93.5t65.5 232.5q0 131 -64.5 214t-173.5 83q-104 0 -172.5 -68t-76.5 -174q0 -162 72 -271.5t180 -109.5z" />
    <glyph glyph-name="seven.lf" horiz-adv-x="1228" 
d="M328 0q41 282 199.5 578t375.5 530h-856v326h1161v-168q-217 -248 -351.5 -585t-154.5 -681h-374z" />
    <glyph glyph-name="eight.lf" horiz-adv-x="1423" 
d="M713 -31q-281 0 -458 115.5t-177 298.5q0 123 85.5 214.5t256.5 137.5q-131 36 -212 129t-81 201q0 177 163 287t423 110t422.5 -110t162.5 -287q0 -108 -80.5 -201t-211.5 -129q172 -46 257 -137t85 -215q0 -183 -177 -298.5t-458 -115.5zM713 801q113 0 182.5 69
t69.5 183t-69.5 184t-182.5 70q-114 0 -182 -70t-68 -184t68 -183t182 -69zM713 129q120 0 193 72.5t73 191.5q0 117 -73 189.5t-193 72.5t-193.5 -72.5t-73.5 -189.5q0 -119 73.5 -191.5t193.5 -72.5z" />
    <glyph glyph-name="nine.lf" horiz-adv-x="1427" 
d="M676 1464q196 0 344.5 -101t224.5 -269.5t76 -376.5q0 -158 -46 -295.5t-129.5 -237.5t-206 -157.5t-269.5 -57.5q-215 0 -361 114.5t-174 295.5h219q22 -95 100 -150t187 -55q66 0 123 26.5t104.5 82t75 156t27.5 235.5q0 25 -2 37q-53 -101 -155.5 -156t-240.5 -55
q-212 0 -352.5 130.5t-140.5 334.5q0 96 38.5 184.5t111 159t188.5 113t258 42.5zM680 1292q-104 0 -170 -93t-66 -232q0 -131 64.5 -214t173.5 -83q104 0 173 67.5t77 173.5q0 162 -72 271.5t-180 109.5z" />
    <glyph glyph-name="zero.osf" horiz-adv-x="1468" 
d="M733 -31q-185 0 -333 83t-231 230.5t-83 331.5q0 138 48.5 258t134 205t205.5 134t259 49q140 0 261 -49t206.5 -134t134.5 -205t49 -258q0 -184 -83 -331.5t-232 -230.5t-336 -83zM733 154q128 0 206.5 126.5t78.5 333.5t-79 335t-206 128q-125 0 -202.5 -128
t-77.5 -335q0 -206 77.5 -333t202.5 -127z" />
    <glyph glyph-name="one.osf" horiz-adv-x="935" 
d="M371 0v905l-308 -215v228l433 311h229v-1229h-354z" />
    <glyph glyph-name="two.osf" horiz-adv-x="1355" 
d="M70 0v147l465 267q74 48 108 92q-59 -22 -106 -19q-216 19 -345 119t-129 252q0 178 168 290t433 112q271 0 438.5 -110.5t167.5 -291.5q0 -141 -112 -246.5t-357 -226.5l-137 -76h639v-309h-1233zM664 578q116 0 178.5 66t62.5 169q0 135 -65.5 209t-175.5 74
q-107 0 -173.5 -72.5t-66.5 -189.5q0 -115 66.5 -185.5t173.5 -70.5z" />
    <glyph glyph-name="three.osf" horiz-adv-x="1243" 
d="M596 -27q-242 0 -394.5 132.5t-164.5 345.5h203q12 -127 97 -203t210 -76q127 0 198.5 80.5t71.5 202.5q0 110 -58.5 183t-154.5 73q-80 0 -158 -58l-20 -16l-100 125l403 352h-637v320h1063v-170l-493 -447q61 25 118 25q178 -19 290 -127t112 -275
q0 -204 -159.5 -335.5t-426.5 -131.5z" />
    <glyph glyph-name="four.osf" horiz-adv-x="1323" 
d="M745 -205v318h-727v168l713 948h365v-830h219v-286h-219v-318h-351zM307 399h438v572z" />
    <glyph glyph-name="five.osf" horiz-adv-x="1294" 
d="M629 -231q-243 0 -397.5 124.5t-168.5 325.5h207q12 -109 94 -177.5t197 -68.5q128 0 206.5 84t78.5 211q0 122 -75.5 203.5t-197.5 81.5q-86 0 -160.5 -41.5t-115.5 -114.5l-184 2l110 830h910v-314h-762l-47 -319q135 117 350 117q150 0 270.5 -53t192 -156.5
t71.5 -241.5q0 -217 -161.5 -355t-417.5 -138z" />
    <glyph glyph-name="six.osf" horiz-adv-x="1427" 
d="M752 -31q-148 0 -270.5 58.5t-204 160t-126.5 238t-45 291.5q0 212 79 381t228.5 267.5t344.5 98.5q215 0 360.5 -114t173.5 -295h-219q-22 95 -100 150t-187 55q-52 0 -98.5 -15.5t-89.5 -52.5t-73.5 -93.5t-49 -143t-18.5 -195.5q0 -25 2 -37q53 101 155 156t240 55
q213 0 353.5 -130.5t140.5 -334.5q0 -96 -38.5 -184.5t-111 -159.5t-188.5 -113.5t-258 -42.5zM748 141q104 0 169.5 93.5t65.5 232.5q0 131 -64.5 214t-173.5 83q-104 0 -172.5 -68t-76.5 -174q0 -162 72 -271.5t180 -109.5z" />
    <glyph glyph-name="seven.osf" horiz-adv-x="1226" 
d="M326 -205q41 282 199.5 578t375.5 530h-856v326h1161v-168q-217 -248 -351.5 -585t-154.5 -681h-374z" />
    <glyph glyph-name="eight.osf" horiz-adv-x="1423" 
d="M713 -31q-281 0 -458 115.5t-177 298.5q0 123 85.5 214.5t256.5 137.5q-131 36 -212 129t-81 201q0 177 163 287t423 110t422.5 -110t162.5 -287q0 -108 -80.5 -201t-211.5 -129q172 -46 257 -137t85 -215q0 -183 -177 -298.5t-458 -115.5zM713 801q113 0 182.5 69
t69.5 183t-69.5 184t-182.5 70q-114 0 -182 -70t-68 -184t68 -183t182 -69zM713 129q120 0 193 72.5t73 191.5q0 117 -73 189.5t-193 72.5t-193.5 -72.5t-73.5 -189.5q0 -119 73.5 -191.5t193.5 -72.5z" />
    <glyph glyph-name="nine.osf" horiz-adv-x="1427" 
d="M676 1260q118 0 221.5 -38t180 -106.5t132 -161.5t83.5 -205.5t28 -236.5q0 -158 -46 -295.5t-129.5 -237.5t-206 -157.5t-269.5 -57.5q-215 0 -361 114.5t-174 295.5h219q22 -95 100 -150t187 -55q66 0 123 26.5t104.5 82t75 156t27.5 235.5q0 25 -2 37
q-53 -101 -155.5 -156t-240.5 -55q-212 0 -352.5 130.5t-140.5 334.5q0 96 38.5 184.5t111 159.5t188.5 113.5t258 42.5zM680 1087q-104 0 -170 -93t-66 -232q0 -131 64.5 -214t173.5 -83q104 0 173 68t77 174q0 162 -72 271t-180 109z" />
    <glyph glyph-name="zero.tf" 
d="M717 -31q-187 0 -335.5 95.5t-231 266.5t-82.5 386q0 216 82.5 386.5t231 265.5t335.5 95q188 0 336.5 -95t231.5 -265.5t83 -386.5q0 -215 -83 -386t-231.5 -266.5t-336.5 -95.5zM717 154q129 0 205.5 153t76.5 410q0 258 -76.5 411.5t-205.5 153.5t-205 -153.5
t-76 -411.5q0 -257 76 -410t205 -153z" />
    <glyph glyph-name="one.tf" 
d="M166 0v184h393v926l-315 -223v229l442 318h229v-1250h396v-184h-1145z" />
    <glyph glyph-name="two.tf" 
d="M139 0v164l490 323q35 24 71.5 62t57.5 74q-56 -40 -133 -37q-234 15 -370 134.5t-136 293.5q0 191 163 320.5t433 129.5q262 0 430 -126t168 -326q0 -80 -35.5 -157.5t-104 -150t-151.5 -136t-195 -132.5l-188 -114h676v-322h-1176zM713 713q117 0 180 74t63 190
q0 155 -65.5 237t-177.5 82q-106 0 -173 -80.5t-67 -211.5t67 -211t173 -80z" />
    <glyph glyph-name="three.tf" 
d="M682 -27q-241 0 -394 132.5t-165 345.5h203q12 -127 97 -203t212 -76q126 0 197 80.5t71 202.5q0 110 -58 183t-153 73q-82 0 -160 -58l-20 -16l-100 125l403 352h-635v320h1063v-170l-495 -447q61 25 118 25q178 -19 290 -127t112 -275q0 -204 -159.5 -335.5
t-426.5 -131.5z" />
    <glyph glyph-name="four.tf" 
d="M774 0v317h-727v168l715 949h364v-830h217v-287h-217v-317h-352zM336 604h438v572z" />
    <glyph glyph-name="five.tf" 
d="M698 -27q-241 0 -395.5 125t-169.5 326h207q12 -109 94 -177.5t197 -68.5q128 0 206 84t78 211q0 123 -74.5 204t-197.5 81q-86 0 -160.5 -41.5t-115.5 -114.5l-185 2l111 830h909v-314h-762l-47 -319q135 117 350 117q151 0 271.5 -53t192 -156.5t71.5 -241.5
q0 -217 -162 -355.5t-418 -138.5z" />
    <glyph glyph-name="six.tf" 
d="M754 -31q-118 0 -221.5 38t-180 106.5t-132 161.5t-83.5 205.5t-28 236.5q0 212 78.5 381t228 267.5t344.5 98.5q214 0 360 -114t174 -295h-219q-22 95 -100 150t-189 55q-66 0 -122.5 -26.5t-103.5 -82t-74 -156t-27 -235.5q0 -25 2 -37q51 100 153.5 155.5t239.5 55.5
q214 0 355 -130.5t141 -334.5q0 -96 -39 -184.5t-111.5 -159.5t-188 -113.5t-257.5 -42.5zM750 141q104 0 169.5 93.5t65.5 232.5q0 131 -64 214t-173 83q-104 0 -173 -68t-77 -174q0 -162 72 -271.5t180 -109.5z" />
    <glyph glyph-name="seven.tf" 
d="M426 0q44 284 209 580.5t393 527.5h-938v326h1229v-168q-223 -247 -359.5 -584t-158.5 -682h-375z" />
    <glyph glyph-name="eight.tf" 
d="M717 -31q-281 0 -457 115.5t-176 298.5q0 124 85 215t257 137q-132 36 -213.5 128.5t-81.5 201.5q0 177 163 287t423 110t424 -110t164 -287q0 -109 -81.5 -201.5t-213.5 -128.5q173 -46 258.5 -137t85.5 -215q0 -183 -178 -298.5t-459 -115.5zM717 801q113 0 182.5 69
t69.5 183t-69.5 184t-182.5 70q-112 0 -181 -70t-69 -184t68.5 -183t181.5 -69zM717 129q121 0 194.5 72.5t73.5 191.5q0 117 -73.5 189.5t-194.5 72.5q-119 0 -192.5 -72.5t-73.5 -189.5q0 -118 73.5 -191t192.5 -73z" />
    <glyph glyph-name="nine.tf" 
d="M684 1464q196 0 344.5 -101t224.5 -269.5t76 -376.5q0 -158 -46 -295.5t-129.5 -237.5t-206 -157.5t-269.5 -57.5q-215 0 -361 114.5t-174 295.5h219q22 -95 100 -150t187 -55q66 0 123 26.5t104.5 82t75 156t27.5 235.5q0 25 -2 37q-53 -101 -155 -156t-240 -55
q-213 0 -353.5 130.5t-140.5 334.5q0 96 38.5 184.5t111 159t188.5 113t258 42.5zM686 1292q-103 0 -169 -93.5t-66 -231.5q0 -131 65 -214t172 -83q105 0 174.5 67.5t77.5 173.5q0 162 -72 271.5t-182 109.5z" />
    <glyph glyph-name="zero.tosf" 
d="M717 -31q-185 0 -333.5 83t-232 230.5t-83.5 331.5q0 138 49 258t134.5 205t206 134t259.5 49t260.5 -49t207 -134t134.5 -205t49 -258q0 -184 -83.5 -331.5t-232.5 -230.5t-335 -83zM717 154q126 0 204 126.5t78 333.5t-78 335t-204 128q-125 0 -203 -128t-78 -335
q0 -206 78 -333t203 -127z" />
    <glyph glyph-name="one.tosf" 
d="M174 0v184h395v721l-319 -223v229l444 318h230v-1045h385v-184h-1135z" />
    <glyph glyph-name="two.tosf" 
d="M113 0v147l465 267q74 48 108 92q-59 -22 -106 -19q-216 19 -346 119.5t-130 251.5q0 178 169 290t434 112q271 0 438.5 -110.5t167.5 -291.5q0 -141 -112 -246.5t-357 -226.5l-137 -76h639v-309h-1233zM707 578q116 0 178.5 66t62.5 169q0 135 -66 209t-175 74
q-107 0 -173.5 -72.5t-66.5 -189.5q0 -115 66.5 -185.5t173.5 -70.5z" />
    <glyph glyph-name="three.tosf" 
d="M672 -27q-241 0 -393 132.5t-166 345.5h202q13 -127 99 -203t211 -76q126 0 197 80.5t71 202.5q0 110 -57.5 183t-153.5 73q-82 0 -160 -58l-20 -16l-99 125l402 352h-635v320h1063v-170l-496 -447q61 25 121 25q177 -19 288 -127t111 -275q0 -204 -158.5 -335.5
t-426.5 -131.5z" />
    <glyph glyph-name="four.tosf" 
d="M793 -205v318h-727v168l714 948h365v-830h217v-286h-217v-318h-352zM354 399h439v572z" />
    <glyph glyph-name="five.tosf" 
d="M715 -231q-243 0 -397 124.5t-168 325.5h204q13 -110 95 -178t198 -68q127 0 206 84t79 211q0 122 -75.5 203.5t-197.5 81.5q-87 0 -162 -41.5t-116 -114.5l-184 2l110 830h910v-314h-762l-47 -319q135 117 350 117q151 0 271.5 -53t192.5 -156.5t72 -241.5
q0 -217 -162 -355t-417 -138z" />
    <glyph glyph-name="six.tosf" 
d="M752 -31q-148 0 -270.5 58.5t-204 160t-126.5 238t-45 291.5q0 212 79.5 381t229 267.5t343.5 98.5q215 0 360.5 -114t173.5 -295h-219q-22 95 -100 150t-187 55q-52 0 -98.5 -15.5t-89.5 -52.5t-73.5 -93.5t-49 -143t-18.5 -195.5q0 -25 2 -37q53 101 155 156t240 55
q139 0 252.5 -58.5t178.5 -165t65 -241.5q0 -96 -39 -184.5t-112 -159.5t-189 -113.5t-258 -42.5zM750 141q103 0 169 94t66 232q0 131 -65 214t-172 83q-104 0 -174 -68t-78 -174q0 -162 72 -271.5t182 -109.5z" />
    <glyph glyph-name="seven.tosf" 
d="M451 -205q44 285 208.5 581t391.5 527h-936v326h1226v-168q-222 -248 -359 -585t-159 -681h-372z" />
    <glyph glyph-name="eight.tosf" 
d="M735 -31q-281 0 -458 115.5t-177 298.5q0 123 85.5 214.5t256.5 137.5q-131 36 -211.5 129t-80.5 201q0 177 162.5 287t422.5 110t423 -110t163 -287q0 -108 -81 -201t-212 -129q172 -46 257 -137t85 -215q0 -183 -177 -298.5t-458 -115.5zM735 801q113 0 181.5 69
t68.5 183t-69 184t-181 70q-114 0 -182 -70t-68 -184t68 -183t182 -69zM735 129q120 0 193 72.5t73 191.5q0 117 -73 189.5t-193 72.5t-193 -72.5t-73 -189.5q0 -119 73 -191.5t193 -72.5z" />
    <glyph glyph-name="nine.tosf" 
d="M682 1260q148 0 270.5 -58.5t204.5 -160t127 -238t45 -291.5q0 -158 -46.5 -295.5t-130 -237.5t-206.5 -157.5t-270 -57.5q-214 0 -359.5 114.5t-173.5 295.5h219q22 -95 99 -150t188 -55q66 0 123 26.5t104.5 82t75 156t27.5 235.5q0 6 -1 18.5t-1 18.5
q-53 -101 -155 -156t-240 -55q-139 0 -252.5 58.5t-178.5 165t-65 241.5q0 96 39 184.5t111.5 159.5t188 113.5t257.5 42.5zM686 1087q-104 0 -169.5 -93t-65.5 -232q0 -131 64 -214t173 -83q104 0 174 68t78 174q0 162 -72 271t-182 109z" />
    <glyph glyph-name="colon.case" horiz-adv-x="657" 
d="M328 805q-94 0 -159 64t-65 159t65 159t159 64q95 0 159 -64t64 -159t-64 -159t-159 -64zM328 193q-94 0 -159 64t-65 159t65 159t159 64q95 0 159 -64t64 -159t-64 -159t-159 -64z" />
    <glyph glyph-name="exclamdown.case" horiz-adv-x="739" 
d="M371 1456q94 0 158.5 -64t64.5 -159t-64.5 -159t-158.5 -64q-95 0 -159.5 64t-64.5 159t64.5 159t159.5 64zM455 893l133 -893h-420l133 893h154z" />
    <glyph glyph-name="questiondown.case" horiz-adv-x="1171" 
d="M602 1456q95 0 159 -64t64 -159t-64 -159t-159 -64q-94 0 -158.5 64t-64.5 159t64.5 159t158.5 64zM711 897q14 -41 14 -82q0 -87 -43.5 -147.5t-132.5 -112.5q-59 -44 -87 -93.5t-28 -115.5q0 -83 53.5 -131.5t143.5 -48.5q114 0 184.5 75t81.5 199h209
q-15 -217 -157.5 -344t-377.5 -127q-100 0 -189.5 23t-160.5 67t-113 114t-42 157q0 111 69.5 187t194.5 132q58 31 92 52.5t64 51t42.5 64t12.5 80.5h170z" />
    <glyph glyph-name="asterisk.case" horiz-adv-x="2179" 
d="M995 -80l45 512l-397 -354l-350 104l98 353h608l-753 231v354l327 84l451 -538l-258 723l324 272l323 -272l-258 -723l451 538l327 -84v-354l-753 -231h608l98 -353l-350 -104l-397 354l45 -512h-189z" />
    <glyph glyph-name="bullet.ss01" horiz-adv-x="2179" 
d="M995 -80l45 512l-397 -354l-350 104l98 353h608l-753 231v354l327 84l451 -538l-258 723l324 272l323 -272l-258 -723l451 538l327 -84v-354l-753 -231h608l98 -353l-350 -104l-397 354l45 -512h-189z" />
    <glyph glyph-name="asterisk.ss01" horiz-adv-x="759" 
d="M326 782v242l-209 -121l-56 96l209 121l-209 119l56 94l209 -121v242h108v-242l211 121l55 -94l-211 -119l211 -121l-55 -96l-211 121v-242h-108z" />
    <glyph glyph-name="parenleft.case" horiz-adv-x="1024" 
d="M838 -31q-187 0 -333 95t-226 265t-80 388t80 388t226 264.5t333 94.5v-164q-151 0 -238.5 -156t-87.5 -427q0 -270 87.5 -426t238.5 -156v-166z" />
    <glyph glyph-name="parenright.case" horiz-adv-x="1024" 
d="M188 1464q186 0 332 -94.5t226.5 -264.5t80.5 -388q0 -163 -47 -302t-130.5 -237t-202.5 -153.5t-259 -55.5v166q151 0 238.5 156t87.5 426q0 271 -87.5 427t-238.5 156v164z" />
    <glyph glyph-name="braceleft.case" horiz-adv-x="1024" 
d="M614 -31q-150 0 -237.5 70t-87.5 205q0 64 30.5 164t30.5 139q0 53 -25.5 76.5t-80.5 23.5h-99v141h99q55 0 80.5 24t25.5 77q0 40 -30.5 149t-30.5 166q0 127 88 193.5t237 66.5q137 0 246 -28v-166q-88 20 -145 20q-127 0 -127 -123q0 -39 23.5 -131.5t23.5 -132.5
q0 -72 -43 -118.5t-141 -67.5q184 -37 184 -187q0 -39 -23.5 -132t-23.5 -132q0 -121 127 -121q65 0 145 21v-168q-113 -29 -246 -29z" />
    <glyph glyph-name="braceright.case" horiz-adv-x="1024" 
d="M410 1464q152 0 239.5 -68.5t87.5 -205.5q0 -64 -30.5 -163t-30.5 -138q0 -54 25 -77.5t79 -23.5h101v-141h-101q-55 0 -79.5 -23.5t-24.5 -76.5q0 -40 30.5 -150.5t30.5 -167.5q0 -126 -88.5 -193t-238.5 -67q-133 0 -246 29v168q80 -21 145 -21q127 0 127 121
q0 39 -23.5 132t-23.5 132q0 150 184 187q-184 40 -184 186q0 40 23.5 132.5t23.5 131.5q0 123 -127 123q-57 0 -145 -20v166q109 28 246 28z" />
    <glyph glyph-name="bracketleft.case" horiz-adv-x="1024" 
d="M258 0v1434h610v-170h-311v-1094h311v-170h-610z" />
    <glyph glyph-name="bracketright.case" horiz-adv-x="1024" 
d="M766 1434v-1434h-610v170h311v1094h-311v170h610z" />
    <glyph glyph-name="hyphen.case" horiz-adv-x="835" 
d="M147 616v203h543v-203h-543z" />
    <glyph glyph-name="endash.case" horiz-adv-x="1140" 
d="M147 633v170h846v-170h-846z" />
    <glyph glyph-name="emdash.case" horiz-adv-x="1546" 
d="M147 633v170h1252v-170h-1252z" />
    <glyph glyph-name="guillemotleft.case" horiz-adv-x="1134" 
d="M555 1126l-223 -409l223 -410h-205l-217 398v24l217 397h205zM1004 1126l-224 -409l224 -410h-205l-217 398v24l217 397h205z" />
    <glyph glyph-name="guillemotright.case" horiz-adv-x="1134" 
d="M133 307l223 410l-223 409h205l217 -397v-24l-217 -398h-205zM582 307l223 410l-223 409h204l218 -397v-24l-218 -398h-204z" />
    <glyph glyph-name="guilsinglleft.case" horiz-adv-x="686" 
d="M555 1126l-223 -409l223 -410h-205l-217 398v24l217 397h205z" />
    <glyph glyph-name="guilsinglright.case" horiz-adv-x="686" 
d="M133 307l223 410l-223 409h205l217 -397v-24l-217 -398h-205z" />
    <glyph glyph-name="at.case" horiz-adv-x="1679" 
d="M840 -31q-208 0 -379.5 98.5t-270 270t-98.5 379.5t98.5 379.5t270 269.5t379.5 98q156 0 294.5 -58t237.5 -157t157 -237.5t58 -294.5q0 -226 -114 -406h-484v142q-45 -78 -124.5 -118t-182.5 -40q-132 0 -207.5 60.5t-75.5 164.5q0 226 375 250q112 9 159.5 37.5
t47.5 83.5q0 63 -43 97t-113 34q-82 0 -140 -47.5t-71 -126.5h-147q19 144 124.5 227.5t264.5 83.5q171 0 277 -93t106 -251v-364h191q61 125 61 266q0 136 -50 257t-136.5 207.5t-207.5 136.5t-257 50q-135 0 -256 -50t-207 -136.5t-136.5 -207.5t-50.5 -257
q0 -181 85.5 -330t234.5 -234t330 -85q264 0 450 165l64 -71q-209 -193 -514 -193zM778 432q78 0 142.5 74t64.5 166v73q-17 -17 -56 -32t-83 -21q-93 -15 -132.5 -50t-39.5 -99q0 -111 104 -111z" />
    <glyph glyph-name="bar.case" horiz-adv-x="688" 
d="M258 0v1434h172v-1434h-172z" />
    <glyph glyph-name="brokenbar.case" horiz-adv-x="688" 
d="M258 860v574h172v-574h-172zM258 0v573h172v-573h-172z" />
    <glyph glyph-name="ampersand.ss02" horiz-adv-x="1239" 
d="M637 -20q-248 0 -402.5 139t-154.5 364q0 179 104 310t275 176v311h-348v174h1030v-174h-348v-307q179 -38 285.5 -168.5t109.5 -317.5q0 -33 -4 -51h-772q13 -145 84 -221t190 -76q88 0 153 42.5t93 117.5h203q-30 -139 -163 -229t-335 -90zM414 549h442
q-10 152 -68.5 230.5t-152.5 78.5q-92 0 -150.5 -78.5t-70.5 -214.5v-16z" />
    <glyph glyph-name="uni030C.alt" horiz-adv-x="0" 
d="M-487 1106v328h299l-146 -328h-153z" />
    <glyph glyph-name="uni0308.cv01" horiz-adv-x="0" 
d="M-248 1526l-182 -398h-19l-165 361l-166 -361h-19l-180 398h731z" />
    <glyph glyph-name="uni0307.cv01" horiz-adv-x="0" 
d="M-625 1128l-192 398h405l-192 -398h-21z" />
    <glyph glyph-name="brevecombcy" horiz-adv-x="0" 
d="M-614 1130q-180 0 -291 113t-111 291v14h152v-12q0 -76 64 -118t186 -42q123 0 186 42t63 118v12h154v-14q0 -178 -111.5 -291t-291.5 -113z" />
    </font>
</defs>
</svg>
