<?xml version="1.0" standalone="no"?>
<!DOCTYPE svg PUBLIC "-//W3C//DTD SVG 1.1//EN" "http://www.w3.org/Graphics/SVG/1.1/DTD/svg11.dtd" >
<svg xmlns="http://www.w3.org/2000/svg" xmlns:xlink="http://www.w3.org/1999/xlink" version="1.1">
<metadata>
Created by FontForge 20170731 at Sun Nov  6 16:45:35 2022
 By Aleksey,,,
Copyright (c) 2019 by Dmitry Rastvortsev. Ordered by Projector, Dmytro Bulanov Creative Bu:ro and Banda Agency for Kyiv city identification. Long live Free Ukraine!
</metadata>
<defs>
<font id="KyivTypeSans-Medium2" horiz-adv-x="1433" >
  <font-face 
    font-family="KyivType Sans Medium2"
    font-weight="500"
    font-stretch="normal"
    units-per-em="2048"
    panose-1="0 0 6 0 0 0 0 0 0 0"
    ascent="1638"
    descent="-410"
    x-height="1024"
    cap-height="1434"
    bbox="-1006 -502 2378 2105"
    underline-thickness="102"
    underline-position="-307"
    unicode-range="U+000D-2605"
  />
<missing-glyph horiz-adv-x="2179" 
d="M995 -82l45 512l-397 -354l-350 104l98 352h608l-753 232v354l327 84l451 -538l-258 722l324 273l323 -273l-258 -722l451 538l327 -84v-354l-753 -232h608l98 -352l-350 -104l-397 354l45 -512h-189z" />
    <glyph glyph-name=".notdef" horiz-adv-x="2179" 
d="M995 -82l45 512l-397 -354l-350 104l98 352h608l-753 232v354l327 84l451 -538l-258 722l324 273l323 -273l-258 -722l451 538l327 -84v-354l-753 -232h608l98 -352l-350 -104l-397 354l45 -512h-189z" />
    <glyph glyph-name=".null" horiz-adv-x="921" 
 />
    <glyph glyph-name="nonmarkingreturn" horiz-adv-x="682" 
 />
    <glyph glyph-name="CR" unicode="&#xd;" horiz-adv-x="512" 
 />
    <glyph glyph-name="space" unicode=" " horiz-adv-x="512" 
 />
    <glyph glyph-name="exclam" unicode="!" horiz-adv-x="655" 
d="M270 471l-80 963h267l-80 -963h-107zM328 -18q-65 0 -109.5 44.5t-44.5 110.5q0 65 45 109.5t109 44.5q66 0 109.5 -44.5t43.5 -109.5q0 -66 -43.5 -110.5t-109.5 -44.5z" />
    <glyph glyph-name="quotedbl" unicode="&#x22;" horiz-adv-x="727" 
d="M195 993l-117 451h256l-119 -451h-20zM512 993l-117 451h256l-119 -451h-20z" />
    <glyph glyph-name="numbersign" unicode="#" 
d="M434 -31v338h-280v211h280v400h-280v208h280v338h117v-338h334v338h116v-338h279v-208h-279v-400h279v-211h-279v-338h-116v338h-334v-338h-117zM551 518h334v400h-334v-400z" />
    <glyph glyph-name="dollar" unicode="$" 
d="M690 -266v237q-237 14 -389.5 147t-177.5 355h139q28 -178 155 -279.5t318 -101.5q165 0 261 63t96 181q0 38 -11.5 70t-28.5 56t-49 45t-60.5 35t-77 29t-83.5 24t-94 23q-46 12 -74 19.5t-73 20.5t-73.5 24.5t-68.5 28.5t-65.5 35t-55.5 41t-48.5 50t-35.5 58.5
t-24.5 70t-7.5 81.5q0 126 67 219.5t181.5 143t263.5 54.5v236h102v-238q218 -15 358.5 -143.5t161.5 -345.5h-143q-25 173 -140 269.5t-294 96.5q-147 0 -244.5 -63.5t-97.5 -177.5q0 -28 7.5 -53.5t17.5 -44.5t32 -38t38 -31t51 -26.5t54 -22t63.5 -20t65 -17.5t70.5 -18
q56 -14 89.5 -23t85.5 -24.5t84 -29t75 -35t69.5 -43t55.5 -52t45 -64.5t26.5 -77t10.5 -92q0 -191 -144 -299.5t-380 -116.5v-237h-103z" />
    <glyph glyph-name="percent" unicode="%" horiz-adv-x="1583" 
d="M414 764q-144 0 -243 98.5t-99 241.5q0 145 98.5 242.5t243.5 97.5q143 0 241.5 -98t98.5 -242q0 -142 -99 -241t-241 -99zM305 0l856 1434h117l-856 -1434h-117zM414 866q83 0 137.5 67t54.5 171q0 105 -54 171t-138 66q-85 0 -140 -66t-55 -171q0 -104 55 -171t140 -67
zM1171 -10q-145 0 -243.5 98.5t-98.5 243.5q0 143 99 241.5t243 98.5q143 0 241.5 -99t98.5 -241q0 -144 -98.5 -243t-241.5 -99zM1171 92q84 0 138.5 67.5t54.5 172.5q0 104 -54.5 170.5t-138.5 66.5q-85 0 -139.5 -66.5t-54.5 -170.5q0 -106 54.5 -173t139.5 -67z" />
    <glyph glyph-name="ampersand" unicode="&#x26;" horiz-adv-x="1492" 
d="M592 -31q-241 0 -386 121t-145 320q0 178 122.5 289.5t328.5 125.5h8l-368 484v125h1038v-129h-756l680 -881q82 158 100 362h138q-21 -281 -144 -473l236 -313h-281l-114 145q-185 -176 -457 -176zM623 96q207 0 344 146l-369 491h-33q-130 -9 -208 -93t-78 -212
q0 -146 92 -239t252 -93z" />
    <glyph glyph-name="quotesingle" unicode="'" horiz-adv-x="409" 
d="M195 993l-117 451h256l-119 -451h-20z" />
    <glyph glyph-name="parenleft" unicode="(" horiz-adv-x="1024" 
d="M797 -236q-172 0 -305 120t-206 336.5t-73 496.5t73 497t206 336t305 119v-115q-115 0 -200.5 -101.5t-132 -291t-46.5 -444.5t46.5 -444.5t132 -291.5t200.5 -102v-115z" />
    <glyph glyph-name="parenright" unicode=")" horiz-adv-x="1024" 
d="M229 1669q171 0 304 -119t206.5 -336t73.5 -497q0 -279 -73.5 -496t-206.5 -337t-304 -120v115q115 0 200.5 102t132 291.5t46.5 444.5t-46.5 444.5t-132 291t-200.5 101.5v115z" />
    <glyph glyph-name="asterisk" unicode="*" horiz-adv-x="798" 
d="M360 930l19 205l-158 -142l-141 41l39 142h243l-301 92v141l132 35l180 -215l-103 289l129 108l129 -108l-102 -289l180 215l131 -35v-141l-303 -92h244l39 -142l-139 -41l-160 142l18 -205h-76z" />
    <glyph glyph-name="plus" unicode="+" horiz-adv-x="1146" 
d="M993 776v-117h-360v-362h-117v362h-362v117h362v361h117v-361h360z" />
    <glyph glyph-name="comma" unicode="," horiz-adv-x="573" 
d="M287 -215h-109v4q118 99 141 223q-22 -22 -51 -22q-61 9 -98 50t-37 97q0 63 43.5 108.5t110.5 45.5q66 0 110.5 -44.5t44.5 -119.5q0 -89 -46.5 -192t-108.5 -150z" />
    <glyph glyph-name="hyphen" unicode="-" horiz-adv-x="829" 
d="M154 547v137h522v-137h-522z" />
    <glyph glyph-name="period" unicode="." horiz-adv-x="573" 
d="M287 -18q-65 0 -109.5 44.5t-44.5 110.5q0 65 44.5 109.5t109.5 44.5q66 0 109.5 -44.5t43.5 -109.5q0 -66 -43.5 -110.5t-109.5 -44.5z" />
    <glyph glyph-name="slash" unicode="/" horiz-adv-x="972" 
d="M78 0l692 1434h125l-692 -1434h-125z" />
    <glyph glyph-name="zero" unicode="0" horiz-adv-x="1474" 
d="M737 -31q-180 0 -323 96t-223 267t-80 385q0 215 80 386t223 266t323 95q136 0 253 -56t199.5 -154t129.5 -237t47 -300q0 -214 -80 -385t-224 -267t-325 -96zM737 96q174 0 283.5 172.5t109.5 448.5q0 277 -109.5 449.5t-283.5 172.5t-282.5 -172t-108.5 -450
q0 -276 109 -448.5t282 -172.5z" />
    <glyph glyph-name="one" unicode="1" horiz-adv-x="845" 
d="M373 0v1221l-324 -215v153l402 275h151v-1434h-229z" />
    <glyph glyph-name="two" unicode="2" horiz-adv-x="1292" 
d="M94 0v115l561 381q118 82 183 178q-96 -83 -244 -80q-234 9 -376 129t-142 299q0 190 158 316t413 126q251 0 412.5 -124t161.5 -320q0 -284 -437 -567l-364 -244h825v-209h-1151zM647 686q157 0 251.5 88.5t94.5 224.5q0 161 -96 255t-250 94q-152 0 -248 -92t-96 -240
q0 -146 96 -238t248 -92z" />
    <glyph glyph-name="three" unicode="3" horiz-adv-x="1196" 
d="M582 -29q-234 0 -384.5 130t-158.5 333h137q7 -146 112.5 -237t264.5 -91q160 0 257 96t97 242q0 135 -77.5 221.5t-204.5 86.5q-117 0 -201 -64l-23 -16l-71 88l516 467h-764v207h1036v-123l-545 -500q71 35 156 35q183 -11 297.5 -122.5t114.5 -287.5
q0 -202 -154.5 -333.5t-404.5 -131.5z" />
    <glyph glyph-name="four" unicode="4" horiz-adv-x="1312" 
d="M805 0v354h-780v117l768 963h237v-893h275v-187h-275v-354h-225zM219 541h586v721z" />
    <glyph glyph-name="five" unicode="5" horiz-adv-x="1275" 
d="M629 -29q-235 0 -386.5 120t-166.5 315h139q13 -132 116.5 -213.5t256.5 -81.5q166 0 268 101t102 261q0 151 -97.5 247.5t-256.5 96.5q-121 0 -214 -50.5t-134 -139.5l-129 2l115 805h884v-203h-784l-68 -451q65 71 165.5 109.5t224.5 38.5q231 0 379.5 -125t148.5 -334
q0 -220 -157 -359t-406 -139z" />
    <glyph glyph-name="six" unicode="6" horiz-adv-x="1398" 
d="M735 -31q-187 0 -329.5 98t-217.5 267t-75 383q0 216 77 385.5t221.5 265.5t333.5 96q207 0 349.5 -110.5t169.5 -284.5h-148q-23 116 -120 187t-234 71q-91 0 -167 -36.5t-134 -107t-90.5 -183.5t-32.5 -257q0 -49 6 -98q44 134 166 211.5t289 77.5q221 0 366.5 -133.5
t145.5 -341.5q0 -97 -41 -185.5t-114 -156t-182.5 -108t-238.5 -40.5zM733 88q147 0 245.5 107t98.5 262q0 158 -95.5 259t-246.5 101q-149 0 -249 -91t-105 -226q0 -103 43 -196.5t125.5 -154.5t183.5 -61z" />
    <glyph glyph-name="seven" unicode="7" horiz-adv-x="1200" 
d="M373 0q38 324 208.5 654t399.5 569h-944v211h1143v-123q-228 -245 -384.5 -598.5t-183.5 -712.5h-239z" />
    <glyph glyph-name="eight" unicode="8" horiz-adv-x="1402" 
d="M702 -31q-264 0 -433 114t-169 292q0 129 94 223t267 135q-145 37 -233.5 130t-88.5 208q0 170 158 279.5t405 109.5t405.5 -109.5t158.5 -279.5q0 -115 -88.5 -208t-233.5 -130q173 -41 267 -135t94 -223q0 -178 -169.5 -292t-433.5 -114zM702 780q152 0 249.5 80
t97.5 205q0 126 -97 205.5t-250 79.5q-154 0 -250 -79.5t-96 -205.5q0 -125 96.5 -205t249.5 -80zM702 82q161 0 264 83.5t103 215.5q0 130 -103 213.5t-264 83.5t-263.5 -83t-102.5 -214q0 -132 102.5 -215.5t263.5 -83.5z" />
    <glyph glyph-name="nine" unicode="9" horiz-adv-x="1398" 
d="M664 1464q140 0 257.5 -56.5t197 -156t123.5 -237t44 -297.5q0 -216 -77 -385.5t-222 -266t-334 -96.5q-207 0 -349 111t-169 285h148q23 -116 120 -187.5t234 -71.5q91 0 167 36.5t134 107t90.5 183.5t32.5 257q0 48 -6 98q-44 -134 -166 -211t-289 -77
q-221 0 -366.5 133.5t-145.5 341.5q0 97 41 185.5t114 156t182.5 107.5t238.5 40zM666 1346q-147 0 -245.5 -107t-98.5 -262q0 -158 95.5 -259.5t246.5 -101.5q149 0 249 91.5t105 226.5q0 103 -43 196.5t-125.5 154.5t-183.5 61z" />
    <glyph glyph-name="colon" unicode=":" horiz-adv-x="573" 
d="M287 678q-65 0 -109.5 45t-44.5 111q0 64 44.5 108.5t109.5 44.5q66 0 109.5 -44t43.5 -109q0 -66 -43.5 -111t-109.5 -45zM287 -18q-65 0 -109.5 44.5t-44.5 110.5q0 65 44.5 109.5t109.5 44.5q66 0 109.5 -44.5t43.5 -109.5q0 -66 -43.5 -110.5t-109.5 -44.5z" />
    <glyph glyph-name="semicolon" unicode=";" horiz-adv-x="575" 
d="M287 678q-65 0 -109.5 45t-44.5 111q0 64 44.5 108.5t109.5 44.5q66 0 109.5 -44t43.5 -109q0 -66 -43.5 -111t-109.5 -45zM287 -215h-109v4q118 99 141 223q-22 -22 -51 -22q-61 9 -98 50t-37 97q0 63 43.5 108.5t110.5 45.5q66 0 110.5 -44.5t44.5 -119.5
q0 -89 -46.5 -192t-108.5 -150z" />
    <glyph glyph-name="less" unicode="&#x3c;" horiz-adv-x="1146" 
d="M993 1155v-127l-657 -307l657 -309v-131l-839 393v86z" />
    <glyph glyph-name="equal" unicode="=" horiz-adv-x="1146" 
d="M154 864v117h839v-117h-839zM154 455v116h839v-116h-839z" />
    <glyph glyph-name="greater" unicode="&#x3e;" horiz-adv-x="1146" 
d="M154 281v125l657 309l-657 309v131l839 -395v-86z" />
    <glyph glyph-name="question" unicode="?" horiz-adv-x="1150" 
d="M481 469q-8 24 -8 51q0 109 49.5 179.5t145.5 134.5q74 59 111.5 115.5t37.5 140.5q0 114 -75.5 177.5t-196.5 63.5q-148 0 -232.5 -95t-87.5 -249h-139q5 218 137.5 347.5t358.5 129.5q128 0 233 -39.5t172.5 -124t67.5 -200.5q0 -60 -18.5 -111.5t-52.5 -90t-72 -66.5
t-87 -54q-49 -31 -78.5 -52t-61.5 -50.5t-48.5 -57.5t-27.5 -66t-11 -83h-117zM559 -18q-66 0 -109.5 44.5t-43.5 110.5q0 65 43.5 109.5t109.5 44.5q65 0 109.5 -44.5t44.5 -109.5q0 -66 -44.5 -110.5t-109.5 -44.5z" />
    <glyph glyph-name="at" unicode="@" horiz-adv-x="1679" 
d="M840 -342q-208 0 -379.5 98.5t-270 270t-98.5 379.5t98.5 379.5t270 269.5t379.5 98q156 0 294.5 -58t237.5 -157t157 -237.5t58 -294.5q0 -230 -114 -406h-420v182q-44 -95 -136.5 -147.5t-211.5 -52.5q-128 0 -202.5 60t-74.5 159q0 118 99.5 179.5t316.5 74.5
q113 9 159 34t46 76q0 82 -59.5 133.5t-153.5 51.5q-100 0 -168.5 -56.5t-85.5 -154.5h-105q20 144 121.5 226.5t255.5 82.5q164 0 264.5 -91.5t100.5 -246.5v-410h219q75 138 75 306q0 141 -52 265.5t-141.5 214t-214 141.5t-265.5 52q-140 0 -264.5 -52t-214 -141.5
t-141.5 -214t-52 -265.5q0 -187 88.5 -341t242.5 -242.5t341 -88.5q277 0 471 178l49 -53q-210 -201 -520 -201zM764 80q116 0 201.5 86.5t85.5 204.5v73q-54 -41 -181 -53q-136 -13 -199 -55t-63 -119q0 -66 41 -101.5t115 -35.5z" />
    <glyph glyph-name="A" unicode="A" horiz-adv-x="1449" 
d="M31 0l569 1434h250l567 -1434h-262l-162 412h-651l-162 -412h-149zM381 530h573l-282 711h-8z" />
    <glyph glyph-name="B" unicode="B" horiz-adv-x="1478" 
d="M229 0v1434h562q250 0 389 -98.5t139 -272.5q0 -121 -72 -207t-203 -123v-8q157 -32 243.5 -122t86.5 -222q0 -175 -143.5 -278t-396.5 -103h-605zM469 776h317q144 0 222.5 70t78.5 198q0 129 -79.5 199t-225.5 70h-313v-537zM469 121h342q152 0 235.5 70.5t83.5 199.5
q0 127 -85 199t-236 72h-340v-541z" />
    <glyph glyph-name="C" unicode="C" horiz-adv-x="1619" 
d="M850 -31q-159 0 -295 55.5t-232 153.5t-150 237t-54 302q0 218 92.5 388.5t259 264.5t379.5 94q177 0 323.5 -74t238 -208t110.5 -305h-146q-31 193 -165.5 312.5t-325.5 119.5q-229 0 -372.5 -164t-143.5 -428q0 -262 144 -427t372 -165q191 0 325.5 120.5t165.5 313.5
h146q-19 -171 -110.5 -305.5t-238 -209.5t-323.5 -75z" />
    <glyph glyph-name="D" unicode="D" horiz-adv-x="1587" 
d="M229 0v1434h451q236 0 415.5 -89.5t277 -252.5t97.5 -375q0 -321 -217 -519t-573 -198h-451zM475 131h211q247 0 389 155.5t142 430.5q0 277 -142 432.5t-389 155.5h-211v-1174z" />
    <glyph glyph-name="E" unicode="E" horiz-adv-x="1255" 
d="M229 0v1434h883v-127h-641v-529h453v-121h-453v-528h723v-129h-965z" />
    <glyph glyph-name="F" unicode="F" horiz-adv-x="1159" 
d="M229 0v1434h908v-136h-662v-532h479v-129h-479v-637h-246z" />
    <glyph glyph-name="G" unicode="G" horiz-adv-x="1687" 
d="M811 -31q-199 0 -357 94.5t-246.5 264.5t-88.5 385q0 220 93 391.5t258 265.5t374 94q261 0 438.5 -143.5t222.5 -380.5h-149q-40 172 -164.5 273.5t-306.5 101.5q-229 0 -372.5 -167t-143.5 -433q0 -267 142.5 -435.5t362.5 -168.5q181 0 300.5 120t130.5 308v94h-424
v115h667v-748h-221v285q-62 -148 -196.5 -232t-319.5 -84z" />
    <glyph glyph-name="H" unicode="H" horiz-adv-x="1679" 
d="M229 0v1434h246v-648h731v648h246v-1434h-246v647h-731v-647h-246z" />
    <glyph glyph-name="I" unicode="I" horiz-adv-x="702" 
d="M229 0v1434h246v-1434h-246z" />
    <glyph glyph-name="J" unicode="J" horiz-adv-x="1282" 
d="M575 -31q-229 0 -368 143t-139 386v96h141v-88q0 -170 88 -272.5t231 -102.5q139 0 222.5 97.5t83.5 260.5v945h245v-926q0 -249 -137 -394t-367 -145z" />
    <glyph glyph-name="K" unicode="K" horiz-adv-x="1486" 
d="M229 0v1434h244v-648h199l530 648h162l-500 -625l578 -809h-293l-473 647h-203v-647h-244z" />
    <glyph glyph-name="L" unicode="L" horiz-adv-x="1234" 
d="M229 0v1434h246v-1295h703v-139h-949z" />
    <glyph glyph-name="M" unicode="M" horiz-adv-x="2033" 
d="M229 0v1434h326l469 -1129l465 1129h317v-1434h-243v1264l-516 -1264h-162l-514 1255v-1255h-142z" />
    <glyph glyph-name="N" unicode="N" horiz-adv-x="1658" 
d="M225 0v1434h250l823 -1088v1088h136v-1454h-152l-920 1202v-1182h-137z" />
    <glyph glyph-name="O" unicode="O" horiz-adv-x="1726" 
d="M864 -31q-159 0 -297.5 57t-236.5 155.5t-154.5 237.5t-56.5 298q0 213 96 384t266.5 267t382.5 96q159 0 297.5 -56.5t236.5 -155t154 -237t56 -298.5q0 -159 -56 -298t-154 -237.5t-236.5 -155.5t-297.5 -57zM864 111q220 0 357 165t137 441q0 277 -137 442.5
t-357 165.5q-222 0 -358.5 -165.5t-136.5 -442.5q0 -276 136.5 -441t358.5 -165z" />
    <glyph glyph-name="P" unicode="P" horiz-adv-x="1370" 
d="M229 0v1434h480q269 0 419 -114t150 -316q0 -201 -150.5 -316t-418.5 -115h-236v-573h-244zM473 692h234q154 0 239.5 81t85.5 226t-85.5 226.5t-239.5 81.5h-234v-615z" />
    <glyph glyph-name="Q" unicode="Q" horiz-adv-x="1726" 
d="M741 -410v394q-275 38 -448.5 240.5t-173.5 492.5q0 213 96 384t266.5 267t382.5 96q159 0 297.5 -56.5t236.5 -155t154 -237t56 -298.5q0 -144 -46.5 -271.5t-128 -222.5t-196.5 -157.5t-250 -81.5v-394h-246zM864 111q220 0 357 165t137 441q0 277 -137 442.5
t-357 165.5q-222 0 -358.5 -165.5t-136.5 -442.5q0 -276 136.5 -441t358.5 -165z" />
    <glyph glyph-name="R" unicode="R" horiz-adv-x="1460" 
d="M229 0v1434h492q266 0 418.5 -113t152.5 -309q0 -141 -88 -239.5t-243 -137.5l469 -635h-281l-442 592h-33h-201v-592h-244zM473 711h248q158 0 246 79t88 218q0 140 -88 218.5t-246 78.5h-248v-594z" />
    <glyph glyph-name="S" unicode="S" horiz-adv-x="1353" 
d="M696 -31q-262 0 -433 134t-195 370h141q28 -178 155.5 -279.5t319.5 -101.5q166 0 263 63t97 181q0 34 -7.5 62t-25 51.5t-36 41.5t-50.5 34.5t-58.5 28t-70.5 24t-75.5 20.5t-83.5 20q-52 13 -83.5 21t-82 23.5t-82.5 28.5t-75 34t-69.5 42.5t-56 51.5t-46 63t-27.5 75
t-11 90q0 103 45 184t122.5 131t176 76t209.5 26q245 0 408 -129t186 -362h-147q-25 173 -141 269.5t-295 96.5q-147 0 -244.5 -63.5t-97.5 -177.5q0 -29 7.5 -54t17.5 -44.5t31.5 -37.5t38.5 -31t50.5 -27t54.5 -22t64 -20t65.5 -17.5t71.5 -17.5q86 -21 135.5 -35
t123.5 -40.5t117 -57t87 -73.5t64 -102t20 -132q0 -134 -75.5 -229.5t-204.5 -142t-298 -46.5z" />
    <glyph glyph-name="T" unicode="T" horiz-adv-x="1351" 
d="M553 0v1294h-516v140h1280v-140h-518v-1294h-246z" />
    <glyph glyph-name="U" unicode="U" horiz-adv-x="1613" 
d="M817 -31q-281 0 -448.5 170.5t-167.5 456.5v838h245v-832q0 -231 110 -355t306 -124q192 0 305 132t113 355v824h143v-830q0 -292 -164 -463.5t-442 -171.5z" />
    <glyph glyph-name="V" unicode="V" horiz-adv-x="1470" 
d="M610 0l-565 1434h262l484 -1235h6l483 1235h152l-568 -1434h-254z" />
    <glyph glyph-name="W" unicode="W" horiz-adv-x="2103" 
d="M475 0l-409 1434h253l345 -1190l331 1190h213l344 -1190l349 1190h143l-410 -1434h-250l-335 1167l-324 -1167h-250z" />
    <glyph glyph-name="X" unicode="X" horiz-adv-x="1429" 
d="M43 0l526 711l-514 723h285l410 -560l421 560h166l-491 -654l551 -780h-287l-440 610l-459 -610h-168z" />
    <glyph glyph-name="Y" unicode="Y" horiz-adv-x="1384" 
d="M571 0v551l-561 883h273l467 -748l467 748h159l-559 -885v-549h-246z" />
    <glyph glyph-name="Z" unicode="Z" horiz-adv-x="1316" 
d="M82 0v119l848 1181h-805v134h1106v-117l-848 -1184h848v-133h-1149z" />
    <glyph glyph-name="bracketleft" unicode="[" horiz-adv-x="1024" 
d="M287 -205v1843h553v-116h-359v-1610h359v-117h-553z" />
    <glyph glyph-name="backslash" unicode="\" horiz-adv-x="972" 
d="M770 0l-692 1434h125l692 -1434h-125z" />
    <glyph glyph-name="bracketright" unicode="]" horiz-adv-x="1024" 
d="M737 1638v-1843h-553v117h359v1610h-359v116h553z" />
    <glyph glyph-name="asciicircum" unicode="^" horiz-adv-x="1146" 
d="M166 809l360 625h97l358 -625h-131l-277 481l-276 -481h-131z" />
    <glyph glyph-name="underscore" unicode="_" horiz-adv-x="942" 
d="M61 -106v116h820v-116h-820z" />
    <glyph glyph-name="a" unicode="a" horiz-adv-x="1228" 
d="M412 -23q-161 0 -248.5 74t-87.5 197q0 277 489 311q134 10 201.5 39.5t67.5 89.5q0 111 -73 176.5t-190 65.5q-122 0 -204.5 -72t-104.5 -196h-121q25 178 150 280t313 102q197 0 316.5 -112.5t119.5 -304.5v-510h131v-117h-327v225q-55 -117 -169.5 -182.5
t-262.5 -65.5zM481 94q148 0 251.5 104.5t103.5 258.5l2 96q-53 -47 -217 -64q-171 -19 -248.5 -71.5t-77.5 -149.5q0 -85 49.5 -129.5t136.5 -44.5z" />
    <glyph glyph-name="b" unicode="b" horiz-adv-x="1355" 
d="M772 -20q-131 0 -230 63.5t-151 177.5v-221h-207v1454h215v-643q52 110 148.5 171.5t224.5 61.5q212 0 352 -150t140 -382q0 -231 -140 -381.5t-352 -150.5zM725 109q139 0 229 109.5t90 293.5q0 185 -89.5 294t-229.5 109q-142 0 -237 -116t-95 -287t95 -287t237 -116z
" />
    <glyph glyph-name="c" unicode="c" horiz-adv-x="1214" 
d="M635 -20q-236 0 -389.5 150.5t-153.5 381.5q0 232 153.5 382t389.5 150q203 0 338.5 -111t163.5 -296h-127q-28 129 -119.5 206t-222.5 77q-160 0 -258.5 -112.5t-98.5 -295.5q0 -182 98.5 -294t258.5 -112q131 0 222.5 76.5t119.5 206.5h127q-28 -186 -163.5 -297.5
t-338.5 -111.5z" />
    <glyph glyph-name="d" unicode="d" horiz-adv-x="1355" 
d="M586 -20q-212 0 -353 150.5t-141 381.5q0 232 141 382t353 150q128 0 224 -61.5t146 -171.5v643h215v-1454h-204v221q-53 -114 -152 -177.5t-229 -63.5zM631 109q142 0 238 116t96 287t-96 287t-238 116q-138 0 -228 -109t-90 -294q0 -184 90 -293.5t228 -109.5z" />
    <glyph glyph-name="e" unicode="e" horiz-adv-x="1249" 
d="M637 -20q-237 0 -391 149.5t-154 380.5q0 232 156 383t393 151q233 0 384 -149.5t153 -380.5q0 -29 -2 -41h-869q10 -172 109 -274.5t252 -102.5q118 0 207 57t126 154h129q-38 -145 -170 -236t-323 -91zM965 555q-9 178 -99.5 281.5t-228.5 103.5t-229.5 -104.5
t-100.5 -270.5v-10h658z" />
    <glyph glyph-name="f" unicode="f" horiz-adv-x="911" 
d="M276 0v907h-198v117h198v109q0 179 107 281t291 102q162 0 263 -86t101 -226h-120v6q-1 87 -68.5 142t-169.5 55q-105 0 -172.5 -56.5t-67.5 -164.5q0 -25 5 -50.5t13.5 -58t12.5 -53.5h426v-117h-416q11 -33 11 -80v-827h-216z" />
    <glyph glyph-name="g" unicode="g" horiz-adv-x="1376" 
d="M735 -430q-280 0 -438 85t-158 234q0 106 86 179.5t240 103.5q-78 9 -140 22t-120.5 34.5t-98 49.5t-63 69.5t-23.5 92.5q0 58 41 101.5t109 50.5q40 0 70 -12q-35 53 -35 127q0 137 115 224.5t317 106.5v252h211v-252q211 -14 331.5 -102t120.5 -229
q0 -155 -147.5 -244.5t-398.5 -89.5q-101 0 -178.5 15t-122 37t-79 43.5t-70.5 36.5t-75 15t-62.5 -22.5t-23.5 -55.5q0 -42 23.5 -74.5t66 -53.5t100.5 -35.5t126 -23t144.5 -14.5t155.5 -11h8t7 -0.5t8 -0.5q130 -7 228 -28t173 -59.5t113.5 -99t38.5 -142.5
q0 -154 -160.5 -242t-439.5 -88zM754 461q152 0 240.5 66t88.5 180q0 117 -87.5 183t-241.5 66q-155 0 -243.5 -66t-88.5 -183q0 -115 88 -180.5t244 -65.5zM737 -330q173 0 274 63.5t101 172.5q0 118 -96 179.5t-279 61.5q-174 0 -274.5 -64t-100.5 -177q0 -109 101 -172.5
t274 -63.5z" />
    <glyph glyph-name="h" unicode="h" horiz-adv-x="1351" 
d="M184 0v1454h215v-635q50 107 142.5 166t212.5 59q203 0 318.5 -128t115.5 -353v-563h-217v547q0 174 -74 270t-205 96q-126 0 -209.5 -106t-83.5 -266v-541h-215z" />
    <glyph glyph-name="i" unicode="i" horiz-adv-x="583" 
d="M283 1157l-123 369h266l-123 -369h-20zM184 0v1024h215v-1024h-215z" />
    <glyph glyph-name="j" unicode="j" horiz-adv-x="624" 
d="M334 1157l-123 369h266l-123 -369h-20zM74 -430q-149 0 -248.5 79t-99.5 197h120v-2q0 -72 65.5 -121t156.5 -49q94 0 156.5 54t62.5 159q0 44 -25.5 159t-25.5 206v772h215v-1057q0 -192 -100.5 -294.5t-276.5 -102.5z" />
    <glyph glyph-name="k" unicode="k" horiz-adv-x="1173" 
d="M184 0v1454h215v-881h148l393 451h141l-372 -434l430 -590h-250l-346 453h-144v-453h-215z" />
    <glyph glyph-name="l" unicode="l" horiz-adv-x="583" 
d="M184 0v1454h215v-1454h-215z" />
    <glyph glyph-name="m" unicode="m" horiz-adv-x="2037" 
d="M184 0v1024h207v-207q48 107 137 167t205 60q137 0 230.5 -69t132.5 -193q46 124 142 193t224 69q194 0 303 -121.5t109 -338.5v-584h-217v567q0 165 -65.5 255.5t-182.5 90.5t-194.5 -101t-77.5 -257v-555h-217v567q0 165 -65 255.5t-181 90.5q-118 0 -196.5 -106
t-78.5 -266v-541h-215z" />
    <glyph glyph-name="n" unicode="n" horiz-adv-x="1351" 
d="M184 0v1024h207v-211q50 108 145 169.5t218 61.5q203 0 318.5 -128t115.5 -353v-563h-217v547q0 174 -74 270t-205 96q-126 0 -209.5 -106t-83.5 -266v-541h-215z" />
    <glyph glyph-name="o" unicode="o" horiz-adv-x="1300" 
d="M651 -20q-241 0 -400 151.5t-159 380.5q0 230 158.5 381t400.5 151q241 0 399 -151t158 -381q0 -229 -158 -380.5t-399 -151.5zM651 98q149 0 243.5 114t94.5 300q0 187 -94.5 301.5t-243.5 114.5q-150 0 -244 -114t-94 -302q0 -186 94 -300t244 -114z" />
    <glyph glyph-name="p" unicode="p" horiz-adv-x="1355" 
d="M184 -410v1434h207v-219q52 112 151.5 175.5t229.5 63.5q212 0 352 -150t140 -382q0 -231 -140 -381.5t-352 -150.5q-127 0 -224 62.5t-149 172.5v-625h-215zM725 109q139 0 229 109.5t90 293.5q0 185 -89.5 294t-229.5 109q-142 0 -237 -116t-95 -287t95 -287t237 -116z
" />
    <glyph glyph-name="q" unicode="q" horiz-adv-x="1355" 
d="M1171 -410h-215v625q-50 -110 -146.5 -172.5t-223.5 -62.5q-212 0 -353 150.5t-141 381.5q0 232 141 382t353 150q130 0 229 -63.5t152 -175.5v219h204v-1434zM631 109q142 0 238 116t96 287t-96 287t-238 116q-138 0 -228 -109t-90 -294q0 -184 90 -293.5t228 -109.5z
" />
    <glyph glyph-name="r" unicode="r" horiz-adv-x="1081" 
d="M184 0v1024h207v-219q46 111 136 175t204 64q158 0 248 -98.5t90 -283.5v-50h-213v43q0 123 -51 184.5t-148 61.5q-110 0 -184 -102.5t-74 -253.5v-545h-215z" />
    <glyph glyph-name="s" unicode="s" horiz-adv-x="1093" 
d="M565 -25q-131 0 -237.5 38.5t-180 122t-88.5 202.5h129q13 -84 67.5 -143t131 -86t168.5 -27q45 0 89.5 8.5t86.5 26t68 50.5t26 77q0 23 -7 41.5t-25.5 33t-35 24t-52 20t-58.5 16.5t-73 17t-78 18q-68 15 -117 28.5t-107.5 40t-94.5 59t-60.5 84t-24.5 115.5
q0 81 38.5 142.5t103.5 96.5t139.5 52t156.5 17q122 0 221 -37t166 -118t80 -196h-129q-21 120 -113 182t-227 62q-44 0 -86 -8.5t-81 -26.5t-63 -52.5t-24 -80.5q0 -35 17 -60t68 -45.5t81 -28.5t118 -28q9 -2 14 -3.5t13 -3t15 -3.5q52 -11 86.5 -19.5t82.5 -23.5
t79.5 -30.5t66.5 -40t55.5 -52.5t34 -66.5t13.5 -84.5q0 -79 -41 -141t-108 -97.5t-144.5 -53.5t-159.5 -18z" />
    <glyph glyph-name="t" unicode="t" horiz-adv-x="954" 
d="M633 -20q-363 0 -363 337v590h-231v117h184q28 0 43 15.5t15 43.5v187h206l-2 -246h404v-117h-404v-579q0 -114 52.5 -168t162.5 -54q72 0 189 31v-117q-49 -18 -122.5 -29t-133.5 -11z" />
    <glyph glyph-name="u" unicode="u" horiz-adv-x="1351" 
d="M600 -20q-203 0 -319.5 129t-116.5 354v561h217l2 -545q0 -175 72.5 -271.5t203.5 -96.5q126 0 209.5 106.5t83.5 267.5v539h215v-1024h-204v213q-50 -110 -145 -171.5t-218 -61.5z" />
    <glyph glyph-name="v" unicode="v" horiz-adv-x="1124" 
d="M449 0l-429 1024h232l356 -858h6l359 858h133l-428 -1024h-229z" />
    <glyph glyph-name="w" unicode="w" horiz-adv-x="1636" 
d="M354 0l-311 1024h217l254 -819l254 819h195l251 -815l254 815h129l-311 -1024h-209l-258 827l-256 -827h-209z" />
    <glyph glyph-name="x" unicode="x" horiz-adv-x="1161" 
d="M49 0l408 502l-404 522h256l299 -375l310 375h149l-375 -461l428 -563h-256l-325 418l-340 -418h-150z" />
    <glyph glyph-name="y" unicode="y" horiz-adv-x="1140" 
d="M393 -430q-149 0 -245.5 93.5t-96.5 254.5v53h121v-61q0 -102 59.5 -164.5t151.5 -62.5q85 0 136.5 50.5t51.5 133.5v20q0 86 -71 224l-480 913h240l352 -682q45 -97 52 -141q6 33 20 67l305 756h135l-354 -858q-35 -85 -35 -184v-58q0 -163 -95.5 -258.5t-246.5 -95.5z
" />
    <glyph glyph-name="z" unicode="z" horiz-adv-x="1054" 
d="M70 0v100l639 807h-605v117h871v-98l-639 -807h637v-119h-903z" />
    <glyph glyph-name="braceleft" unicode="{" horiz-adv-x="1024" 
d="M627 -236q-140 0 -222.5 67.5t-82.5 209.5q0 63 32.5 238t32.5 235q0 145 -129 145h-88v117h88q62 0 95.5 36.5t33.5 109.5q0 60 -32.5 235t-32.5 238q0 141 82.5 207.5t222.5 66.5q111 0 202 -31v-118q-77 30 -153 30q-71 0 -115.5 -39.5t-44.5 -119.5q0 -44 27.5 -208
t27.5 -225q0 -194 -168 -241q168 -45 168 -240q0 -61 -27.5 -224.5t-27.5 -207.5q0 -82 44.5 -122t115.5 -40q74 0 153 31v-119q-91 -31 -202 -31z" />
    <glyph glyph-name="bar" unicode="|" horiz-adv-x="692" 
d="M287 -205v1843h119v-1843h-119z" />
    <glyph glyph-name="braceright" unicode="}" horiz-adv-x="1024" 
d="M399 1669q139 0 222.5 -66.5t83.5 -207.5q0 -63 -33 -238t-33 -235q0 -73 33.5 -109.5t95.5 -36.5h88v-117h-88q-129 0 -129 -145q0 -60 33 -235t33 -238q0 -142 -83.5 -209.5t-222.5 -67.5q-109 0 -204 31v119q82 -31 153 -31q72 0 116 40t44 122q0 44 -26.5 207.5
t-26.5 224.5q0 195 166 240q-166 48 -166 241q0 61 26.5 225t26.5 208q0 81 -44 120t-116 39q-74 0 -153 -30v118q95 31 204 31z" />
    <glyph glyph-name="asciitilde" unicode="~" horiz-adv-x="1146" 
d="M152 608q0 101 59.5 163.5t148.5 62.5q39 0 82.5 -10.5t69.5 -21.5t68 -30q111 -51 178 -51q50 0 85.5 31.5t35.5 74.5h118q0 -101 -59.5 -163t-149.5 -62q-39 0 -82 11t-68.5 21t-68.5 30q-111 51 -178 51q-49 0 -85 -32t-36 -75h-118z" />
    <glyph glyph-name="uni00A0" unicode="&#xa0;" horiz-adv-x="512" 
 />
    <glyph glyph-name="exclamdown" unicode="&#xa1;" horiz-adv-x="655" 
d="M328 1042q66 0 109.5 -44t43.5 -109q0 -66 -43.5 -110t-109.5 -44q-65 0 -109.5 44t-44.5 110q0 64 44.5 108.5t109.5 44.5zM387 553l80 -963h-266l80 963h106z" />
    <glyph glyph-name="cent" unicode="&#xa2;" 
d="M743 315q131 0 223 76.5t121 206.5h127q-29 -174 -149 -282t-305 -123v-254h-103v254q-215 17 -351 164t-136 364q0 218 135.5 364.5t351.5 163.5v246h103v-246q185 -13 305 -121t149 -282h-127q-30 129 -121.5 205.5t-222.5 76.5q-160 0 -258 -112t-98 -295
q0 -182 98 -294t258 -112z" />
    <glyph glyph-name="sterling" unicode="&#xa3;" 
d="M301 -31q-109 0 -180.5 63.5t-71.5 162.5q0 96 67.5 160.5t180.5 64.5q85 0 227 -60v17q-6 46 -27 92t-63.5 114.5t-54.5 90.5h-275v88h226q-74 141 -74 268q0 197 133 316.5t350 119.5q221 0 358 -125.5t148 -332.5h-137q-9 155 -103 242t-233 87q-135 0 -217 -82.5
t-82 -226.5q0 -22 2.5 -46.5t5 -40.5t10.5 -46t11 -40t14.5 -48t13.5 -45h545v-88h-514q5 -14 22 -56.5t24 -62.5t17.5 -54t14.5 -62.5t4 -57.5q0 -24 -4 -70q4 -2 44 -22.5t48.5 -24.5t44 -20.5t49.5 -21.5t44.5 -16t50 -14.5t45 -7.5t49.5 -4q107 0 162 56t55 163
q0 35 -10 90h120q13 -76 13 -131q0 -184 -96 -286.5t-250 -102.5q-57 0 -114.5 13.5t-116.5 41t-99.5 50.5t-102.5 61q-42 -77 -114 -121.5t-160 -44.5zM297 57q68 0 122.5 35.5t80.5 95.5q-53 31 -84 47.5t-73.5 31t-76.5 14.5q-53 0 -87 -30t-34 -75q0 -51 42.5 -85
t109.5 -34z" />
    <glyph glyph-name="currency" unicode="&#xa4;" 
d="M258 168l-90 90l190 191q-94 119 -94 268q0 148 94 270l-190 191l90 90l191 -191q119 94 268 94q148 0 270 -94l191 191l90 -90l-191 -191q94 -122 94 -270q0 -149 -94 -268l191 -191l-90 -90l-191 190q-122 -94 -270 -94q-149 0 -268 94zM717 393q135 0 230 95t95 229
q0 135 -95 230t-230 95q-134 0 -229 -95t-95 -230q0 -133 95.5 -228.5t228.5 -95.5z" />
    <glyph glyph-name="yen" unicode="&#xa5;" 
d="M594 0v352h-440v88h434v125l-31 49h-403v88h354l-451 732h271l442 -725h2l442 725h164l-450 -732h375v-88h-424l-33 -51v-123h457v-88h-463v-352h-246z" />
    <glyph glyph-name="brokenbar" unicode="&#xa6;" horiz-adv-x="692" 
d="M287 860v778h119v-778h-119zM287 -205v778h119v-778h-119z" />
    <glyph glyph-name="section" unicode="&#xa7;" 
d="M737 -205q-95 0 -180 23.5t-155 69.5t-116.5 120.5t-58.5 169.5h135q13 -87 68.5 -149t131.5 -90.5t165 -28.5q46 0 91 9t87 27t68 52.5t26 79.5q0 57 -41 94t-85 51.5t-150 39.5q-30 7 -45 11q-60 13 -99 22.5t-93.5 26t-90 33.5t-75 43t-62 55.5t-38 70.5t-15.5 89
q0 107 69.5 175t184.5 100q-92 40 -145 100.5t-54 155.5q0 85 39.5 149.5t105 101t140.5 54.5t157 18q190 0 322.5 -94.5t153.5 -277.5h-134q-22 125 -116 189.5t-226 64.5q-46 0 -88 -9t-80.5 -28t-61.5 -54t-23 -83q0 -41 19.5 -70t73 -51.5t89 -32.5t125.5 -30
q4 -1 6.5 -1.5t5.5 -1.5q49 -10 78.5 -17t75.5 -18.5t75 -22t67 -26.5t62 -32.5t49.5 -40t40 -49t24 -58.5t9.5 -70q0 -106 -70.5 -176t-183.5 -106q95 -38 148 -98t53 -158q0 -82 -41 -146t-109 -101.5t-146.5 -56t-162.5 -18.5zM834 426q39 4 77.5 15.5t76 30.5t60.5 51.5
t23 72.5q0 29 -10.5 53t-25.5 42t-45 34.5t-54.5 27t-70 23.5t-75.5 20t-86.5 20.5t-89.5 21.5q-58 -6 -107 -23t-86.5 -55.5t-37.5 -91.5q0 -30 15 -57t37 -47t60.5 -39t72.5 -31.5t86 -26.5t88 -22t92 -19z" />
    <glyph glyph-name="copyright" unicode="&#xa9;" horiz-adv-x="1679" 
d="M840 -31q-208 0 -379.5 98.5t-270 270t-98.5 379.5t98.5 379.5t270 269.5t379.5 98q156 0 294.5 -58t237.5 -157t157 -237.5t58 -294.5q0 -208 -98 -379.5t-269.5 -270t-379.5 -98.5zM840 45q141 0 265.5 52t214 141.5t141.5 214t52 264.5q0 141 -52 266t-141.5 214.5
t-214 141.5t-265.5 52q-187 0 -341 -88.5t-242.5 -243t-88.5 -342.5q0 -187 88.5 -341t242.5 -242.5t341 -88.5zM852 291q-189 0 -311.5 120.5t-122.5 305.5t122.5 305.5t311.5 120.5q162 0 270 -88.5t133 -237.5h-108q-24 101 -94.5 160t-173.5 59q-127 0 -205 -87.5
t-78 -231.5q0 -142 78.5 -230t204.5 -88q103 0 173.5 59t94.5 160h108q-25 -149 -133.5 -238t-269.5 -89z" />
    <glyph glyph-name="guillemotleft" unicode="&#xab;" horiz-adv-x="1124" 
d="M571 1024l-223 -410l223 -409h-139l-217 397v25l217 397h139zM971 1024l-223 -410l223 -409h-140l-217 397v25l217 397h140z" />
    <glyph glyph-name="logicalnot" unicode="&#xac;" horiz-adv-x="1146" 
d="M993 776v-479h-116v362h-723v117h839z" />
    <glyph glyph-name="registered" unicode="&#xae;" horiz-adv-x="901" 
d="M461 727q-157 0 -263 106t-106 263t106 262.5t263 105.5t262.5 -105.5t105.5 -262.5t-105.5 -263t-262.5 -106zM461 766q141 0 235.5 95t94.5 235q0 141 -94.5 235t-235.5 94q-140 0 -235 -94t-95 -235q0 -140 95.5 -235t234.5 -95zM301 897v418h152q80 0 125 -33.5
t45 -93.5q0 -80 -84 -113l131 -178h-103l-118 162h-66v-162h-82zM383 1110h70q41 0 63.5 21t22.5 57q0 34 -22.5 53t-63.5 19h-70v-150z" />
    <glyph glyph-name="degree" unicode="&#xb0;" horiz-adv-x="671" 
d="M336 932q-110 0 -188 78t-78 188t78 188t188 78t188 -78t78 -188t-78 -188t-188 -78zM336 1020q74 0 127 52.5t53 125.5q0 75 -53 127.5t-127 52.5t-126 -52.5t-52 -127.5q0 -74 52 -126t126 -52z" />
    <glyph glyph-name="plusminus" unicode="&#xb1;" horiz-adv-x="1146" 
d="M633 905h360v-119h-360v-360h-117v360h-362v119h362v361h117v-361zM154 170v117h839v-117h-839z" />
    <glyph glyph-name="paragraph" unicode="&#xb6;" horiz-adv-x="1116" 
d="M594 -410v1024h-19q-192 0 -322 118.5t-130 291.5t130 291.5t322 118.5h254v-1844h-235z" />
    <glyph glyph-name="periodcentered" unicode="&#xb7;" horiz-adv-x="573" 
d="M287 463q-65 0 -109.5 44.5t-44.5 110.5q0 64 44.5 109t109.5 45q66 0 109.5 -44.5t43.5 -109.5q0 -66 -43.5 -110.5t-109.5 -44.5z" />
    <glyph glyph-name="guillemotright" unicode="&#xbb;" horiz-adv-x="1062" 
d="M154 205l223 409l-223 410h139l217 -397v-25l-217 -397h-139zM553 205l223 409l-223 410h139l217 -397v-25l-217 -397h-139z" />
    <glyph glyph-name="questiondown" unicode="&#xbf;" horiz-adv-x="1150" 
d="M604 1044q65 0 109.5 -44.5t44.5 -108.5q0 -66 -44.5 -110t-109.5 -44q-66 0 -109.5 44t-43.5 110q0 65 43.5 109t109.5 44zM682 557q8 -32 8 -51q0 -108 -49.5 -179t-144.5 -132q-76 -61 -114 -118.5t-38 -142.5q0 -113 75.5 -176t196.5 -63q149 0 233 94.5t87 249.5
h141q-5 -218 -138 -348.5t-357 -130.5q-129 0 -234 39.5t-172 124.5t-67 202q0 116 61 191t168 133q61 38 95.5 64.5t68.5 63.5t48.5 80.5t14.5 98.5h117z" />
    <glyph glyph-name="Agrave" unicode="&#xc0;" horiz-adv-x="1449" 
d="M770 1587h-121l-215 348h219zM31 0l569 1434h250l567 -1434h-262l-162 412h-651l-162 -412h-149zM381 530h573l-282 711h-8z" />
    <glyph glyph-name="Aacute" unicode="&#xc1;" horiz-adv-x="1449" 
d="M682 1587l117 348h219l-215 -348h-121zM31 0l569 1434h250l567 -1434h-262l-162 412h-651l-162 -412h-149zM381 530h573l-282 711h-8z" />
    <glyph glyph-name="Acircumflex" unicode="&#xc2;" horiz-adv-x="1449" 
d="M1114 1608h-235l-203 221l-203 -221h-139l284 327h211zM31 0l569 1434h250l567 -1434h-262l-162 412h-651l-162 -412h-149zM381 530h573l-282 711h-8z" />
    <glyph glyph-name="Atilde" unicode="&#xc3;" horiz-adv-x="1449" 
d="M336 1657q0 116 58 182t151 66q50 0 104.5 -15t93 -32.5t85 -32.5t83.5 -15q41 0 70 25.5t29 65.5h106q0 -116 -58 -182t-151 -66q-64 0 -132.5 23.5t-129 47t-104.5 23.5q-42 0 -70.5 -25t-28.5 -65h-106zM31 0l569 1434h250l567 -1434h-262l-162 412h-651l-162 -412
h-149zM381 530h573l-282 711h-8z" />
    <glyph glyph-name="Adieresis" unicode="&#xc4;" horiz-adv-x="1449" 
d="M561 1567l-117 368h252l-116 -368h-19zM870 1567l-114 368h250l-117 -368h-19zM31 0l569 1434h250l567 -1434h-262l-162 412h-651l-162 -412h-149zM381 530h573l-282 711h-8z" />
    <glyph glyph-name="Aring" unicode="&#xc5;" horiz-adv-x="1449" 
d="M725 1563q-114 0 -192 78.5t-78 191.5t78.5 192.5t191.5 79.5t192.5 -79.5t79.5 -192.5q0 -112 -79.5 -191t-192.5 -79zM725 1706q86 0 134 35t48 92t-48 93t-134 36t-133 -35.5t-47 -93.5q0 -57 47 -92t133 -35zM31 0l569 1434h250l567 -1434h-262l-162 412h-651
l-162 -412h-149zM381 530h573l-282 711h-8z" />
    <glyph glyph-name="AE" unicode="&#xc6;" horiz-adv-x="2054" 
d="M1364 129h629v-129h-838l-162 412h-651l-162 -412h-149l569 1434h1311v-127h-998l203 -529h613v-121h-568zM381 530h573l-282 711h-8z" />
    <glyph glyph-name="Ccedilla" unicode="&#xc7;" horiz-adv-x="1619" 
d="M850 -31q-159 0 -295 55.5t-232 153.5t-150 237t-54 302q0 218 92.5 388.5t259 264.5t379.5 94q177 0 323.5 -74t238 -208t110.5 -305h-146q-31 193 -165.5 312.5t-325.5 119.5q-229 0 -372.5 -164t-143.5 -428q0 -262 144 -427t372 -165q191 0 325.5 120.5t165.5 313.5
h146q-19 -171 -110.5 -305.5t-238 -209.5t-323.5 -75zM901 -154l-117 -348h-219l215 348h121z" />
    <glyph glyph-name="Egrave" unicode="&#xc8;" horiz-adv-x="1255" 
d="M713 1587h-121l-215 348h219zM229 0v1434h883v-127h-641v-529h453v-121h-453v-528h723v-129h-965z" />
    <glyph glyph-name="Eacute" unicode="&#xc9;" horiz-adv-x="1255" 
d="M625 1587l116 348h220l-216 -348h-120zM229 0v1434h883v-127h-641v-529h453v-121h-453v-528h723v-129h-965z" />
    <glyph glyph-name="Ecircumflex" unicode="&#xca;" horiz-adv-x="1255" 
d="M1057 1608h-236l-203 221l-202 -221h-140l285 327h211zM229 0v1434h883v-127h-641v-529h453v-121h-453v-528h723v-129h-965z" />
    <glyph glyph-name="Edieresis" unicode="&#xcb;" horiz-adv-x="1255" 
d="M504 1567l-117 368h252l-117 -368h-18zM813 1567l-115 368h250l-117 -368h-18zM229 0v1434h883v-127h-641v-529h453v-121h-453v-528h723v-129h-965z" />
    <glyph glyph-name="Igrave" unicode="&#xcc;" horiz-adv-x="702" 
d="M397 1587h-121l-215 348h220zM229 0v1434h246v-1434h-246z" />
    <glyph glyph-name="Iacute" unicode="&#xcd;" horiz-adv-x="702" 
d="M309 1587l117 348h219l-215 -348h-121zM229 0v1434h246v-1434h-246z" />
    <glyph glyph-name="Icircumflex" unicode="&#xce;" horiz-adv-x="702" 
d="M741 1608h-235l-203 221l-203 -221h-139l285 327h211zM229 0v1434h246v-1434h-246z" />
    <glyph glyph-name="Idieresis" unicode="&#xcf;" horiz-adv-x="702" 
d="M188 1567l-116 368h252l-117 -368h-19zM498 1567l-115 368h250l-117 -368h-18zM229 0v1434h246v-1434h-246z" />
    <glyph glyph-name="Eth" unicode="&#xd0;" horiz-adv-x="1587" 
d="M680 1434q236 0 415.5 -89.5t277 -252.5t97.5 -375q0 -321 -217 -519t-573 -198h-451v672h-147v92h147v670h451zM686 131q247 0 389 155.5t142 430.5q0 277 -142 432.5t-389 155.5h-211v-541h281v-92h-281v-541h211z" />
    <glyph glyph-name="Ntilde" unicode="&#xd1;" horiz-adv-x="1658" 
d="M440 1657q0 116 58 182t151 66q64 0 132 -23.5t129 -47.5t106 -24q41 0 69.5 25.5t28.5 65.5h107q0 -116 -58 -182t-151 -66q-64 0 -132.5 23.5t-129.5 47t-105 23.5q-42 0 -70 -25t-28 -65h-107zM225 0v1434h250l823 -1088v1088h136v-1454h-152l-920 1202v-1182h-137z
" />
    <glyph glyph-name="Ograve" unicode="&#xd2;" horiz-adv-x="1726" 
d="M909 1587h-121l-215 348h220zM864 -31q-159 0 -297.5 57t-236.5 155.5t-154.5 237.5t-56.5 298q0 213 96 384t266.5 267t382.5 96q159 0 297.5 -56.5t236.5 -155t154 -237t56 -298.5q0 -159 -56 -298t-154 -237.5t-236.5 -155.5t-297.5 -57zM864 111q220 0 357 165
t137 441q0 277 -137 442.5t-357 165.5q-222 0 -358.5 -165.5t-136.5 -442.5q0 -276 136.5 -441t358.5 -165z" />
    <glyph glyph-name="Oacute" unicode="&#xd3;" horiz-adv-x="1726" 
d="M821 1587l117 348h219l-215 -348h-121zM864 -31q-159 0 -297.5 57t-236.5 155.5t-154.5 237.5t-56.5 298q0 213 96 384t266.5 267t382.5 96q159 0 297.5 -56.5t236.5 -155t154 -237t56 -298.5q0 -159 -56 -298t-154 -237.5t-236.5 -155.5t-297.5 -57zM864 111
q220 0 357 165t137 441q0 277 -137 442.5t-357 165.5q-222 0 -358.5 -165.5t-136.5 -442.5q0 -276 136.5 -441t358.5 -165z" />
    <glyph glyph-name="Ocircumflex" unicode="&#xd4;" horiz-adv-x="1726" 
d="M1253 1608h-235l-203 221l-203 -221h-139l285 327h211zM864 -31q-159 0 -297.5 57t-236.5 155.5t-154.5 237.5t-56.5 298q0 213 96 384t266.5 267t382.5 96q159 0 297.5 -56.5t236.5 -155t154 -237t56 -298.5q0 -159 -56 -298t-154 -237.5t-236.5 -155.5t-297.5 -57z
M864 111q220 0 357 165t137 441q0 277 -137 442.5t-357 165.5q-222 0 -358.5 -165.5t-136.5 -442.5q0 -276 136.5 -441t358.5 -165z" />
    <glyph glyph-name="Otilde" unicode="&#xd5;" horiz-adv-x="1726" 
d="M475 1657q0 116 58 182t151 66q64 0 132 -23.5t129 -47.5t106 -24q41 0 69.5 25.5t28.5 65.5h106q0 -116 -57.5 -182t-150.5 -66q-64 0 -132.5 23.5t-129.5 47t-105 23.5q-42 0 -70 -25t-28 -65h-107zM864 -31q-159 0 -297.5 57t-236.5 155.5t-154.5 237.5t-56.5 298
q0 213 96 384t266.5 267t382.5 96q159 0 297.5 -56.5t236.5 -155t154 -237t56 -298.5q0 -159 -56 -298t-154 -237.5t-236.5 -155.5t-297.5 -57zM864 111q220 0 357 165t137 441q0 277 -137 442.5t-357 165.5q-222 0 -358.5 -165.5t-136.5 -442.5q0 -276 136.5 -441
t358.5 -165z" />
    <glyph glyph-name="Odieresis" unicode="&#xd6;" horiz-adv-x="1726" 
d="M700 1567l-116 368h252l-117 -368h-19zM1010 1567l-115 368h250l-117 -368h-18zM864 -31q-159 0 -297.5 57t-236.5 155.5t-154.5 237.5t-56.5 298q0 213 96 384t266.5 267t382.5 96q159 0 297.5 -56.5t236.5 -155t154 -237t56 -298.5q0 -159 -56 -298t-154 -237.5
t-236.5 -155.5t-297.5 -57zM864 111q220 0 357 165t137 441q0 277 -137 442.5t-357 165.5q-222 0 -358.5 -165.5t-136.5 -442.5q0 -276 136.5 -441t358.5 -165z" />
    <glyph glyph-name="multiply" unicode="&#xd7;" horiz-adv-x="1146" 
d="M283 342l-84 84l290 291l-290 291l84 86l290 -291l291 291l86 -86l-291 -291l291 -291l-86 -84l-291 291z" />
    <glyph glyph-name="Oslash" unicode="&#xd8;" horiz-adv-x="1726" 
d="M864 -31q-265 0 -458 156l-119 -125h-152l178 199q-194 210 -194 518q0 213 96 384t266.5 267t382.5 96q264 0 459 -155l119 125h151l-180 -199q195 -208 195 -518q0 -159 -56 -298t-154 -237.5t-236.5 -155.5t-297.5 -57zM465 375l713 766q-109 190 -314 190
q-224 0 -363 -167.5t-139 -446.5q0 -202 103 -342zM864 104q224 0 363 167.5t139 445.5q0 196 -102 342l-713 -764q110 -191 313 -191z" />
    <glyph glyph-name="Ugrave" unicode="&#xd9;" horiz-adv-x="1613" 
d="M883 1587h-121l-215 348h219zM817 -31q-281 0 -448.5 170.5t-167.5 456.5v838h245v-832q0 -231 110 -355t306 -124q192 0 305 132t113 355v824h143v-830q0 -292 -164 -463.5t-442 -171.5z" />
    <glyph glyph-name="Uacute" unicode="&#xda;" horiz-adv-x="1613" 
d="M795 1587l116 348h219l-215 -348h-120zM817 -31q-281 0 -448.5 170.5t-167.5 456.5v838h245v-832q0 -231 110 -355t306 -124q192 0 305 132t113 355v824h143v-830q0 -292 -164 -463.5t-442 -171.5z" />
    <glyph glyph-name="Ucircumflex" unicode="&#xdb;" horiz-adv-x="1613" 
d="M1227 1608h-236l-203 221l-202 -221h-140l285 327h211zM817 -31q-281 0 -448.5 170.5t-167.5 456.5v838h245v-832q0 -231 110 -355t306 -124q192 0 305 132t113 355v824h143v-830q0 -292 -164 -463.5t-442 -171.5z" />
    <glyph glyph-name="Udieresis" unicode="&#xdc;" horiz-adv-x="1613" 
d="M674 1567l-117 368h252l-117 -368h-18zM983 1567l-115 368h250l-117 -368h-18zM817 -31q-281 0 -448.5 170.5t-167.5 456.5v838h245v-832q0 -231 110 -355t306 -124q192 0 305 132t113 355v824h143v-830q0 -292 -164 -463.5t-442 -171.5z" />
    <glyph glyph-name="Yacute" unicode="&#xdd;" horiz-adv-x="1384" 
d="M655 1587l117 348h219l-215 -348h-121zM571 0v551l-561 883h273l467 -748l467 748h159l-559 -885v-549h-246z" />
    <glyph glyph-name="Thorn" unicode="&#xde;" horiz-adv-x="1359" 
d="M229 0v1434h238v-273h242q261 0 411 -116t150 -318q0 -201 -150 -316.5t-411 -115.5h-242v-295h-238zM467 418h233q155 0 242.5 81t87.5 226t-87.5 226t-242.5 81h-233v-614z" />
    <glyph glyph-name="germandbls" unicode="&#xdf;" horiz-adv-x="1579" 
d="M276 -410v1317h-198v117h198v102q0 177 130.5 283.5t355.5 106.5q219 0 354 -104t135 -282v-194q-95 10 -155 10q-46 0 -89 -9t-82.5 -27.5t-63 -53t-23.5 -80.5q0 -37 19 -64t58 -45t82 -31t106 -29q8 -2 13 -3t12 -2.5t13 -3.5q69 -15 116.5 -29t105 -39.5t92.5 -56.5
t59 -79.5t24 -108.5q0 -79 -39 -141t-102.5 -97.5t-136 -53.5t-148.5 -18q-179 0 -304 85.5t-149 250.5h111q22 -113 114.5 -172t219.5 -59q42 0 84.5 8.5t82 26.5t64.5 51t25 76q0 54 -40 90t-83 50.5t-144 38.5l-36 9q-47 10 -80 19t-76 23.5t-73 30t-61.5 39t-51 51
t-31.5 65t-12 81.5q0 69 28 123.5t76.5 88t104 53t118.5 26.5h45v111q0 122 -86 190t-221 68q-133 0 -215 -61t-82 -173q0 -32 13 -73.5t26 -101t13 -136.5v-1264h-216z" />
    <glyph glyph-name="agrave" unicode="&#xe0;" horiz-adv-x="1228" 
d="M631 1178h-121l-215 348h219zM412 -23q-161 0 -248.5 74t-87.5 197q0 277 489 311q134 10 201.5 39.5t67.5 89.5q0 111 -73 176.5t-190 65.5q-122 0 -204.5 -72t-104.5 -196h-121q25 178 150 280t313 102q197 0 316.5 -112.5t119.5 -304.5v-510h131v-117h-327v225
q-55 -117 -169.5 -182.5t-262.5 -65.5zM481 94q148 0 251.5 104.5t103.5 258.5l2 96q-53 -47 -217 -64q-171 -19 -248.5 -71.5t-77.5 -149.5q0 -85 49.5 -129.5t136.5 -44.5z" />
    <glyph glyph-name="aacute" unicode="&#xe1;" horiz-adv-x="1228" 
d="M543 1178l116 348h220l-215 -348h-121zM412 -23q-161 0 -248.5 74t-87.5 197q0 277 489 311q134 10 201.5 39.5t67.5 89.5q0 111 -73 176.5t-190 65.5q-122 0 -204.5 -72t-104.5 -196h-121q25 178 150 280t313 102q197 0 316.5 -112.5t119.5 -304.5v-510h131v-117h-327
v225q-55 -117 -169.5 -182.5t-262.5 -65.5zM481 94q148 0 251.5 104.5t103.5 258.5l2 96q-53 -47 -217 -64q-171 -19 -248.5 -71.5t-77.5 -149.5q0 -85 49.5 -129.5t136.5 -44.5z" />
    <glyph glyph-name="acircumflex" unicode="&#xe2;" horiz-adv-x="1228" 
d="M975 1198h-236l-202 221l-203 -221h-139l284 328h211zM412 -23q-161 0 -248.5 74t-87.5 197q0 277 489 311q134 10 201.5 39.5t67.5 89.5q0 111 -73 176.5t-190 65.5q-122 0 -204.5 -72t-104.5 -196h-121q25 178 150 280t313 102q197 0 316.5 -112.5t119.5 -304.5v-510
h131v-117h-327v225q-55 -117 -169.5 -182.5t-262.5 -65.5zM481 94q148 0 251.5 104.5t103.5 258.5l2 96q-53 -47 -217 -64q-171 -19 -248.5 -71.5t-77.5 -149.5q0 -85 49.5 -129.5t136.5 -44.5z" />
    <glyph glyph-name="atilde" unicode="&#xe3;" horiz-adv-x="1228" 
d="M197 1247q0 116 58 182t151 66q64 0 132 -23.5t128.5 -47t105.5 -23.5q41 0 69.5 25t28.5 65h107q0 -116 -58 -182t-151 -66q-64 0 -132.5 23.5t-129.5 47t-105 23.5q-42 0 -70 -25t-28 -65h-106zM412 -23q-161 0 -248.5 74t-87.5 197q0 277 489 311q134 10 201.5 39.5
t67.5 89.5q0 111 -73 176.5t-190 65.5q-122 0 -204.5 -72t-104.5 -196h-121q25 178 150 280t313 102q197 0 316.5 -112.5t119.5 -304.5v-510h131v-117h-327v225q-55 -117 -169.5 -182.5t-262.5 -65.5zM481 94q148 0 251.5 104.5t103.5 258.5l2 96q-53 -47 -217 -64
q-171 -19 -248.5 -71.5t-77.5 -149.5q0 -85 49.5 -129.5t136.5 -44.5z" />
    <glyph glyph-name="adieresis" unicode="&#xe4;" horiz-adv-x="1228" 
d="M422 1157l-117 369h252l-117 -369h-18zM731 1157l-115 369h250l-116 -369h-19zM412 -23q-161 0 -248.5 74t-87.5 197q0 277 489 311q134 10 201.5 39.5t67.5 89.5q0 111 -73 176.5t-190 65.5q-122 0 -204.5 -72t-104.5 -196h-121q25 178 150 280t313 102
q197 0 316.5 -112.5t119.5 -304.5v-510h131v-117h-327v225q-55 -117 -169.5 -182.5t-262.5 -65.5zM481 94q148 0 251.5 104.5t103.5 258.5l2 96q-53 -47 -217 -64q-171 -19 -248.5 -71.5t-77.5 -149.5q0 -85 49.5 -129.5t136.5 -44.5z" />
    <glyph glyph-name="aring" unicode="&#xe5;" horiz-adv-x="1228" 
d="M586 1153q-114 0 -192.5 78.5t-78.5 191.5t79 193t192 80q112 0 192 -80t80 -193q0 -112 -79.5 -191t-192.5 -79zM586 1296q86 0 134 35t48 92t-48 93t-134 36t-133 -35.5t-47 -93.5q0 -57 47 -92t133 -35zM412 -23q-161 0 -248.5 74t-87.5 197q0 277 489 311
q134 10 201.5 39.5t67.5 89.5q0 111 -73 176.5t-190 65.5q-122 0 -204.5 -72t-104.5 -196h-121q25 178 150 280t313 102q197 0 316.5 -112.5t119.5 -304.5v-510h131v-117h-327v225q-55 -117 -169.5 -182.5t-262.5 -65.5zM481 94q148 0 251.5 104.5t103.5 258.5l2 96
q-53 -47 -217 -64q-171 -19 -248.5 -71.5t-77.5 -149.5q0 -85 49.5 -129.5t136.5 -44.5z" />
    <glyph glyph-name="ae" unicode="&#xe6;" horiz-adv-x="1982" 
d="M422 -23q-165 0 -255.5 74t-90.5 197q0 277 489 311q134 10 201.5 39.5t67.5 89.5q0 111 -73 176.5t-190 65.5q-122 0 -204.5 -72t-104.5 -196h-121q25 178 147.5 280t309.5 102q130 0 223 -58t133 -161q64 101 174.5 160t245.5 59q233 0 384 -149.5t153 -380.5
q0 -29 -2 -41h-869q10 -172 109 -274.5t252 -102.5q118 0 207.5 57t126.5 154h129q-38 -145 -170.5 -236t-323.5 -91q-167 0 -296.5 82.5t-188.5 220.5q-48 -148 -175 -227t-288 -79zM1040 555h658q-9 178 -99.5 281.5t-228.5 103.5t-229.5 -104.5t-100.5 -270.5v-10z
M481 94q148 0 251.5 104.5t103.5 258.5l2 96q-53 -47 -217 -64q-171 -19 -248.5 -71.5t-77.5 -149.5q0 -85 49.5 -129.5t136.5 -44.5z" />
    <glyph glyph-name="ccedilla" unicode="&#xe7;" horiz-adv-x="1214" 
d="M635 -20q-236 0 -389.5 150.5t-153.5 381.5q0 232 153.5 382t389.5 150q203 0 338.5 -111t163.5 -296h-127q-28 129 -119.5 206t-222.5 77q-160 0 -258.5 -112.5t-98.5 -295.5q0 -182 98.5 -294t258.5 -112q131 0 222.5 76.5t119.5 206.5h127q-28 -186 -163.5 -297.5
t-338.5 -111.5zM686 -154l-117 -348h-219l215 348h121z" />
    <glyph glyph-name="egrave" unicode="&#xe8;" horiz-adv-x="1249" 
d="M670 1178h-121l-215 348h219zM637 -20q-237 0 -391 149.5t-154 380.5q0 232 156 383t393 151q233 0 384 -149.5t153 -380.5q0 -29 -2 -41h-869q10 -172 109 -274.5t252 -102.5q118 0 207 57t126 154h129q-38 -145 -170 -236t-323 -91zM965 555q-9 178 -99.5 281.5
t-228.5 103.5t-229.5 -104.5t-100.5 -270.5v-10h658z" />
    <glyph glyph-name="eacute" unicode="&#xe9;" horiz-adv-x="1249" 
d="M582 1178l116 348h220l-216 -348h-120zM637 -20q-237 0 -391 149.5t-154 380.5q0 232 156 383t393 151q233 0 384 -149.5t153 -380.5q0 -29 -2 -41h-869q10 -172 109 -274.5t252 -102.5q118 0 207 57t126 154h129q-38 -145 -170 -236t-323 -91zM965 555
q-9 178 -99.5 281.5t-228.5 103.5t-229.5 -104.5t-100.5 -270.5v-10h658z" />
    <glyph glyph-name="ecircumflex" unicode="&#xea;" horiz-adv-x="1249" 
d="M1014 1198h-236l-203 221l-202 -221h-140l285 328h211zM637 -20q-237 0 -391 149.5t-154 380.5q0 232 156 383t393 151q233 0 384 -149.5t153 -380.5q0 -29 -2 -41h-869q10 -172 109 -274.5t252 -102.5q118 0 207 57t126 154h129q-38 -145 -170 -236t-323 -91zM965 555
q-9 178 -99.5 281.5t-228.5 103.5t-229.5 -104.5t-100.5 -270.5v-10h658z" />
    <glyph glyph-name="edieresis" unicode="&#xeb;" horiz-adv-x="1249" 
d="M461 1157l-117 369h252l-117 -369h-18zM770 1157l-115 369h250l-117 -369h-18zM637 -20q-237 0 -391 149.5t-154 380.5q0 232 156 383t393 151q233 0 384 -149.5t153 -380.5q0 -29 -2 -41h-869q10 -172 109 -274.5t252 -102.5q118 0 207 57t126 154h129
q-38 -145 -170 -236t-323 -91zM965 555q-9 178 -99.5 281.5t-228.5 103.5t-229.5 -104.5t-100.5 -270.5v-10h658z" />
    <glyph glyph-name="igrave" unicode="&#xec;" horiz-adv-x="583" 
d="M338 1178h-121l-215 348h219zM184 0v1024h215v-1024h-215z" />
    <glyph glyph-name="iacute" unicode="&#xed;" horiz-adv-x="583" 
d="M250 1178l117 348h219l-215 -348h-121zM184 0v1024h215v-1024h-215z" />
    <glyph glyph-name="icircumflex" unicode="&#xee;" horiz-adv-x="583" 
d="M682 1198h-236l-202 221l-203 -221h-139l284 328h211zM184 0v1024h215v-1024h-215z" />
    <glyph glyph-name="idieresis" unicode="&#xef;" horiz-adv-x="583" 
d="M129 1157l-117 369h252l-117 -369h-18zM438 1157l-114 369h249l-116 -369h-19zM184 0v1024h215v-1024h-215z" />
    <glyph glyph-name="eth" unicode="&#xf0;" horiz-adv-x="1300" 
d="M649 -20q-240 0 -398.5 151t-158.5 379q0 149 70 270t195.5 190.5t281.5 69.5q110 0 197 -51q-23 39 -56 80l-86 109h-352v92h291l-148 184h148l149 -184h295v-92h-235l172 -217q97 -113 145.5 -219t48.5 -230q0 -113 -42 -211.5t-115 -169t-177.5 -111t-224.5 -40.5z
M651 98q149 0 243.5 114t94.5 300q0 187 -94.5 301.5t-243.5 114.5q-150 0 -244 -114t-94 -302q0 -186 94 -300t244 -114z" />
    <glyph glyph-name="ntilde" unicode="&#xf1;" horiz-adv-x="1351" 
d="M299 1247q0 116 58 182t151 66q64 0 132 -23.5t128.5 -47t105.5 -23.5q41 0 70 25t29 65h106q0 -116 -58 -182t-151 -66q-64 0 -132.5 23.5t-129 47t-104.5 23.5q-42 0 -70 -25t-28 -65h-107zM184 0v1024h207v-211q50 108 145 169.5t218 61.5q203 0 318.5 -128
t115.5 -353v-563h-217v547q0 174 -74 270t-205 96q-126 0 -209.5 -106t-83.5 -266v-541h-215z" />
    <glyph glyph-name="ograve" unicode="&#xf2;" horiz-adv-x="1300" 
d="M696 1178h-121l-215 348h220zM651 -20q-241 0 -400 151.5t-159 380.5q0 230 158.5 381t400.5 151q241 0 399 -151t158 -381q0 -229 -158 -380.5t-399 -151.5zM651 98q149 0 243.5 114t94.5 300q0 187 -94.5 301.5t-243.5 114.5q-150 0 -244 -114t-94 -302q0 -186 94 -300
t244 -114z" />
    <glyph glyph-name="oacute" unicode="&#xf3;" horiz-adv-x="1300" 
d="M608 1178l117 348h219l-215 -348h-121zM651 -20q-241 0 -400 151.5t-159 380.5q0 230 158.5 381t400.5 151q241 0 399 -151t158 -381q0 -229 -158 -380.5t-399 -151.5zM651 98q149 0 243.5 114t94.5 300q0 187 -94.5 301.5t-243.5 114.5q-150 0 -244 -114t-94 -302
q0 -186 94 -300t244 -114z" />
    <glyph glyph-name="ocircumflex" unicode="&#xf4;" horiz-adv-x="1300" 
d="M1040 1198h-235l-203 221l-203 -221h-139l285 328h211zM651 -20q-241 0 -400 151.5t-159 380.5q0 230 158.5 381t400.5 151q241 0 399 -151t158 -381q0 -229 -158 -380.5t-399 -151.5zM651 98q149 0 243.5 114t94.5 300q0 187 -94.5 301.5t-243.5 114.5q-150 0 -244 -114
t-94 -302q0 -186 94 -300t244 -114z" />
    <glyph glyph-name="otilde" unicode="&#xf5;" horiz-adv-x="1300" 
d="M262 1247q0 116 58 182t151 66q64 0 132 -23.5t129 -47t106 -23.5q41 0 69.5 25t28.5 65h106q0 -116 -57.5 -182t-150.5 -66q-64 0 -132.5 23.5t-129.5 47t-105 23.5q-42 0 -70 -25t-28 -65h-107zM651 -20q-241 0 -400 151.5t-159 380.5q0 230 158.5 381t400.5 151
q241 0 399 -151t158 -381q0 -229 -158 -380.5t-399 -151.5zM651 98q149 0 243.5 114t94.5 300q0 187 -94.5 301.5t-243.5 114.5q-150 0 -244 -114t-94 -302q0 -186 94 -300t244 -114z" />
    <glyph glyph-name="odieresis" unicode="&#xf6;" horiz-adv-x="1300" 
d="M487 1157l-116 369h252l-117 -369h-19zM797 1157l-115 369h250l-117 -369h-18zM651 -20q-241 0 -400 151.5t-159 380.5q0 230 158.5 381t400.5 151q241 0 399 -151t158 -381q0 -229 -158 -380.5t-399 -151.5zM651 98q149 0 243.5 114t94.5 300q0 187 -94.5 301.5
t-243.5 114.5q-150 0 -244 -114t-94 -302q0 -186 94 -300t244 -114z" />
    <glyph glyph-name="divide" unicode="&#xf7;" horiz-adv-x="1146" 
d="M573 1004q-41 0 -69.5 29.5t-28.5 70.5q0 43 28.5 71.5t69.5 28.5q43 0 72 -28.5t29 -71.5q0 -42 -29 -71t-72 -29zM143 659v117h863v-117h-863zM573 231q-41 0 -69.5 29t-28.5 72q0 41 28.5 69.5t69.5 28.5q43 0 72 -28.5t29 -69.5q0 -43 -29 -72t-72 -29z" />
    <glyph glyph-name="oslash" unicode="&#xf8;" horiz-adv-x="1300" 
d="M651 -20q-195 0 -338 108l-84 -88h-125l136 145q-148 151 -148 367q0 230 158.5 381t400.5 151q188 0 328 -100l78 80h125l-127 -135q153 -153 153 -377q0 -229 -158 -380.5t-399 -151.5zM369 291l495 526q-74 123 -213 123q-157 0 -255.5 -117.5t-98.5 -310.5
q0 -126 72 -221zM651 86q156 0 254.5 117t98.5 309q0 139 -70 238l-498 -527q73 -137 215 -137z" />
    <glyph glyph-name="ugrave" unicode="&#xf9;" horiz-adv-x="1351" 
d="M711 1178h-121l-215 348h219zM600 -20q-203 0 -319.5 129t-116.5 354v561h217l2 -545q0 -175 72.5 -271.5t203.5 -96.5q126 0 209.5 106.5t83.5 267.5v539h215v-1024h-204v213q-50 -110 -145 -171.5t-218 -61.5z" />
    <glyph glyph-name="uacute" unicode="&#xfa;" horiz-adv-x="1351" 
d="M623 1178l116 348h219l-215 -348h-120zM600 -20q-203 0 -319.5 129t-116.5 354v561h217l2 -545q0 -175 72.5 -271.5t203.5 -96.5q126 0 209.5 106.5t83.5 267.5v539h215v-1024h-204v213q-50 -110 -145 -171.5t-218 -61.5z" />
    <glyph glyph-name="ucircumflex" unicode="&#xfb;" horiz-adv-x="1351" 
d="M1055 1198h-236l-203 221l-202 -221h-140l285 328h211zM600 -20q-203 0 -319.5 129t-116.5 354v561h217l2 -545q0 -175 72.5 -271.5t203.5 -96.5q126 0 209.5 106.5t83.5 267.5v539h215v-1024h-204v213q-50 -110 -145 -171.5t-218 -61.5z" />
    <glyph glyph-name="udieresis" unicode="&#xfc;" horiz-adv-x="1351" 
d="M502 1157l-117 369h252l-117 -369h-18zM811 1157l-115 369h250l-117 -369h-18zM600 -20q-203 0 -319.5 129t-116.5 354v561h217l2 -545q0 -175 72.5 -271.5t203.5 -96.5q126 0 209.5 106.5t83.5 267.5v539h215v-1024h-204v213q-50 -110 -145 -171.5t-218 -61.5z" />
    <glyph glyph-name="yacute" unicode="&#xfd;" horiz-adv-x="1140" 
d="M543 1178l116 348h220l-215 -348h-121zM393 -430q-149 0 -245.5 93.5t-96.5 254.5v53h121v-61q0 -102 59.5 -164.5t151.5 -62.5q85 0 136.5 50.5t51.5 133.5v20q0 86 -71 224l-480 913h240l352 -682q45 -97 52 -141q6 33 20 67l305 756h135l-354 -858q-35 -85 -35 -184
v-58q0 -163 -95.5 -258.5t-246.5 -95.5z" />
    <glyph glyph-name="thorn" unicode="&#xfe;" horiz-adv-x="1355" 
d="M184 -410v1864h215v-643q52 110 148.5 171.5t224.5 61.5q212 0 352 -150t140 -382q0 -231 -140 -381.5t-352 -150.5q-127 0 -224 62.5t-149 172.5v-625h-215zM725 109q139 0 229 109.5t90 293.5q0 185 -89.5 294t-229.5 109q-142 0 -237 -116t-95 -287t95 -287t237 -116z
" />
    <glyph glyph-name="ydieresis" unicode="&#xff;" horiz-adv-x="1140" 
d="M422 1157l-117 369h252l-117 -369h-18zM731 1157l-115 369h250l-116 -369h-19zM393 -430q-149 0 -245.5 93.5t-96.5 254.5v53h121v-61q0 -102 59.5 -164.5t151.5 -62.5q85 0 136.5 50.5t51.5 133.5v20q0 86 -71 224l-480 913h240l352 -682q45 -97 52 -141q6 33 20 67
l305 756h135l-354 -858q-35 -85 -35 -184v-58q0 -163 -95.5 -258.5t-246.5 -95.5z" />
    <glyph glyph-name="Amacron" unicode="&#x100;" horiz-adv-x="1449" 
d="M397 1831h656v-96h-656v96zM31 0l569 1434h250l567 -1434h-262l-162 412h-651l-162 -412h-149zM381 530h573l-282 711h-8z" />
    <glyph glyph-name="amacron" unicode="&#x101;" horiz-adv-x="1228" 
d="M258 1421h655v-96h-655v96zM412 -23q-161 0 -248.5 74t-87.5 197q0 277 489 311q134 10 201.5 39.5t67.5 89.5q0 111 -73 176.5t-190 65.5q-122 0 -204.5 -72t-104.5 -196h-121q25 178 150 280t313 102q197 0 316.5 -112.5t119.5 -304.5v-510h131v-117h-327v225
q-55 -117 -169.5 -182.5t-262.5 -65.5zM481 94q148 0 251.5 104.5t103.5 258.5l2 96q-53 -47 -217 -64q-171 -19 -248.5 -71.5t-77.5 -149.5q0 -85 49.5 -129.5t136.5 -44.5z" />
    <glyph glyph-name="Abreve" unicode="&#x102;" horiz-adv-x="1449" 
d="M725 1569q-171 0 -275 101t-104 263v17h107v-15q0 -96 71 -150t201 -54q131 0 202.5 54t71.5 150v15h107v-17q0 -162 -105 -263t-276 -101zM31 0l569 1434h250l567 -1434h-262l-162 412h-651l-162 -412h-149zM381 530h573l-282 711h-8z" />
    <glyph glyph-name="abreve" unicode="&#x103;" horiz-adv-x="1228" 
d="M586 1159q-171 0 -275 101.5t-104 263.5v16h106v-14q0 -96 71.5 -150.5t201.5 -54.5q131 0 202.5 54.5t71.5 150.5v14h107v-16q0 -162 -105 -263.5t-276 -101.5zM412 -23q-161 0 -248.5 74t-87.5 197q0 277 489 311q134 10 201.5 39.5t67.5 89.5q0 111 -73 176.5
t-190 65.5q-122 0 -204.5 -72t-104.5 -196h-121q25 178 150 280t313 102q197 0 316.5 -112.5t119.5 -304.5v-510h131v-117h-327v225q-55 -117 -169.5 -182.5t-262.5 -65.5zM481 94q148 0 251.5 104.5t103.5 258.5l2 96q-53 -47 -217 -64q-171 -19 -248.5 -71.5t-77.5 -149.5
q0 -85 49.5 -129.5t136.5 -44.5z" />
    <glyph glyph-name="Aogonek" unicode="&#x104;" horiz-adv-x="1449" 
d="M31 0l569 1434h250l567 -1434h-262l-162 412h-651l-162 -412h-149zM381 530h573l-282 711h-8zM1427 -154l-116 -348h-219l215 348h120z" />
    <glyph glyph-name="aogonek" unicode="&#x105;" horiz-adv-x="1228" 
d="M412 -23q-161 0 -248.5 74t-87.5 197q0 277 489 311q134 10 201.5 39.5t67.5 89.5q0 111 -73 176.5t-190 65.5q-122 0 -204.5 -72t-104.5 -196h-121q25 178 150 280t313 102q197 0 316.5 -112.5t119.5 -304.5v-510h131v-117h-327v225q-55 -117 -169.5 -182.5
t-262.5 -65.5zM481 94q148 0 251.5 104.5t103.5 258.5l2 96q-53 -47 -217 -64q-171 -19 -248.5 -71.5t-77.5 -149.5q0 -85 49.5 -129.5t136.5 -44.5zM1180 -154l-117 -348h-219l215 348h121z" />
    <glyph glyph-name="Cacute" unicode="&#x106;" horiz-adv-x="1619" 
d="M795 1587l116 348h219l-215 -348h-120zM850 -31q-159 0 -295 55.5t-232 153.5t-150 237t-54 302q0 218 92.5 388.5t259 264.5t379.5 94q177 0 323.5 -74t238 -208t110.5 -305h-146q-31 193 -165.5 312.5t-325.5 119.5q-229 0 -372.5 -164t-143.5 -428q0 -262 144 -427
t372 -165q191 0 325.5 120.5t165.5 313.5h146q-19 -171 -110.5 -305.5t-238 -209.5t-323.5 -75z" />
    <glyph glyph-name="cacute" unicode="&#x107;" horiz-adv-x="1214" 
d="M580 1178l116 348h219l-215 -348h-120zM635 -20q-236 0 -389.5 150.5t-153.5 381.5q0 232 153.5 382t389.5 150q203 0 338.5 -111t163.5 -296h-127q-28 129 -119.5 206t-222.5 77q-160 0 -258.5 -112.5t-98.5 -295.5q0 -182 98.5 -294t258.5 -112q131 0 222.5 76.5
t119.5 206.5h127q-28 -186 -163.5 -297.5t-338.5 -111.5z" />
    <glyph glyph-name="Cdotaccent" unicode="&#x10a;" horiz-adv-x="1619" 
d="M827 1567l-122 368h266l-123 -368h-21zM850 -31q-159 0 -295 55.5t-232 153.5t-150 237t-54 302q0 218 92.5 388.5t259 264.5t379.5 94q177 0 323.5 -74t238 -208t110.5 -305h-146q-31 193 -165.5 312.5t-325.5 119.5q-229 0 -372.5 -164t-143.5 -428q0 -262 144 -427
t372 -165q191 0 325.5 120.5t165.5 313.5h146q-19 -171 -110.5 -305.5t-238 -209.5t-323.5 -75z" />
    <glyph glyph-name="cdotaccent" unicode="&#x10b;" horiz-adv-x="1214" 
d="M612 1157l-123 369h267l-123 -369h-21zM635 -20q-236 0 -389.5 150.5t-153.5 381.5q0 232 153.5 382t389.5 150q203 0 338.5 -111t163.5 -296h-127q-28 129 -119.5 206t-222.5 77q-160 0 -258.5 -112.5t-98.5 -295.5q0 -182 98.5 -294t258.5 -112q131 0 222.5 76.5
t119.5 206.5h127q-28 -186 -163.5 -297.5t-338.5 -111.5z" />
    <glyph glyph-name="Ccaron" unicode="&#x10c;" horiz-adv-x="1619" 
d="M449 1935h235l203 -221l203 221h139l-285 -327h-211zM850 -31q-159 0 -295 55.5t-232 153.5t-150 237t-54 302q0 218 92.5 388.5t259 264.5t379.5 94q177 0 323.5 -74t238 -208t110.5 -305h-146q-31 193 -165.5 312.5t-325.5 119.5q-229 0 -372.5 -164t-143.5 -428
q0 -262 144 -427t372 -165q191 0 325.5 120.5t165.5 313.5h146q-19 -171 -110.5 -305.5t-238 -209.5t-323.5 -75z" />
    <glyph glyph-name="ccaron" unicode="&#x10d;" horiz-adv-x="1214" 
d="M233 1526h236l203 -221l202 221h140l-285 -328h-211zM635 -20q-236 0 -389.5 150.5t-153.5 381.5q0 232 153.5 382t389.5 150q203 0 338.5 -111t163.5 -296h-127q-28 129 -119.5 206t-222.5 77q-160 0 -258.5 -112.5t-98.5 -295.5q0 -182 98.5 -294t258.5 -112
q131 0 222.5 76.5t119.5 206.5h127q-28 -186 -163.5 -297.5t-338.5 -111.5z" />
    <glyph glyph-name="Dcaron" unicode="&#x10e;" horiz-adv-x="1587" 
d="M305 1935h236l202 -221l203 221h139l-284 -327h-211zM229 0v1434h451q236 0 415.5 -89.5t277 -252.5t97.5 -375q0 -321 -217 -519t-573 -198h-451zM475 131h211q247 0 389 155.5t142 430.5q0 277 -142 432.5t-389 155.5h-211v-1174z" />
    <glyph glyph-name="dcaron" unicode="&#x10f;" horiz-adv-x="1355" 
d="M586 -20q-212 0 -353 150.5t-141 381.5q0 232 141 382t353 150q128 0 224 -61.5t146 -171.5v643h215v-1454h-204v221q-53 -114 -152 -177.5t-229 -63.5zM1305 1126v328h194l-88 -328h-106zM631 109q142 0 238 116t96 287t-96 287t-238 116q-138 0 -228 -109t-90 -294
q0 -184 90 -293.5t228 -109.5z" />
    <glyph glyph-name="Dcroat" unicode="&#x110;" horiz-adv-x="1587" 
d="M680 1434q236 0 415.5 -89.5t277 -252.5t97.5 -375q0 -321 -217 -519t-573 -198h-451v672h-147v92h147v670h451zM686 131q247 0 389 155.5t142 430.5q0 277 -142 432.5t-389 155.5h-211v-541h281v-92h-281v-541h211z" />
    <glyph glyph-name="dcroat" unicode="&#x111;" horiz-adv-x="1355" 
d="M1317 1270v-92h-146v-1178h-204v221q-53 -114 -152 -177.5t-229 -63.5q-212 0 -353 150.5t-141 381.5q0 232 141 382t353 150q128 0 224 -61.5t146 -171.5v367h-356v92h356v184h215v-184h146zM631 109q142 0 238 116t96 287t-96 287t-238 116q-138 0 -228 -109t-90 -294
q0 -184 90 -293.5t228 -109.5z" />
    <glyph glyph-name="Emacron" unicode="&#x112;" horiz-adv-x="1255" 
d="M340 1831h655v-96h-655v96zM229 0v1434h883v-127h-641v-529h453v-121h-453v-528h723v-129h-965z" />
    <glyph glyph-name="emacron" unicode="&#x113;" horiz-adv-x="1249" 
d="M297 1421h655v-96h-655v96zM637 -20q-237 0 -391 149.5t-154 380.5q0 232 156 383t393 151q233 0 384 -149.5t153 -380.5q0 -29 -2 -41h-869q10 -172 109 -274.5t252 -102.5q118 0 207 57t126 154h129q-38 -145 -170 -236t-323 -91zM965 555q-9 178 -99.5 281.5
t-228.5 103.5t-229.5 -104.5t-100.5 -270.5v-10h658z" />
    <glyph glyph-name="Edotaccent" unicode="&#x116;" horiz-adv-x="1255" 
d="M657 1567l-122 368h266l-123 -368h-21zM229 0v1434h883v-127h-641v-529h453v-121h-453v-528h723v-129h-965z" />
    <glyph glyph-name="edotaccent" unicode="&#x117;" horiz-adv-x="1249" 
d="M614 1157l-122 369h266l-123 -369h-21zM637 -20q-237 0 -391 149.5t-154 380.5q0 232 156 383t393 151q233 0 384 -149.5t153 -380.5q0 -29 -2 -41h-869q10 -172 109 -274.5t252 -102.5q118 0 207 57t126 154h129q-38 -145 -170 -236t-323 -91zM965 555
q-9 178 -99.5 281.5t-228.5 103.5t-229.5 -104.5t-100.5 -270.5v-10h658z" />
    <glyph glyph-name="Eogonek" unicode="&#x118;" horiz-adv-x="1255" 
d="M229 0v1434h883v-127h-641v-529h453v-121h-453v-528h723v-129h-965zM1202 -154l-117 -348h-219l215 348h121z" />
    <glyph glyph-name="eogonek" unicode="&#x119;" horiz-adv-x="1249" 
d="M637 -20q-237 0 -391 149.5t-154 380.5q0 232 156 383t393 151q233 0 384 -149.5t153 -380.5q0 -29 -2 -41h-869q10 -172 109 -274.5t252 -102.5q118 0 207 57t126 154h129q-38 -145 -170 -236t-323 -91zM965 555q-9 178 -99.5 281.5t-228.5 103.5t-229.5 -104.5
t-100.5 -270.5v-10h658zM1012 -154l-117 -348h-219l215 348h121z" />
    <glyph glyph-name="Ecaron" unicode="&#x11a;" horiz-adv-x="1255" 
d="M279 1935h235l203 -221l203 221h139l-285 -327h-211zM229 0v1434h883v-127h-641v-529h453v-121h-453v-528h723v-129h-965z" />
    <glyph glyph-name="ecaron" unicode="&#x11b;" horiz-adv-x="1249" 
d="M236 1526h235l203 -221l203 221h139l-285 -328h-211zM637 -20q-237 0 -391 149.5t-154 380.5q0 232 156 383t393 151q233 0 384 -149.5t153 -380.5q0 -29 -2 -41h-869q10 -172 109 -274.5t252 -102.5q118 0 207 57t126 154h129q-38 -145 -170 -236t-323 -91zM965 555
q-9 178 -99.5 281.5t-228.5 103.5t-229.5 -104.5t-100.5 -270.5v-10h658z" />
    <glyph glyph-name="Gbreve" unicode="&#x11e;" horiz-adv-x="1687" 
d="M850 1569q-171 0 -275 101t-104 263v17h107v-15q0 -96 71 -150t201 -54q131 0 202.5 54t71.5 150v15h107v-17q0 -162 -105 -263t-276 -101zM811 -31q-199 0 -357 94.5t-246.5 264.5t-88.5 385q0 220 93 391.5t258 265.5t374 94q261 0 438.5 -143.5t222.5 -380.5h-149
q-40 172 -164.5 273.5t-306.5 101.5q-229 0 -372.5 -167t-143.5 -433q0 -267 142.5 -435.5t362.5 -168.5q181 0 300.5 120t130.5 308v94h-424v115h667v-748h-221v285q-62 -148 -196.5 -232t-319.5 -84z" />
    <glyph glyph-name="gbreve" unicode="&#x11f;" horiz-adv-x="1376" 
d="M737 1159q-171 0 -275 101.5t-104 263.5v16h107v-14q0 -96 71 -150.5t201 -54.5q131 0 203 54.5t72 150.5v14h106v-16q0 -162 -105 -263.5t-276 -101.5zM735 -430q-280 0 -438 85t-158 234q0 106 86 179.5t240 103.5q-78 9 -140 22t-120.5 34.5t-98 49.5t-63 69.5
t-23.5 92.5q0 58 41 101.5t109 50.5q40 0 70 -12q-35 53 -35 127q0 152 143.5 244.5t401.5 92.5q263 0 406.5 -92t143.5 -245q0 -155 -147.5 -244.5t-398.5 -89.5q-101 0 -178.5 15t-122 37t-79 43.5t-70.5 36.5t-75 15t-62.5 -22.5t-23.5 -55.5q0 -42 23.5 -74.5t66 -53.5
t100.5 -35.5t126 -23t144.5 -14.5t155.5 -11h8t7 -0.5t8 -0.5q130 -7 228 -28t173 -59.5t113.5 -99t38.5 -142.5q0 -154 -160.5 -242t-439.5 -88zM754 461q152 0 240.5 66t88.5 180q0 117 -87.5 183t-241.5 66q-155 0 -243.5 -66t-88.5 -183q0 -115 88 -180.5t244 -65.5z
M737 -330q173 0 274 63.5t101 172.5q0 118 -96 179.5t-279 61.5q-174 0 -274.5 -64t-100.5 -177q0 -109 101 -172.5t274 -63.5z" />
    <glyph glyph-name="Gdotaccent" unicode="&#x120;" horiz-adv-x="1687" 
d="M840 1567l-123 368h266l-123 -368h-20zM811 -31q-199 0 -357 94.5t-246.5 264.5t-88.5 385q0 220 93 391.5t258 265.5t374 94q261 0 438.5 -143.5t222.5 -380.5h-149q-40 172 -164.5 273.5t-306.5 101.5q-229 0 -372.5 -167t-143.5 -433q0 -267 142.5 -435.5
t362.5 -168.5q181 0 300.5 120t130.5 308v94h-424v115h667v-748h-221v285q-62 -148 -196.5 -232t-319.5 -84z" />
    <glyph glyph-name="gdotaccent" unicode="&#x121;" horiz-adv-x="1376" 
d="M727 1157l-123 369h266l-122 -369h-21zM735 -430q-280 0 -438 85t-158 234q0 106 86 179.5t240 103.5q-78 9 -140 22t-120.5 34.5t-98 49.5t-63 69.5t-23.5 92.5q0 58 41 101.5t109 50.5q40 0 70 -12q-35 53 -35 127q0 152 143.5 244.5t401.5 92.5q263 0 406.5 -92
t143.5 -245q0 -155 -147.5 -244.5t-398.5 -89.5q-101 0 -178.5 15t-122 37t-79 43.5t-70.5 36.5t-75 15t-62.5 -22.5t-23.5 -55.5q0 -42 23.5 -74.5t66 -53.5t100.5 -35.5t126 -23t144.5 -14.5t155.5 -11h8t7 -0.5t8 -0.5q130 -7 228 -28t173 -59.5t113.5 -99t38.5 -142.5
q0 -154 -160.5 -242t-439.5 -88zM754 461q152 0 240.5 66t88.5 180q0 117 -87.5 183t-241.5 66q-155 0 -243.5 -66t-88.5 -183q0 -115 88 -180.5t244 -65.5zM737 -330q173 0 274 63.5t101 172.5q0 118 -96 179.5t-279 61.5q-174 0 -274.5 -64t-100.5 -177q0 -109 101 -172.5
t274 -63.5z" />
    <glyph glyph-name="uni0122" unicode="&#x122;" horiz-adv-x="1687" 
d="M811 -31q-199 0 -357 94.5t-246.5 264.5t-88.5 385q0 220 93 391.5t258 265.5t374 94q261 0 438.5 -143.5t222.5 -380.5h-149q-40 172 -164.5 273.5t-306.5 101.5q-229 0 -372.5 -167t-143.5 -433q0 -267 142.5 -435.5t362.5 -168.5q181 0 300.5 120t130.5 308v94h-424
v115h667v-748h-221v285q-62 -148 -196.5 -232t-319.5 -84zM887 -502h-96v4q126 90 133 162q-11 -8 -45 -8q-51 0 -80 27t-29 67q0 43 39 73t100 30q63 0 102.5 -30t39.5 -83q0 -66 -49.5 -136.5t-114.5 -105.5z" />
    <glyph glyph-name="uni0123" unicode="&#x123;" horiz-adv-x="1376" 
d="M762 1536h94v-4q-124 -89 -131 -162q11 8 45 8q50 -1 79.5 -28t29.5 -66q0 -43 -40 -72.5t-102 -29.5q-63 0 -101 29.5t-38 82.5q0 66 49.5 136.5t114.5 105.5zM735 -430q-280 0 -438 85t-158 234q0 106 86 179.5t240 103.5q-78 9 -140 22t-120.5 34.5t-98 49.5t-63 69.5
t-23.5 92.5q0 58 41 101.5t109 50.5q40 0 70 -12q-35 53 -35 127q0 152 143.5 244.5t401.5 92.5q263 0 406.5 -92t143.5 -245q0 -155 -147.5 -244.5t-398.5 -89.5q-101 0 -178.5 15t-122 37t-79 43.5t-70.5 36.5t-75 15t-62.5 -22.5t-23.5 -55.5q0 -42 23.5 -74.5t66 -53.5
t100.5 -35.5t126 -23t144.5 -14.5t155.5 -11h8t7 -0.5t8 -0.5q130 -7 228 -28t173 -59.5t113.5 -99t38.5 -142.5q0 -154 -160.5 -242t-439.5 -88zM754 461q152 0 240.5 66t88.5 180q0 117 -87.5 183t-241.5 66q-155 0 -243.5 -66t-88.5 -183q0 -115 88 -180.5t244 -65.5z
M737 -330q173 0 274 63.5t101 172.5q0 118 -96 179.5t-279 61.5q-174 0 -274.5 -64t-100.5 -177q0 -109 101 -172.5t274 -63.5z" />
    <glyph glyph-name="Hbar" unicode="&#x126;" horiz-adv-x="1679" 
d="M1604 1194v-104h-152v-1090h-246v647h-731v-647h-246v1090h-151v104h151v240h246v-240h731v240h246v-240h152zM1206 786v304h-731v-304h731z" />
    <glyph glyph-name="hbar" unicode="&#x127;" horiz-adv-x="1351" 
d="M754 1044q203 0 318.5 -128t115.5 -353v-563h-217v547q0 174 -74 270t-205 96q-126 0 -209.5 -106t-83.5 -266v-541h-215v1178h-141v92h141v184h215v-184h361v-92h-361v-359q50 107 142.5 166t212.5 59z" />
    <glyph glyph-name="Imacron" unicode="&#x12a;" horiz-adv-x="702" 
d="M25 1831h655v-96h-655v96zM229 0v1434h246v-1434h-246z" />
    <glyph glyph-name="imacron" unicode="&#x12b;" horiz-adv-x="583" 
d="M-35 1421h656v-96h-656v96zM184 0v1024h215v-1024h-215z" />
    <glyph glyph-name="Iogonek" unicode="&#x12e;" horiz-adv-x="702" 
d="M229 0v1434h246v-1434h-246zM483 -154l-116 -348h-220l215 348h121z" />
    <glyph glyph-name="iogonek" unicode="&#x12f;" horiz-adv-x="583" 
d="M283 1157l-123 369h266l-123 -369h-20zM184 0v1024h215v-1024h-215zM408 -154l-117 -348h-219l215 348h121z" />
    <glyph glyph-name="Idotaccent" unicode="&#x130;" horiz-adv-x="702" 
d="M342 1567l-123 368h266l-123 -368h-20zM229 0v1434h246v-1434h-246z" />
    <glyph glyph-name="dotlessi" unicode="&#x131;" horiz-adv-x="583" 
d="M184 0v1024h215v-1024h-215z" />
    <glyph glyph-name="uni0136" unicode="&#x136;" horiz-adv-x="1486" 
d="M229 0v1434h244v-648h199l530 648h162l-500 -625l578 -809h-293l-473 647h-203v-647h-244zM756 -502h-97v4q127 91 134 162q-11 -8 -45 -8q-51 0 -80 27t-29 67q0 43 39 73t100 30q63 0 102.5 -30t39.5 -83q0 -66 -49.5 -136.5t-114.5 -105.5z" />
    <glyph glyph-name="uni0137" unicode="&#x137;" horiz-adv-x="1173" 
d="M184 0v1454h215v-881h148l393 451h141l-372 -434l430 -590h-250l-346 453h-144v-453h-215zM592 -502h-96v4q126 90 133 162q-11 -8 -45 -8q-51 0 -80 27t-29 67q0 43 39 73t100 30q63 0 102.5 -30t39.5 -83q0 -66 -49.5 -136.5t-114.5 -105.5z" />
    <glyph glyph-name="Lacute" unicode="&#x139;" horiz-adv-x="1234" 
d="M309 1587l117 348h219l-215 -348h-121zM229 0v1434h246v-1295h703v-139h-949z" />
    <glyph glyph-name="lacute" unicode="&#x13a;" horiz-adv-x="583" 
d="M250 1587l117 348h219l-215 -348h-121zM184 0v1454h215v-1454h-215z" />
    <glyph glyph-name="uni013B" unicode="&#x13b;" horiz-adv-x="1234" 
d="M229 0v1434h246v-1295h703v-139h-949zM707 -502h-97v4q126 90 133 162q-11 -8 -45 -8q-51 0 -79.5 27t-28.5 67q0 43 39 73t100 30q63 0 102 -30t39 -83q0 -66 -49.5 -136.5t-113.5 -105.5z" />
    <glyph glyph-name="uni013C" unicode="&#x13c;" horiz-adv-x="583" 
d="M184 0v1454h215v-1454h-215zM270 -502h-96v4q126 90 133 162q-11 -8 -45 -8q-51 0 -79.5 27t-28.5 67q0 43 39 73t100 30q63 0 102 -30t39 -83q0 -66 -49.5 -136.5t-114.5 -105.5z" />
    <glyph glyph-name="Lcaron" unicode="&#x13d;" horiz-adv-x="1234" 
d="M229 0v1434h246v-1295h703v-139h-949zM608 1106v328h195l-88 -328h-107z" />
    <glyph glyph-name="lcaron" unicode="&#x13e;" horiz-adv-x="583" 
d="M184 0v1454h215v-1454h-215zM532 1126v328h195l-88 -328h-107z" />
    <glyph glyph-name="Lslash" unicode="&#x141;" horiz-adv-x="1234" 
d="M475 139h703v-139h-949v571l-155 -90v135l155 91v727h246v-582l313 184v-135l-313 -184v-578z" />
    <glyph glyph-name="lslash" unicode="&#x142;" horiz-adv-x="595" 
d="M596 1016v-131l-190 -111v-774h-216v647l-153 -90v131l153 90v676h216v-551z" />
    <glyph glyph-name="Nacute" unicode="&#x143;" horiz-adv-x="1658" 
d="M786 1587l117 348h219l-215 -348h-121zM225 0v1434h250l823 -1088v1088h136v-1454h-152l-920 1202v-1182h-137z" />
    <glyph glyph-name="nacute" unicode="&#x144;" horiz-adv-x="1351" 
d="M645 1178l117 348h219l-215 -348h-121zM184 0v1024h207v-211q50 108 145 169.5t218 61.5q203 0 318.5 -128t115.5 -353v-563h-217v547q0 174 -74 270t-205 96q-126 0 -209.5 -106t-83.5 -266v-541h-215z" />
    <glyph glyph-name="uni0145" unicode="&#x145;" horiz-adv-x="1658" 
d="M225 0v1434h250l823 -1088v1088h136v-1454h-152l-920 1202v-1182h-137zM807 -502h-96v4q126 90 133 162q-11 -8 -45 -8q-51 0 -80 27t-29 67q0 43 39 73t100 30q63 0 102.5 -30t39.5 -83q0 -66 -49.5 -136.5t-114.5 -105.5z" />
    <glyph glyph-name="uni0146" unicode="&#x146;" horiz-adv-x="1351" 
d="M184 0v1024h207v-211q50 108 145 169.5t218 61.5q203 0 318.5 -128t115.5 -353v-563h-217v547q0 174 -74 270t-205 96q-126 0 -209.5 -106t-83.5 -266v-541h-215zM666 -502h-97v4q126 90 133 162q-11 -8 -45 -8q-51 0 -79.5 27t-28.5 67q0 43 39 73t100 30q63 0 102 -30
t39 -83q0 -66 -49.5 -136.5t-113.5 -105.5z" />
    <glyph glyph-name="Ncaron" unicode="&#x147;" horiz-adv-x="1658" 
d="M440 1935h236l203 -221l202 221h140l-285 -327h-211zM225 0v1434h250l823 -1088v1088h136v-1454h-152l-920 1202v-1182h-137z" />
    <glyph glyph-name="ncaron" unicode="&#x148;" horiz-adv-x="1351" 
d="M299 1526h236l202 -221l203 221h139l-284 -328h-211zM184 0v1024h207v-211q50 108 145 169.5t218 61.5q203 0 318.5 -128t115.5 -353v-563h-217v547q0 174 -74 270t-205 96q-126 0 -209.5 -106t-83.5 -266v-541h-215z" />
    <glyph glyph-name="Eng" unicode="&#x14a;" horiz-adv-x="1658" 
d="M1047 -430q-145 0 -240.5 78t-95.5 198h116v-2q0 -73 63 -121.5t152 -48.5q105 0 167.5 61t62.5 169q0 110 -82 215l-828 1063v-1182h-137v1434h250l823 -1069v1069h136v-1467q0 -193 -102 -295t-285 -102z" />
    <glyph glyph-name="eng" unicode="&#x14b;" horiz-adv-x="1351" 
d="M811 -430q-148 0 -247 79t-99 197h121v-2q0 -73 64 -121.5t155 -48.5q94 0 156.5 54t62.5 159q0 44 -25.5 159t-25.5 206v295q0 174 -74 270t-207 96q-126 0 -209.5 -106t-83.5 -266v-541h-215v1024h207v-211q50 108 145 169.5t218 61.5q203 0 318.5 -128t115.5 -353
v-596q0 -192 -100.5 -294.5t-276.5 -102.5z" />
    <glyph glyph-name="Omacron" unicode="&#x14c;" horiz-adv-x="1726" 
d="M537 1831h655v-96h-655v96zM864 -31q-159 0 -297.5 57t-236.5 155.5t-154.5 237.5t-56.5 298q0 213 96 384t266.5 267t382.5 96q159 0 297.5 -56.5t236.5 -155t154 -237t56 -298.5q0 -159 -56 -298t-154 -237.5t-236.5 -155.5t-297.5 -57zM864 111q220 0 357 165t137 441
q0 277 -137 442.5t-357 165.5q-222 0 -358.5 -165.5t-136.5 -442.5q0 -276 136.5 -441t358.5 -165z" />
    <glyph glyph-name="omacron" unicode="&#x14d;" horiz-adv-x="1300" 
d="M324 1421h655v-96h-655v96zM651 -20q-241 0 -400 151.5t-159 380.5q0 230 158.5 381t400.5 151q241 0 399 -151t158 -381q0 -229 -158 -380.5t-399 -151.5zM651 98q149 0 243.5 114t94.5 300q0 187 -94.5 301.5t-243.5 114.5q-150 0 -244 -114t-94 -302q0 -186 94 -300
t244 -114z" />
    <glyph glyph-name="Ohungarumlaut" unicode="&#x150;" horiz-adv-x="1726" 
d="M637 1587l104 348h199l-195 -348h-108zM961 1587l104 348h199l-195 -348h-108zM864 -31q-159 0 -297.5 57t-236.5 155.5t-154.5 237.5t-56.5 298q0 213 96 384t266.5 267t382.5 96q159 0 297.5 -56.5t236.5 -155t154 -237t56 -298.5q0 -159 -56 -298t-154 -237.5
t-236.5 -155.5t-297.5 -57zM864 111q220 0 357 165t137 441q0 277 -137 442.5t-357 165.5q-222 0 -358.5 -165.5t-136.5 -442.5q0 -276 136.5 -441t358.5 -165z" />
    <glyph glyph-name="ohungarumlaut" unicode="&#x151;" horiz-adv-x="1300" 
d="M424 1178l104 348h199l-195 -348h-108zM748 1178l104 348h199l-195 -348h-108zM651 -20q-241 0 -400 151.5t-159 380.5q0 230 158.5 381t400.5 151q241 0 399 -151t158 -381q0 -229 -158 -380.5t-399 -151.5zM651 98q149 0 243.5 114t94.5 300q0 187 -94.5 301.5
t-243.5 114.5q-150 0 -244 -114t-94 -302q0 -186 94 -300t244 -114z" />
    <glyph glyph-name="OE" unicode="&#x152;" horiz-adv-x="2084" 
d="M909 0q-356 0 -573 198t-217 519q0 212 97.5 375t277 252.5t415.5 89.5h1033v-127h-621v-529h442v-121h-442v-528h702v-129h-1114zM903 131h176v1174h-176q-249 0 -390.5 -155.5t-141.5 -432.5q0 -276 142 -431t390 -155z" />
    <glyph glyph-name="oe" unicode="&#x153;" horiz-adv-x="2144" 
d="M651 -20q-241 0 -400 151.5t-159 380.5q0 230 158.5 381t400.5 151q148 0 266 -68t179 -185q61 117 176.5 185t261.5 68q234 0 385.5 -149.5t153.5 -380.5q0 -29 -2 -41h-869q10 -173 108 -275t251 -102q119 0 208.5 57t124.5 154h129q-36 -145 -168 -236t-323 -91
q-147 0 -262.5 68t-175.5 183q-61 -115 -178.5 -183t-264.5 -68zM1202 555h658q-9 178 -99.5 281.5t-230.5 103.5q-136 0 -227.5 -104.5t-100.5 -270.5v-10zM651 98q149 0 243.5 114t94.5 300q0 187 -94.5 301.5t-243.5 114.5q-150 0 -244 -114t-94 -302q0 -186 94 -300
t244 -114z" />
    <glyph glyph-name="Racute" unicode="&#x154;" horiz-adv-x="1460" 
d="M662 1587l116 348h219l-215 -348h-120zM229 0v1434h492q266 0 418.5 -113t152.5 -309q0 -141 -88 -239.5t-243 -137.5l469 -635h-281l-442 592h-33h-201v-592h-244zM473 711h248q158 0 246 79t88 218q0 140 -88 218.5t-246 78.5h-248v-594z" />
    <glyph glyph-name="racute" unicode="&#x155;" horiz-adv-x="1081" 
d="M594 1178l117 348h219l-215 -348h-121zM184 0v1024h207v-219q46 111 136 175t204 64q158 0 248 -98.5t90 -283.5v-50h-213v43q0 123 -51 184.5t-148 61.5q-110 0 -184 -102.5t-74 -253.5v-545h-215z" />
    <glyph glyph-name="uni0156" unicode="&#x156;" horiz-adv-x="1460" 
d="M229 0v1434h492q266 0 418.5 -113t152.5 -309q0 -141 -88 -239.5t-243 -137.5l469 -635h-281l-442 592h-33h-201v-592h-244zM473 711h248q158 0 246 79t88 218q0 140 -88 218.5t-246 78.5h-248v-594zM750 -502h-97v4q126 90 133 162q-11 -8 -45 -8q-51 0 -79.5 27
t-28.5 67q0 43 39 73t100 30q63 0 102 -30t39 -83q0 -66 -49.5 -136.5t-113.5 -105.5z" />
    <glyph glyph-name="uni0157" unicode="&#x157;" horiz-adv-x="1081" 
d="M184 0v1024h207v-219q46 111 136 175t204 64q158 0 248 -98.5t90 -283.5v-50h-213v43q0 123 -51 184.5t-148 61.5q-110 0 -184 -102.5t-74 -253.5v-545h-215zM270 -502h-96v4q126 90 133 162q-11 -8 -45 -8q-51 0 -79.5 27t-28.5 67q0 43 39 73t100 30q63 0 102 -30
t39 -83q0 -66 -49.5 -136.5t-114.5 -105.5z" />
    <glyph glyph-name="Rcaron" unicode="&#x158;" horiz-adv-x="1460" 
d="M315 1935h236l203 -221l202 221h140l-285 -327h-211zM229 0v1434h492q266 0 418.5 -113t152.5 -309q0 -141 -88 -239.5t-243 -137.5l469 -635h-281l-442 592h-33h-201v-592h-244zM473 711h248q158 0 246 79t88 218q0 140 -88 218.5t-246 78.5h-248v-594z" />
    <glyph glyph-name="rcaron" unicode="&#x159;" horiz-adv-x="1081" 
d="M248 1526h235l203 -221l203 221h139l-285 -328h-211zM184 0v1024h207v-219q46 111 136 175t204 64q158 0 248 -98.5t90 -283.5v-50h-213v43q0 123 -51 184.5t-148 61.5q-110 0 -184 -102.5t-74 -253.5v-545h-215z" />
    <glyph glyph-name="Sacute" unicode="&#x15a;" horiz-adv-x="1353" 
d="M614 1587l117 348h219l-215 -348h-121zM696 -31q-262 0 -433 134t-195 370h141q28 -178 155.5 -279.5t319.5 -101.5q166 0 263 63t97 181q0 34 -7.5 62t-25 51.5t-36 41.5t-50.5 34.5t-58.5 28t-70.5 24t-75.5 20.5t-83.5 20q-52 13 -83.5 21t-82 23.5t-82.5 28.5t-75 34
t-69.5 42.5t-56 51.5t-46 63t-27.5 75t-11 90q0 103 45 184t122.5 131t176 76t209.5 26q245 0 408 -129t186 -362h-147q-25 173 -141 269.5t-295 96.5q-147 0 -244.5 -63.5t-97.5 -177.5q0 -29 7.5 -54t17.5 -44.5t31.5 -37.5t38.5 -31t50.5 -27t54.5 -22t64 -20t65.5 -17.5
t71.5 -17.5q86 -21 135.5 -35t123.5 -40.5t117 -57t87 -73.5t64 -102t20 -132q0 -134 -75.5 -229.5t-204.5 -142t-298 -46.5z" />
    <glyph glyph-name="sacute" unicode="&#x15b;" horiz-adv-x="1093" 
d="M489 1178l117 348h219l-215 -348h-121zM565 -25q-131 0 -237.5 38.5t-180 122t-88.5 202.5h129q13 -84 67.5 -143t131 -86t168.5 -27q45 0 89.5 8.5t86.5 26t68 50.5t26 77q0 23 -7 41.5t-25.5 33t-35 24t-52 20t-58.5 16.5t-73 17t-78 18q-68 15 -117 28.5t-107.5 40
t-94.5 59t-60.5 84t-24.5 115.5q0 81 38.5 142.5t103.5 96.5t139.5 52t156.5 17q122 0 221 -37t166 -118t80 -196h-129q-21 120 -113 182t-227 62q-44 0 -86 -8.5t-81 -26.5t-63 -52.5t-24 -80.5q0 -35 17 -60t68 -45.5t81 -28.5t118 -28q9 -2 14 -3.5t13 -3t15 -3.5
q52 -11 86.5 -19.5t82.5 -23.5t79.5 -30.5t66.5 -40t55.5 -52.5t34 -66.5t13.5 -84.5q0 -79 -41 -141t-108 -97.5t-144.5 -53.5t-159.5 -18z" />
    <glyph glyph-name="Scedilla" unicode="&#x15e;" horiz-adv-x="1353" 
d="M696 -31q-262 0 -433 134t-195 370h141q28 -178 155.5 -279.5t319.5 -101.5q166 0 263 63t97 181q0 34 -7.5 62t-25 51.5t-36 41.5t-50.5 34.5t-58.5 28t-70.5 24t-75.5 20.5t-83.5 20q-52 13 -83.5 21t-82 23.5t-82.5 28.5t-75 34t-69.5 42.5t-56 51.5t-46 63t-27.5 75
t-11 90q0 103 45 184t122.5 131t176 76t209.5 26q245 0 408 -129t186 -362h-147q-25 173 -141 269.5t-295 96.5q-147 0 -244.5 -63.5t-97.5 -177.5q0 -29 7.5 -54t17.5 -44.5t31.5 -37.5t38.5 -31t50.5 -27t54.5 -22t64 -20t65.5 -17.5t71.5 -17.5q86 -21 135.5 -35
t123.5 -40.5t117 -57t87 -73.5t64 -102t20 -132q0 -134 -75.5 -229.5t-204.5 -142t-298 -46.5zM743 -154l-116 -348h-219l215 348h120z" />
    <glyph glyph-name="scedilla" unicode="&#x15f;" horiz-adv-x="1093" 
d="M565 -25q-131 0 -237.5 38.5t-180 122t-88.5 202.5h129q13 -84 67.5 -143t131 -86t168.5 -27q45 0 89.5 8.5t86.5 26t68 50.5t26 77q0 23 -7 41.5t-25.5 33t-35 24t-52 20t-58.5 16.5t-73 17t-78 18q-68 15 -117 28.5t-107.5 40t-94.5 59t-60.5 84t-24.5 115.5
q0 81 38.5 142.5t103.5 96.5t139.5 52t156.5 17q122 0 221 -37t166 -118t80 -196h-129q-21 120 -113 182t-227 62q-44 0 -86 -8.5t-81 -26.5t-63 -52.5t-24 -80.5q0 -35 17 -60t68 -45.5t81 -28.5t118 -28q9 -2 14 -3.5t13 -3t15 -3.5q52 -11 86.5 -19.5t82.5 -23.5
t79.5 -30.5t66.5 -40t55.5 -52.5t34 -66.5t13.5 -84.5q0 -79 -41 -141t-108 -97.5t-144.5 -53.5t-159.5 -18zM637 -154l-117 -348h-219l215 348h121z" />
    <glyph glyph-name="Scaron" unicode="&#x160;" horiz-adv-x="1353" 
d="M268 1935h236l203 -221l202 221h140l-285 -327h-211zM696 -31q-262 0 -433 134t-195 370h141q28 -178 155.5 -279.5t319.5 -101.5q166 0 263 63t97 181q0 34 -7.5 62t-25 51.5t-36 41.5t-50.5 34.5t-58.5 28t-70.5 24t-75.5 20.5t-83.5 20q-52 13 -83.5 21t-82 23.5
t-82.5 28.5t-75 34t-69.5 42.5t-56 51.5t-46 63t-27.5 75t-11 90q0 103 45 184t122.5 131t176 76t209.5 26q245 0 408 -129t186 -362h-147q-25 173 -141 269.5t-295 96.5q-147 0 -244.5 -63.5t-97.5 -177.5q0 -29 7.5 -54t17.5 -44.5t31.5 -37.5t38.5 -31t50.5 -27t54.5 -22
t64 -20t65.5 -17.5t71.5 -17.5q86 -21 135.5 -35t123.5 -40.5t117 -57t87 -73.5t64 -102t20 -132q0 -134 -75.5 -229.5t-204.5 -142t-298 -46.5z" />
    <glyph glyph-name="scaron" unicode="&#x161;" horiz-adv-x="1093" 
d="M143 1526h236l203 -221l202 221h140l-285 -328h-211zM565 -25q-131 0 -237.5 38.5t-180 122t-88.5 202.5h129q13 -84 67.5 -143t131 -86t168.5 -27q45 0 89.5 8.5t86.5 26t68 50.5t26 77q0 23 -7 41.5t-25.5 33t-35 24t-52 20t-58.5 16.5t-73 17t-78 18q-68 15 -117 28.5
t-107.5 40t-94.5 59t-60.5 84t-24.5 115.5q0 81 38.5 142.5t103.5 96.5t139.5 52t156.5 17q122 0 221 -37t166 -118t80 -196h-129q-21 120 -113 182t-227 62q-44 0 -86 -8.5t-81 -26.5t-63 -52.5t-24 -80.5q0 -35 17 -60t68 -45.5t81 -28.5t118 -28q9 -2 14 -3.5t13 -3
t15 -3.5q52 -11 86.5 -19.5t82.5 -23.5t79.5 -30.5t66.5 -40t55.5 -52.5t34 -66.5t13.5 -84.5q0 -79 -41 -141t-108 -97.5t-144.5 -53.5t-159.5 -18z" />
    <glyph glyph-name="uni0162" unicode="&#x162;" horiz-adv-x="1351" 
d="M553 0v1294h-516v140h1280v-140h-518v-1294h-246zM739 -154l-116 -348h-220l215 348h121z" />
    <glyph glyph-name="uni0163" unicode="&#x163;" horiz-adv-x="954" 
d="M633 -20q-363 0 -363 337v590h-231v117h184q28 0 43 15.5t15 43.5v187h206l-2 -246h404v-117h-404v-579q0 -114 52.5 -168t162.5 -54q72 0 189 31v-117q-49 -18 -122.5 -29t-133.5 -11zM676 -154l-117 -348h-219l215 348h121z" />
    <glyph glyph-name="Tcaron" unicode="&#x164;" horiz-adv-x="1351" 
d="M287 1935h235l203 -221l203 221h139l-285 -327h-211zM553 0v1294h-516v140h1280v-140h-518v-1294h-246z" />
    <glyph glyph-name="tcaron" unicode="&#x165;" horiz-adv-x="954" 
d="M621 1106v328h194l-88 -328h-106zM633 -20q-363 0 -363 337v590h-231v117h184q28 0 43 15.5t15 43.5v187h206l-2 -246h404v-117h-404v-579q0 -114 52.5 -168t162.5 -54q72 0 189 31v-117q-49 -18 -122.5 -29t-133.5 -11z" />
    <glyph glyph-name="Tbar" unicode="&#x166;" horiz-adv-x="1351" 
d="M1317 1294h-518v-555h293v-104h-293v-635h-246v635h-291v104h291v555h-516v140h1280v-140z" />
    <glyph glyph-name="tbar" unicode="&#x167;" horiz-adv-x="954" 
d="M889 918h-404v-353h402v-94h-402v-149q3 -216 215 -216q72 0 189 31v-117q-49 -18 -122.5 -29t-133.5 -11q-363 0 -363 337v154h-231v94h231v353h-231v106h184q28 0 43 15.5t15 43.5v187h206l-2 -246h404v-106z" />
    <glyph glyph-name="Umacron" unicode="&#x16a;" horiz-adv-x="1613" 
d="M510 1831h655v-96h-655v96zM817 -31q-281 0 -448.5 170.5t-167.5 456.5v838h245v-832q0 -231 110 -355t306 -124q192 0 305 132t113 355v824h143v-830q0 -292 -164 -463.5t-442 -171.5z" />
    <glyph glyph-name="umacron" unicode="&#x16b;" horiz-adv-x="1351" 
d="M338 1421h655v-96h-655v96zM600 -20q-203 0 -319.5 129t-116.5 354v561h217l2 -545q0 -175 72.5 -271.5t203.5 -96.5q126 0 209.5 106.5t83.5 267.5v539h215v-1024h-204v213q-50 -110 -145 -171.5t-218 -61.5z" />
    <glyph glyph-name="Uring" unicode="&#x16e;" horiz-adv-x="1613" 
d="M838 1563q-114 0 -192.5 78.5t-78.5 191.5t78.5 192.5t192.5 79.5q112 0 192 -79.5t80 -192.5q0 -112 -79.5 -191t-192.5 -79zM838 1706q86 0 134 35t48 92t-48 93t-134 36t-133.5 -35.5t-47.5 -93.5q0 -57 47.5 -92t133.5 -35zM817 -31q-281 0 -448.5 170.5
t-167.5 456.5v838h245v-832q0 -231 110 -355t306 -124q192 0 305 132t113 355v824h143v-830q0 -292 -164 -463.5t-442 -171.5z" />
    <glyph glyph-name="uring" unicode="&#x16f;" horiz-adv-x="1351" 
d="M666 1153q-114 0 -192.5 78.5t-78.5 191.5t79 193t192 80q112 0 192 -80t80 -193q0 -112 -79.5 -191t-192.5 -79zM666 1296q86 0 134 35t48 92t-48 93t-134 36t-133.5 -35.5t-47.5 -93.5q0 -57 47.5 -92t133.5 -35zM600 -20q-203 0 -319.5 129t-116.5 354v561h217l2 -545
q0 -175 72.5 -271.5t203.5 -96.5q126 0 209.5 106.5t83.5 267.5v539h215v-1024h-204v213q-50 -110 -145 -171.5t-218 -61.5z" />
    <glyph glyph-name="Uhungarumlaut" unicode="&#x170;" horiz-adv-x="1613" 
d="M610 1587l105 348h198l-194 -348h-109zM934 1587l104 348h199l-195 -348h-108zM817 -31q-281 0 -448.5 170.5t-167.5 456.5v838h245v-832q0 -231 110 -355t306 -124q192 0 305 132t113 355v824h143v-830q0 -292 -164 -463.5t-442 -171.5z" />
    <glyph glyph-name="uhungarumlaut" unicode="&#x171;" horiz-adv-x="1351" 
d="M438 1178l105 348h198l-194 -348h-109zM762 1178l104 348h199l-195 -348h-108zM600 -20q-203 0 -319.5 129t-116.5 354v561h217l2 -545q0 -175 72.5 -271.5t203.5 -96.5q126 0 209.5 106.5t83.5 267.5v539h215v-1024h-204v213q-50 -110 -145 -171.5t-218 -61.5z" />
    <glyph glyph-name="Uogonek" unicode="&#x172;" horiz-adv-x="1613" 
d="M817 -31q-281 0 -448.5 170.5t-167.5 456.5v838h245v-832q0 -231 110 -355t306 -124q192 0 305 132t113 355v824h143v-830q0 -292 -164 -463.5t-442 -171.5zM1346 -154l-117 -348h-219l215 348h121z" />
    <glyph glyph-name="uogonek" unicode="&#x173;" horiz-adv-x="1351" 
d="M600 -20q-203 0 -319.5 129t-116.5 354v561h217l2 -545q0 -175 72.5 -271.5t203.5 -96.5q126 0 209.5 106.5t83.5 267.5v539h215v-1024h-204v213q-50 -110 -145 -171.5t-218 -61.5zM1176 -154l-117 -348h-219l215 348h121z" />
    <glyph glyph-name="Wcircumflex" unicode="&#x174;" horiz-adv-x="2103" 
d="M1442 1608h-236l-202 221l-203 -221h-139l284 327h211zM475 0l-409 1434h253l345 -1190l331 1190h213l344 -1190l349 1190h143l-410 -1434h-250l-335 1167l-324 -1167h-250z" />
    <glyph glyph-name="wcircumflex" unicode="&#x175;" horiz-adv-x="1636" 
d="M1208 1198h-235l-203 221l-203 -221h-139l285 328h211zM354 0l-311 1024h217l254 -819l254 819h195l251 -815l254 815h129l-311 -1024h-209l-258 827l-256 -827h-209z" />
    <glyph glyph-name="Ycircumflex" unicode="&#x176;" horiz-adv-x="1384" 
d="M1087 1608h-235l-203 221l-203 -221h-139l285 327h211zM571 0v551l-561 883h273l467 -748l467 748h159l-559 -885v-549h-246z" />
    <glyph glyph-name="ycircumflex" unicode="&#x177;" horiz-adv-x="1140" 
d="M975 1198h-236l-202 221l-203 -221h-139l284 328h211zM393 -430q-149 0 -245.5 93.5t-96.5 254.5v53h121v-61q0 -102 59.5 -164.5t151.5 -62.5q85 0 136.5 50.5t51.5 133.5v20q0 86 -71 224l-480 913h240l352 -682q45 -97 52 -141q6 33 20 67l305 756h135l-354 -858
q-35 -85 -35 -184v-58q0 -163 -95.5 -258.5t-246.5 -95.5z" />
    <glyph glyph-name="Ydieresis" unicode="&#x178;" horiz-adv-x="1384" 
d="M535 1567l-117 368h252l-117 -368h-18zM844 1567l-115 368h250l-117 -368h-18zM571 0v551l-561 883h273l467 -748l467 748h159l-559 -885v-549h-246z" />
    <glyph glyph-name="Zacute" unicode="&#x179;" horiz-adv-x="1316" 
d="M662 1587l116 348h219l-215 -348h-120zM82 0v119l848 1181h-805v134h1106v-117l-848 -1184h848v-133h-1149z" />
    <glyph glyph-name="zacute" unicode="&#x17a;" horiz-adv-x="1054" 
d="M571 1178l117 348h219l-215 -348h-121zM70 0v100l639 807h-605v117h871v-98l-639 -807h637v-119h-903z" />
    <glyph glyph-name="Zdotaccent" unicode="&#x17b;" horiz-adv-x="1316" 
d="M694 1567l-123 368h267l-123 -368h-21zM82 0v119l848 1181h-805v134h1106v-117l-848 -1184h848v-133h-1149z" />
    <glyph glyph-name="zdotaccent" unicode="&#x17c;" horiz-adv-x="1054" 
d="M604 1157l-123 369h267l-123 -369h-21zM70 0v100l639 807h-605v117h871v-98l-639 -807h637v-119h-903z" />
    <glyph glyph-name="Zcaron" unicode="&#x17d;" horiz-adv-x="1316" 
d="M315 1935h236l203 -221l202 221h140l-285 -327h-211zM82 0v119l848 1181h-805v134h1106v-117l-848 -1184h848v-133h-1149z" />
    <glyph glyph-name="zcaron" unicode="&#x17e;" horiz-adv-x="1054" 
d="M225 1526h236l203 -221l202 221h140l-285 -328h-211zM70 0v100l639 807h-605v117h871v-98l-639 -807h637v-119h-903z" />
    <glyph glyph-name="uni01D0" unicode="&#x1d0;" horiz-adv-x="583" 
d="M-96 1526h235l203 -221l203 221h139l-285 -328h-211zM184 0v1024h215v-1024h-215z" />
    <glyph glyph-name="uni0218" unicode="&#x218;" horiz-adv-x="1353" 
d="M696 -31q-262 0 -433 134t-195 370h141q28 -178 155.5 -279.5t319.5 -101.5q166 0 263 63t97 181q0 34 -7.5 62t-25 51.5t-36 41.5t-50.5 34.5t-58.5 28t-70.5 24t-75.5 20.5t-83.5 20q-52 13 -83.5 21t-82 23.5t-82.5 28.5t-75 34t-69.5 42.5t-56 51.5t-46 63t-27.5 75
t-11 90q0 103 45 184t122.5 131t176 76t209.5 26q245 0 408 -129t186 -362h-147q-25 173 -141 269.5t-295 96.5q-147 0 -244.5 -63.5t-97.5 -177.5q0 -29 7.5 -54t17.5 -44.5t31.5 -37.5t38.5 -31t50.5 -27t54.5 -22t64 -20t65.5 -17.5t71.5 -17.5q86 -21 135.5 -35
t123.5 -40.5t117 -57t87 -73.5t64 -102t20 -132q0 -134 -75.5 -229.5t-204.5 -142t-298 -46.5zM657 -502h-96v4q126 90 133 162q-11 -8 -45 -8q-51 0 -79.5 27t-28.5 67q0 43 39 73t100 30q63 0 102 -30t39 -83q0 -66 -49.5 -136.5t-114.5 -105.5z" />
    <glyph glyph-name="uni0219" unicode="&#x219;" horiz-adv-x="1093" 
d="M565 -25q-131 0 -237.5 38.5t-180 122t-88.5 202.5h129q13 -84 67.5 -143t131 -86t168.5 -27q45 0 89.5 8.5t86.5 26t68 50.5t26 77q0 23 -7 41.5t-25.5 33t-35 24t-52 20t-58.5 16.5t-73 17t-78 18q-68 15 -117 28.5t-107.5 40t-94.5 59t-60.5 84t-24.5 115.5
q0 81 38.5 142.5t103.5 96.5t139.5 52t156.5 17q122 0 221 -37t166 -118t80 -196h-129q-21 120 -113 182t-227 62q-44 0 -86 -8.5t-81 -26.5t-63 -52.5t-24 -80.5q0 -35 17 -60t68 -45.5t81 -28.5t118 -28q9 -2 14 -3.5t13 -3t15 -3.5q52 -11 86.5 -19.5t82.5 -23.5
t79.5 -30.5t66.5 -40t55.5 -52.5t34 -66.5t13.5 -84.5q0 -79 -41 -141t-108 -97.5t-144.5 -53.5t-159.5 -18zM551 -502h-96v4q126 90 133 162q-11 -8 -45 -8q-51 0 -80 27t-29 67q0 43 39 73t100 30q63 0 102.5 -30t39.5 -83q0 -66 -49.5 -136.5t-114.5 -105.5z" />
    <glyph glyph-name="uni021A" unicode="&#x21a;" horiz-adv-x="1351" 
d="M553 0v1294h-516v140h1280v-140h-518v-1294h-246zM653 -502h-96v4q126 90 133 162q-11 -8 -45 -8q-51 0 -79.5 27t-28.5 67q0 43 39 73t100 30q63 0 102 -30t39 -83q0 -66 -49.5 -136.5t-114.5 -105.5z" />
    <glyph glyph-name="uni021B" unicode="&#x21b;" horiz-adv-x="954" 
d="M633 -20q-363 0 -363 337v590h-231v117h184q28 0 43 15.5t15 43.5v187h206l-2 -246h404v-117h-404v-579q0 -114 52.5 -168t162.5 -54q72 0 189 31v-117q-49 -18 -122.5 -29t-133.5 -11zM590 -502h-96v4q126 90 133 162q-11 -8 -45 -8q-51 0 -80 27t-29 67q0 43 39 73
t100 30q63 0 102.5 -30t39.5 -83q0 -66 -49.5 -136.5t-114.5 -105.5z" />
    <glyph glyph-name="uni0237" unicode="&#x237;" horiz-adv-x="624" 
d="M74 -430q-149 0 -248.5 79t-99.5 197h120v-2q0 -72 65.5 -121t156.5 -49q94 0 156.5 54t62.5 159q0 44 -25.5 159t-25.5 206v772h215v-1057q0 -192 -100.5 -294.5t-276.5 -102.5z" />
    <glyph glyph-name="uni02BC" unicode="&#x2bc;" horiz-adv-x="448" 
d="M231 961h-108v4q118 99 141 223q-23 -23 -51 -23q-61 9 -98 50.5t-37 97.5q0 63 43 108t110 45t111.5 -44.5t44.5 -118.5q0 -89 -47 -192t-109 -150z" />
    <glyph glyph-name="gravecomb" unicode="&#x300;" horiz-adv-x="0" 
d="M-569 1178h-121l-215 348h219z" />
    <glyph glyph-name="acutecomb" unicode="&#x301;" horiz-adv-x="0" 
d="M-657 1178l116 348h219l-215 -348h-120z" />
    <glyph glyph-name="uni0302" unicode="&#x302;" horiz-adv-x="0" 
d="M-225 1198h-236l-203 221l-202 -221h-140l285 328h211z" />
    <glyph glyph-name="tildecomb" unicode="&#x303;" horiz-adv-x="0" 
d="M-1004 1247q0 116 58 182t151 66q64 0 132 -23.5t129 -47t106 -23.5q41 0 69.5 25t28.5 65h107q0 -116 -58 -182t-151 -66q-64 0 -132.5 23.5t-129.5 47t-105 23.5q-42 0 -70 -25t-28 -65h-107z" />
    <glyph glyph-name="uni0304" unicode="&#x304;" horiz-adv-x="0" 
d="M-942 1421h655v-96h-655v96z" />
    <glyph glyph-name="uni0306" unicode="&#x306;" horiz-adv-x="0" 
d="M-614 1159q-171 0 -275 101.5t-104 263.5v16h106v-14q0 -96 71.5 -150.5t201.5 -54.5q131 0 202.5 54.5t71.5 150.5v14h107v-16q0 -162 -105 -263.5t-276 -101.5z" />
    <glyph glyph-name="uni0307" unicode="&#x307;" horiz-adv-x="0" 
d="M-625 1157l-123 369h267l-123 -369h-21z" />
    <glyph glyph-name="uni0308" unicode="&#x308;" horiz-adv-x="0" 
d="M-778 1157l-117 369h252l-117 -369h-18zM-469 1157l-115 369h250l-117 -369h-18z" />
    <glyph glyph-name="uni030A" unicode="&#x30a;" horiz-adv-x="0" 
d="M-614 1153q-114 0 -192.5 78.5t-78.5 191.5t79 193t192 80q112 0 192 -80t80 -193q0 -112 -79.5 -191t-192.5 -79zM-614 1296q86 0 134 35t48 92t-48 93t-134 36t-133.5 -35.5t-47.5 -93.5q0 -57 47.5 -92t133.5 -35z" />
    <glyph glyph-name="uni030B" unicode="&#x30b;" horiz-adv-x="0" 
d="M-842 1178l105 348h198l-194 -348h-109zM-518 1178l104 348h199l-195 -348h-108z" />
    <glyph glyph-name="uni030C" unicode="&#x30c;" horiz-adv-x="0" 
d="M-1004 1526h236l203 -221l203 221h139l-285 -328h-211z" />
    <glyph glyph-name="uni0312" unicode="&#x312;" horiz-adv-x="0" 
d="M-590 1536h94v-4q-124 -89 -131 -162q11 8 45 8q50 -1 79.5 -28t29.5 -66q0 -43 -39.5 -72.5t-101.5 -29.5q-63 0 -101.5 29.5t-38.5 82.5q0 66 49.5 136.5t114.5 105.5z" />
    <glyph glyph-name="uni0326" unicode="&#x326;" horiz-adv-x="0" 
d="M-637 -502h-96v4q126 90 133 162q-11 -8 -45 -8q-51 0 -80 27t-29 67q0 43 39.5 73t100.5 30q63 0 102 -30t39 -83q0 -66 -49.5 -136.5t-114.5 -105.5z" />
    <glyph glyph-name="uni0327" unicode="&#x327;" horiz-adv-x="0" 
d="M-551 -154l-117 -348h-219l215 348h121z" />
    <glyph glyph-name="uni0328" unicode="&#x328;" horiz-adv-x="0" 
d="M-606 -154l-117 -348h-219l215 348h121z" />
    <glyph glyph-name="uni0335" unicode="&#x335;" horiz-adv-x="0" 
d="M-973 1276h717v-92h-717v92z" />
    <glyph glyph-name="uni0401" unicode="&#x401;" horiz-adv-x="1255" 
d="M504 1567l-117 368h252l-117 -368h-18zM813 1567l-115 368h250l-117 -368h-18zM229 0v1434h883v-127h-641v-529h453v-121h-453v-528h723v-129h-965z" />
    <glyph glyph-name="uni0404" unicode="&#x404;" horiz-adv-x="1619" 
d="M850 -31q-159 0 -295 55.5t-232 153.5t-150 237t-54 302q0 217 92.5 387.5t259 265t379.5 94.5q266 0 452 -160.5t220 -416.5h-146q-34 192 -169.5 311t-325.5 119q-217 0 -358 -149.5t-154 -393.5h530v-112h-530q14 -243 155 -393t357 -150q190 0 325.5 119t169.5 311
h146q-34 -256 -220 -418t-452 -162z" />
    <glyph glyph-name="uni0406" unicode="&#x406;" horiz-adv-x="702" 
d="M229 0v1434h246v-1434h-246z" />
    <glyph glyph-name="uni0407" unicode="&#x407;" horiz-adv-x="702" 
d="M188 1567l-116 368h252l-117 -368h-19zM498 1567l-115 368h250l-117 -368h-18zM229 0v1434h246v-1434h-246z" />
    <glyph glyph-name="uni040E" unicode="&#x40e;" horiz-adv-x="1335" 
d="M729 1569q-171 0 -275 101t-104 263v17h107v-15q0 -96 71 -150t201 -54q131 0 203 54t72 150v15h106v-17q0 -162 -105 -263t-276 -101zM547 -31q-156 0 -260.5 103.5t-104.5 275.5v64h144v-66q0 -104 55.5 -170.5t146.5 -66.5q83 0 130 44.5t47 116.5q0 76 -52 158
l-633 1006h289l488 -799q52 -83 63 -170l318 969h149l-375 -1115q-61 -179 -158.5 -264.5t-246.5 -85.5z" />
    <glyph glyph-name="uni0410" unicode="&#x410;" horiz-adv-x="1449" 
d="M31 0l569 1434h250l567 -1434h-262l-162 412h-651l-162 -412h-149zM381 530h573l-282 711h-8z" />
    <glyph glyph-name="uni0411" unicode="&#x411;" horiz-adv-x="1443" 
d="M229 0v1434h996v-127h-756v-480h313q257 0 402 -110t145 -303t-145 -303.5t-402 -110.5h-553zM469 121h301q147 0 230 78.5t83 216.5q0 140 -82.5 218.5t-230.5 78.5h-301v-592z" />
    <glyph glyph-name="uni0412" unicode="&#x412;" horiz-adv-x="1478" 
d="M229 0v1434h562q250 0 389 -98.5t139 -272.5q0 -121 -72 -207t-203 -123v-8q157 -32 243.5 -122t86.5 -222q0 -175 -143.5 -278t-396.5 -103h-605zM469 776h317q144 0 222.5 70t78.5 198q0 129 -79.5 199t-225.5 70h-313v-537zM469 121h342q152 0 235.5 70.5t83.5 199.5
q0 127 -85 199t-236 72h-340v-541z" />
    <glyph glyph-name="uni0413" unicode="&#x413;" horiz-adv-x="1224" 
d="M229 0v1434h942v-140h-696v-1294h-246z" />
    <glyph glyph-name="uni0414" unicode="&#x414;" horiz-adv-x="1587" 
d="M29 -332v471h161q121 394 121 885q0 51 -8 137l-12 273h1034v-1295h184v-471h-221v332h-1038v-332h-221zM332 131h749v1172h-596l-12 -240q-19 -302 -52 -520t-89 -412z" />
    <glyph glyph-name="uni0415" unicode="&#x415;" horiz-adv-x="1255" 
d="M229 0v1434h883v-127h-641v-529h453v-121h-453v-528h723v-129h-965z" />
    <glyph glyph-name="uni0416" unicode="&#x416;" horiz-adv-x="2166" 
d="M47 0l520 811l-461 623h160l492 -648h203v648h245v-648h203l492 648h161l-460 -623l520 -811h-285l-424 647h-207v-647h-245v647h-207l-424 -647h-283z" />
    <glyph glyph-name="uni0417" unicode="&#x417;" horiz-adv-x="1363" 
d="M709 -31q-172 0 -310.5 61.5t-226.5 181.5t-104 284h139q25 -178 148 -280.5t313 -102.5q172 0 272 79t100 209q0 116 -89.5 189.5t-219.5 73.5h-147v110h147q126 0 205.5 76.5t79.5 187.5q0 129 -96.5 206t-255.5 77q-173 0 -287 -96t-137 -262h-142q30 238 197 369.5
t418 131.5q236 0 389 -111t153 -292q0 -120 -71 -208.5t-195 -127.5q129 -33 214 -125t85 -209q0 -194 -159.5 -308t-419.5 -114z" />
    <glyph glyph-name="uni0418" unicode="&#x418;" horiz-adv-x="1699" 
d="M229 -25v1459h242v-1074l780 1074h222v-1434h-244v1167l-858 -1192h-142z" />
    <glyph glyph-name="uni0419" unicode="&#x419;" horiz-adv-x="1699" 
d="M850 1569q-171 0 -275 101t-104 263v17h107v-15q0 -96 71 -150t201 -54q131 0 202.5 54t71.5 150v15h107v-17q0 -162 -105 -263t-276 -101zM229 -25v1459h242v-1074l780 1074h222v-1434h-244v1167l-858 -1192h-142z" />
    <glyph glyph-name="uni041A" unicode="&#x41a;" horiz-adv-x="1486" 
d="M229 0v1434h244v-648h199l530 648h162l-500 -625l578 -809h-293l-473 647h-203v-647h-244z" />
    <glyph glyph-name="uni041B" unicode="&#x41b;" horiz-adv-x="1605" 
d="M158 -27q-88 0 -144 27v242q77 -15 131 -15q85 0 132.5 51.5t60.5 163.5q50 202 37 758l-10 234h1013v-1434h-245v1294h-582l-12 -168q-32 -677 -111 -913q-74 -240 -270 -240z" />
    <glyph glyph-name="uni041C" unicode="&#x41c;" horiz-adv-x="2033" 
d="M229 0v1434h326l469 -1129l465 1129h317v-1434h-243v1264l-516 -1264h-162l-514 1255v-1255h-142z" />
    <glyph glyph-name="uni041D" unicode="&#x41d;" horiz-adv-x="1679" 
d="M229 0v1434h246v-648h731v648h246v-1434h-246v647h-731v-647h-246z" />
    <glyph glyph-name="uni041E" unicode="&#x41e;" horiz-adv-x="1726" 
d="M864 -31q-159 0 -297.5 57t-236.5 155.5t-154.5 237.5t-56.5 298q0 213 96 384t266.5 267t382.5 96q159 0 297.5 -56.5t236.5 -155t154 -237t56 -298.5q0 -159 -56 -298t-154 -237.5t-236.5 -155.5t-297.5 -57zM864 111q220 0 357 165t137 441q0 277 -137 442.5
t-357 165.5q-222 0 -358.5 -165.5t-136.5 -442.5q0 -276 136.5 -441t358.5 -165z" />
    <glyph glyph-name="uni041F" unicode="&#x41f;" horiz-adv-x="1679" 
d="M229 0v1434h1223v-1434h-246v1294h-731v-1294h-246z" />
    <glyph glyph-name="uni0420" unicode="&#x420;" horiz-adv-x="1370" 
d="M229 0v1434h480q269 0 419 -114t150 -316q0 -201 -150.5 -316t-418.5 -115h-236v-573h-244zM473 692h234q154 0 239.5 81t85.5 226t-85.5 226.5t-239.5 81.5h-234v-615z" />
    <glyph glyph-name="uni0421" unicode="&#x421;" horiz-adv-x="1619" 
d="M850 -31q-159 0 -295 55.5t-232 153.5t-150 237t-54 302q0 218 92.5 388.5t259 264.5t379.5 94q177 0 323.5 -74t238 -208t110.5 -305h-146q-31 193 -165.5 312.5t-325.5 119.5q-229 0 -372.5 -164t-143.5 -428q0 -262 144 -427t372 -165q191 0 325.5 120.5t165.5 313.5
h146q-19 -171 -110.5 -305.5t-238 -209.5t-323.5 -75z" />
    <glyph glyph-name="uni0422" unicode="&#x422;" horiz-adv-x="1351" 
d="M553 0v1294h-516v140h1280v-140h-518v-1294h-246z" />
    <glyph glyph-name="uni0423" unicode="&#x423;" horiz-adv-x="1335" 
d="M547 -31q-156 0 -260.5 103.5t-104.5 275.5v64h144v-66q0 -104 55.5 -170.5t146.5 -66.5q83 0 130 44.5t47 116.5q0 76 -52 158l-633 1006h289l488 -799q52 -83 63 -170l318 969h149l-375 -1115q-61 -179 -158.5 -264.5t-246.5 -85.5z" />
    <glyph glyph-name="uni0424" unicode="&#x424;" horiz-adv-x="2078" 
d="M918 0v209h-132q-319 0 -497 139t-178 387t178 387.5t497 139.5h132v192h245v-192h131q319 0 497.5 -139.5t178.5 -387.5t-178.5 -387t-497.5 -139h-131v-209h-245zM782 336h136v799h-136q-203 0 -312.5 -104.5t-109.5 -295.5q0 -190 109.5 -294.5t312.5 -104.5z
M1163 336h135q202 0 311 104.5t109 294.5q0 191 -109 295.5t-311 104.5h-135v-799z" />
    <glyph glyph-name="uni0425" unicode="&#x425;" horiz-adv-x="1429" 
d="M43 0l526 711l-514 723h285l410 -560l421 560h166l-491 -654l551 -780h-287l-440 610l-459 -610h-168z" />
    <glyph glyph-name="uni0426" unicode="&#x426;" horiz-adv-x="1720" 
d="M1421 -332v332h-1192v1434h246v-1295h737v1295h246v-1295h184v-471h-221z" />
    <glyph glyph-name="uni0427" unicode="&#x427;" horiz-adv-x="1505" 
d="M1032 0v575h-315q-278 0 -430 118.5t-152 336.5v404h246v-430q0 -140 88 -217.5t248 -77.5h315v725h246v-1434h-246z" />
    <glyph glyph-name="uni0428" unicode="&#x428;" horiz-adv-x="2320" 
d="M229 0v1434h246v-1295h563v1295h246v-1295h563v1295h246v-1434h-1864z" />
    <glyph glyph-name="uni0429" unicode="&#x429;" horiz-adv-x="2357" 
d="M2058 -332v332h-1829v1434h246v-1295h563v1295h246v-1295h563v1295h246v-1295h186v-471h-221z" />
    <glyph glyph-name="uni042A" unicode="&#x42a;" horiz-adv-x="1587" 
d="M913 860q268 0 418 -114t150 -316q0 -200 -150.5 -315t-417.5 -115h-489v1294h-387v140h631v-574h245zM907 129q155 0 241.5 81t86.5 226t-86.5 226t-241.5 81h-239v-614h239z" />
    <glyph glyph-name="uni042B" unicode="&#x42b;" horiz-adv-x="2025" 
d="M229 0v1434h244v-574h246q268 0 417.5 -114t149.5 -316q0 -201 -150 -315.5t-417 -114.5h-490zM1554 0v1434h246v-1434h-246zM473 129h240q155 0 241 81t86 226t-86 226t-241 81h-240v-614z" />
    <glyph glyph-name="uni042C" unicode="&#x42c;" horiz-adv-x="1392" 
d="M229 0v1434h244v-574h246q268 0 417.5 -114t149.5 -316q0 -201 -150 -315.5t-417 -114.5h-490zM473 129h240q155 0 241 81t86 226t-86 226t-241 81h-240v-614z" />
    <glyph glyph-name="uni042D" unicode="&#x42d;" horiz-adv-x="1587" 
d="M748 -31q-178 0 -325.5 74t-240.5 206t-114 300h141q34 -192 172 -311t332 -119q212 0 349.5 150t151.5 393h-526v112h526q-14 243 -151.5 393t-349.5 150q-194 0 -332 -119t-172 -311h-141q32 255 221 416t459 161q210 0 374.5 -94.5t256 -265t91.5 -387.5
q0 -163 -53.5 -302t-148 -237t-229 -153.5t-291.5 -55.5z" />
    <glyph glyph-name="uni042E" unicode="&#x42e;" horiz-adv-x="2334" 
d="M1491 -31q-195 0 -354 86.5t-255.5 241t-111.5 350.5h-295v-647h-246v1434h246v-648h295q15 196 111.5 350.5t255.5 241t354 86.5q155 0 290.5 -56.5t231 -155t150.5 -237t55 -298.5q0 -159 -55 -298t-150.5 -237.5t-231 -155.5t-290.5 -57zM1491 111q213 0 344 165
t131 441q0 277 -131 442.5t-344 165.5t-345 -165.5t-132 -442.5q0 -276 132 -441t345 -165z" />
    <glyph glyph-name="uni042F" unicode="&#x42f;" horiz-adv-x="1466" 
d="M18 0l443 635q-143 43 -223 140t-80 233q0 199 151.5 312.5t423.5 113.5h506v-1434h-244v582h-233q-42 0 -60 4l-407 -586h-277zM735 700h260v605h-260q-158 0 -246 -80t-88 -221q0 -143 88 -223.5t246 -80.5z" />
    <glyph glyph-name="uni0430" unicode="&#x430;" horiz-adv-x="1228" 
d="M412 -23q-161 0 -248.5 74t-87.5 197q0 277 489 311q134 10 201.5 39.5t67.5 89.5q0 111 -73 176.5t-190 65.5q-122 0 -204.5 -72t-104.5 -196h-121q25 178 150 280t313 102q197 0 316.5 -112.5t119.5 -304.5v-510h131v-117h-327v225q-55 -117 -169.5 -182.5
t-262.5 -65.5zM481 94q148 0 251.5 104.5t103.5 258.5l2 96q-53 -47 -217 -64q-171 -19 -248.5 -71.5t-77.5 -149.5q0 -85 49.5 -129.5t136.5 -44.5z" />
    <glyph glyph-name="uni0431" unicode="&#x431;" horiz-adv-x="1302" 
d="M668 -20q-242 0 -398.5 149t-156.5 389v195q4 300 160.5 463t435.5 163h268v119h119v-305h-426q-221 0 -331 -97t-110 -302v-70q57 122 179 193t278 71q224 0 373 -136.5t149 -342.5q0 -104 -41 -195t-112.5 -155.5t-172 -101.5t-214.5 -37zM662 90q144 0 235.5 104
t91.5 273q0 167 -91.5 271t-235.5 104q-145 0 -236.5 -103.5t-91.5 -271.5q0 -169 91 -273t237 -104z" />
    <glyph glyph-name="uni0432" unicode="&#x432;" horiz-adv-x="1187" 
d="M184 0v1024h478q192 0 296.5 -69.5t104.5 -196.5q0 -176 -203 -232v-8q120 -25 182 -88.5t62 -159.5q0 -128 -106.5 -199t-309.5 -71h-504zM395 555h234q109 0 169 48t60 136q0 91 -59 140t-166 49h-238v-373zM395 98h264q109 0 169.5 50t60.5 141q0 88 -61.5 135
t-174.5 47h-258v-373z" />
    <glyph glyph-name="uni0433" unicode="&#x433;" horiz-adv-x="950" 
d="M184 0v1024h738v-123h-523v-901h-215z" />
    <glyph glyph-name="uni0434" unicode="&#x434;" horiz-adv-x="1239" 
d="M25 -252v371h120q86 272 86 610q0 29 -10 141l-8 154h819v-905h150v-371h-191v252h-776v-252h-190zM270 115h547v796h-438l-8 -163q-26 -371 -101 -633z" />
    <glyph glyph-name="uni0435" unicode="&#x435;" horiz-adv-x="1249" 
d="M637 -20q-237 0 -391 149.5t-154 380.5q0 232 156 383t393 151q233 0 384 -149.5t153 -380.5q0 -29 -2 -41h-869q10 -172 109 -274.5t252 -102.5q118 0 207 57t126 154h129q-38 -145 -170 -236t-323 -91zM965 555q-9 178 -99.5 281.5t-228.5 103.5t-229.5 -104.5
t-100.5 -270.5v-10h658z" />
    <glyph glyph-name="uni0436" unicode="&#x436;" horiz-adv-x="1689" 
d="M43 0l381 592l-342 432h143l365 -451h147v881h215v-881h148l366 451h142l-340 -432l381 -592h-244l-305 453h-148v-453h-215v453h-147l-305 -453h-242z" />
    <glyph glyph-name="uni0437" unicode="&#x437;" horiz-adv-x="1091" 
d="M555 -25q-214 0 -351.5 105.5t-154.5 290.5h123q15 -128 107.5 -202.5t244.5 -74.5q131 0 204 55t73 148q0 76 -64 125t-157 49h-123v84h116q88 0 147.5 49.5t59.5 122.5q0 93 -70 148t-190 55q-138 0 -223.5 -72.5t-99.5 -198.5h-123q12 175 141.5 282.5t341.5 107.5
q203 0 317.5 -85.5t114.5 -220.5q0 -78 -50 -136.5t-140 -86.5q99 -25 160 -89t61 -148q0 -144 -126 -226t-339 -82z" />
    <glyph glyph-name="uni0438" unicode="&#x438;" horiz-adv-x="1343" 
d="M184 -18v1042h213v-739l574 739h188v-1024h-213v805l-631 -823h-131z" />
    <glyph glyph-name="uni0439" unicode="&#x439;" horiz-adv-x="1343" 
d="M676 1159q-171 0 -275 101.5t-104 263.5v16h106v-14q0 -96 71.5 -150.5t201.5 -54.5q131 0 202.5 54.5t71.5 150.5v14h107v-16q0 -162 -105 -263.5t-276 -101.5zM184 -18v1042h213v-739l574 739h188v-1024h-213v805l-631 -823h-131z" />
    <glyph glyph-name="uni043A" unicode="&#x43a;" horiz-adv-x="1173" 
d="M184 0v1454h215v-881h148l393 451h141l-372 -434l430 -590h-250l-346 453h-144v-453h-215z" />
    <glyph glyph-name="uni043B" unicode="&#x43b;" horiz-adv-x="1267" 
d="M135 -23q-65 0 -117 25v191q56 -15 101 -15q59 0 93.5 29.5t47.5 93.5q39 127 29 549l-8 174h802v-1024h-215v903h-426l-8 -119q-13 -254 -32.5 -409.5t-53.5 -229.5q-34 -89 -86.5 -128.5t-126.5 -39.5z" />
    <glyph glyph-name="uni043C" unicode="&#x43c;" horiz-adv-x="1615" 
d="M184 0v1024h281l352 -774l348 774h267v-1024h-213v858l-388 -858h-124l-396 858v-858h-127z" />
    <glyph glyph-name="uni043D" unicode="&#x43d;" horiz-adv-x="1331" 
d="M184 0v1024h215v-451h533v451h215v-1024h-215v453h-533v-453h-215z" />
    <glyph glyph-name="uni043E" unicode="&#x43e;" horiz-adv-x="1300" 
d="M651 -20q-241 0 -400 151.5t-159 380.5q0 230 158.5 381t400.5 151q241 0 399 -151t158 -381q0 -229 -158 -380.5t-399 -151.5zM651 98q149 0 243.5 114t94.5 300q0 187 -94.5 301.5t-243.5 114.5q-150 0 -244 -114t-94 -302q0 -186 94 -300t244 -114z" />
    <glyph glyph-name="uni043F" unicode="&#x43f;" horiz-adv-x="1331" 
d="M184 0v1024h963v-1024h-215v903h-533v-903h-215z" />
    <glyph glyph-name="uni0440" unicode="&#x440;" horiz-adv-x="1355" 
d="M184 -410v1434h207v-219q52 112 151.5 175.5t229.5 63.5q212 0 352 -150t140 -382q0 -231 -140 -381.5t-352 -150.5q-127 0 -224 62.5t-149 172.5v-625h-215zM725 109q139 0 229 109.5t90 293.5q0 185 -89.5 294t-229.5 109q-142 0 -237 -116t-95 -287t95 -287t237 -116z
" />
    <glyph glyph-name="uni0441" unicode="&#x441;" horiz-adv-x="1214" 
d="M635 -20q-236 0 -389.5 150.5t-153.5 381.5q0 232 153.5 382t389.5 150q203 0 338.5 -111t163.5 -296h-127q-28 129 -119.5 206t-222.5 77q-160 0 -258.5 -112.5t-98.5 -295.5q0 -182 98.5 -294t258.5 -112q131 0 222.5 76.5t119.5 206.5h127q-28 -186 -163.5 -297.5
t-338.5 -111.5z" />
    <glyph glyph-name="uni0442" unicode="&#x442;" horiz-adv-x="1097" 
d="M442 0v901h-393v123h1000v-123h-392v-901h-215z" />
    <glyph glyph-name="uni0443" unicode="&#x443;" horiz-adv-x="1140" 
d="M393 -430q-149 0 -245.5 93.5t-96.5 254.5v53h121v-61q0 -102 59.5 -164.5t151.5 -62.5q85 0 136.5 50.5t51.5 133.5v20q0 86 -71 224l-480 913h240l352 -682q45 -97 52 -141q6 33 20 67l305 756h135l-354 -858q-35 -85 -35 -184v-58q0 -163 -95.5 -258.5t-246.5 -95.5z
" />
    <glyph glyph-name="uni0444" unicode="&#x444;" horiz-adv-x="1943" 
d="M864 -410v611q-45 -105 -129 -163t-198 -58q-192 0 -318.5 149.5t-126.5 382.5t126.5 382.5t318.5 149.5q114 0 198 -57.5t129 -163.5v631h215v-631q46 105 130.5 163t197.5 58q193 0 318.5 -149t125.5 -383t-125.5 -383t-318.5 -149q-112 0 -196.5 58.5t-131.5 162.5
v-611h-215zM590 109q123 0 203.5 115.5t80.5 287.5q0 174 -81.5 288.5t-206.5 114.5q-121 0 -197 -106.5t-76 -290.5q0 -190 77.5 -299.5t199.5 -109.5zM1356 109q121 0 198.5 109.5t77.5 299.5q0 184 -76.5 290.5t-197.5 106.5q-124 0 -205.5 -114.5t-81.5 -288.5
q0 -172 81 -287.5t204 -115.5z" />
    <glyph glyph-name="uni0445" unicode="&#x445;" horiz-adv-x="1161" 
d="M49 0l408 502l-404 522h256l299 -375l310 375h149l-375 -461l428 -563h-256l-325 418l-340 -418h-150z" />
    <glyph glyph-name="uni0446" unicode="&#x446;" horiz-adv-x="1349" 
d="M1102 -252v252h-918v1024h215v-905h529v905h215v-905h149v-371h-190z" />
    <glyph glyph-name="uni0447" unicode="&#x447;" horiz-adv-x="1200" 
d="M803 0v399h-248q-211 0 -326.5 85.5t-115.5 240.5v299h215v-303q0 -97 61.5 -150t173.5 -53h240v506h215v-1024h-215z" />
    <glyph glyph-name="uni0448" unicode="&#x448;" horiz-adv-x="1843" 
d="M184 0v1024h215v-905h416v905h215v-905h414v905h215v-1024h-1475z" />
    <glyph glyph-name="uni0449" unicode="&#x449;" horiz-adv-x="1861" 
d="M1614 -252v252h-1434v1024h215v-905h414v905h215v-905h416v905h215v-905h149v-371h-190z" />
    <glyph glyph-name="uni044A" unicode="&#x44a;" horiz-adv-x="1269" 
d="M758 621q204 0 320 -83t116 -229q0 -145 -116 -227t-320 -82h-416v905h-311v119h526v-403h201zM748 98q109 0 170 56.5t61 156.5t-62 156.5t-169 56.5h-191v-426h191z" />
    <glyph glyph-name="uni044B" unicode="&#x44b;" horiz-adv-x="1607" 
d="M184 0v1024h215v-403h201q204 0 320 -83t116 -229q0 -145 -116 -227t-320 -82h-416zM1208 0v1024h215v-1024h-215zM399 98h191q109 0 170 56.5t61 156.5t-62 156.5t-169 56.5h-191v-426z" />
    <glyph glyph-name="uni044C" unicode="&#x44c;" horiz-adv-x="1114" 
d="M184 0v1024h215v-403h201q204 0 320 -83t116 -229q0 -145 -116 -227t-320 -82h-416zM399 98h191q109 0 170 56.5t61 156.5t-62 156.5t-169 56.5h-191v-426z" />
    <glyph glyph-name="uni044D" unicode="&#x44d;" horiz-adv-x="1218" 
d="M594 -20q-207 0 -347 112t-171 297h125q30 -133 126.5 -211t239.5 -78q145 0 240.5 102t105.5 269h-374v84h374q-10 167 -105.5 269t-240.5 102q-143 0 -239.5 -78t-126.5 -211h-125q31 185 170.5 296t347.5 111q151 0 273 -68t191.5 -190t69.5 -274t-69.5 -274
t-191.5 -190t-273 -68z" />
    <glyph glyph-name="uni044E" unicode="&#x44e;" horiz-adv-x="1781" 
d="M1147 -20q-215 0 -364 133t-169 340h-215v-453h-215v1024h215v-451h215q20 207 168.5 339t364.5 132q235 0 389 -151t154 -381q0 -229 -154.5 -380.5t-388.5 -151.5zM1147 98q142 0 232.5 114t90.5 300q0 187 -90.5 301.5t-232.5 114.5t-232 -114.5t-90 -301.5
q0 -186 90 -300t232 -114z" />
    <glyph glyph-name="uni044F" unicode="&#x44f;" horiz-adv-x="1179" 
d="M25 0l313 442q-102 33 -158.5 103.5t-56.5 169.5q0 145 112 227t314 82h446v-1024h-213v397h-209q-18 0 -26 2l-277 -399h-245zM571 494h211v426h-211q-109 0 -171 -56.5t-62 -156.5q0 -99 62.5 -156t170.5 -57z" />
    <glyph glyph-name="uni0451" unicode="&#x451;" horiz-adv-x="1249" 
d="M461 1157l-117 369h252l-117 -369h-18zM770 1157l-115 369h250l-117 -369h-18zM637 -20q-237 0 -391 149.5t-154 380.5q0 232 156 383t393 151q233 0 384 -149.5t153 -380.5q0 -29 -2 -41h-869q10 -172 109 -274.5t252 -102.5q118 0 207 57t126 154h129
q-38 -145 -170 -236t-323 -91zM965 555q-9 178 -99.5 281.5t-228.5 103.5t-229.5 -104.5t-100.5 -270.5v-10h658z" />
    <glyph glyph-name="uni0454" unicode="&#x454;" horiz-adv-x="1220" 
d="M637 -20q-237 0 -391 150.5t-154 381.5t154 381.5t391 150.5q203 0 341 -111.5t167 -295.5h-125q-30 133 -124.5 211t-233.5 78q-150 0 -247 -101.5t-108 -269.5h375v-84h-375q11 -168 108 -269.5t247 -101.5q139 0 233.5 78t124.5 211h125q-29 -184 -167 -296.5
t-341 -112.5z" />
    <glyph glyph-name="uni0456" unicode="&#x456;" horiz-adv-x="583" 
d="M283 1157l-123 369h266l-123 -369h-20zM184 0v1024h215v-1024h-215z" />
    <glyph glyph-name="uni0457" unicode="&#x457;" horiz-adv-x="583" 
d="M129 1157l-117 369h252l-117 -369h-18zM438 1157l-114 369h249l-116 -369h-19zM184 0v1024h215v-1024h-215z" />
    <glyph glyph-name="uni045E" unicode="&#x45e;" horiz-adv-x="1140" 
d="M586 1159q-171 0 -275 101.5t-104 263.5v16h106v-14q0 -96 71.5 -150.5t201.5 -54.5q131 0 202.5 54.5t71.5 150.5v14h107v-16q0 -162 -105 -263.5t-276 -101.5zM393 -430q-149 0 -245.5 93.5t-96.5 254.5v53h121v-61q0 -102 59.5 -164.5t151.5 -62.5q85 0 136.5 50.5
t51.5 133.5v20q0 86 -71 224l-480 913h240l352 -682q45 -97 52 -141q6 33 20 67l305 756h135l-354 -858q-35 -85 -35 -184v-58q0 -163 -95.5 -258.5t-246.5 -95.5z" />
    <glyph glyph-name="uni0490" unicode="&#x490;" horiz-adv-x="1224" 
d="M950 1759h221v-465h-696v-1294h-246v1434h721v325z" />
    <glyph glyph-name="uni0491" unicode="&#x491;" horiz-adv-x="950" 
d="M184 -410v1434h547v236h191v-359h-523v-1311h-215z" />
    <glyph glyph-name="Wgrave" unicode="&#x1e80;" horiz-adv-x="2103" 
d="M1098 1587h-121l-215 348h219zM475 0l-409 1434h253l345 -1190l331 1190h213l344 -1190l349 1190h143l-410 -1434h-250l-335 1167l-324 -1167h-250z" />
    <glyph glyph-name="wgrave" unicode="&#x1e81;" horiz-adv-x="1636" 
d="M864 1178h-121l-215 348h220zM354 0l-311 1024h217l254 -819l254 819h195l251 -815l254 815h129l-311 -1024h-209l-258 827l-256 -827h-209z" />
    <glyph glyph-name="Wacute" unicode="&#x1e82;" horiz-adv-x="2103" 
d="M1010 1587l116 348h220l-216 -348h-120zM475 0l-409 1434h253l345 -1190l331 1190h213l344 -1190l349 1190h143l-410 -1434h-250l-335 1167l-324 -1167h-250z" />
    <glyph glyph-name="wacute" unicode="&#x1e83;" horiz-adv-x="1636" 
d="M776 1178l117 348h219l-215 -348h-121zM354 0l-311 1024h217l254 -819l254 819h195l251 -815l254 815h129l-311 -1024h-209l-258 827l-256 -827h-209z" />
    <glyph glyph-name="Wdieresis" unicode="&#x1e84;" horiz-adv-x="2103" 
d="M889 1567l-117 368h252l-117 -368h-18zM1198 1567l-115 368h250l-116 -368h-19zM475 0l-409 1434h253l345 -1190l331 1190h213l344 -1190l349 1190h143l-410 -1434h-250l-335 1167l-324 -1167h-250z" />
    <glyph glyph-name="wdieresis" unicode="&#x1e85;" horiz-adv-x="1636" 
d="M655 1157l-116 369h252l-117 -369h-19zM965 1157l-115 369h250l-117 -369h-18zM354 0l-311 1024h217l254 -819l254 819h195l251 -815l254 815h129l-311 -1024h-209l-258 827l-256 -827h-209z" />
    <glyph glyph-name="uni1E9E" unicode="&#x1e9e;" horiz-adv-x="1722" 
d="M1116 -29q-216 0 -354.5 122.5t-143.5 309.5h125q6 -132 98.5 -213t233.5 -81q143 0 229.5 90t86.5 225q0 141 -79.5 223t-213.5 82q-149 0 -273 -43l-16 -10l-14 80l473 553h-799v-1309h-240v1434h1303v-123l-445 -508q61 24 125 24q182 -3 301 -114.5t119 -280.5
q0 -199 -144 -330t-372 -131z" />
    <glyph glyph-name="Ygrave" unicode="&#x1ef2;" horiz-adv-x="1384" 
d="M743 1587h-120l-215 348h219zM571 0v551l-561 883h273l467 -748l467 748h159l-559 -885v-549h-246z" />
    <glyph glyph-name="ygrave" unicode="&#x1ef3;" horiz-adv-x="1140" 
d="M631 1178h-121l-215 348h219zM393 -430q-149 0 -245.5 93.5t-96.5 254.5v53h121v-61q0 -102 59.5 -164.5t151.5 -62.5q85 0 136.5 50.5t51.5 133.5v20q0 86 -71 224l-480 913h240l352 -682q45 -97 52 -141q6 33 20 67l305 756h135l-354 -858q-35 -85 -35 -184v-58
q0 -163 -95.5 -258.5t-246.5 -95.5z" />
    <glyph glyph-name="endash" unicode="&#x2013;" horiz-adv-x="1126" 
d="M154 557v117h819v-117h-819z" />
    <glyph glyph-name="emdash" unicode="&#x2014;" horiz-adv-x="1501" 
d="M154 557v117h1194v-117h-1194z" />
    <glyph glyph-name="quoteleft" unicode="&#x2018;" horiz-adv-x="448" 
d="M217 1485h109v-4q-119 -100 -142 -224q23 23 52 23q61 -9 98 -50t37 -97q0 -63 -43.5 -108.5t-110.5 -45.5t-111.5 44.5t-44.5 119.5q0 89 47 192t109 150z" />
    <glyph glyph-name="quoteright" unicode="&#x2019;" horiz-adv-x="448" 
d="M231 961h-108v4q118 99 141 223q-23 -23 -51 -23q-61 9 -98 50.5t-37 97.5q0 63 43 108t110 45t111.5 -44.5t44.5 -118.5q0 -89 -47 -192t-109 -150z" />
    <glyph glyph-name="quotesinglbase" unicode="&#x201a;" horiz-adv-x="448" 
d="M231 -215h-108v4q118 99 141 223q-22 -22 -51 -22q-61 9 -98 50t-37 97q0 63 43 108.5t110 45.5t111.5 -44.5t44.5 -119.5q0 -89 -47 -192t-109 -150z" />
    <glyph glyph-name="quotedblleft" unicode="&#x201c;" horiz-adv-x="860" 
d="M246 1485h108v-4q-118 -99 -141 -224q23 23 51 23q61 -9 98 -50t37 -97q0 -63 -43 -108.5t-110 -45.5q-66 0 -111 44.5t-45 119.5q0 89 47 192t109 150zM659 1485h109v-4q-118 -99 -141 -224q23 23 51 23q61 -9 98 -50t37 -97q0 -63 -43.5 -108.5t-110.5 -45.5
q-66 0 -110.5 44.5t-44.5 119.5q0 89 46.5 192t108.5 150z" />
    <glyph glyph-name="quotedblright" unicode="&#x201d;" horiz-adv-x="860" 
d="M203 961h-109v4q119 100 142 223q-23 -23 -52 -23q-61 9 -98 50.5t-37 97.5q0 63 43.5 108t110.5 45t111 -44t44 -119q0 -89 -46.5 -192t-108.5 -150zM616 961h-108v4q118 99 141 223q-23 -23 -51 -23q-61 9 -98 50.5t-37 97.5q0 63 43 108t110 45t111.5 -44.5
t44.5 -118.5q0 -89 -47 -192t-109 -150z" />
    <glyph glyph-name="quotedblbase" unicode="&#x201e;" horiz-adv-x="860" 
d="M231 -215h-108v4q118 99 141 223q-22 -22 -51 -22q-61 9 -98 50t-37 97q0 63 43 108.5t110 45.5t111.5 -44.5t44.5 -119.5q0 -89 -47 -192t-109 -150zM645 -215h-108v4q118 99 141 223q-22 -22 -51 -22q-61 9 -98 50t-37 97q0 63 43 108.5t110 45.5t111.5 -44.5
t44.5 -119.5q0 -89 -47 -192t-109 -150z" />
    <glyph glyph-name="dagger" unicode="&#x2020;" horiz-adv-x="690" 
d="M297 815v340h-272v92h272v207h96v-207h273v-92h-273v-340h-96z" />
    <glyph glyph-name="daggerdbl" unicode="&#x2021;" horiz-adv-x="690" 
d="M297 815v168h-272v88h272v127h-272v88h272v168h96v-168h273v-88h-273v-127h273v-88h-273v-168h-96z" />
    <glyph glyph-name="bullet" unicode="&#x2022;" horiz-adv-x="1146" 
d="M573 379q-100 0 -167.5 67.5t-67.5 167.5t67.5 168t167.5 68t168 -68t68 -168t-68 -167.5t-168 -67.5z" />
    <glyph glyph-name="ellipsis" unicode="&#x2026;" horiz-adv-x="1638" 
d="M287 -18q-65 0 -109.5 44.5t-44.5 110.5q0 65 44.5 109.5t109.5 44.5q66 0 109.5 -44.5t43.5 -109.5q0 -66 -43.5 -110.5t-109.5 -44.5zM819 -18q-65 0 -109 44.5t-44 110.5q0 65 44.5 109.5t108.5 44.5q66 0 110 -44.5t44 -109.5q0 -66 -44 -110.5t-110 -44.5zM1352 -18
q-65 0 -109.5 44.5t-44.5 110.5q0 65 45 109.5t109 44.5q66 0 109.5 -44.5t43.5 -109.5q0 -66 -43.5 -110.5t-109.5 -44.5z" />
    <glyph glyph-name="perthousand" unicode="&#x2030;" horiz-adv-x="2373" 
d="M414 764q-144 0 -243 98.5t-99 241.5q0 145 98.5 242.5t243.5 97.5q143 0 241.5 -98t98.5 -242q0 -142 -99 -241t-241 -99zM305 0l856 1434h117l-856 -1434h-117zM414 866q83 0 137.5 67t54.5 171q0 105 -54 171t-138 66q-85 0 -140 -66t-55 -171q0 -104 55 -171t140 -67
zM1171 -10q-145 0 -243.5 98.5t-98.5 243.5q0 143 99 241.5t243 98.5q143 0 241.5 -99t98.5 -241q0 -144 -98.5 -243t-241.5 -99zM1962 -10q-145 0 -242.5 98.5t-97.5 243.5q0 143 98 241.5t242 98.5q142 0 241 -99t99 -241q0 -144 -98.5 -243t-241.5 -99zM1171 92
q84 0 138.5 67.5t54.5 172.5q0 104 -54.5 170.5t-138.5 66.5q-85 0 -139.5 -66.5t-54.5 -170.5q0 -106 54.5 -173t139.5 -67zM1962 92q84 0 138 67.5t54 172.5q0 104 -54 170.5t-138 66.5t-139.5 -66.5t-55.5 -170.5q0 -105 55.5 -172.5t139.5 -67.5z" />
    <glyph glyph-name="guilsinglleft" unicode="&#x2039;" horiz-adv-x="663" 
d="M510 1024l-223 -410l223 -409h-139l-217 397v25l217 397h139z" />
    <glyph glyph-name="guilsinglright" unicode="&#x203a;" horiz-adv-x="663" 
d="M154 205l223 409l-223 410h139l217 -397v-25l-217 -397h-139z" />
    <glyph glyph-name="Euro" unicode="&#x20ac;" 
d="M795 -31q-226 0 -391 157t-209 417h-154v88h139q-2 29 -2 86q0 59 2 88h-139v88h154q44 259 209 415t391 156q216 0 378.5 -151t188.5 -400h-139q-21 186 -133.5 298t-262.5 112t-257 -117.5t-138 -312.5h459v-88h-473q0 -14 -1 -43t-1 -45q0 -15 1 -44t1 -42h473v-88
h-459q31 -195 138 -313.5t257 -118.5t262.5 112t133.5 297h139q-26 -248 -188.5 -399.5t-378.5 -151.5z" />
    <glyph glyph-name="uni20B4" unicode="&#x20b4;" 
d="M690 -31q-233 0 -369.5 98.5t-136.5 264.5q0 123 76 211h-170v88h260q69 43 235.5 98t213.5 76h-709v88h809q88 69 88 188q0 114 -82 183t-221 69q-142 0 -236 -78.5t-122 -218.5h-140q38 202 183.5 315t371.5 113q223 0 354.5 -98.5t131.5 -265.5q0 -123 -78 -207h199
v-88h-277q-69 -38 -231.5 -90t-227.5 -84h736v-88h-840q-86 -77 -86 -193q0 -114 89 -181t237 -67q152 0 254 80.5t133 225.5h145q-39 -206 -193.5 -322.5t-396.5 -116.5z" />
    <glyph glyph-name="uni20BD" unicode="&#x20bd;" 
d="M301 0v362h-219v89h219v153h-219v88h219v742h471q262 0 407.5 -110t145.5 -304t-146 -305t-407 -111h-227v-153h651v-89h-651v-362h-244zM545 692h227q154 0 240 81t86 226t-86 226.5t-240 81.5h-227v-615z" />
    <glyph glyph-name="uni2116" unicode="&#x2116;" horiz-adv-x="2488" 
d="M2036 754q-143 0 -241.5 99t-98.5 243q0 142 99 241t241 99q144 0 243 -98.5t99 -241.5q0 -145 -98.5 -243.5t-243.5 -98.5zM225 0v1434h250l823 -1088v1088h136v-1454h-152l-920 1202v-1182h-137zM2036 856q85 0 139.5 67t54.5 173q0 104 -54.5 170.5t-139.5 66.5
q-84 0 -138.5 -66.5t-54.5 -170.5q0 -105 54.5 -172.5t138.5 -67.5z" />
    <glyph glyph-name="trademark" unicode="&#x2122;" horiz-adv-x="1679" 
d="M270 819v533h-235v82h604v-82h-236v-533h-133zM770 819v615h172l209 -453l205 453h166v-615h-133v492l-226 -492h-82l-227 494v-494h-84z" />
    <glyph glyph-name="arrowleft" unicode="&#x2190;" 
d="M733 264l-733 441v30l733 441l68 -93l-432 -245v-60h1065v-116h-1065v-60l432 -246z" />
    <glyph glyph-name="arrowup" unicode="&#x2191;" 
d="M659 0v1067h-59l-246 -432l-92 67l440 732h31l441 -732l-93 -67l-245 432h-60v-1067h-117z" />
    <glyph glyph-name="arrowright" unicode="&#x2192;" 
d="M702 262l-67 92l432 246v59h-1067v117h1067v60l-432 245l67 93l732 -441v-31z" />
    <glyph glyph-name="arrowdown" unicode="&#x2193;" 
d="M702 0l-440 733l92 68l246 -432h59v1065h117v-1065h60l245 432l93 -68l-441 -733h-31z" />
    <glyph glyph-name="arrowboth" unicode="&#x2194;" horiz-adv-x="1884" 
d="M709 276l-715 426v31l715 424l67 -92l-420 -234v-59h1174v59l-422 234l68 92l714 -424v-31l-714 -426l-68 95l422 233v60h-1174v-60l420 -233z" />
    <glyph glyph-name="arrowupdn" unicode="&#x2195;" 
d="M702 -231l-426 714l95 68l233 -420h60v1174h-60l-233 -422l-95 67l426 715h31l424 -715l-92 -67l-234 422h-59v-1174h59l234 420l92 -68l-424 -714h-31z" />
    <glyph glyph-name="uni2196" unicode="&#x2196;" 
d="M1182 170l-754 754l-41 -41l131 -480l-112 -18l-207 829l22 23l830 -207l-19 -112l-479 131l-41 -41l754 -754z" />
    <glyph glyph-name="uni2197" unicode="&#x2197;" 
d="M252 170l-84 84l754 754l-41 41l-480 -131l-18 112l829 207l23 -23l-207 -829l-113 18l132 480l-41 41z" />
    <glyph glyph-name="uni2198" unicode="&#x2198;" 
d="M1212 199l-829 207l18 112l480 -131l41 41l-754 754l84 84l754 -754l41 41l-132 479l113 19l207 -830z" />
    <glyph glyph-name="uni2199" unicode="&#x2199;" 
d="M221 199l-22 22l207 830l112 -19l-131 -479l41 -41l754 754l84 -84l-754 -754l41 -41l479 131l19 -112z" />
    <glyph glyph-name="uni21B0" unicode="&#x21b0;" horiz-adv-x="1495" 
d="M1317 0v659h-948v-59l432 -246l-68 -92l-733 440v31l733 441l68 -93l-432 -245v-60h1065v-776h-117z" />
    <glyph glyph-name="uni21B1" unicode="&#x21b1;" horiz-adv-x="1495" 
d="M61 0v776h1067v60l-432 245l68 93l731 -441v-31l-731 -440l-68 92l432 246v59h-948v-659h-119z" />
    <glyph glyph-name="uni21B2" unicode="&#x21b2;" horiz-adv-x="1495" 
d="M733 262l-733 440v31l733 441l68 -93l-432 -245v-60h948v658h117v-775h-1065v-59l432 -246z" />
    <glyph glyph-name="uni21B3" unicode="&#x21b3;" horiz-adv-x="1495" 
d="M764 262l-68 92l432 246v59h-1067v775h119v-658h948v60l-432 245l68 93l731 -441v-31z" />
    <glyph glyph-name="minus" unicode="&#x2212;" horiz-adv-x="1146" 
d="M154 659v117h839v-117h-839z" />
    <glyph glyph-name="approxequal" unicode="&#x2248;" horiz-adv-x="1146" 
d="M152 807q0 102 59 164.5t149 62.5q39 0 82.5 -11t68.5 -21.5t69 -30.5q116 -49 178 -49q51 0 86 31t35 75h118q0 -101 -59.5 -163t-149.5 -62q-86 0 -219 61q-43 18 -61.5 25.5t-53.5 16.5t-63 9q-50 0 -85.5 -32t-35.5 -76h-118zM152 408q0 102 59 164.5t149 62.5
q39 0 83.5 -11.5t67.5 -21.5t69 -31q116 -49 178 -49q51 0 86 31.5t35 75.5h118q0 -101 -60 -163.5t-149 -62.5q-39 0 -82 11t-68.5 21t-68.5 30q-43 18 -61.5 25.5t-53.5 16.5t-63 9q-50 0 -85.5 -32t-35.5 -76h-118z" />
    <glyph glyph-name="notequal" unicode="&#x2260;" horiz-adv-x="1146" 
d="M993 864h-291l-139 -293h430v-116h-479l-94 -199h-117l94 199h-243v116h290l142 293h-432v117h481l94 197h117l-94 -197h241v-117z" />
    <glyph glyph-name="lessequal" unicode="&#x2264;" horiz-adv-x="1146" 
d="M993 1280v-125l-657 -309l657 -309v-131l-839 395v86zM154 170v117h839v-117h-839z" />
    <glyph glyph-name="greaterequal" unicode="&#x2265;" horiz-adv-x="1146" 
d="M154 406v126l657 308l-657 309v131l839 -393v-86zM154 170v117h839v-117h-839z" />
    <glyph glyph-name="uni2605" unicode="&#x2605;" horiz-adv-x="2179" 
d="M995 -80l45 512l-397 -354l-350 104l98 353h608l-753 231v354l327 84l451 -538l-258 723l324 272l323 -272l-258 -723l451 538l327 -84v-354l-753 -231h608l98 -353l-350 -104l-397 354l45 -512h-189z" />
    <glyph glyph-name="M.ss03" horiz-adv-x="2320" 
d="M2091 1434v-1434h-246v1294h-563v-1294h-246v1294h-563v-1294h-246v1434h1864z" />
    <glyph glyph-name="N.ss03" horiz-adv-x="1679" 
d="M229 0v1434h1223v-1434h-246v1294h-731v-1294h-246z" />
    <glyph glyph-name="Nacute.ss03" horiz-adv-x="1679" 
d="M797 1587l116 348h220l-215 -348h-121zM229 0v1434h1223v-1434h-246v1294h-731v-1294h-246z" />
    <glyph glyph-name="Ncaron.ss03" horiz-adv-x="1679" 
d="M451 1935h235l203 -221l203 221h139l-285 -327h-211zM229 0v1434h1223v-1434h-246v1294h-731v-1294h-246z" />
    <glyph glyph-name="uni0145.ss03" horiz-adv-x="1679" 
d="M229 0v1434h1223v-1434h-246v1294h-731v-1294h-246zM817 -502h-96v4q126 90 133 162q-11 -8 -45 -8q-51 0 -80 27t-29 67q0 43 39.5 73t100.5 30q63 0 102 -30t39 -83q0 -66 -49.5 -136.5t-114.5 -105.5z" />
    <glyph glyph-name="Eng.ss03" horiz-adv-x="1679" 
d="M1065 -430q-143 0 -239.5 79t-96.5 197h121v-2q0 -73 62 -121.5t149 -48.5q92 0 152.5 54t60.5 159q0 41 -17 95t-34 127t-17 159v1026h-731v-1294h-246v1434h1223v-1467q0 -192 -103 -294.5t-284 -102.5z" />
    <glyph glyph-name="Ntilde.ss03" horiz-adv-x="1679" 
d="M451 1657q0 116 57.5 182t150.5 66q64 0 132 -23.5t129 -47.5t106 -24q41 0 69.5 25.5t28.5 65.5h107q0 -116 -58 -182t-151 -66q-64 0 -132.5 23.5t-129.5 47t-105 23.5q-42 0 -70 -25t-28 -65h-106zM229 0v1434h1223v-1434h-246v1294h-731v-1294h-246z" />
    <glyph glyph-name="S.ss03" horiz-adv-x="1245" 
d="M57 0v133h826l-793 1184v117h1053v-134h-752l793 -1181v-119h-1127z" />
    <glyph glyph-name="Sacute.ss03" horiz-adv-x="1245" 
d="M588 1587l117 348h219l-215 -348h-121zM57 0v133h826l-793 1184v117h1053v-134h-752l793 -1181v-119h-1127z" />
    <glyph glyph-name="Scaron.ss03" horiz-adv-x="1245" 
d="M242 1935h235l203 -221l203 221h139l-285 -327h-211zM57 0v133h826l-793 1184v117h1053v-134h-752l793 -1181v-119h-1127z" />
    <glyph glyph-name="Scedilla.ss03" horiz-adv-x="1245" 
d="M57 0v133h826l-793 1184v117h1053v-134h-752l793 -1181v-119h-1127zM723 -154l-117 -348h-219l215 348h121z" />
    <glyph glyph-name="uni0218.ss03" horiz-adv-x="1245" 
d="M57 0v133h826l-793 1184v117h1053v-134h-752l793 -1181v-119h-1127zM637 -502h-96v4q126 90 133 162q-11 -8 -45 -8q-51 0 -80 27t-29 67q0 43 39 73t100 30q63 0 102.5 -30t39.5 -83q0 -66 -49.5 -136.5t-114.5 -105.5z" />
    <glyph glyph-name="U.ss03" horiz-adv-x="1679" 
d="M1450 1434v-1434h-1223v1434h246v-1295h731v1295h246z" />
    <glyph glyph-name="Uacute.ss03" horiz-adv-x="1679" 
d="M797 1587l116 348h220l-215 -348h-121zM1450 1434v-1434h-1223v1434h246v-1295h731v1295h246z" />
    <glyph glyph-name="Ucircumflex.ss03" horiz-adv-x="1679" 
d="M1229 1608h-236l-202 221l-203 -221h-139l284 327h211zM1450 1434v-1434h-1223v1434h246v-1295h731v1295h246z" />
    <glyph glyph-name="Udieresis.ss03" horiz-adv-x="1679" 
d="M676 1567l-117 368h252l-117 -368h-18zM985 1567l-115 368h250l-116 -368h-19zM1450 1434v-1434h-1223v1434h246v-1295h731v1295h246z" />
    <glyph glyph-name="Ugrave.ss03" horiz-adv-x="1679" 
d="M885 1587h-121l-215 348h219zM1450 1434v-1434h-1223v1434h246v-1295h731v1295h246z" />
    <glyph glyph-name="Uhungarumlaut.ss03" horiz-adv-x="1679" 
d="M612 1587l105 348h198l-194 -348h-109zM936 1587l104 348h199l-195 -348h-108zM1450 1434v-1434h-1223v1434h246v-1295h731v1295h246z" />
    <glyph glyph-name="Umacron.ss03" horiz-adv-x="1679" 
d="M512 1831h655v-96h-655v96zM1450 1434v-1434h-1223v1434h246v-1295h731v1295h246z" />
    <glyph glyph-name="Uogonek.ss03" horiz-adv-x="1679" 
d="M1450 1434v-1434h-1223v1434h246v-1295h731v1295h246zM1460 -154l-117 -348h-219l215 348h121z" />
    <glyph glyph-name="Uring.ss03" horiz-adv-x="1679" 
d="M840 1563q-114 0 -192.5 78.5t-78.5 191.5t78.5 192.5t192.5 79.5q112 0 192 -79.5t80 -192.5q0 -112 -79.5 -191t-192.5 -79zM840 1706q86 0 134 35t48 92t-48 93t-134 36t-133.5 -35.5t-47.5 -93.5q0 -57 47.5 -92t133.5 -35zM1450 1434v-1434h-1223v1434h246v-1295
h731v1295h246z" />
    <glyph glyph-name="W.ss03" horiz-adv-x="2320" 
d="M229 0v1434h246v-1295h563v1295h246v-1295h563v1295h246v-1434h-1864z" />
    <glyph glyph-name="Wacute.ss03" horiz-adv-x="2320" 
d="M1118 1587l117 348h219l-215 -348h-121zM229 0v1434h246v-1295h563v1295h246v-1295h563v1295h246v-1434h-1864z" />
    <glyph glyph-name="Wcircumflex.ss03" horiz-adv-x="2320" 
d="M1550 1608h-235l-203 221l-203 -221h-139l285 327h211zM229 0v1434h246v-1295h563v1295h246v-1295h563v1295h246v-1434h-1864z" />
    <glyph glyph-name="Wdieresis.ss03" horiz-adv-x="2320" 
d="M997 1567l-116 368h252l-117 -368h-19zM1307 1567l-115 368h250l-117 -368h-18zM229 0v1434h246v-1295h563v1295h246v-1295h563v1295h246v-1434h-1864z" />
    <glyph glyph-name="Wgrave.ss03" horiz-adv-x="2320" 
d="M1206 1587h-121l-215 348h220zM229 0v1434h246v-1295h563v1295h246v-1295h563v1295h246v-1434h-1864z" />
    <glyph glyph-name="i.loclTRK" horiz-adv-x="583" 
d="M283 1157l-123 369h266l-123 -369h-20zM184 0v1024h215v-1024h-215z" />
    <glyph glyph-name="g.alt" horiz-adv-x="1376" 
d="M735 -430q-280 0 -438 85t-158 234q0 106 86 179.5t240 103.5q-78 9 -140 22t-120.5 34.5t-98 49.5t-63 69.5t-23.5 92.5q0 58 41 101.5t109 50.5q40 0 70 -12q-35 53 -35 127q0 152 143.5 244.5t401.5 92.5q263 0 406.5 -92t143.5 -245q0 -155 -147.5 -244.5
t-398.5 -89.5q-101 0 -178.5 15t-122 37t-79 43.5t-70.5 36.5t-75 15t-62.5 -22.5t-23.5 -55.5q0 -42 23.5 -74.5t66 -53.5t100.5 -35.5t126 -23t144.5 -14.5t155.5 -11h8t7 -0.5t8 -0.5q130 -7 228 -28t173 -59.5t113.5 -99t38.5 -142.5q0 -154 -160.5 -242t-439.5 -88z
M754 461q152 0 240.5 66t88.5 180q0 117 -87.5 183t-241.5 66q-155 0 -243.5 -66t-88.5 -183q0 -115 88 -180.5t244 -65.5zM737 -330q173 0 274 63.5t101 172.5q0 118 -96 179.5t-279 61.5q-174 0 -274.5 -64t-100.5 -177q0 -109 101 -172.5t274 -63.5z" />
    <glyph glyph-name="f.long" horiz-adv-x="921" 
d="M276 0v907h-198v117h198v109q0 179 102.5 281t280.5 102q150 0 244 -86t94 -226h-120v6q-1 87 -62 142t-153 55q-97 0 -159.5 -56.5t-62.5 -164.5q0 -25 5 -50.5t13.5 -58t12.5 -53.5h672v-117h-662q11 -33 11 -80v-827h-216z" />
    <glyph glyph-name="m.ss03" horiz-adv-x="1843" 
d="M184 0v1024h1475v-1024h-215v907h-414v-907h-215v907h-416v-907h-215z" />
    <glyph glyph-name="n.ss03" horiz-adv-x="1331" 
d="M184 0v1024h963v-1024h-215v903h-533v-903h-215z" />
    <glyph glyph-name="nacute.ss03" horiz-adv-x="1331" 
d="M623 1178l116 348h219l-215 -348h-120zM184 0v1024h963v-1024h-215v903h-533v-903h-215z" />
    <glyph glyph-name="ncaron.ss03" horiz-adv-x="1331" 
d="M276 1526h236l203 -221l203 221h139l-285 -328h-211zM184 0v1024h963v-1024h-215v903h-533v-903h-215z" />
    <glyph glyph-name="uni0146.ss03" horiz-adv-x="1331" 
d="M184 0v1024h963v-1024h-215v903h-533v-903h-215zM643 -502h-96v4q126 90 133 162q-11 -8 -45 -8q-51 0 -80 27t-29 67q0 43 39.5 73t100.5 30q63 0 102 -30t39 -83q0 -66 -49.5 -136.5t-114.5 -105.5z" />
    <glyph glyph-name="eng.ss03" horiz-adv-x="1331" 
d="M770 -430q-148 0 -247 79t-99 197h121v-2q0 -73 64 -121.5t155 -48.5q94 0 156.5 54t62.5 159q0 44 -25.5 159t-25.5 206v651h-533v-903h-215v1024h963v-1057q0 -192 -100.5 -294.5t-276.5 -102.5z" />
    <glyph glyph-name="ntilde.ss03" horiz-adv-x="1331" 
d="M276 1247q0 116 58 182t151 66q64 0 132 -23.5t129 -47t106 -23.5q41 0 69.5 25t28.5 65h107q0 -116 -58 -182t-151 -66q-64 0 -132.5 23.5t-129.5 47t-105 23.5q-42 0 -70 -25t-28 -65h-107zM184 0v1024h963v-1024h-215v903h-533v-903h-215z" />
    <glyph glyph-name="r.ss03" horiz-adv-x="950" 
d="M184 0v1024h738v-123h-523v-901h-215z" />
    <glyph glyph-name="racute.ss03" horiz-adv-x="950" 
d="M512 1178l117 348h219l-215 -348h-121zM184 0v1024h738v-123h-523v-901h-215z" />
    <glyph glyph-name="rcaron.ss03" horiz-adv-x="950" 
d="M166 1526h235l203 -221l203 221h139l-284 -328h-211zM184 0v1024h738v-123h-523v-901h-215z" />
    <glyph glyph-name="uni0157.ss03" horiz-adv-x="950" 
d="M184 0v1024h738v-123h-523v-901h-215zM270 -502h-96v4q126 90 133 162q-11 -8 -45 -8q-51 0 -79.5 27t-28.5 67q0 43 39 73t100 30q63 0 102 -30t39 -83q0 -66 -49.5 -136.5t-114.5 -105.5z" />
    <glyph glyph-name="s.ss03" horiz-adv-x="1040" 
d="M70 0v119h637l-629 807v98h854v-117h-590l629 -807v-100h-901z" />
    <glyph glyph-name="sacute.ss03" horiz-adv-x="1040" 
d="M475 1178l117 348h219l-215 -348h-121zM70 0v119h637l-629 807v98h854v-117h-590l629 -807v-100h-901z" />
    <glyph glyph-name="scaron.ss03" horiz-adv-x="1040" 
d="M129 1526h236l202 -221l203 221h139l-284 -328h-211zM70 0v119h637l-629 807v98h854v-117h-590l629 -807v-100h-901z" />
    <glyph glyph-name="scedilla.ss03" horiz-adv-x="1040" 
d="M70 0v119h637l-629 807v98h854v-117h-590l629 -807v-100h-901zM582 -154l-117 -348h-219l215 348h121z" />
    <glyph glyph-name="uni0219.ss03" horiz-adv-x="1040" 
d="M70 0v119h637l-629 807v98h854v-117h-590l629 -807v-100h-901zM496 -502h-97v4q126 90 133 162q-11 -8 -45 -8q-51 0 -79.5 27t-28.5 67q0 43 39 73t100 30q63 0 102 -30t39 -83q0 -66 -49.5 -136.5t-113.5 -105.5z" />
    <glyph glyph-name="germandbls.ss03" horiz-adv-x="1572" 
d="M276 -410v1317h-198v117h198v102q0 177 135.5 283.5t370.5 106.5q229 0 369.5 -104t140.5 -282v-219h-358l616 -811v-100h-876v119h616l-618 807v98h413v117q0 122 -92 190t-235 68q-142 0 -230 -61t-88 -173q0 -32 13 -73.5t26 -101t13 -136.5v-1264h-216z" />
    <glyph glyph-name="u.ss03" horiz-adv-x="1331" 
d="M1147 1024v-1024h-963v1024h215v-903h533v903h215z" />
    <glyph glyph-name="uacute.ss03" horiz-adv-x="1331" 
d="M623 1178l116 348h219l-215 -348h-120zM1147 1024v-1024h-963v1024h215v-903h533v903h215z" />
    <glyph glyph-name="ucircumflex.ss03" horiz-adv-x="1331" 
d="M1055 1198h-236l-203 221l-202 -221h-140l285 328h211zM1147 1024v-1024h-963v1024h215v-903h533v903h215z" />
    <glyph glyph-name="udieresis.ss03" horiz-adv-x="1331" 
d="M502 1157l-117 369h252l-117 -369h-18zM811 1157l-115 369h250l-117 -369h-18zM1147 1024v-1024h-963v1024h215v-903h533v903h215z" />
    <glyph glyph-name="ugrave.ss03" horiz-adv-x="1331" 
d="M711 1178h-121l-215 348h219zM1147 1024v-1024h-963v1024h215v-903h533v903h215z" />
    <glyph glyph-name="uhungarumlaut.ss03" horiz-adv-x="1331" 
d="M438 1178l105 348h198l-194 -348h-109zM762 1178l104 348h199l-195 -348h-108zM1147 1024v-1024h-963v1024h215v-903h533v903h215z" />
    <glyph glyph-name="umacron.ss03" horiz-adv-x="1331" 
d="M338 1421h655v-96h-655v96zM1147 1024v-1024h-963v1024h215v-903h533v903h215z" />
    <glyph glyph-name="uogonek.ss03" horiz-adv-x="1331" 
d="M1147 1024v-1024h-963v1024h215v-903h533v903h215zM1155 -154l-117 -348h-219l215 348h121z" />
    <glyph glyph-name="uring.ss03" horiz-adv-x="1331" 
d="M666 1153q-114 0 -192.5 78.5t-78.5 191.5t79 193t192 80q112 0 192 -80t80 -193q0 -112 -79.5 -191t-192.5 -79zM666 1296q86 0 134 35t48 92t-48 93t-134 36t-133.5 -35.5t-47.5 -93.5q0 -57 47.5 -92t133.5 -35zM1147 1024v-1024h-963v1024h215v-903h533v903h215z" />
    <glyph glyph-name="w.ss03" horiz-adv-x="1843" 
d="M184 0v1024h215v-905h416v905h215v-905h414v905h215v-1024h-1475z" />
    <glyph glyph-name="wacute.ss03" horiz-adv-x="1843" 
d="M879 1178l116 348h219l-215 -348h-120zM184 0v1024h215v-905h416v905h215v-905h414v905h215v-1024h-1475z" />
    <glyph glyph-name="wcircumflex.ss03" horiz-adv-x="1843" 
d="M1311 1198h-236l-203 221l-202 -221h-140l285 328h211zM184 0v1024h215v-905h416v905h215v-905h414v905h215v-1024h-1475z" />
    <glyph glyph-name="wdieresis.ss03" horiz-adv-x="1843" 
d="M758 1157l-117 369h252l-117 -369h-18zM1067 1157l-115 369h250l-117 -369h-18zM184 0v1024h215v-905h416v905h215v-905h414v905h215v-1024h-1475z" />
    <glyph glyph-name="wgrave.ss03" horiz-adv-x="1843" 
d="M967 1178h-121l-215 348h219zM184 0v1024h215v-905h416v905h215v-905h414v905h215v-1024h-1475z" />
    <glyph glyph-name="y.ss04" horiz-adv-x="1124" 
d="M457 -410v453l-437 981h232l360 -840l361 840h133l-434 -985v-449h-215z" />
    <glyph glyph-name="yacute.ss04" horiz-adv-x="1124" 
d="M530 1178l117 348h219l-215 -348h-121zM457 -410v453l-437 981h232l360 -840l361 840h133l-434 -985v-449h-215z" />
    <glyph glyph-name="ycircumflex.ss04" horiz-adv-x="1124" 
d="M963 1198h-236l-203 221l-202 -221h-140l285 328h211zM457 -410v453l-437 981h232l360 -840l361 840h133l-434 -985v-449h-215z" />
    <glyph glyph-name="ydieresis.ss04" horiz-adv-x="1124" 
d="M410 1157l-117 369h252l-117 -369h-18zM719 1157l-115 369h250l-117 -369h-18zM457 -410v453l-437 981h232l360 -840l361 840h133l-434 -985v-449h-215z" />
    <glyph glyph-name="ygrave.ss04" horiz-adv-x="1124" 
d="M618 1178h-120l-215 348h219zM457 -410v453l-437 981h232l360 -840l361 840h133l-434 -985v-449h-215z" />
    <glyph glyph-name="uni041D.ss02" horiz-adv-x="1658" 
d="M225 0v1434h250l823 -1088v1088h136v-1454h-152l-920 1202v-1182h-137z" />
    <glyph glyph-name="uni0417.ss03" horiz-adv-x="1316" 
d="M1047 -336v336h-965v119l858 1181h-815v134h1116v-117l-858 -1184h883v-469h-219z" />
    <glyph glyph-name="uni0421.ss03" horiz-adv-x="1249" 
d="M88 0v119l313 602l-303 596v117h1073v-134h-804l299 -583l-304 -584h852v-133h-1126z" />
    <glyph glyph-name="uni0422.ss03" horiz-adv-x="2320" 
d="M229 0v1434h1864v-1434h-246v1296h-563v-1296h-246v1296h-563v-1296h-246z" />
    <glyph glyph-name="uni0423.ss04" horiz-adv-x="1384" 
d="M571 0v551l-561 883h273l467 -748l467 748h159l-559 -885v-549h-246z" />
    <glyph glyph-name="uni040E.ss04" horiz-adv-x="1384" 
d="M698 1569q-171 0 -275 101t-104 263v17h107v-15q0 -96 71 -150t201 -54q131 0 203 54t72 150v15h106v-17q0 -162 -105 -263t-276 -101zM571 0v551l-561 883h273l467 -748l467 748h159l-559 -885v-549h-246z" />
    <glyph glyph-name="uni0491.ss01" horiz-adv-x="950" 
d="M184 0v1024h547v236h191v-359h-523v-901h-215z" />
    <glyph glyph-name="uni0436.ss01" horiz-adv-x="1689" 
d="M43 0l381 592l-342 432h143l365 -451h147v451h215v-451h148l366 451h142l-340 -432l381 -592h-244l-305 453h-148v-453h-215v453h-147l-305 -453h-242z" />
    <glyph glyph-name="uni043A.ss01" horiz-adv-x="1173" 
d="M184 0v1024h215v-451h148l393 451h141l-372 -434l430 -590h-250l-346 453h-144v-453h-215z" />
    <glyph glyph-name="uni043D.ss02" horiz-adv-x="1314" 
d="M184 0v1024h213l607 -735v735h126v-1040h-135l-684 821v-805h-127z" />
    <glyph glyph-name="uni0437.ss03" horiz-adv-x="1046" 
d="M803 -252v252h-733v100l639 807h-605v117h871v-98l-639 -807h657v-371h-190z" />
    <glyph glyph-name="uni0441.ss03" horiz-adv-x="978" 
d="M92 0v96l246 416l-246 416v96h807v-117h-559l227 -395l-225 -393h594v-119h-844z" />
    <glyph glyph-name="uni0442.ss03" horiz-adv-x="1843" 
d="M184 0v1024h1475v-1024h-215v907h-414v-907h-215v907h-416v-907h-215z" />
    <glyph glyph-name="uni0443.ss04" horiz-adv-x="1124" 
d="M457 -410v453l-437 981h232l360 -840l361 840h133l-434 -985v-449h-215z" />
    <glyph glyph-name="uni045E.ss04" horiz-adv-x="1124" 
d="M573 1159q-171 0 -274.5 101.5t-103.5 263.5v16h106v-14q0 -96 71 -150.5t201 -54.5q131 0 203 54.5t72 150.5v14h106v-16q0 -162 -105 -263.5t-276 -101.5zM457 -410v453l-437 981h232l360 -840l361 840h133l-434 -985v-449h-215z" />
    <glyph glyph-name="uni04220410.dlig" horiz-adv-x="1480" 
d="M31 0l592 987v313h-541v134h1325v-134h-539v-331l580 -969h-162l-156 272h-671l-158 -272h-270zM522 381h545l-272 469z" />
    <glyph glyph-name="uni04420430.dlig" horiz-adv-x="1243" 
d="M428 -23q-164 0 -253 71t-89 192q0 261 492 295q136 10 204 37t68 83q0 106 -74 169t-192 63q-123 0 -208 -68.5t-108 -185.5h-121q23 145 119.5 234t241.5 108v360h-404v119h1000v-119h-381v-356q154 -27 243 -128.5t89 -256.5v-477h131v-119h-330v215
q-56 -110 -169.5 -173t-258.5 -63zM496 94q149 0 253.5 99.5t104.5 246.5v92q-56 -45 -221 -61q-172 -19 -250 -68.5t-78 -142.5q0 -80 51 -123t140 -43z" />
    <glyph glyph-name="zero.lf" horiz-adv-x="1484" 
d="M737 -31q-180 0 -323 96t-223 267t-80 385q0 215 80 386t223 266t323 95q136 0 253 -56t199.5 -154t129.5 -237t47 -300q0 -214 -80 -385t-224 -267t-325 -96zM737 96q174 0 283.5 172.5t109.5 448.5q0 277 -109.5 449.5t-283.5 172.5t-282.5 -172t-108.5 -450
q0 -276 109 -448.5t282 -172.5z" />
    <glyph glyph-name="one.lf" horiz-adv-x="845" 
d="M373 0v1221l-324 -215v153l402 275h151v-1434h-229z" />
    <glyph glyph-name="two.lf" horiz-adv-x="1292" 
d="M94 0v115l561 381q118 82 183 178q-96 -83 -244 -80q-234 9 -376 129t-142 299q0 190 158 316t413 126q251 0 412.5 -124t161.5 -320q0 -284 -437 -567l-364 -244h825v-209h-1151zM647 686q157 0 251.5 88.5t94.5 224.5q0 161 -96 255t-250 94q-152 0 -248 -92t-96 -240
q0 -146 96 -238t248 -92z" />
    <glyph glyph-name="three.lf" horiz-adv-x="1196" 
d="M582 -29q-234 0 -384.5 130t-158.5 333h137q7 -146 112.5 -237t264.5 -91q160 0 257 96t97 242q0 135 -77.5 221.5t-204.5 86.5q-117 0 -201 -64l-23 -16l-71 88l516 467h-764v207h1036v-123l-545 -500q71 35 156 35q183 -11 297.5 -122.5t114.5 -287.5
q0 -202 -154.5 -333.5t-404.5 -131.5z" />
    <glyph glyph-name="four.lf" horiz-adv-x="1312" 
d="M805 0v354h-780v117l768 963h237v-893h275v-187h-275v-354h-225zM219 541h586v721z" />
    <glyph glyph-name="five.lf" horiz-adv-x="1275" 
d="M629 -29q-235 0 -386.5 120t-166.5 315h139q13 -132 116.5 -213.5t256.5 -81.5q166 0 268 101t102 261q0 151 -97.5 247.5t-256.5 96.5q-121 0 -214 -50.5t-134 -139.5l-129 2l115 805h884v-203h-784l-68 -451q65 71 165.5 109.5t224.5 38.5q231 0 379.5 -125t148.5 -334
q0 -220 -157 -359t-406 -139z" />
    <glyph glyph-name="six.lf" horiz-adv-x="1398" 
d="M735 -31q-187 0 -329.5 98t-217.5 267t-75 383q0 216 77 385.5t221.5 265.5t333.5 96q207 0 349.5 -110.5t169.5 -284.5h-148q-23 116 -120 187t-234 71q-91 0 -167 -36.5t-134 -107t-90.5 -183.5t-32.5 -257q0 -49 6 -98q44 134 166 211.5t289 77.5q221 0 366.5 -133.5
t145.5 -341.5q0 -97 -41 -185.5t-114 -156t-182.5 -108t-238.5 -40.5zM733 88q147 0 245.5 107t98.5 262q0 158 -95.5 259t-246.5 101q-149 0 -249 -91t-105 -226q0 -103 43 -196.5t125.5 -154.5t183.5 -61z" />
    <glyph glyph-name="seven.lf" horiz-adv-x="1200" 
d="M373 0q38 324 208.5 654t399.5 569h-944v211h1143v-123q-228 -245 -384.5 -598.5t-183.5 -712.5h-239z" />
    <glyph glyph-name="eight.lf" horiz-adv-x="1402" 
d="M702 -31q-264 0 -433 114t-169 292q0 129 94 223t267 135q-145 37 -233.5 130t-88.5 208q0 170 158 279.5t405 109.5t405.5 -109.5t158.5 -279.5q0 -115 -88.5 -208t-233.5 -130q173 -41 267 -135t94 -223q0 -178 -169.5 -292t-433.5 -114zM702 780q152 0 249.5 80
t97.5 205q0 126 -97 205.5t-250 79.5q-154 0 -250 -79.5t-96 -205.5q0 -125 96.5 -205t249.5 -80zM702 82q161 0 264 83.5t103 215.5q0 130 -103 213.5t-264 83.5t-263.5 -83t-102.5 -214q0 -132 102.5 -215.5t263.5 -83.5z" />
    <glyph glyph-name="nine.lf" horiz-adv-x="1398" 
d="M664 1464q140 0 257.5 -56.5t197 -156t123.5 -237t44 -297.5q0 -216 -77 -385.5t-222 -266t-334 -96.5q-207 0 -349 111t-169 285h148q23 -116 120 -187.5t234 -71.5q91 0 167 36.5t134 107t90.5 183.5t32.5 257q0 48 -6 98q-44 -134 -166 -211t-289 -77
q-221 0 -366.5 133.5t-145.5 341.5q0 97 41 185.5t114 156t182.5 107.5t238.5 40zM666 1346q-147 0 -245.5 -107t-98.5 -262q0 -158 95.5 -259.5t246.5 -101.5q149 0 249 91.5t105 226.5q0 103 -43 196.5t-125.5 154.5t-183.5 61z" />
    <glyph glyph-name="zero.osf" horiz-adv-x="1454" 
d="M727 -31q-179 0 -322 83t-224 230.5t-81 331.5q0 138 47.5 258t130 205t199 134t250.5 49q135 0 252 -49t199.5 -134t130 -205t47.5 -258q0 -184 -80.5 -331.5t-224.5 -230.5t-324 -83zM727 96q173 0 283 144.5t110 373.5q0 230 -110 375.5t-283 145.5
q-172 0 -281.5 -145.5t-109.5 -375.5q0 -228 109.5 -373t281.5 -145z" />
    <glyph glyph-name="one.osf" horiz-adv-x="872" 
d="M403 0v1016l-323 -215v153l401 275h150v-1229h-228z" />
    <glyph glyph-name="two.osf" horiz-adv-x="1323" 
d="M90 0v106l547 320q58 36 96 74q-86 -26 -155 -23q-222 11 -361 116.5t-139 264.5q0 177 161.5 290.5t413.5 113.5q257 0 418.5 -112t161.5 -292q0 -73 -30 -137t-90.5 -121t-133 -104t-176.5 -101l-328 -194h799v-201h-1184zM653 547q157 0 251.5 80t94.5 204
q0 145 -96 230.5t-250 85.5q-151 0 -247.5 -85t-96.5 -218q0 -130 96.5 -213.5t247.5 -83.5z" />
    <glyph glyph-name="three.osf" horiz-adv-x="1216" 
d="M582 -29q-234 0 -384.5 130t-158.5 333h137q7 -146 112.5 -237t264.5 -91q160 0 257 96t97 242q0 135 -77.5 221.5t-204.5 86.5q-117 0 -201 -64l-23 -16l-71 88l516 467h-764v207h1036v-123l-545 -500q71 35 156 35q183 -11 297.5 -122.5t114.5 -287.5
q0 -202 -154.5 -333.5t-404.5 -131.5z" />
    <glyph glyph-name="four.osf" horiz-adv-x="1302" 
d="M799 -205v355h-781v116l768 963h238v-893h274v-186h-274v-355h-225zM213 336h586v721z" />
    <glyph glyph-name="five.osf" horiz-adv-x="1275" 
d="M625 -233q-235 0 -386.5 120t-166.5 314h139q13 -132 116.5 -213.5t256.5 -81.5q166 0 268 101t102 261q0 151 -97.5 247.5t-256.5 96.5q-121 0 -214 -50.5t-134 -139.5l-129 2l115 805h884v-203h-784l-68 -451q65 71 165 109.5t224 38.5q231 0 380 -125t149 -334
q0 -220 -157 -358.5t-406 -138.5z" />
    <glyph glyph-name="six.osf" horiz-adv-x="1398" 
d="M735 -31q-187 0 -329.5 98t-217.5 267t-75 383q0 216 77 385.5t221.5 265.5t333.5 96q207 0 349.5 -110.5t169.5 -284.5h-148q-23 116 -120 187t-234 71q-91 0 -167 -36.5t-134 -107t-90.5 -183.5t-32.5 -257q0 -49 6 -98q44 134 166 211.5t289 77.5q221 0 366.5 -133.5
t145.5 -341.5q0 -97 -41 -185.5t-114 -156t-182.5 -108t-238.5 -40.5zM733 88q147 0 245.5 107t98.5 262q0 158 -95.5 259t-246.5 101q-149 0 -249 -91t-105 -226q0 -103 43 -196.5t125.5 -154.5t183.5 -61z" />
    <glyph glyph-name="seven.osf" horiz-adv-x="1189" 
d="M367 -205q38 324 208.5 654t399.5 569h-944v211h1143v-123q-228 -245 -384.5 -598.5t-183.5 -712.5h-239z" />
    <glyph glyph-name="eight.osf" horiz-adv-x="1402" 
d="M702 -31q-264 0 -433 114t-169 292q0 129 94 223t267 135q-145 37 -233.5 130t-88.5 208q0 170 158 279.5t405 109.5t405.5 -109.5t158.5 -279.5q0 -115 -88.5 -208t-233.5 -130q173 -41 267 -135t94 -223q0 -178 -169.5 -292t-433.5 -114zM702 780q152 0 249.5 80
t97.5 205q0 126 -97 205.5t-250 79.5q-154 0 -250 -79.5t-96 -205.5q0 -125 96.5 -205t249.5 -80zM702 82q161 0 264 83.5t103 215.5q0 130 -103 213.5t-264 83.5t-263.5 -83t-102.5 -214q0 -132 102.5 -215.5t263.5 -83.5z" />
    <glyph glyph-name="nine.osf" horiz-adv-x="1398" 
d="M664 1260q187 0 329.5 -98t217.5 -267t75 -383q0 -216 -77 -385.5t-222 -266t-334 -96.5q-207 0 -349 111t-169 285h148q23 -116 120 -187t234 -71q188 0 306 149.5t118 433.5q0 49 -6 99q-44 -134 -166 -211.5t-289 -77.5q-221 0 -366.5 133.5t-145.5 341.5
q0 97 41 185.5t114 156t182.5 108t238.5 40.5zM666 1141q-147 0 -245.5 -107t-98.5 -262q0 -158 95.5 -259t246.5 -101q149 0 249 91t105 226q0 103 -43 196.5t-125.5 154.5t-183.5 61z" />
    <glyph glyph-name="zero.tf" 
d="M717 -31q-180 0 -323.5 96t-223.5 267t-80 385q0 161 47 300t129.5 237t199 154t251.5 56q136 0 253 -56t199.5 -154t129.5 -237t47 -300q0 -214 -80 -385t-224 -267t-325 -96zM717 96q174 0 283.5 172.5t109.5 448.5q0 277 -109.5 449.5t-283.5 172.5t-282.5 -172
t-108.5 -450q0 -276 109 -448.5t282 -172.5z" />
    <glyph glyph-name="one.tf" 
d="M176 0v127h447v1094l-355 -236v156l432 293h152v-1307h453v-127h-1129z" />
    <glyph glyph-name="two.tf" 
d="M158 0v115l561 381q116 81 182 178q-96 -83 -244 -80q-234 9 -376 129t-142 299q0 189 158.5 315.5t413.5 126.5q251 0 412 -124t161 -320q0 -154 -115.5 -294t-320.5 -273l-365 -244h826v-209h-1151zM711 686q157 0 251.5 88.5t94.5 224.5q0 161 -96 255t-250 94
q-152 0 -248 -92t-96 -240q0 -146 96 -238t248 -92z" />
    <glyph glyph-name="three.tf" 
d="M678 -29q-234 0 -384.5 130t-158.5 333h137q7 -146 112.5 -237t264.5 -91q160 0 257.5 96.5t97.5 241.5q0 135 -77.5 221.5t-205.5 86.5q-117 0 -201 -64l-22 -16l-72 88l516 467h-764v207h1036v-123l-544 -500q71 35 155 35q183 -11 297.5 -122.5t114.5 -287.5
q0 -202 -154.5 -333.5t-404.5 -131.5z" />
    <glyph glyph-name="four.tf" 
d="M842 0v354h-781v117l768 963h238v-893h274v-187h-274v-354h-225zM256 541h586v721z" />
    <glyph glyph-name="five.tf" 
d="M700 -29q-235 0 -386.5 120t-166.5 315h140q13 -132 116.5 -213.5t255.5 -81.5q166 0 268.5 101.5t102.5 260.5q0 151 -97.5 247.5t-256.5 96.5q-121 0 -214 -50.5t-134 -139.5l-129 2l114 805h885v-203h-784l-68 -451q65 71 165 109.5t224 38.5q231 0 380 -125t149 -334
q0 -220 -157.5 -359t-406.5 -139z" />
    <glyph glyph-name="six.tf" 
d="M745 -31q-187 0 -329.5 98t-217.5 267t-75 383q0 216 77 385.5t222 265.5t334 96q207 0 349 -110.5t169 -284.5h-148q-23 116 -120 187t-234 71q-91 0 -167 -36.5t-134 -107t-90.5 -183.5t-32.5 -257q0 -49 6 -98q44 134 166 211.5t289 77.5q221 0 366.5 -133.5
t145.5 -341.5q0 -97 -41 -185.5t-114 -156t-182.5 -108t-238.5 -40.5zM743 88q147 0 245.5 107t98.5 262q0 158 -95.5 259t-246.5 101q-149 0 -249 -91t-105 -226q0 -103 43 -196.5t125.5 -154.5t183.5 -61z" />
    <glyph glyph-name="seven.tf" 
d="M481 0q40 325 215.5 655t413.5 568h-1010v211h1198v-123q-233 -245 -391.5 -598.5t-185.5 -712.5h-240z" />
    <glyph glyph-name="eight.tf" 
d="M719 -31q-264 0 -433 114t-169 292q0 129 93.5 223t266.5 135q-145 37 -233 129.5t-88 208.5q0 170 158 279.5t405 109.5t405 -109.5t158 -279.5q0 -116 -88 -208.5t-233 -129.5q173 -41 266.5 -135t93.5 -223q0 -178 -169 -292t-433 -114zM719 780q152 0 249 80t97 205
q0 126 -97 205.5t-249 79.5q-154 0 -250 -79.5t-96 -205.5q0 -125 96.5 -205t249.5 -80zM719 82q161 0 263.5 83.5t102.5 215.5q0 131 -102.5 214t-263.5 83t-264 -83.5t-103 -213.5q0 -132 103 -215.5t264 -83.5z" />
    <glyph glyph-name="nine.tf" 
d="M674 1464q140 0 257.5 -56.5t197 -156t123.5 -237t44 -297.5q0 -216 -77 -385.5t-221.5 -266t-333.5 -96.5q-207 0 -349.5 111t-169.5 285h148q23 -116 120 -187.5t234 -71.5q91 0 167 36.5t134 107t90.5 183.5t32.5 257q0 48 -6 98q-44 -134 -166 -211t-289 -77
q-221 0 -366.5 133.5t-145.5 341.5q0 97 41 185.5t114 156t182.5 107.5t238.5 40zM676 1346q-147 0 -245.5 -107t-98.5 -262q0 -158 95.5 -259.5t246.5 -101.5q149 0 249 91.5t105 226.5q0 103 -43 196.5t-125.5 154.5t-183.5 61z" />
    <glyph glyph-name="zero.tosf" 
d="M717 -31q-179 0 -322 83t-224 230.5t-81 331.5q0 138 47.5 258t130 205t199 134t250.5 49q135 0 252 -49t199.5 -134t130 -205t47.5 -258q0 -184 -80.5 -331.5t-224.5 -230.5t-324 -83zM717 96q173 0 283 144.5t110 373.5q0 230 -110 375.5t-283 145.5
q-172 0 -281.5 -145.5t-109.5 -375.5q0 -228 109.5 -373t281.5 -145z" />
    <glyph glyph-name="one.tosf" 
d="M176 0v127h449v889l-355 -236v156l432 293h150v-1102h448v-127h-1124z" />
    <glyph glyph-name="two.tosf" 
d="M137 0v106l547 320q58 36 96 74q-86 -26 -155 -23q-222 11 -361 116.5t-139 264.5q0 177 161.5 290.5t413.5 113.5q257 0 418.5 -112t161.5 -292q0 -73 -30 -137t-90.5 -121t-133 -104t-176.5 -101l-328 -194h799v-201h-1184zM700 547q157 0 252 80t95 204
q0 144 -96.5 230t-250.5 86q-151 0 -247.5 -85t-96.5 -218q0 -130 96.5 -213.5t247.5 -83.5z" />
    <glyph glyph-name="three.tosf" 
d="M666 -29q-234 0 -384.5 130t-158.5 333h137q7 -146 112.5 -237t264.5 -91q160 0 257 96t97 242q0 135 -77.5 221.5t-204.5 86.5q-117 0 -201 -64l-23 -16l-71 88l516 467h-764v207h1036v-123l-545 -500q71 35 156 35q183 -11 297.5 -122.5t114.5 -287.5
q0 -202 -154.5 -333.5t-404.5 -131.5z" />
    <glyph glyph-name="four.tosf" 
d="M860 -205v355h-780v116l768 963h237v-893h275v-186h-275v-355h-225zM274 336h586v721z" />
    <glyph glyph-name="five.tosf" 
d="M713 -233q-235 0 -386.5 120t-166.5 314h139q13 -132 116.5 -213.5t256.5 -81.5q166 0 268 101t102 261q0 151 -97.5 247.5t-256.5 96.5q-121 0 -214 -50.5t-134 -139.5l-129 2l115 805h884v-203h-784l-68 -451q65 71 165.5 109.5t224.5 38.5q231 0 379.5 -125
t148.5 -334q0 -220 -157 -358.5t-406 -138.5z" />
    <glyph glyph-name="six.tosf" 
d="M750 -31q-187 0 -329.5 98t-218 267t-75.5 383q0 216 77 385.5t222 265.5t334 96q207 0 349 -110.5t169 -284.5h-148q-23 116 -120 187t-234 71q-91 0 -167 -36.5t-134 -107t-90.5 -183.5t-32.5 -257q0 -49 6 -98q44 134 166 211.5t289 77.5q221 0 366.5 -133.5
t145.5 -341.5q0 -97 -40.5 -185.5t-113.5 -156t-182.5 -108t-238.5 -40.5zM748 88q147 0 245.5 107t98.5 262q0 158 -95.5 259t-246.5 101q-149 0 -249.5 -91t-105.5 -226q0 -103 43.5 -196.5t126 -154.5t183.5 -61z" />
    <glyph glyph-name="seven.tosf" 
d="M498 -205q40 325 215.5 655.5t412.5 567.5h-1009v211h1198v-123q-233 -245 -392 -598.5t-186 -712.5h-239z" />
    <glyph glyph-name="eight.tosf" 
d="M729 -31q-264 0 -433 114t-169 292q0 129 93.5 223t266.5 135q-145 37 -233 129.5t-88 208.5q0 170 158 279.5t405 109.5t405 -109.5t158 -279.5q0 -116 -88 -208.5t-233 -129.5q173 -41 266.5 -135t93.5 -223q0 -178 -169 -292t-433 -114zM729 780q152 0 249 80t97 205
q0 126 -97 205.5t-249 79.5q-154 0 -250 -79.5t-96 -205.5q0 -125 96.5 -205t249.5 -80zM729 82q161 0 264 83.5t103 215.5q0 130 -103 213.5t-264 83.5t-264 -83.5t-103 -213.5q0 -132 103 -215.5t264 -83.5z" />
    <glyph glyph-name="nine.tosf" 
d="M672 1260q187 0 329.5 -98t217.5 -267t75 -383q0 -216 -77 -385.5t-221.5 -266t-333.5 -96.5q-207 0 -349.5 111t-169.5 285h148q23 -116 120 -187t234 -71q188 0 306 149.5t118 433.5q0 49 -6 99q-44 -134 -166 -211.5t-289 -77.5q-221 0 -366.5 133.5t-145.5 341.5
q0 97 41 185.5t114 156t182.5 108t238.5 40.5zM674 1141q-147 0 -245.5 -107t-98.5 -262q0 -158 95.5 -259t246.5 -101q149 0 249 91t105 226q0 103 -43 196.5t-125.5 154.5t-183.5 61z" />
    <glyph glyph-name="colon.case" horiz-adv-x="573" 
d="M287 913q-65 0 -109.5 45t-44.5 111q0 65 44.5 109.5t109.5 44.5q66 0 109.5 -44.5t43.5 -109.5q0 -66 -43.5 -111t-109.5 -45zM287 217q-65 0 -109.5 45t-44.5 111q0 64 44.5 108.5t109.5 44.5q66 0 109.5 -44t43.5 -109q0 -66 -43.5 -111t-109.5 -45z" />
    <glyph glyph-name="exclamdown.case" horiz-adv-x="655" 
d="M328 1452q65 0 109 -45t44 -111q0 -64 -44.5 -108.5t-108.5 -44.5q-66 0 -110 44t-44 109q0 66 44 111t110 45zM385 963l80 -963h-266l80 963h106z" />
    <glyph glyph-name="questiondown.case" horiz-adv-x="1150" 
d="M592 1452q66 0 109.5 -45t43.5 -111q0 -65 -43.5 -109t-109.5 -44q-65 0 -109.5 44.5t-44.5 108.5q0 66 44.5 111t109.5 45zM670 965q8 -24 8 -52q0 -109 -49.5 -179t-145.5 -134q-74 -59 -111.5 -115.5t-37.5 -140.5q0 -114 75.5 -178t196.5 -64q148 0 232.5 95
t87.5 249h139q-5 -218 -137.5 -347.5t-358.5 -129.5q-94 0 -178.5 23.5t-150.5 68t-105 115t-39 158.5q0 60 18.5 111t53 89.5t72 66.5t86.5 54q61 39 96 66t69 64t48 80.5t14 99.5h117z" />
    <glyph glyph-name="asterisk.case" horiz-adv-x="2179" 
d="M995 -80l45 512l-397 -354l-350 104l98 353h608l-753 231v354l327 84l451 -538l-258 723l324 272l323 -272l-258 -723l451 538l327 -84v-354l-753 -231h608l98 -353l-350 -104l-397 354l45 -512h-189z" />
    <glyph glyph-name="bullet.ss01" horiz-adv-x="2179" 
d="M995 -80l45 512l-397 -354l-350 104l98 353h608l-753 231v354l327 84l451 -538l-258 723l324 272l323 -272l-258 -723l451 538l327 -84v-354l-753 -231h608l98 -353l-350 -104l-397 354l45 -512h-189z" />
    <glyph glyph-name="asterisk.ss01" horiz-adv-x="702" 
d="M311 815v250l-217 -125l-41 70l217 125l-217 125l41 69l217 -125v250h82v-250l217 125l41 -69l-217 -125l217 -125l-41 -70l-217 125v-250h-82z" />
    <glyph glyph-name="parenleft.case" horiz-adv-x="1024" 
d="M797 -31q-172 0 -305 94t-206 264t-73 390q0 334 161.5 540.5t422.5 206.5v-114q-174 0 -276.5 -170.5t-102.5 -462.5q0 -291 102.5 -461t276.5 -170v-117z" />
    <glyph glyph-name="parenright.case" horiz-adv-x="1024" 
d="M229 1464q171 0 304 -93t206.5 -263.5t73.5 -390.5q0 -219 -73.5 -389.5t-206.5 -264.5t-304 -94v117q174 0 276.5 170t102.5 461q0 292 -102.5 462.5t-276.5 170.5v114z" />
    <glyph glyph-name="braceleft.case" horiz-adv-x="1024" 
d="M618 -31q-133 0 -214.5 66t-81.5 196q0 53 31.5 160.5t31.5 145.5q0 131 -127 131h-88v100h88q127 0 127 131q0 38 -31.5 150t-31.5 161q0 125 81.5 189.5t214.5 64.5q116 0 211 -28v-117q-86 27 -151 27q-77 0 -119.5 -40t-42.5 -116q0 -35 27.5 -139t27.5 -144
q0 -152 -161 -190q161 -36 161 -189q0 -40 -27.5 -143.5t-27.5 -138.5q0 -76 42.5 -116t119.5 -40q65 0 151 27v-119q-98 -29 -211 -29z" />
    <glyph glyph-name="braceright.case" horiz-adv-x="1024" 
d="M408 1464q133 0 215 -65.5t82 -196.5q0 -52 -32 -159t-32 -144q0 -131 127 -131h88v-100h-88q-127 0 -127 -131q0 -38 32 -151.5t32 -162.5q0 -124 -82.5 -189t-214.5 -65q-116 0 -211 29v119q83 -27 149 -27q78 0 120 40t42 116q0 35 -26.5 138.5t-26.5 143.5
q0 153 159 189q-159 39 -159 190q0 40 26.5 144t26.5 139q0 76 -42 116t-120 40q-66 0 -149 -27v117q92 28 211 28z" />
    <glyph glyph-name="bracketleft.case" horiz-adv-x="1024" 
d="M287 0v1434h553v-117h-359v-1198h359v-119h-553z" />
    <glyph glyph-name="bracketright.case" horiz-adv-x="1024" 
d="M737 1434v-1434h-553v119h359v1198h-359v117h553z" />
    <glyph glyph-name="hyphen.case" horiz-adv-x="829" 
d="M154 649v137h522v-137h-522z" />
    <glyph glyph-name="endash.case" horiz-adv-x="1126" 
d="M154 659v117h819v-117h-819z" />
    <glyph glyph-name="emdash.case" horiz-adv-x="1501" 
d="M154 659v117h1194v-117h-1194z" />
    <glyph glyph-name="guillemotleft.case" horiz-adv-x="1062" 
d="M510 1126l-223 -409l223 -410h-139l-217 398v24l217 397h139zM909 1126l-223 -409l223 -410h-139l-217 398v24l217 397h139z" />
    <glyph glyph-name="guillemotright.case" horiz-adv-x="1062" 
d="M154 307l223 410l-223 409h139l217 -397v-24l-217 -398h-139zM553 307l223 410l-223 409h139l217 -397v-24l-217 -398h-139z" />
    <glyph glyph-name="guilsinglleft.case" horiz-adv-x="663" 
d="M510 1126l-223 -409l223 -410h-139l-217 398v24l217 397h139z" />
    <glyph glyph-name="guilsinglright.case" horiz-adv-x="663" 
d="M154 307l223 410l-223 409h139l217 -397v-24l-217 -398h-139z" />
    <glyph glyph-name="at.case" horiz-adv-x="1679" 
d="M840 -31q-208 0 -379.5 98.5t-270 270t-98.5 379.5t98.5 379.5t270 269.5t379.5 98q156 0 294.5 -58t237.5 -157t157 -237.5t58 -294.5q0 -231 -114 -406h-420v183q-44 -95 -136.5 -148t-211.5 -53q-128 0 -202.5 60t-74.5 159q0 118 99.5 179.5t316.5 74.5
q113 9 159 34.5t46 76.5q0 82 -59.5 133t-153.5 51q-100 0 -168.5 -56.5t-85.5 -154.5h-105q20 144 121.5 226.5t255.5 82.5q164 0 264.5 -91.5t100.5 -246.5v-409h219q75 138 75 305q0 141 -52 266t-141.5 214.5t-214 141.5t-265.5 52q-187 0 -341 -88.5t-242.5 -243
t-88.5 -342.5q0 -187 88.5 -341t242.5 -242.5t341 -88.5q277 0 471 178l49 -53q-210 -201 -520 -201zM764 391q116 0 201.5 86.5t85.5 204.5v74q-56 -42 -181 -54q-136 -13 -199 -55t-63 -119q0 -66 41 -101.5t115 -35.5z" />
    <glyph glyph-name="bar.case" horiz-adv-x="692" 
d="M287 0v1434h119v-1434h-119z" />
    <glyph glyph-name="brokenbar.case" horiz-adv-x="692" 
d="M287 860v574h119v-574h-119zM287 0v573h119v-573h-119z" />
    <glyph glyph-name="ampersand.ss02" horiz-adv-x="1249" 
d="M639 -20q-237 0 -391 142t-154 363q0 189 118.5 325t305.5 169v356h-393v119h999v-119h-391v-354q196 -23 321 -160t126 -334q0 -24 -2 -38h-869q10 -162 109 -259.5t252 -97.5q116 0 202.5 54t120.5 145h140q-36 -137 -169.5 -224t-324.5 -87zM311 532h656
q-10 167 -101 266t-227 99t-227.5 -98.5t-100.5 -255.5v-11z" />
    <glyph glyph-name="uni030C.alt" horiz-adv-x="0" 
d="M-481 1106v328h194l-88 -328h-106z" />
    <glyph glyph-name="uni0308.cv01" horiz-adv-x="0" 
d="M-778 1157l-117 369h252l-117 -369h-18zM-469 1157l-115 369h250l-117 -369h-18z" />
    <glyph glyph-name="uni0307.cv01" horiz-adv-x="0" 
d="M-625 1157l-123 369h267l-123 -369h-21z" />
    <glyph glyph-name="brevecombcy" horiz-adv-x="0" 
d="M-614 1159q-171 0 -275 101.5t-104 263.5v16h106v-14q0 -96 71.5 -150.5t201.5 -54.5q131 0 202.5 54.5t71.5 150.5v14h107v-16q0 -162 -105 -263.5t-276 -101.5z" />
    </font>
</defs>
</svg>
