<svg width="22" height="22" viewBox="0 0 22 22" fill="none" xmlns="http://www.w3.org/2000/svg">
<path d="M20.8881 15.926V18.926C20.8892 19.2045 20.8322 19.4801 20.7206 19.7353C20.6091 19.9905 20.4454 20.2195 20.2402 20.4078C20.035 20.5961 19.7927 20.7394 19.5289 20.8287C19.265 20.9179 18.9855 20.951 18.7081 20.926C15.631 20.5916 12.6751 19.5401 10.0781 17.856C7.66194 16.3206 5.61345 14.2721 4.07812 11.856C2.38809 9.24716 1.33636 6.27695 1.00812 3.18596C0.983127 2.90942 1.01599 2.63072 1.10462 2.36758C1.19324 2.10444 1.33569 1.86265 1.52288 1.65758C1.71008 1.45251 1.93792 1.28867 2.19191 1.17648C2.44589 1.06429 2.72046 1.00622 2.99812 1.00596H5.99812C6.48342 1.00118 6.95391 1.17303 7.32188 1.48949C7.68985 1.80594 7.93019 2.2454 7.99812 2.72596C8.12474 3.68602 8.35957 4.62868 8.69812 5.53596C8.83266 5.89388 8.86178 6.28287 8.78202 6.65684C8.70227 7.0308 8.51698 7.37407 8.24812 7.64596L6.97812 8.91596C8.40167 11.4195 10.4746 13.4924 12.9781 14.916L14.2481 13.646C14.52 13.3771 14.8633 13.1918 15.2372 13.1121C15.6112 13.0323 16.0002 13.0614 16.3581 13.196C17.2654 13.5345 18.2081 13.7693 19.1681 13.896C19.6539 13.9645 20.0975 14.2092 20.4146 14.5835C20.7318 14.9577 20.9003 15.4355 20.8881 15.926Z" stroke="black" stroke-width="1.5" stroke-linecap="round" stroke-linejoin="round"/>
</svg>
