<svg width="29" height="28" viewBox="0 0 29 28" fill="none" xmlns="http://www.w3.org/2000/svg">
<path d="M21.2368 1.17578H8.41228C4.87088 1.17578 2 4.04666 2 7.58806V20.4126C2 23.954 4.87088 26.8249 8.41228 26.8249H21.2368C24.7782 26.8249 27.6491 23.954 27.6491 20.4126V7.58806C27.6491 4.04666 24.7782 1.17578 21.2368 1.17578Z" stroke="black" stroke-width="2.08772" stroke-linecap="round" stroke-linejoin="round"/>
<path d="M19.9543 13.1928C20.1126 14.2601 19.9303 15.3502 19.4333 16.3079C18.9364 17.2656 18.1501 18.0423 17.1863 18.5274C16.2225 19.0125 15.1303 19.1814 14.065 19.0099C12.9997 18.8385 12.0156 18.3356 11.2526 17.5726C10.4897 16.8096 9.9867 15.8255 9.81528 14.7602C9.64386 13.6949 9.81271 12.6027 10.2978 11.6389C10.7829 10.6752 11.5596 9.88886 12.5173 9.39191C13.475 8.89496 14.5651 8.71265 15.6324 8.87092C16.7211 9.03236 17.729 9.53968 18.5073 10.3179C19.2855 11.0962 19.7928 12.1041 19.9543 13.1928Z" stroke="black" stroke-width="2.08772" stroke-linecap="round" stroke-linejoin="round"/>
<path d="M21.8781 6.94629H21.8917" stroke="black" stroke-width="2.08772" stroke-linecap="round" stroke-linejoin="round"/>
</svg>
